<svg xmlns="http://www.w3.org/2000/svg" width="200" height="200" viewBox="0 0 200 200" fill="none"><rect x="0.5" y="0.5" width="199" height="199" rx="11.5" stroke="#E2E8F0"></rect><path fill-rule="evenodd" clip-rule="evenodd" d="M43.7205 105.773H61.9103C71.9155 105.773 80.1012 97.5876 80.1012 87.5835C80.1012 77.5784 71.9155 69.3937 61.9103 69.3937C51.9062 69.3937 43.7205 77.5784 43.7205 87.5835V105.773ZM59.3919 87.1263C61.0227 87.1263 62.347 85.8041 62.347 84.1723C62.347 82.5425 61.0227 81.2202 59.3919 81.2202C57.7632 81.2202 56.4388 82.5425 56.4388 84.1723C56.4388 85.8041 57.7632 87.1263 59.3919 87.1263ZM54.6112 83.7705C54.7896 81.2561 56.9247 79.3557 59.3704 79.3404L58.6846 77.0208C58.5227 76.4857 58.8005 75.925 59.3058 75.7129L58.7574 73.9047L57.9374 74.1487C57.552 74.2614 57.0774 73.8084 56.9616 73.425C56.8478 73.0396 57.0016 72.401 57.3849 72.2893L62.7683 70.6924C63.1537 70.5776 63.6293 71.0286 63.7441 71.414C63.8568 71.7983 63.7062 72.4369 63.3197 72.5517L62.4946 72.7977L63.0256 74.612C63.5637 74.5156 64.1008 74.8303 64.2617 75.3715L68.8035 90.6934L69.2064 91.9603L68.7523 92.1048L68.9798 92.8192L68.3751 93.0119L68.8722 94.5495C69.0526 95.1358 68.7256 95.759 68.1373 95.9394L66.898 96.3217C66.3107 96.5031 65.6885 96.1731 65.5081 95.5868L65.0192 94.079L64.5467 94.2297L64.3181 93.5132L63.6877 93.7131L62.0149 88.2333C61.1539 88.791 60.1104 89.08 59.0075 88.9919C57.39 88.8617 55.9684 87.851 55.1924 86.5564C52.4813 88.3943 50.709 91.5308 50.709 94.9882C50.709 99.8744 54.1684 103.965 58.7666 104.956H52.7642C49.8747 102.592 48.0245 99.0042 48.0245 94.9882C48.0245 90.1983 50.6967 85.9435 54.6112 83.7705Z" fill="#5FC2BA"></path><path fill-rule="evenodd" clip-rule="evenodd" d="M41.131 105.773H27.566C20.105 105.773 14 99.6684 14 92.2073C14 84.7473 20.105 78.6423 27.566 78.6423C35.026 78.6423 41.131 84.7473 41.131 92.2073V105.773ZM22.2513 100.993C22.6193 100.993 22.9186 101.292 22.9186 101.66C22.9186 102.029 22.6193 102.327 22.2513 102.327C21.8823 102.327 21.583 102.029 21.583 101.66C21.583 101.292 21.8823 100.993 22.2513 100.993ZM28.138 90.4843C28.9795 90.4843 29.6611 91.1659 29.6611 92.0074C29.6611 92.849 28.9795 93.5306 28.138 93.5306C27.2975 93.5306 26.6148 92.849 26.6148 92.0074C26.6148 91.1659 27.2975 90.4843 28.138 90.4843ZM33.7519 81.4816C34.1209 81.4816 34.4192 81.7809 34.4192 82.1489C34.4192 82.5179 34.1209 82.8162 33.7519 82.8162C33.3829 82.8162 33.0847 82.5179 33.0847 82.1489C33.0847 81.7809 33.3829 81.4816 33.7519 81.4816ZM33.92 84.1712L27.9299 82.9166C28.3112 82.6583 28.7273 82.4338 29.163 82.2381C29.9286 81.8937 30.7497 81.6395 31.5687 81.4611C31.9233 81.3842 32.3067 81.3104 32.6675 81.2735C33.0057 81.2387 33.2528 80.9353 33.2179 80.597C33.1841 80.2598 32.8797 80.0128 32.5424 80.0476C32.1345 80.0886 31.707 80.1706 31.3073 80.2578C30.4032 80.4535 29.5012 80.7344 28.6576 81.1136C26.3811 82.1376 24.6293 83.8658 24.6293 86.5134C24.6293 87.6009 25.1234 88.7069 25.6431 89.6407C25.8665 90.0415 26.1064 90.4351 26.3565 90.8236C26.5892 90.474 26.9213 90.1973 27.3128 90.0333C27.1058 89.7073 26.9069 89.3762 26.7204 89.0421C26.5297 88.6987 26.3278 88.3051 26.1679 87.8961L30.3592 89.8416C30.351 89.9 30.3458 89.9605 30.3458 90.022C30.3458 90.6934 30.8901 91.2366 31.5615 91.2366C32.2329 91.2366 32.7761 90.6934 32.7761 90.022C32.7761 89.3506 32.2329 88.8063 31.5615 88.8063C31.1648 88.8063 30.8132 88.997 30.5908 89.2901L25.8993 86.9582C25.8758 86.8086 25.8624 86.6589 25.8624 86.5134C25.8624 86.0224 25.9403 85.5745 26.0828 85.1665L33.6669 87.8592V87.8654C33.6669 88.4045 34.1035 88.8412 34.6416 88.8412C35.1808 88.8412 35.6175 88.4045 35.6175 87.8654C35.6175 87.3272 35.1808 86.8906 34.6416 86.8906C34.3085 86.8906 34.0143 87.0566 33.8391 87.3119L26.3534 84.5638C26.6127 84.0964 26.9633 83.6895 27.3784 83.3348L33.6341 84.8703C33.6597 85.3285 34.04 85.6924 34.5053 85.6924C34.9871 85.6924 35.3776 85.3008 35.3776 84.819C35.3776 84.3373 34.9871 83.9468 34.5053 83.9468C34.2798 83.9468 34.0748 84.0318 33.92 84.1712ZM30.149 97.5948L25.6687 94.1456C25.7271 94.0031 25.7589 93.8484 25.7589 93.6844C25.7589 93.014 25.2157 92.4697 24.5443 92.4697C23.8729 92.4697 23.3286 93.014 23.3286 93.6844C23.3286 94.3557 23.8729 94.9 24.5443 94.9C24.8415 94.9 25.1152 94.7924 25.3264 94.6151L30.1931 98.508C30.188 98.5603 30.1818 98.6126 30.1726 98.6638C30.0814 99.2317 29.7974 99.7237 29.3915 100.149L22.3825 96.0152C22.3969 95.9476 22.4051 95.8779 22.4051 95.8071C22.4051 95.268 21.9684 94.8313 21.4293 94.8313C20.8901 94.8313 20.4535 95.268 20.4535 95.8071C20.4535 96.3453 20.8901 96.7819 21.4293 96.7819C21.6783 96.7819 21.9059 96.6887 22.0781 96.5349L28.877 100.608C28.3973 100.978 27.8264 101.289 27.2277 101.549L22.4861 99.08C22.5004 99.0185 22.5076 98.9539 22.5076 98.8873C22.5076 98.4055 22.1171 98.015 21.6343 98.015C21.1525 98.015 20.762 98.4055 20.762 98.8873C20.762 99.3701 21.1525 99.7606 21.6343 99.7606C21.8741 99.7606 22.0904 99.6643 22.2483 99.5085L26.4139 101.87C25.4842 102.202 24.5607 102.429 23.878 102.582C23.5469 102.657 23.3378 102.987 23.4127 103.318C23.4875 103.649 23.8186 103.859 24.1486 103.785C26.746 103.198 30.885 101.983 31.3893 98.8607C31.6753 97.0905 30.6872 95.1501 29.6509 93.5203C29.3598 93.8115 28.9836 94.0195 28.5633 94.1046C29.247 95.1727 29.9471 96.4386 30.149 97.5948Z" fill="#8F3E94"></path><path fill-rule="evenodd" clip-rule="evenodd" d="M41.131 108.61H29.2922C22.7803 108.61 17.4533 113.938 17.4533 120.448C17.4533 126.96 22.7803 132.287 29.2922 132.287C35.803 132.287 41.131 126.96 41.131 120.448V108.61ZM32.8982 109.47L39.8006 114.572C39.9 114.646 39.9215 114.788 39.8477 114.889L39.2071 115.755C39.1333 115.854 38.9918 115.876 38.8914 115.802L38.1923 115.286L28.2969 128.672C27.1776 130.186 25.023 130.509 23.5091 129.39C21.9951 128.27 21.6722 126.116 22.7916 124.602L32.687 111.215L31.989 110.7C31.8885 110.625 31.867 110.483 31.9418 110.383L32.5814 109.517C32.6552 109.417 32.7977 109.396 32.8982 109.47ZM31.2018 117.713C31.1136 117.832 30.9435 117.857 30.8246 117.769L29.3229 116.659L23.2426 124.883C22.2975 126.162 22.5702 127.983 23.8494 128.929C25.1296 129.876 26.95 129.602 27.8961 128.323L37.7157 115.04L33.0622 111.6L32.1325 112.858L33.6341 113.968C33.754 114.057 33.7786 114.227 33.6915 114.346C33.6034 114.464 33.4332 114.49 33.3143 114.402L31.8116 113.292L30.8922 114.535L32.3949 115.645C32.5138 115.733 32.5394 115.903 32.4512 116.023C32.3631 116.141 32.194 116.167 32.0751 116.079L30.5724 114.968L29.6427 116.225L31.1454 117.337C31.2643 117.425 31.2899 117.594 31.2018 117.713ZM36.6927 114.889C36.8116 114.977 36.8362 115.147 36.7491 115.266L32.9884 120.352C32.9002 120.471 32.7311 120.497 32.6122 120.409C32.4922 120.32 32.4676 120.151 32.5558 120.032L36.3155 114.946C36.4037 114.826 36.5728 114.802 36.6927 114.889ZM30.9168 121.122C31.0367 121.21 31.0624 121.38 30.9742 121.499L26.6251 127.382C26.5369 127.501 26.3678 127.526 26.2479 127.438C26.129 127.35 26.1034 127.181 26.1915 127.062L30.5406 121.179C30.6288 121.059 30.7979 121.035 30.9168 121.122ZM28.8965 118.316L32.5158 120.993L27.3262 128.012C26.5913 129.006 25.1757 129.217 24.1804 128.481C23.1852 127.746 22.972 126.33 23.7069 125.337L28.8965 118.316ZM28.9529 118.826L32.0115 121.087L27.0628 127.782C26.4416 128.622 25.2454 128.801 24.4039 128.179C23.5624 127.557 23.383 126.361 24.0041 125.521L28.9529 118.826ZM32.9371 110.088L39.1989 114.716C39.2368 114.744 39.244 114.799 39.2163 114.837L38.9724 115.167C38.9447 115.205 38.8904 115.213 38.8524 115.184L32.5906 110.555C32.5527 110.527 32.5445 110.473 32.5732 110.435L32.8172 110.105C32.8449 110.067 32.8992 110.059 32.9371 110.088Z" fill="#EB495F"></path><path d="M51.8472 107.985H49.8586V110.035H51.8472V107.985Z" fill="#8F3E94"></path><path d="M54.5544 107.985H52.5669V110.035H54.5544V107.985Z" fill="#8F3E94"></path><path d="M62.2325 120.13H60.245V122.18H62.2325V120.13Z" fill="#8F3E94"></path><path d="M59.7388 120.13H57.7349V122.18H59.7388V120.13Z" fill="#8F3E94"></path><path d="M64.9704 122.532H66.9589V120.482H64.9704V122.532Z" fill="#8F3E94"></path><path d="M78.5378 116.597H73.3215L74.1026 114.088C74.1784 113.996 74.2707 113.905 74.3619 113.828C74.4388 113.782 74.53 113.767 74.6069 113.767H77.9566C78.3082 113.767 78.5378 113.996 78.5378 114.349V116.597ZM52.9177 116.597H50.226V114.349C50.226 114.088 50.2865 113.935 50.5468 113.828C50.6237 113.782 50.7149 113.767 50.8072 113.767H52.9177V116.597ZM86.783 107.985H84.4726V116.535H82.3467V116.597H80.8482V114.349C80.8482 113.966 80.7559 113.598 80.5878 113.247C80.3275 112.573 79.7924 112.054 79.1046 111.702C78.7213 111.579 78.3389 111.519 77.9566 111.519H74.6069C74.1784 111.519 73.7807 111.625 73.3984 111.84C73.261 111.886 73.138 111.946 73.0007 112.023V107.985H70.7518V116.597H69.2533H68.6413H67.1889V111.519H64.8785V116.597H63.3041H62.6911H61.2387V111.519H58.9283V116.597H57.3539H56.741H55.1665V111.457H50.8072C50.4248 111.457 50.0579 111.549 49.7053 111.718C49.3691 111.84 49.0626 112.038 48.8033 112.299C48.5429 112.589 48.3287 112.911 48.1606 113.262C48.0386 113.598 47.9781 113.966 47.9781 114.349V118.845H56.741H57.3539H62.6911H63.3041H68.6413H69.2533H82.3467H82.9576H86.783V107.985Z" fill="#8F3E94"></path><path d="M90.2543 107.985H88.0065V118.845H90.2543V107.985Z" fill="#8F3E94"></path><path d="M108.701 120.13H106.713V122.18H108.701V120.13Z" fill="#8F3E94"></path><path d="M106.192 120.13H104.205V122.18H106.192V120.13Z" fill="#8F3E94"></path><path d="M103.99 118.845H108.702V111.519H106.391V116.596H103.99H103.378H101.818V114.349C101.818 113.966 101.756 113.598 101.619 113.247C101.267 112.573 100.763 112.023 100.074 111.778C99.692 111.61 99.3097 111.519 98.9273 111.519H95.5766V113.766H98.9273C99.0493 113.766 99.1559 113.783 99.2482 113.828C99.4163 113.997 99.57 114.165 99.57 114.349V116.596H94.9349V118.845H103.378H103.99Z" fill="#8F3E94"></path><path d="M112.555 121.798C112.907 121.675 113.198 121.46 113.457 121.155C113.718 120.895 113.932 120.605 114.1 120.253C114.223 119.916 114.284 119.549 114.284 119.166V111.457H112.034V119.166C112.034 119.243 112.02 119.35 111.974 119.488C111.897 119.656 111.714 119.748 111.469 119.748H109.925V122.057H111.469C111.851 122.057 112.203 121.966 112.555 121.798Z" fill="#8F3E94"></path><path d="M120.524 116.597H117.756V114.349C117.756 114.21 117.802 114.104 117.879 114.027C117.985 113.859 118.138 113.767 118.398 113.767H119.882C120.127 113.767 120.28 113.859 120.448 114.027C120.495 114.104 120.524 114.21 120.524 114.349V116.597ZM121.932 112.299C121.671 112.038 121.381 111.84 121.03 111.718C120.647 111.549 120.264 111.457 119.882 111.457H118.398C118.016 111.457 117.618 111.549 117.236 111.718C116.563 111.963 116.012 112.573 115.767 113.262C115.599 113.598 115.507 113.966 115.507 114.349V118.845H120.524V119.228C120.524 119.396 120.463 119.533 120.326 119.61C120.188 119.747 120.066 119.809 119.944 119.809H118.2V122.058H119.944C120.326 122.058 120.692 121.996 121.03 121.859C121.717 121.568 122.222 121.048 122.574 120.33C122.712 119.977 122.773 119.61 122.773 119.228V114.349C122.773 113.966 122.712 113.598 122.574 113.262C122.406 112.911 122.192 112.589 121.932 112.299Z" fill="#8F3E94"></path><path d="M135.438 108.688H133.434V110.738H135.438V108.688Z" fill="#8F3E94"></path><path d="M137.87 108.688H135.882V110.738H137.87V108.688Z" fill="#8F3E94"></path><path d="M131.262 118.845H141.28V111.519H138.971V116.596H131.966H131.063C129.426 116.413 129.289 113.997 131.001 113.828C131.047 113.828 131.384 113.812 132.026 113.766V111.58C130.818 111.412 129.839 111.594 129.074 112.161C126.153 114.226 127.483 118.845 131.262 118.845Z" fill="#8F3E94"></path><path d="M144.752 107.985H142.504V118.845H144.752V107.985Z" fill="#8F3E94"></path><path d="M156.178 120.482H154.19V122.532H156.178V120.482Z" fill="#8F3E94"></path><path d="M163.29 107.985H161.303V110.035H163.29V107.985Z" fill="#8F3E94"></path><path d="M160.798 107.985H158.794V110.035H160.798V107.985Z" fill="#8F3E94"></path><path d="M170.143 107.985H168.155V110.035H170.143V107.985Z" fill="#8F3E94"></path><path d="M182.334 116.597H179.641V114.349C179.641 114.21 179.657 114.104 179.703 114.027C179.871 113.859 180.024 113.767 180.284 113.767H182.334V116.597ZM184.643 111.457H180.284C179.855 111.457 179.473 111.549 179.122 111.718C178.769 111.84 178.479 112.038 178.219 112.299C177.958 112.589 177.744 112.911 177.576 113.262C177.454 113.598 177.393 113.966 177.393 114.349V116.597H175.818H175.206H173.631V114.349C173.631 113.966 173.569 113.598 173.447 113.247C173.095 112.573 172.575 112.023 171.901 111.778C171.55 111.61 171.183 111.519 170.801 111.519H166.885L165.92 113.767H170.801C170.893 113.767 170.985 113.782 171.061 113.828C171.153 113.905 171.244 113.996 171.321 114.088C171.367 114.164 171.382 114.257 171.382 114.349V116.597H164.422H163.811H162.358V111.519H160.048V116.597H158.473H157.861H156.407V111.519H154.098V116.597H152.523H151.911H150.335V111.457H148.086V119.166C148.086 119.243 148.071 119.351 148.025 119.488C147.949 119.656 147.764 119.747 147.521 119.747H145.976V122.058H147.521C147.903 122.058 148.254 121.966 148.607 121.798C148.958 121.676 149.25 121.461 149.509 121.155C149.768 120.894 149.983 120.604 150.152 120.253C150.275 119.916 150.335 119.549 150.335 119.166V118.845H151.911H152.523H157.861H158.473H163.811H164.422H175.206H175.818H184.643V111.457Z" fill="#8F3E94"></path><path d="M53.424 129.372L52.4349 125.43H51.0798L50.0487 129.306L49.1979 125.43H48.0314L49.3793 131.073H50.6145L51.7348 126.854L52.8582 131.073H54.0667L55.4371 125.43H54.2901L53.424 129.372Z" fill="#5FC2BA"></path><path d="M57.469 128.841L58.2316 126.747L59.0085 128.841H57.469ZM57.6422 125.43L55.4446 131.073H56.6531L57.1184 129.791H59.3745L59.8675 131.073H61.1067L58.8476 125.43H57.6422Z" fill="#5FC2BA"></path><path d="M63.6973 127.817H62.8547V126.385H63.7434C64.2047 126.385 64.4824 126.391 64.5737 126.404C64.7592 126.435 64.9027 126.509 65.0031 126.625C65.1046 126.742 65.1559 126.896 65.1559 127.086C65.1559 127.255 65.1179 127.395 65.0411 127.509C64.9632 127.622 64.8566 127.701 64.7213 127.748C64.5849 127.794 64.2436 127.817 63.6973 127.817ZM65.45 129.056C65.2901 128.885 65.0862 128.727 64.8402 128.582C65.3352 128.51 65.7073 128.337 65.9564 128.06C66.2044 127.785 66.3295 127.435 66.3295 127.012C66.3295 126.679 66.2475 126.383 66.0835 126.123C65.9195 125.864 65.7001 125.683 65.4265 125.582C65.1538 125.481 64.7151 125.43 64.1124 125.43H61.7149V131.073H62.8547V128.718H63.0843C63.3467 128.718 63.5384 128.738 63.6583 128.78C63.7793 128.823 63.8931 128.902 64.0017 129.016C64.1083 129.13 64.3092 129.406 64.6013 129.845L65.4254 131.073H66.7877L66.0989 129.972C65.8262 129.533 65.6099 129.228 65.45 129.056Z" fill="#5FC2BA"></path><path d="M68.543 128.586H71.3761V127.636H68.543V126.385H71.5873V125.43H67.4042V131.073H71.6949V130.123H68.543V128.586Z" fill="#5FC2BA"></path><path d="M73.8002 128.586H76.6333V127.636H73.8002V126.385H76.8455V125.43H72.6614V131.073H76.9521V130.123H73.8002V128.586Z" fill="#5FC2BA"></path><path d="M81.3525 129.289C81.2756 129.542 81.1752 129.723 81.0542 129.833C80.9322 129.944 80.7785 130.022 80.594 130.068C80.4525 130.104 80.2229 130.122 79.9052 130.122H79.0544V126.385H79.5659C80.0302 126.385 80.3429 126.403 80.5017 126.439C80.7139 126.485 80.8902 126.574 81.0296 126.705C81.167 126.835 81.2756 127.018 81.3525 127.251C81.4283 127.484 81.4673 127.819 81.4673 128.256C81.4673 128.692 81.4283 129.036 81.3525 129.289ZM81.9224 126.058C81.6856 125.808 81.4017 125.636 81.0716 125.538C80.8246 125.467 80.4669 125.43 79.9974 125.43H77.9146V131.073H80.0589C80.4792 131.073 80.8164 131.034 81.0675 130.954C81.4037 130.846 81.6702 130.695 81.8681 130.504C82.1295 130.25 82.3304 129.916 82.4718 129.506C82.5876 129.17 82.645 128.77 82.645 128.306C82.645 127.777 82.5835 127.332 82.4605 126.972C82.3375 126.612 82.1571 126.306 81.9224 126.058Z" fill="#5FC2BA"></path><path d="M88.5145 129.279L87.4905 125.43H85.7859V131.073H86.8438V126.632L87.96 131.073H89.0568L90.1771 126.632V131.073H91.2349V125.43H89.5262L88.5145 129.279Z" fill="#5FC2BA"></path><path d="M93.5068 128.586H96.34V127.636H93.5068V126.385H96.5521V125.43H92.368V131.073H96.6587V130.123H93.5068V128.586Z" fill="#5FC2BA"></path><path d="M101.059 129.289C100.982 129.542 100.882 129.723 100.761 129.833C100.639 129.944 100.485 130.022 100.3 130.068C100.159 130.104 99.9293 130.122 99.6115 130.122H98.7608V126.385H99.2723C99.7366 126.385 100.049 126.403 100.208 126.439C100.42 126.485 100.597 126.574 100.736 126.705C100.873 126.835 100.982 127.018 101.059 127.251C101.135 127.484 101.174 127.819 101.174 128.256C101.174 128.692 101.135 129.036 101.059 129.289ZM101.629 126.058C101.392 125.808 101.108 125.636 100.778 125.538C100.531 125.467 100.173 125.43 99.7038 125.43H97.621V131.073H99.7653C100.186 131.073 100.523 131.034 100.774 130.954C101.11 130.846 101.377 130.695 101.574 130.504C101.836 130.25 102.037 129.916 102.178 129.506C102.294 129.17 102.351 128.77 102.351 128.306C102.351 127.777 102.29 127.332 102.167 126.972C102.044 126.612 101.863 126.306 101.629 126.058Z" fill="#5FC2BA"></path><path d="M103.283 131.073H104.422V125.43H103.283V131.073Z" fill="#5FC2BA"></path><path d="M108.649 129.907C108.43 130.098 108.17 130.196 107.866 130.196C107.456 130.196 107.123 130.044 106.866 129.741C106.61 129.438 106.482 128.93 106.482 128.218C106.482 127.545 106.612 127.058 106.872 126.758C107.133 126.458 107.472 126.308 107.89 126.308C108.193 126.308 108.451 126.393 108.662 126.562C108.874 126.731 109.012 126.962 109.079 127.255L110.208 126.985C110.079 126.533 109.887 126.188 109.629 125.946C109.199 125.538 108.638 125.334 107.947 125.334C107.157 125.334 106.52 125.593 106.035 126.113C105.55 126.633 105.307 127.363 105.307 128.302C105.307 129.189 105.549 129.889 106.031 130.401C106.513 130.913 107.129 131.169 107.879 131.169C108.485 131.169 108.984 131.02 109.377 130.721C109.772 130.421 110.053 129.964 110.222 129.349L109.118 128.999C109.023 129.412 108.867 129.714 108.649 129.907Z" fill="#5FC2BA"></path><path d="M112.651 128.841L113.413 126.747L114.191 128.841H112.651ZM112.825 125.43L110.626 131.073H111.835L112.301 129.791H114.556L115.049 131.073H116.288L114.029 125.43H112.825Z" fill="#5FC2BA"></path><path d="M118.063 125.476H116.924V131.073H120.896V130.123H118.063V125.476Z" fill="#5FC2BA"></path><path d="M125.068 125.476H123.929V131.073H127.901V130.123H125.068V125.476Z" fill="#5FC2BA"></path><path d="M130.164 128.841L130.925 126.747L131.703 128.841H130.164ZM130.337 125.43L128.138 131.073H129.348L129.813 129.791H132.068L132.561 131.073H133.8L131.541 125.43H130.337Z" fill="#5FC2BA"></path><path d="M137.798 129.862C137.691 129.982 137.553 130.057 137.384 130.088C137.273 130.11 137.013 130.123 136.603 130.123H135.548V128.614H136.468C136.986 128.614 137.322 128.64 137.478 128.694C137.634 128.748 137.752 128.834 137.834 128.952C137.916 129.071 137.957 129.214 137.957 129.384C137.957 129.583 137.905 129.743 137.798 129.862ZM135.548 126.37H136.202C136.739 126.37 137.063 126.376 137.177 126.389C137.366 126.412 137.509 126.478 137.605 126.587C137.702 126.696 137.75 126.837 137.75 127.013C137.75 127.194 137.694 127.342 137.582 127.452C137.471 127.564 137.317 127.632 137.123 127.655C137.014 127.668 136.739 127.675 136.294 127.675H135.548V126.37ZM138.066 128.075C138.309 127.964 138.502 127.799 138.645 127.578C138.787 127.357 138.858 127.115 138.858 126.851C138.858 126.607 138.801 126.386 138.685 126.191C138.57 125.995 138.424 125.837 138.251 125.719C138.078 125.601 137.882 125.523 137.663 125.487C137.443 125.449 137.11 125.43 136.664 125.43H134.408V131.073H136.329C137.055 131.068 137.514 131.055 137.703 131.035C138.006 131.001 138.26 130.912 138.467 130.767C138.673 130.622 138.837 130.428 138.956 130.185C139.075 129.943 139.136 129.693 139.136 129.437C139.136 129.112 139.043 128.828 138.858 128.586C138.673 128.345 138.409 128.175 138.066 128.075Z" fill="#5FC2BA"></path><path d="M143.725 129.705C143.434 130.031 143.062 130.195 142.607 130.195C142.153 130.195 141.778 130.03 141.482 129.7C141.188 129.371 141.04 128.887 141.04 128.248C141.04 127.598 141.184 127.113 141.472 126.791C141.759 126.469 142.137 126.308 142.607 126.308C143.076 126.308 143.452 126.467 143.737 126.785C144.02 127.103 144.163 127.586 144.163 128.233C144.163 128.887 144.016 129.378 143.725 129.705ZM142.595 125.334C142.136 125.334 141.731 125.409 141.38 125.557C141.115 125.668 140.872 125.837 140.65 126.066C140.427 126.293 140.252 126.552 140.124 126.84C139.952 127.229 139.866 127.712 139.866 128.286C139.866 129.185 140.115 129.889 140.61 130.402C141.104 130.913 141.772 131.169 142.611 131.169C143.44 131.169 144.101 130.912 144.597 130.397C145.092 129.883 145.339 129.17 145.339 128.259C145.339 127.341 145.09 126.623 144.591 126.108C144.092 125.592 143.427 125.334 142.595 125.334Z" fill="#5FC2BA"></path><path d="M148.216 127.817H147.373V126.385H148.262C148.723 126.385 149.001 126.391 149.092 126.404C149.277 126.435 149.421 126.509 149.521 126.625C149.623 126.742 149.674 126.896 149.674 127.086C149.674 127.255 149.636 127.395 149.559 127.509C149.481 127.622 149.375 127.701 149.24 127.748C149.103 127.794 148.762 127.817 148.216 127.817ZM149.968 129.056C149.808 128.885 149.604 128.727 149.358 128.582C149.853 128.51 150.226 128.337 150.475 128.06C150.723 127.785 150.848 127.435 150.848 127.012C150.848 126.679 150.766 126.383 150.602 126.123C150.438 125.864 150.218 125.683 149.945 125.582C149.672 125.481 149.233 125.43 148.631 125.43H146.233V131.073H147.373V128.718H147.603C147.865 128.718 148.057 128.738 148.177 128.78C148.298 128.823 148.411 128.902 148.52 129.016C148.627 129.13 148.827 129.406 149.12 129.845L149.944 131.073H151.306L150.617 129.972C150.344 129.533 150.128 129.228 149.968 129.056Z" fill="#5FC2BA"></path><path d="M153.373 128.841L154.134 126.747L154.912 128.841H153.373ZM153.546 125.43L151.347 131.073H152.557L153.022 129.791H155.277L155.77 131.073H157.009L154.75 125.43H153.546Z" fill="#5FC2BA"></path><path d="M157.209 126.385H158.884V131.073H160.023V126.385H161.694V125.43H157.209V126.385Z" fill="#5FC2BA"></path><path d="M166.057 129.705C165.766 130.031 165.393 130.195 164.939 130.195C164.484 130.195 164.11 130.03 163.814 129.7C163.519 129.371 163.372 128.887 163.372 128.248C163.372 127.598 163.516 127.113 163.803 126.791C164.09 126.469 164.469 126.308 164.939 126.308C165.408 126.308 165.784 126.467 166.068 126.785C166.351 127.103 166.494 127.586 166.494 128.233C166.494 128.887 166.348 129.378 166.057 129.705ZM164.926 125.334C164.467 125.334 164.062 125.409 163.711 125.557C163.446 125.668 163.203 125.837 162.981 126.066C162.759 126.293 162.584 126.552 162.456 126.84C162.284 127.229 162.198 127.712 162.198 128.286C162.198 129.185 162.446 129.889 162.941 130.402C163.436 130.913 164.103 131.169 164.943 131.169C165.771 131.169 166.433 130.912 166.929 130.397C167.423 129.883 167.671 129.17 167.671 128.259C167.671 127.341 167.421 126.623 166.923 126.108C166.423 125.592 165.759 125.334 164.926 125.334Z" fill="#5FC2BA"></path><path d="M170.547 127.817H169.704V126.385H170.593C171.054 126.385 171.332 126.391 171.423 126.404C171.609 126.435 171.752 126.509 171.853 126.625C171.954 126.742 172.005 126.896 172.005 127.086C172.005 127.255 171.967 127.395 171.89 127.509C171.813 127.622 171.706 127.701 171.571 127.748C171.434 127.794 171.093 127.817 170.547 127.817ZM172.299 129.056C172.14 128.885 171.936 128.727 171.69 128.582C172.185 128.51 172.557 128.337 172.806 128.06C173.054 127.785 173.179 127.435 173.179 127.012C173.179 126.679 173.097 126.383 172.933 126.123C172.769 125.864 172.55 125.683 172.276 125.582C172.003 125.481 171.564 125.43 170.962 125.43H168.564V131.073H169.704V128.718H169.934C170.196 128.718 170.388 128.738 170.508 128.78C170.629 128.823 170.742 128.902 170.851 129.016C170.958 129.13 171.159 129.406 171.451 129.845L172.275 131.073H173.637L172.948 129.972C172.676 129.533 172.459 129.228 172.299 129.056Z" fill="#5FC2BA"></path><path d="M174.218 131.073H175.357V125.43H174.218V131.073Z" fill="#5FC2BA"></path><path d="M177.583 128.586H180.416V127.636H177.583V126.385H180.627V125.43H176.444V131.073H180.734V130.123H177.583V128.586Z" fill="#5FC2BA"></path><path d="M185.774 128.531C185.625 128.288 185.417 128.097 185.151 127.957C184.886 127.817 184.475 127.682 183.921 127.551C183.367 127.421 183.018 127.295 182.875 127.174C182.762 127.078 182.705 126.965 182.705 126.831C182.705 126.685 182.765 126.568 182.886 126.481C183.073 126.345 183.332 126.277 183.663 126.277C183.985 126.277 184.225 126.34 184.385 126.467C184.545 126.595 184.65 126.803 184.699 127.093L185.838 127.042C185.82 126.525 185.632 126.111 185.274 125.799C184.916 125.49 184.383 125.334 183.675 125.334C183.241 125.334 182.872 125.399 182.564 125.531C182.258 125.662 182.024 125.851 181.861 126.102C181.697 126.353 181.616 126.621 181.616 126.908C181.616 127.355 181.789 127.733 182.136 128.044C182.382 128.264 182.81 128.45 183.421 128.602C183.896 128.72 184.2 128.802 184.333 128.849C184.528 128.917 184.665 128.999 184.743 129.093C184.821 129.187 184.86 129.3 184.86 129.433C184.86 129.641 184.768 129.822 184.581 129.978C184.395 130.133 184.119 130.211 183.752 130.211C183.406 130.211 183.131 130.124 182.927 129.948C182.722 129.774 182.588 129.501 182.52 129.128L181.412 129.237C181.486 129.868 181.714 130.348 182.097 130.678C182.479 131.008 183.026 131.173 183.741 131.173C184.231 131.173 184.641 131.105 184.969 130.967C185.297 130.83 185.551 130.62 185.73 130.338C185.91 130.055 186 129.753 186 129.429C186 129.073 185.924 128.773 185.774 128.531Z" fill="#5FC2BA"></path></svg>