<svg xmlns="http://www.w3.org/2000/svg" xmlns:xlink="http://www.w3.org/1999/xlink" id="a" data-name="Layer 1" viewBox="0 0 400 400"><defs><linearGradient id="b" x1="-15.2" y1="85.07" x2="388.33" y2="85.07" gradientUnits="userSpaceOnUse"><stop offset=".12" stop-color="#e4c772"></stop><stop offset=".15" stop-color="#c5a55b"></stop><stop offset=".19" stop-color="#a58344"></stop><stop offset=".22" stop-color="#8d6932"></stop><stop offset=".26" stop-color="#7b5626"></stop><stop offset=".3" stop-color="#714a1e"></stop><stop offset=".35" stop-color="#6e471c"></stop><stop offset=".67" stop-color="#cda23d"></stop><stop offset=".89" stop-color="#cda23d"></stop><stop offset="1" stop-color="#956c29"></stop></linearGradient><linearGradient id="c" x1="-15.2" y1="84.45" x2="388.33" y2="84.45" xlink:href="#b"></linearGradient><linearGradient id="d" x1="-15.2" y1="84.46" x2="388.33" y2="84.46" xlink:href="#b"></linearGradient><linearGradient id="e" x1="-15.2" y1="87.79" x2="388.33" y2="87.79" xlink:href="#b"></linearGradient><linearGradient id="f" x1="-15.2" y1="85.09" x2="388.33" y2="85.09" xlink:href="#b"></linearGradient><linearGradient id="g" x1="-15.2" y1="145.86" x2="388.33" y2="145.86" xlink:href="#b"></linearGradient><linearGradient id="h" x1="-15.2" y1="145.84" x2="388.33" y2="145.84" xlink:href="#b"></linearGradient><linearGradient id="i" x1="-15.2" y1="207.92" x2="388.33" y2="207.92" xlink:href="#b"></linearGradient><linearGradient id="j" x1="-15.2" y1="207.96" x2="388.33" y2="207.96" xlink:href="#b"></linearGradient><linearGradient id="k" x1="-15.2" y1="151.02" x2="388.33" y2="151.02" xlink:href="#b"></linearGradient><linearGradient id="l" x1="-15.2" y1="210.45" x2="388.33" y2="210.45" xlink:href="#b"></linearGradient><linearGradient id="m" x1="-15.2" y1="146.59" x2="388.33" y2="146.59" xlink:href="#b"></linearGradient><linearGradient id="n" x1="-15.2" y1="146.62" x2="388.33" y2="146.62" xlink:href="#b"></linearGradient><linearGradient id="o" x1="-15.2" y1="151.72" x2="388.33" y2="151.72" xlink:href="#b"></linearGradient><linearGradient id="p" x1="-15.2" y1="208.23" x2="388.33" y2="208.23" xlink:href="#b"></linearGradient><linearGradient id="q" x1="-15.2" y1="208.3" x2="388.33" y2="208.3" xlink:href="#b"></linearGradient><linearGradient id="r" x1="-15.2" y1="210.8" x2="388.33" y2="210.8" xlink:href="#b"></linearGradient><linearGradient id="s" y1="87.03" x2="388.33" y2="87.03" xlink:href="#b"></linearGradient><linearGradient id="t" x1="-15.2" y1="86.05" x2="388.33" y2="86.05" xlink:href="#b"></linearGradient><linearGradient id="u" x1="67.41" y1="255.82" x2="332.59" y2="255.82" gradientUnits="userSpaceOnUse"><stop offset="0" stop-color="#cda23d"></stop><stop offset="0" stop-color="#956c29"></stop><stop offset="1" stop-color="#cda23d"></stop></linearGradient><linearGradient id="v" x1="97.31" y1="309.17" x2="302.69" y2="309.17" xlink:href="#u"></linearGradient><linearGradient id="w" x1="136.14" y1="280.94" x2="336.52" y2="280.94" xlink:href="#u"></linearGradient><linearGradient id="x" x1="42.42" y1="273.58" x2="344.85" y2="273.58" xlink:href="#u"></linearGradient><linearGradient id="y" x1="42.42" y1="275.24" x2="344.85" y2="275.24" xlink:href="#u"></linearGradient><linearGradient id="z" x1="42.42" y1="266" x2="344.85" y2="266" xlink:href="#u"></linearGradient><linearGradient id="aa" x1="42.42" y1="271.94" x2="344.85" y2="271.94" xlink:href="#u"></linearGradient><linearGradient id="ab" x1="42.42" y1="276.7" x2="344.85" y2="276.7" xlink:href="#u"></linearGradient><linearGradient id="ac" x1="42.42" y1="276.7" x2="344.85" y2="276.7" xlink:href="#u"></linearGradient><linearGradient id="ad" x1="42.42" y1="276.7" x2="344.85" y2="276.7" xlink:href="#u"></linearGradient><linearGradient id="ae" x1="42.42" y1="276.7" x2="344.85" y2="276.7" xlink:href="#u"></linearGradient><linearGradient id="af" x1="42.42" y1="276.7" x2="344.85" y2="276.7" xlink:href="#u"></linearGradient><linearGradient id="ag" x1="42.42" y1="276.7" x2="344.85" y2="276.7" xlink:href="#u"></linearGradient><linearGradient id="ah" x1="-203.4" y1="276.7" x2="1457.65" y2="276.7" xlink:href="#u"></linearGradient><linearGradient id="ai" x1="42.42" y1="276.7" x2="344.85" y2="276.7" xlink:href="#u"></linearGradient><linearGradient id="aj" x1="42.42" y1="272.03" x2="344.85" y2="272.03" xlink:href="#u"></linearGradient><linearGradient id="ak" x1="42.42" y1="276.7" x2="344.85" y2="276.7" xlink:href="#u"></linearGradient><linearGradient id="al" x1="42.42" y1="275.54" x2="344.85" y2="275.54" xlink:href="#u"></linearGradient><linearGradient id="am" x1="42.42" y1="276.7" x2="344.85" y2="276.7" xlink:href="#u"></linearGradient><linearGradient id="an" x1="42.42" y1="276.7" x2="344.85" y2="276.7" xlink:href="#u"></linearGradient><linearGradient id="ao" x1="42.42" y1="276.7" x2="344.85" y2="276.7" xlink:href="#u"></linearGradient><linearGradient id="ap" x1="42.42" y1="276.7" x2="344.85" y2="276.7" xlink:href="#u"></linearGradient><linearGradient id="aq" x1="42.42" y1="276.7" x2="344.85" y2="276.7" xlink:href="#u"></linearGradient><linearGradient id="ar" x1="42.42" y1="276.7" x2="344.85" y2="276.7" xlink:href="#u"></linearGradient><linearGradient id="as" x1="42.42" y1="276.7" x2="344.85" y2="276.7" xlink:href="#u"></linearGradient><linearGradient id="at" x1="42.42" y1="276.7" x2="344.85" y2="276.7" xlink:href="#u"></linearGradient><linearGradient id="au" x1="42.42" y1="267.18" x2="344.85" y2="267.18" xlink:href="#u"></linearGradient><linearGradient id="av" x1="42.42" y1="264.51" x2="344.85" y2="264.51" xlink:href="#u"></linearGradient><linearGradient id="aw" x1="42.42" y1="267.18" x2="344.85" y2="267.18" xlink:href="#u"></linearGradient><linearGradient id="ax" x1="42.42" y1="273.56" x2="344.85" y2="273.56" xlink:href="#u"></linearGradient><linearGradient id="ay" x1="-2580.99" y1="276.7" x2="6797.48" y2="276.7" xlink:href="#u"></linearGradient><linearGradient id="az" x1="42.42" y1="275.24" x2="344.85" y2="275.24" xlink:href="#u"></linearGradient><linearGradient id="ba" x1="42.42" y1="271.94" x2="344.85" y2="271.94" xlink:href="#u"></linearGradient><linearGradient id="bb" x1="42.42" y1="276.7" x2="344.85" y2="276.7" xlink:href="#u"></linearGradient><linearGradient id="bc" x1="42.42" y1="276.7" x2="344.85" y2="276.7" xlink:href="#u"></linearGradient><linearGradient id="bd" x1="42.42" y1="276.7" x2="344.85" y2="276.7" xlink:href="#u"></linearGradient><linearGradient id="be" x1="42.42" y1="276.7" x2="344.85" y2="276.7" xlink:href="#u"></linearGradient><linearGradient id="bf" x1="42.42" y1="276.7" x2="344.85" y2="276.7" xlink:href="#u"></linearGradient><linearGradient id="bg" x1="42.42" y1="276.7" x2="344.85" y2="276.7" xlink:href="#u"></linearGradient><linearGradient id="bh" x1="42.42" y1="276.7" x2="344.85" y2="276.7" xlink:href="#u"></linearGradient><linearGradient id="bi" x1="42.42" y1="276.7" x2="344.85" y2="276.7" xlink:href="#u"></linearGradient><linearGradient id="bj" x1="42.42" y1="267.13" x2="344.85" y2="267.13" xlink:href="#u"></linearGradient><linearGradient id="bk" x1="42.42" y1="273.83" x2="344.85" y2="273.83" xlink:href="#u"></linearGradient><linearGradient id="bl" x1="-3854.03" y1="276.7" x2="5392.66" y2="276.7" xlink:href="#u"></linearGradient><linearGradient id="bm" x1="-461.4" y1="276.7" x2="935.93" y2="276.7" xlink:href="#u"></linearGradient><linearGradient id="bn" x1="42.42" y1="276.7" x2="344.85" y2="276.7" xlink:href="#u"></linearGradient><linearGradient id="bo" x1="42.42" y1="276.7" x2="344.85" y2="276.7" xlink:href="#u"></linearGradient><linearGradient id="bp" x1="42.42" y1="276.7" x2="344.85" y2="276.7" xlink:href="#u"></linearGradient><linearGradient id="bq" x1="42.42" y1="276.7" x2="344.85" y2="276.7" xlink:href="#u"></linearGradient><linearGradient id="br" x1="42.42" y1="276.7" x2="344.85" y2="276.7" xlink:href="#u"></linearGradient><linearGradient id="bs" x1="-397.6" y1="276.7" x2="798.99" y2="276.7" xlink:href="#u"></linearGradient><linearGradient id="bt" x1="42.42" y1="276.7" x2="344.85" y2="276.7" xlink:href="#u"></linearGradient><linearGradient id="bu" x1="-7.8" y1="276.7" x2="395.69" y2="276.7" xlink:href="#u"></linearGradient><linearGradient id="bv" x1="42.42" y1="276.7" x2="344.85" y2="276.7" xlink:href="#u"></linearGradient><linearGradient id="bw" x1="42.42" y1="273.37" x2="344.85" y2="273.37" xlink:href="#u"></linearGradient><linearGradient id="bx" x1="42.42" y1="276.7" x2="344.85" y2="276.7" xlink:href="#u"></linearGradient><linearGradient id="by" x1="42.42" y1="276.7" x2="344.85" y2="276.7" xlink:href="#u"></linearGradient><linearGradient id="bz" x1="42.42" y1="276.7" x2="344.85" y2="276.7" xlink:href="#u"></linearGradient><linearGradient id="ca" x1="-64.26" y1="276.7" x2="427.76" y2="276.7" xlink:href="#u"></linearGradient><linearGradient id="cb" x1="42.42" y1="276.7" x2="344.85" y2="276.7" xlink:href="#u"></linearGradient><linearGradient id="cc" x1="-473.4" y1="276.7" x2="727.12" y2="276.7" xlink:href="#u"></linearGradient><linearGradient id="cd" x1="42.42" y1="276.7" x2="344.85" y2="276.7" xlink:href="#u"></linearGradient><linearGradient id="ce" x1="42.42" y1="275.04" x2="344.85" y2="275.04" xlink:href="#u"></linearGradient><linearGradient id="cf" x1="42.42" y1="276.7" x2="344.85" y2="276.7" xlink:href="#u"></linearGradient><linearGradient id="cg" x1="42.42" y1="276.7" x2="344.85" y2="276.7" xlink:href="#u"></linearGradient><linearGradient id="ch" x1="42.42" y1="276.7" x2="344.85" y2="276.7" xlink:href="#u"></linearGradient><linearGradient id="ci" x1="42.42" y1="276.7" x2="344.85" y2="276.7" xlink:href="#u"></linearGradient><linearGradient id="cj" x1="42.42" y1="276.7" x2="344.85" y2="276.7" xlink:href="#u"></linearGradient><linearGradient id="ck" x1="-626.3" y1="276.7" x2="719.86" y2="276.7" xlink:href="#u"></linearGradient><linearGradient id="cl" x1="42.42" y1="276.7" x2="344.85" y2="276.7" xlink:href="#u"></linearGradient><linearGradient id="cm" x1="42.42" y1="271.94" x2="344.85" y2="271.94" xlink:href="#u"></linearGradient><linearGradient id="cn" x1="42.42" y1="276.7" x2="344.85" y2="276.7" xlink:href="#u"></linearGradient><linearGradient id="co" x1="42.42" y1="271.94" x2="344.85" y2="271.94" xlink:href="#u"></linearGradient><linearGradient id="cp" x1="42.42" y1="273.62" x2="344.85" y2="273.62" xlink:href="#u"></linearGradient><linearGradient id="cq" x1="42.42" y1="276.7" x2="344.85" y2="276.7" xlink:href="#u"></linearGradient><linearGradient id="cr" x1="42.42" y1="276.7" x2="344.85" y2="276.7" xlink:href="#u"></linearGradient><linearGradient id="cs" x1="42.42" y1="276.7" x2="344.85" y2="276.7" xlink:href="#u"></linearGradient><linearGradient id="ct" x1="42.42" y1="276.7" x2="344.85" y2="276.7" xlink:href="#u"></linearGradient><linearGradient id="cu" x1="42.42" y1="276.7" x2="344.85" y2="276.7" xlink:href="#u"></linearGradient><linearGradient id="cv" x1="42.42" y1="276.7" x2="344.85" y2="276.7" xlink:href="#u"></linearGradient><linearGradient id="cw" x1="-1072.03" y1="276.7" x2="703.16" y2="276.7" xlink:href="#u"></linearGradient><linearGradient id="cx" x1="42.42" y1="276.7" x2="344.85" y2="276.7" xlink:href="#u"></linearGradient><linearGradient id="cy" x1="42.42" y1="275.04" x2="344.85" y2="275.04" xlink:href="#u"></linearGradient><linearGradient id="cz" x1="42.42" y1="276.7" x2="344.85" y2="276.7" xlink:href="#u"></linearGradient><linearGradient id="da" x1="42.42" y1="276.7" x2="344.85" y2="276.7" xlink:href="#u"></linearGradient><linearGradient id="db" x1="42.42" y1="276.7" x2="344.85" y2="276.7" xlink:href="#u"></linearGradient><linearGradient id="dc" x1="42.42" y1="276.7" x2="344.85" y2="276.7" xlink:href="#u"></linearGradient><linearGradient id="dd" x1="42.42" y1="276.7" x2="344.85" y2="276.7" xlink:href="#u"></linearGradient><linearGradient id="de" x1="-968" y1="276.7" x2="563.16" y2="276.7" xlink:href="#u"></linearGradient><linearGradient id="df" x1="42.42" y1="276.7" x2="344.85" y2="276.7" xlink:href="#u"></linearGradient><linearGradient id="dg" x1="42.42" y1="273.63" x2="344.85" y2="273.63" xlink:href="#u"></linearGradient><linearGradient id="dh" x1="42.42" y1="276.7" x2="344.85" y2="276.7" xlink:href="#u"></linearGradient><linearGradient id="di" x1="-506.59" y1="276.7" x2="430.21" y2="276.7" xlink:href="#u"></linearGradient><linearGradient id="dj" x1="42.42" y1="276.7" x2="344.85" y2="276.7" xlink:href="#u"></linearGradient><linearGradient id="dk" x1="42.42" y1="276.7" x2="344.85" y2="276.7" xlink:href="#u"></linearGradient><linearGradient id="dl" x1="42.42" y1="276.7" x2="344.85" y2="276.7" xlink:href="#u"></linearGradient><linearGradient id="dm" x1="42.42" y1="273.7" x2="344.85" y2="273.7" xlink:href="#u"></linearGradient><linearGradient id="dn" x1="42.42" y1="276.7" x2="344.85" y2="276.7" xlink:href="#u"></linearGradient><linearGradient id="do" x1="42.42" y1="276.31" x2="344.85" y2="276.31" xlink:href="#u"></linearGradient><linearGradient id="dp" x1="42.42" y1="273.62" x2="344.85" y2="273.62" xlink:href="#u"></linearGradient><linearGradient id="dq" x1="42.42" y1="293.07" x2="344.85" y2="293.07" xlink:href="#u"></linearGradient><linearGradient id="dr" x1="42.42" y1="294.48" x2="344.85" y2="294.48" xlink:href="#u"></linearGradient><linearGradient id="ds" x1="42.42" y1="297.41" x2="344.85" y2="297.41" xlink:href="#u"></linearGradient><linearGradient id="dt" x1="42.42" y1="293.05" x2="344.85" y2="293.05" xlink:href="#u"></linearGradient><linearGradient id="du" x1="42.42" y1="294.57" x2="344.85" y2="294.57" xlink:href="#u"></linearGradient><linearGradient id="dv" x1="42.42" y1="292.76" x2="344.85" y2="292.76" xlink:href="#u"></linearGradient><linearGradient id="dw" x1="42.42" y1="294.57" x2="344.85" y2="294.57" xlink:href="#u"></linearGradient><linearGradient id="dx" x1="42.42" y1="294.48" x2="344.85" y2="294.48" xlink:href="#u"></linearGradient><linearGradient id="dy" x1="42.42" y1="294.48" x2="344.85" y2="294.48" xlink:href="#u"></linearGradient><linearGradient id="dz" x1="42.42" y1="294.56" x2="344.85" y2="294.56" xlink:href="#u"></linearGradient><linearGradient id="ea" x1="42.42" y1="292.85" x2="344.85" y2="292.85" xlink:href="#u"></linearGradient><linearGradient id="eb" x1="42.42" y1="293.05" x2="344.85" y2="293.05" xlink:href="#u"></linearGradient><linearGradient id="ec" x1="42.42" y1="292.76" x2="344.85" y2="292.76" xlink:href="#u"></linearGradient><linearGradient id="ed" x1="42.42" y1="294.19" x2="344.85" y2="294.19" xlink:href="#u"></linearGradient><linearGradient id="ee" x1="42.42" y1="293.05" x2="344.85" y2="293.05" xlink:href="#u"></linearGradient><linearGradient id="ef" x1="42.42" y1="294.66" x2="344.85" y2="294.66" xlink:href="#u"></linearGradient><linearGradient id="eg" x1="42.42" y1="292.76" x2="344.85" y2="292.76" xlink:href="#u"></linearGradient><linearGradient id="eh" x1="42.42" y1="294.57" x2="344.85" y2="294.57" xlink:href="#u"></linearGradient><linearGradient id="ei" x1="42.42" y1="294.48" x2="344.85" y2="294.48" xlink:href="#u"></linearGradient><linearGradient id="ej" x1="42.42" y1="294.48" x2="344.85" y2="294.48" xlink:href="#u"></linearGradient><linearGradient id="ek" x1="42.42" y1="294.57" x2="344.85" y2="294.57" xlink:href="#u"></linearGradient><linearGradient id="el" x1="42.42" y1="293.05" x2="344.85" y2="293.05" xlink:href="#u"></linearGradient><linearGradient id="em" x1="42.42" y1="293.01" x2="344.85" y2="293.01" xlink:href="#u"></linearGradient><linearGradient id="en" x1="42.42" y1="294.57" x2="344.85" y2="294.57" xlink:href="#u"></linearGradient><linearGradient id="eo" x1="42.42" y1="294.48" x2="344.85" y2="294.48" xlink:href="#u"></linearGradient><linearGradient id="ep" x1="42.42" y1="293.52" x2="344.85" y2="293.52" xlink:href="#u"></linearGradient><linearGradient id="eq" x1="42.42" y1="294.48" x2="344.85" y2="294.48" xlink:href="#u"></linearGradient><linearGradient id="er" x1="42.42" y1="294.56" x2="344.85" y2="294.56" xlink:href="#u"></linearGradient><linearGradient id="es" x1="42.42" y1="294.48" x2="344.85" y2="294.48" xlink:href="#u"></linearGradient><linearGradient id="et" x1="42.42" y1="294.56" x2="344.85" y2="294.56" xlink:href="#u"></linearGradient><linearGradient id="eu" x1="-24952.48" y1="320.6" x2="-7100.53" y2="320.6" xlink:href="#u"></linearGradient><linearGradient id="ev" x1="-24952.48" y1="324.02" x2="2366.86" y2="324.02" xlink:href="#u"></linearGradient><linearGradient id="ew" x1="-24952.48" y1="323.4" x2="2366.86" y2="323.4" xlink:href="#u"></linearGradient><linearGradient id="ex" x1="-24952.48" y1="323.42" x2="2366.86" y2="323.42" xlink:href="#u"></linearGradient><linearGradient id="ey" x1="-34583.45" y1="320.37" x2="3216.71" y2="320.37" xlink:href="#u"></linearGradient><linearGradient id="ez" x1="-24952.48" y1="316.5" x2="-7037.23" y2="316.5" xlink:href="#u"></linearGradient><linearGradient id="fa" x1="-24952.48" y1="316.5" x2="-7037.23" y2="316.5" xlink:href="#u"></linearGradient><linearGradient id="fb" x1="-28124.58" y1="322.11" x2="2646.18" y2="322.11" xlink:href="#u"></linearGradient><linearGradient id="fc" x1="-24952.48" y1="314.24" x2="-8113.41" y2="314.24" xlink:href="#u"></linearGradient><linearGradient id="fd" x1="-24952.48" y1="315.97" x2="-7037.23" y2="315.97" xlink:href="#u"></linearGradient><linearGradient id="fe" x1="-30708.71" y1="322.11" x2="2869.84" y2="322.11" xlink:href="#u"></linearGradient><linearGradient id="ff" x1="-24952.48" y1="315.97" x2="-7100.53" y2="315.97" xlink:href="#u"></linearGradient><linearGradient id="fg" x1="-30785.58" y1="322.11" x2="2874.9" y2="322.11" xlink:href="#u"></linearGradient><linearGradient id="fh" x1="193.73" y1="321.98" x2="202.39" y2="321.98" gradientUnits="userSpaceOnUse"><stop offset="1" stop-color="#cda23d"></stop><stop offset="1" stop-color="#956c29"></stop></linearGradient><linearGradient id="fi" x1="-24952.48" y1="323.4" x2="2366.86" y2="323.4" xlink:href="#u"></linearGradient><linearGradient id="fj" x1="-24952.48" y1="324.02" x2="2366.86" y2="324.02" xlink:href="#u"></linearGradient><linearGradient id="fk" x1="-24952.48" y1="320.6" x2="-7100.53" y2="320.6" xlink:href="#u"></linearGradient><linearGradient id="fl" x1="-51068.29" y1="323.4" x2="4585.71" y2="323.4" xlink:href="#u"></linearGradient><linearGradient id="fm" x1="-24952.48" y1="321.98" x2="2366.86" y2="321.98" xlink:href="#u"></linearGradient><linearGradient id="fn" x1="-24952.48" y1="320.37" x2="2366.86" y2="320.37" xlink:href="#u"></linearGradient><linearGradient id="fo" x1="-29133.68" y1="321.93" x2="2715.1" y2="321.93" xlink:href="#u"></linearGradient><linearGradient id="fp" x1="-24952.48" y1="324.74" x2="-7290.44" y2="324.74" xlink:href="#u"></linearGradient><linearGradient id="fq" x1="-35268.33" y1="321.98" x2="3220.86" y2="321.98" xlink:href="#u"></linearGradient><linearGradient id="fr" x1="-24952.48" y1="337.29" x2="2366.86" y2="337.29" xlink:href="#u"></linearGradient><linearGradient id="fs" x1="-24952.48" y1="338.67" x2="2366.86" y2="338.67" xlink:href="#u"></linearGradient><linearGradient id="ft" x1="-24952.48" y1="338.67" x2="2366.86" y2="338.67" xlink:href="#u"></linearGradient><linearGradient id="fu" x1="-24952.48" y1="340.3" x2="2366.86" y2="340.3" xlink:href="#u"></linearGradient><linearGradient id="fv" x1="-24952.48" y1="338.66" x2="2366.86" y2="338.66" xlink:href="#u"></linearGradient><linearGradient id="fw" x1="-24952.48" y1="338.59" x2="2366.86" y2="338.59" xlink:href="#u"></linearGradient><linearGradient id="fx" x1="-24952.48" y1="338.66" x2="2366.86" y2="338.66" xlink:href="#u"></linearGradient><linearGradient id="fy" x1="-24952.48" y1="338.67" x2="2366.86" y2="338.67" xlink:href="#u"></linearGradient><linearGradient id="fz" x1="-24952.48" y1="338.59" x2="2366.86" y2="338.59" xlink:href="#u"></linearGradient><linearGradient id="ga" x1="-24952.48" y1="337.11" x2="2366.86" y2="337.11" xlink:href="#u"></linearGradient><linearGradient id="gb" x1="-24952.48" y1="337.29" x2="2366.86" y2="337.29" xlink:href="#u"></linearGradient><linearGradient id="gc" x1="-24952.48" y1="338.67" x2="2366.86" y2="338.67" xlink:href="#u"></linearGradient><linearGradient id="gd" x1="-24952.48" y1="338.59" x2="2366.86" y2="338.59" xlink:href="#u"></linearGradient><linearGradient id="ge" x1="-24952.48" y1="338.66" x2="2366.86" y2="338.66" xlink:href="#u"></linearGradient><linearGradient id="gf" x1="-24952.48" y1="338.75" x2="2366.86" y2="338.75" xlink:href="#u"></linearGradient><linearGradient id="gg" x1="-7065.03" y1="337.03" x2="7552.62" y2="337.03" xlink:href="#u"></linearGradient><linearGradient id="gh" x1="-24952.48" y1="337.72" x2="2366.86" y2="337.72" xlink:href="#u"></linearGradient><linearGradient id="gi" x1="-24952.48" y1="338.67" x2="2366.86" y2="338.67" xlink:href="#u"></linearGradient><linearGradient id="gj" x1="-24952.48" y1="338.59" x2="2366.86" y2="338.59" xlink:href="#u"></linearGradient><linearGradient id="gk" x1="-24952.48" y1="337.72" x2="2366.86" y2="337.72" xlink:href="#u"></linearGradient><linearGradient id="gl" x1="-24952.48" y1="338.66" x2="2366.86" y2="338.66" xlink:href="#u"></linearGradient></defs><g><path d="M179.51,114.97c.67-.09,1.35-.06,2.03-.06,3.57-.04,7.14-.07,10.71-.11,3.55-.04,7.1-.12,10.64-.14,3.52-.02,7.04,0,10.56,0,2.17,0,4.34-.06,6.51-.04.67,0,.86-.35.86-.86.02-1.54,0-3.07-.02-4.61-.05-3.05-.14-6.1-.18-9.14-.05-4.09-.08-8.18-.12-12.27-.03-2.85-.07-5.69-.1-8.54-.03-3.05-.04-6.1-.07-9.15-.02-2.98-.06-5.96-.08-8.94-.01-1.76,0-3.51,0-5.27-.06-.02-.12-.04-.18-.06-6.76,10-13.53,20-20.33,30.05-7.57-10.29-15.07-20.47-22.56-30.66-.06.03-.12.05-.19.08,0,.33,0,.66,0,.99.02,1.22.05,2.44.05,3.66,0,1.8-.06,3.61-.06,5.41,0,2.39.06,4.79.09,7.18.03,3.48.05,6.96.08,10.44.03,2.94.07,5.88.1,8.81.04,3.52.07,7.05.09,10.57.02,3.05.03,6.1.07,9.15.01,1-.08,2.01.67,2.88.41.47.76.74,1.41.66Z" fill="url(#b)" stroke-width="0"></path><path d="M128.47,55.07c.61.74,1.09,1.31,1.55,1.89,1.97,2.43,3.94,4.87,5.91,7.31,1.94,2.4,3.88,4.8,5.82,7.21,2.45,3.04,4.91,6.07,7.36,9.11,1.96,2.42,3.92,4.84,5.87,7.27,2.1,2.6,4.18,5.22,6.28,7.82,2.46,3.06,4.94,6.11,7.4,9.17,2.1,2.6,4.18,5.22,6.28,7.82.45.56.94,1.09,1.51,1.75-.19-20.07-.38-39.96-.57-59.93-15.8.2-31.5.39-47.42.59Z" fill="url(#c)" stroke-width="0"></path><path d="M220.78,55.1c.14.22.21.34.29.44,2.35,2.91,4.71,5.81,7.06,8.72,1.94,2.4,3.88,4.8,5.83,7.2,2.47,3.05,4.93,6.11,7.4,9.17,1.94,2.4,3.89,4.81,5.83,7.21,2.09,2.6,4.18,5.22,6.27,7.82,2.46,3.06,4.94,6.11,7.4,9.17,2.11,2.62,4.21,5.25,6.32,7.87.45.56.95,1.09,1.5,1.72-.19-20.06-.38-39.95-.57-59.91-15.8.2-31.51.39-47.33.59Z" fill="url(#d)" stroke-width="0"></path><path d="M86.3,119.9c.51.07,1.03.11,1.54.11,1.18,0,2.35-.04,3.53-.05,3.12-.04,6.24-.05,9.36-.11,2.71-.05,5.41-.15,8.12-.21,2.53-.05,5.06-.08,7.59-.11,3.12-.04,6.24-.07,9.36-.1.94,0,1.88,0,2.89,0-.24-21.2-.48-42.42-.72-63.87-1.06,1.6-2.01,3.05-2.98,4.48-2.17,3.22-4.35,6.43-6.53,9.64-1.68,2.48-3.36,4.97-5.04,7.46-1.72,2.54-3.44,5.08-5.16,7.63-1.69,2.5-3.38,5.01-5.08,7.51-1.75,2.58-3.5,5.15-5.25,7.73-1.67,2.47-3.32,4.94-5,7.41-1.9,2.8-3.82,5.59-5.73,8.39-.56.82-1.1,1.65-1.62,2.49-.28.45.2,1.53.71,1.6Z" fill="url(#e)" stroke-width="0"></path><path d="M271.48,115c1.24-.05,2.48-.06,3.72-.08,4.07-.05,8.13-.1,12.2-.15,3.57-.04,7.14-.1,10.71-.12,2.5-.02,5.01.02,7.51.02,1.29,0,2.58-.03,3.86-.04,1.12,0,2.24,0,3.36,0,.03-.06.05-.13.08-.19-14.49-19.76-28.99-39.52-43.48-59.28-.07.03-.15.06-.22.08,0,.29,0,.58,0,.87,0,.81.03,1.62.03,2.44-.01,2.19-.05,4.38-.04,6.56.01,2.42.07,4.83.1,7.25.04,4.59.07,9.17.12,13.76.04,3.98.1,7.95.14,11.93.05,4.72.12,9.44.1,14.17,0,.91.32,1.58.8,2.28.27.39.56.51,1.01.5Z" fill="url(#f)" stroke-width="0"></path><path d="M313.74,176.39c.06-.02.12-.05.18-.07-.2-20.31-.39-40.63-.59-60.99-13.98.17-27.86.35-41.9.52,14.19,20.3,28.25,40.42,42.31,60.54Z" fill="url(#g)" stroke-width="0"></path><path d="M221.53,176.38c.05-.02.11-.03.16-.05-.2-20.33-.39-40.65-.59-61.03-13.98.17-27.84.35-41.9.52,14.19,20.3,28.26,40.43,42.32,60.56Z" fill="url(#h)" stroke-width="0"></path><path d="M222.15,223.68c-.04-3.52-.07-7.05-.11-10.57-.04-3.35-.08-6.69-.11-10.04-.02-2.46-.02-4.93-.04-7.39-.03-3.52-.08-7.05-.11-10.57-.02-2.33-.04-4.66-.04-6.99,0-.41-.12-.62-.58-.6-1.54.05-3.07.08-4.61.1-3.55.05-7.1.09-10.65.13-3.53.04-7.05.09-10.58.13-3.53.04-7.05.09-10.58.12-1.58.01-3.16,0-4.93,0,.2.33.28.48.38.62,1.38,1.98,2.76,3.97,4.14,5.95,3,4.29,6.01,8.59,9.02,12.88,2.06,2.94,4.14,5.87,6.2,8.82,3.12,4.46,6.22,8.94,9.34,13.4,2.02,2.89,4.06,5.76,6.08,8.65,2.25,3.22,4.49,6.45,6.75,9.67.1.14.31.2.55.34,0-1.93.01-3.72,0-5.5-.03-3.05-.07-6.1-.11-9.15Z" fill="url(#i)" stroke-width="0"></path><path d="M314.34,220.67c-.04-4.04-.07-8.09-.11-12.13-.03-3.48-.08-6.96-.11-10.44-.03-3.41-.04-6.83-.07-10.24-.03-3.01-.08-6.01-.11-9.02,0-1.22.01-1.24-1.23-1.23-4,.03-8,.06-12,.11-4.02.05-8.05.13-12.07.18-4.54.06-9.09.1-13.63.15-.94,0-1.88,0-2.91,0,.1.23.12.34.18.42,1.78,2.56,3.56,5.11,5.35,7.67,2.24,3.2,4.48,6.41,6.72,9.61,2.19,3.13,4.38,6.26,6.57,9.38,2.07,2.96,4.16,5.91,6.23,8.88,2.54,3.63,5.07,7.26,7.6,10.89,1.24,1.78,2.47,3.56,3.71,5.34,1.83,2.61,3.66,5.22,5.5,7.82.09.13.29.17.48.28.04-.17.07-.24.07-.3-.02-3.39-.05-6.78-.08-10.17-.02-2.4-.06-4.79-.08-7.19Z" fill="url(#j)" stroke-width="0"></path><path d="M87.15,121.38c1.2,1.72,2.41,3.43,3.61,5.15,2.05,2.94,4.09,5.89,6.14,8.83,1.88,2.7,3.77,5.39,5.66,8.09,1.83,2.63,3.67,5.25,5.5,7.88,1.78,2.55,3.55,5.1,5.34,7.65,2.04,2.9,4.08,5.79,6.12,8.69,1.95,2.77,3.89,5.53,5.83,8.31.8,1.14,1.56,2.32,2.35,3.47.49.71,1.02,1.4,1.52,2.09.05-.02.1-.03.16-.05-.2-20.3-.39-40.59-.59-60.99-13.96.17-27.84.35-41.79.52.08.2.09.3.14.36Z" fill="url(#k)" stroke-width="0"></path><path d="M129.83,229.09c-.03-3.41-.05-6.82-.08-10.23-.04-3.98-.1-7.96-.14-11.93-.03-3.1-.05-6.19-.08-9.29-.02-2.98-.04-5.96-.07-8.95-.02-1.83-.05-3.66-.06-5.49,0-.38-.11-.57-.54-.56-3.16.05-6.33.06-9.49.1-3.07.04-6.15.1-9.22.14-3.12.04-6.24.06-9.36.09-3.12.03-6.24.07-9.36.1-1.26.01-2.52,0-3.95,0,1.27,1.83,2.4,3.48,3.54,5.12.98,1.41,1.98,2.8,2.97,4.21,1.61,2.31,3.21,4.63,4.82,6.94,1.36,1.94,2.74,3.86,4.1,5.8,1.96,2.81,3.91,5.64,5.87,8.45.94,1.35,1.91,2.68,2.85,4.03,1.64,2.35,3.26,4.72,4.9,7.06,1.27,1.81,2.56,3.6,3.83,5.41,1.79,2.55,3.55,5.11,5.35,7.66.15.22.43.48.66.49,1.15.05,2.3.02,3.55.02,0-.26,0-.41,0-.57-.03-2.87-.06-5.74-.08-8.61Z" fill="url(#l)" stroke-width="0"></path><path d="M179.78,176.95c3.1-.05,6.19-.09,9.29-.13,4.95-.06,9.9-.11,14.85-.17,3.62-.04,7.23-.09,10.85-.13,1.78-.02,3.57,0,5.35,0,.02-.08.03-.15.05-.23-13.99-20.02-27.99-40.04-41.98-60.06-.15.44-.15.83-.15,1.23.04,3.43.1,6.87.13,10.3.04,4.54.05,9.08.1,13.62.05,5.08.12,10.17.18,15.25.07,6.4.12,12.79.18,19.19,0,.96.2,1.13,1.16,1.12Z" fill="url(#m)" stroke-width="0"></path><path d="M272.02,176.97c3.53-.06,7.05-.11,10.58-.15,4.52-.05,9.04-.1,13.56-.15,4.05-.05,8.09-.1,12.14-.14,1.35-.01,2.7,0,4.24,0-14.13-20.21-28.12-40.24-42.12-60.27l-.16.03c0,.26,0,.53,0,.79.03,3.32.06,6.64.1,9.96.05,4.02.11,8.04.15,12.07.04,4.54.06,9.08.1,13.63.04,4.02.11,8.05.15,12.07.04,3.68.06,7.37.09,11.05,0,.96.2,1.12,1.17,1.1Z" fill="url(#n)" stroke-width="0"></path><path d="M87.54,182.16c.63-.01,1.27-.04,1.9-.05,4-.05,8-.1,12-.15,4.93-.06,9.86-.11,14.78-.17,3.62-.04,7.23-.08,10.85-.13.25,0,.5-.03.86-.06-.7-.96-1.32-1.79-1.91-2.64-1.96-2.81-3.89-5.64-5.85-8.45-1.32-1.89-2.66-3.76-3.98-5.64-1.62-2.33-3.23-4.67-4.85-7-.9-1.3-1.83-2.58-2.73-3.87-1.66-2.39-3.32-4.78-4.98-7.17-1.28-1.83-2.57-3.65-3.85-5.48-1.7-2.44-3.4-4.89-5.1-7.33-.88-1.26-1.78-2.49-2.66-3.75-1.74-2.49-3.48-5-5.21-7.5-.31-.45-.63-.91-1.04-1.51,0,2.25-.01,4.28,0,6.32.02,2.44.07,4.88.1,7.32.05,4.61.08,9.22.13,13.83.03,2.89.09,5.79.11,8.68.03,3.44.03,6.87.05,10.31.02,3.14.07,6.28.1,9.42.01,1.29,0,2.58.06,3.86.04.89.37,1.16,1.23,1.14Z" fill="url(#o)" stroke-width="0"></path><path d="M179.22,238.21h41.32c-13.97-19.99-27.87-39.89-41.9-59.96.2,20.13.39,40.05.58,59.96Z" fill="url(#p)" stroke-width="0"></path><path d="M270.89,179.33c.01,2.94.02,5.88.05,8.82.03,3.07.07,6.15.1,9.22.04,3.86.06,7.73.11,11.59.04,3.48.09,6.96.13,10.44.03,3.07.04,6.15.07,9.22.03,2.94.07,5.87.09,8.81,0,.85-.03.85.84.85,13.24,0,26.48,0,39.71,0h.81c-14-20.04-27.92-39.95-41.9-59.96,0,.43,0,.72,0,1Z" fill="url(#q)" stroke-width="0"></path><path d="M119.82,231.22c-1.87-2.68-3.75-5.36-5.62-8.04-2.16-3.08-4.31-6.17-6.47-9.26-1.87-2.68-3.74-5.36-5.62-8.04-2.02-2.88-4.06-5.75-6.08-8.63-1.76-2.51-3.51-5.03-5.26-7.55-.96-1.39-1.92-2.78-2.88-4.17-.48-.68-.98-1.35-1.56-2.14.18,18.37.35,36.57.53,54.81h37.77c-.17-.28-.27-.47-.4-.66-1.47-2.11-2.93-4.22-4.4-6.32Z" fill="url(#r)" stroke-width="0"></path><path d="M128.75,57.79c.45,19.47.89,38.94,1.35,58.58,8.45-8.75,16.77-17.37,25.11-26.01-8.78-10.9-17.55-21.77-26.32-32.65-.04.03-.09.05-.13.08Z" fill="url(#s)" stroke-width="0"></path><path d="M220.97,57.81c.43,18.82.86,37.65,1.29,56.45,1,.29,2.17-.06,2.84-.75,1.75-1.83,3.51-3.64,5.27-5.46,2.26-2.34,4.51-4.69,6.77-7.03,1.99-2.06,3.99-4.12,5.98-6.18,1.43-1.48,2.85-2.96,4.29-4.47-8.78-10.89-17.54-21.76-26.31-32.64-.05.03-.09.05-.14.08Z" fill="url(#t)" stroke-width="0"></path></g><rect x="67.41" y="254.69" width="265.19" height="2.26" fill="url(#u)" stroke-width="0"></rect><rect x="97.31" y="308.42" width="205.38" height="1.5" fill="url(#v)" stroke-width="0"></rect><g><path d="M330.21,275.67h4.03v-2.49c0-.51-.16-.91-.49-1.21-.29-.27-.66-.41-1.11-.41-.77,0-1.56.43-2.37,1.28v-2.14c.87-.8,1.84-1.2,2.9-1.2.91,0,1.67.28,2.28.83.72.64,1.08,1.49,1.08,2.55v4.86h-7.66l1.35-2.07ZM176.68,266.27c.24-.24.52-.35.85-.35.32,0,.6.12.85.35.25.25.37.54.37.86s-.12.61-.37.85c-.25.25-.53.37-.85.37s-.6-.12-.85-.35c-.25-.25-.37-.54-.37-.87s.12-.62.37-.86ZM136.5,263.7c.22-.22.49-.34.79-.34s.57.11.79.34c.24.22.35.5.35.81s-.12.58-.35.81-.49.34-.79.34-.57-.11-.79-.34c-.24-.24-.35-.51-.35-.81s.12-.58.35-.81ZM242.91,298.51h-1.99v-4.46c0-1.13-.42-1.99-1.51-1.99-.79,0-1.35.57-1.56,1.17-.06.18-.08.42-.08.65v4.64h-2.01v-5.54c0-.91-.02-1.67-.06-2.35h1.75l.1,1.18h.05c.34-.62,1.2-1.36,2.51-1.36,1.38,0,2.8.89,2.8,3.39v4.68ZM243.88,266.89l2.3-.74v11.59h-2.3v-10.85ZM324.61,277.35c-.29-.29-.44-.64-.44-1.04s.15-.73.44-1.03c.28-.29.62-.44,1.03-.44s.76.14,1.04.42c.28.29.42.64.42,1.04s-.14.76-.42,1.04c-.28.28-.63.42-1.04.42s-.75-.14-1.03-.42Z" fill="url(#w)" stroke-width="0"></path><path d="M68.89,277.13c.56-.36.98-.88,1.26-1.55.22-.53.34-1.23.34-2.11,0-1.21-.31-2.17-.92-2.87-.67-.78-1.6-1.17-2.81-1.17-1.05,0-1.89.3-2.53.87-.82.74-1.23,1.83-1.23,3.27,0,1.29.33,2.31.99,3.06s1.58,1.11,2.75,1.11c.83,0,1.55-.2,2.15-.6ZM65.3,273.57c0-1.4.48-2.11,1.45-2.11s1.48.71,1.48,2.12-.49,2.11-1.48,2.11c-.97,0-1.45-.7-1.45-2.13Z" fill="url(#x)" stroke-width="0"></path><path d="M77.16,280.94c.63-.21,1.15-.55,1.58-1.01.41-.46.68-.98.81-1.55.12-.49.17-1.16.17-2v-2.26c0-3.18-1.27-4.77-3.82-4.77-.73,0-1.38.17-1.94.5-.55.31-.98.75-1.31,1.32-.41.71-.62,1.52-.62,2.44,0,.64.11,1.23.32,1.79.21.54.52,1,.91,1.41.69.71,1.61,1.06,2.77,1.06.47,0,.95-.11,1.43-.32-.06.23-.11.4-.16.5-.11.23-.26.43-.47.6-.39.35-.92.52-1.59.52-1.1,0-2.13-.31-3.07-.91l1.03,2.32c.27.13.56.24.88.34.62.16,1.18.24,1.7.24.47,0,.92-.06,1.37-.21ZM77.02,275.21c-.29.41-.68.62-1.15.62-.36,0-.67-.14-.94-.41-.41-.41-.61-1.02-.61-1.8,0-.66.15-1.21.46-1.65.29-.41.66-.61,1.11-.61.41,0,.77.18,1.06.54.34.44.51,1.01.51,1.72,0,.64-.15,1.17-.44,1.59Z" fill="url(#y)" stroke-width="0"></path><path d="M78.43,266.64h-2.51v-.46c0-.22.08-.42.23-.59.14-.16.29-.23.46-.23.27,0,.52.12.74.35l1.03-1.1c-.54-.52-1.14-.78-1.8-.78-.33,0-.64.07-.92.2-.52.22-.89.64-1.13,1.27-.1.31-.17.75-.19,1.33h-.73l-.89,1.52h5.71v-1.52Z" fill="url(#z)" stroke-width="0"></path><path d="M84.85,275.67c-.25,0-.43-.05-.54-.16-.14-.13-.22-.35-.22-.64v-8.73l-2.3.74v8.34c0,.73.2,1.32.6,1.77.45.5,1.1.74,1.97.74h1.68v-2.07h-1.19Z" fill="url(#aa)" stroke-width="0"></path><rect x="86.48" y="275.67" width="2.4" height="2.07" fill="url(#ab)" stroke-width="0"></rect><rect x="86.04" y="275.67" width=".44" height="2.07" fill="url(#ac)" stroke-width="0"></rect><rect x="89.31" y="275.67" width="2.41" height="2.07" fill="url(#ad)" stroke-width="0"></rect><rect x="88.88" y="275.67" width=".43" height="2.07" fill="url(#ae)" stroke-width="0"></rect><rect x="92.15" y="275.67" width="2.41" height="2.07" fill="url(#af)" stroke-width="0"></rect><rect x="91.72" y="275.67" width=".43" height="2.07" fill="url(#ag)" stroke-width="0"></rect><rect x="85.34" y="275.67" width="13.23" height="2.07" fill="url(#ah)" stroke-width="0"></rect><rect x="94.56" y="275.67" width=".43" height="2.07" fill="url(#ai)" stroke-width="0"></rect><path d="M107.91,277.74c.16-1.05.23-1.86.23-2.41,0-.8-.11-1.49-.34-2.06-.35-.98-.96-1.74-1.82-2.28-.74-.46-1.53-.69-2.37-.69-.26,0-.55.01-.88.03l3.83-4.01h-2.99l-5.25,5.89,1.36,1.2c.92-.8,1.92-1.2,2.99-1.2.93,0,1.69.32,2.26.96.51.55.76,1.25.76,2.1,0,.07,0,.2-.02.41h-7.85v2.07h10.07Z" fill="url(#aj)" stroke-width="0"></path><rect x="97.4" y="275.67" width=".43" height="2.07" fill="url(#ak)" stroke-width="0"></rect><path d="M116.02,275.67v-5.74l-2.29.74v5.9c0,.8-.24,1.44-.73,1.91-.44.45-1.02.67-1.73.67-1.02,0-2-.31-2.94-.91l1.03,2.32c.27.13.55.24.85.34.58.16,1.11.24,1.61.24.82,0,1.58-.19,2.28-.6.6-.35,1.08-.82,1.42-1.42.18-.32.33-.79.44-1.4h2.11v-2.07h-2.05Z" fill="url(#al)" stroke-width="0"></path><rect x="118.51" y="275.67" width="2.41" height="2.07" fill="url(#am)" stroke-width="0"></rect><rect x="118.08" y="275.67" width=".43" height="2.07" fill="url(#an)" stroke-width="0"></rect><rect x="121.35" y="275.67" width="2.41" height="2.07" fill="url(#ao)" stroke-width="0"></rect><rect x="120.92" y="275.67" width=".43" height="2.07" fill="url(#ap)" stroke-width="0"></rect><rect x="124.19" y="275.67" width="2.41" height="2.07" fill="url(#aq)" stroke-width="0"></rect><rect x="123.76" y="275.67" width=".43" height="2.07" fill="url(#ar)" stroke-width="0"></rect><rect x="127.03" y="275.67" width="2.41" height="2.07" fill="url(#as)" stroke-width="0"></rect><rect x="126.6" y="275.67" width=".43" height="2.07" fill="url(#at)" stroke-width="0"></rect><path d="M135.75,268.41c.32,0,.6-.12.85-.37.25-.24.37-.53.37-.85s-.12-.62-.37-.86c-.25-.24-.53-.35-.85-.35-.33,0-.62.12-.85.35s-.37.54-.37.86.12.62.37.87c.25.24.54.35.85.35Z" fill="url(#au)" stroke-width="0"></path><path d="M137.29,265.66c.31,0,.57-.11.79-.34.24-.24.35-.51.35-.81s-.12-.59-.35-.81c-.22-.22-.49-.34-.79-.34s-.57.11-.79.34c-.24.24-.35.51-.35.81s.12.58.35.81.49.34.79.34Z" fill="url(#av)" stroke-width="0"></path><path d="M137.71,267.18c0,.33.12.62.37.87.25.24.53.35.85.35s.61-.12.85-.37c.25-.24.37-.53.37-.85s-.12-.62-.37-.86c-.25-.24-.54-.35-.85-.35s-.61.12-.85.35-.37.54-.37.86Z" fill="url(#aw)" stroke-width="0"></path><path d="M143.45,274.52l.03-5.13-2.3.74v4.25c0,.86-.42,1.29-1.29,1.29h-1.35v-5.67l-2.28.74v4.93h-2.58v-4.98l-2.28.74v4.24h-1.54v2.07h10.11c1.1,0,1.98-.32,2.62-.96.58-.58.86-1.33.86-2.26Z" fill="url(#ax)" stroke-width="0"></path><rect x="117.34" y="275.67" width="13.38" height="2.07" fill="url(#ay)" stroke-width="0"></rect><path d="M149.41,269.34c-.73,0-1.38.17-1.94.5-.54.31-.98.75-1.3,1.32-.41.71-.62,1.52-.62,2.44,0,.64.11,1.23.32,1.79.21.54.51,1,.9,1.41.7.71,1.62,1.06,2.78,1.06.47,0,.95-.11,1.43-.32-.06.23-.12.4-.16.5-.1.23-.26.43-.46.6-.39.35-.92.52-1.59.52-1.11,0-2.14-.31-3.08-.91l1.03,2.32c.27.13.56.24.88.34.62.16,1.18.24,1.7.24.47,0,.93-.06,1.38-.21.62-.21,1.15-.55,1.57-1.01.41-.46.68-.98.81-1.55.12-.49.18-1.16.18-2v-2.26c0-3.18-1.28-4.77-3.82-4.77ZM150.52,275.21c-.29.41-.68.62-1.15.62-.35,0-.66-.14-.93-.41-.41-.41-.62-1.02-.62-1.8,0-.66.15-1.21.46-1.65.29-.41.66-.61,1.11-.61.41,0,.77.18,1.06.54.35.44.52,1.01.52,1.72,0,.64-.16,1.17-.45,1.59Z" fill="url(#az)" stroke-width="0"></path><path d="M161.21,275.67c-.25,0-.43-.05-.54-.16-.14-.13-.22-.35-.22-.64v-8.73l-2.3.74v8.34c0,.73.2,1.32.6,1.77.45.5,1.1.74,1.97.74h1.68v-2.07h-1.19Z" fill="url(#ba)" stroke-width="0"></path><rect x="162.84" y="275.67" width="2.4" height="2.07" fill="url(#bb)" stroke-width="0"></rect><rect x="162.4" y="275.67" width=".44" height="2.07" fill="url(#bc)" stroke-width="0"></rect><rect x="165.67" y="275.67" width="2.41" height="2.07" fill="url(#bd)" stroke-width="0"></rect><rect x="165.24" y="275.67" width=".43" height="2.07" fill="url(#be)" stroke-width="0"></rect><rect x="168.51" y="275.67" width="2.41" height="2.07" fill="url(#bf)" stroke-width="0"></rect><rect x="168.08" y="275.67" width=".43" height="2.07" fill="url(#bg)" stroke-width="0"></rect><rect x="171.35" y="275.67" width="2.41" height="2.07" fill="url(#bh)" stroke-width="0"></rect><rect x="170.92" y="275.67" width=".43" height="2.07" fill="url(#bi)" stroke-width="0"></rect><path d="M177.54,268.35c.32,0,.6-.12.85-.37.25-.24.37-.53.37-.85s-.12-.62-.37-.86c-.25-.24-.53-.35-.85-.35-.33,0-.62.12-.85.35s-.37.54-.37.86.12.62.37.87c.25.24.54.35.85.35Z" fill="url(#bj)" stroke-width="0"></path><path d="M180.17,275.67c-.43,0-.76-.09-.99-.29-.25-.24-.37-.57-.37-1.01v-4.44l-2.28.74v3.66c0,.89-.44,1.34-1.31,1.34h-1.02v2.07h1.13c.9,0,1.69-.29,2.37-.86.67.58,1.44.86,2.31.86h.92v-2.07h-.75Z" fill="url(#bk)" stroke-width="0"></path><rect x="161.69" y="275.67" width="13.2" height="2.07" fill="url(#bl)" stroke-width="0"></rect><rect x="180.5" y="275.67" width="11.13" height="2.07" fill="url(#bm)" stroke-width="0"></rect><rect x="180.92" y="275.67" width=".43" height="2.07" fill="url(#bn)" stroke-width="0"></rect><rect x="184.19" y="275.67" width="2.41" height="2.07" fill="url(#bo)" stroke-width="0"></rect><rect x="183.76" y="275.67" width=".43" height="2.07" fill="url(#bp)" stroke-width="0"></rect><rect x="187.03" y="275.67" width="2.41" height="2.07" fill="url(#bq)" stroke-width="0"></rect><rect x="186.6" y="275.67" width=".43" height="2.07" fill="url(#br)" stroke-width="0"></rect><rect x="185.8" y="275.67" width="9.53" height="2.07" fill="url(#bs)" stroke-width="0"></rect><rect x="189.44" y="275.67" width=".43" height="2.07" fill="url(#bt)" stroke-width="0"></rect><rect x="192.71" y="275.67" width="3.21" height="2.07" fill="url(#bu)" stroke-width="0"></rect><rect x="192.28" y="275.67" width=".43" height="2.07" fill="url(#bv)" stroke-width="0"></rect><path d="M206.56,275.67v-1.2c0-1.33-.28-2.45-.85-3.38-.86-1.39-2.13-2.09-3.82-2.09-1.24,0-2.26.35-3.06,1.04-.54.47-.95,1.1-1.24,1.89-.27.75-.41,1.52-.41,2.32,0,.54.07,1,.2,1.41h-1.84v2.07h12.29v-2.07h-1.29ZM200.58,275.49c-.14.25-.34.37-.61.37-.18,0-.33-.07-.47-.18-.22-.22-.34-.6-.34-1.11,0-.41.08-.74.25-.97.14-.2.33-.3.55-.3.21,0,.39.09.54.28.18.22.27.54.27.97,0,.39-.07.7-.2.94ZM204.24,275.67h-1.74c.16-.39.23-.8.23-1.23,0-.56-.09-1.05-.28-1.47-.27-.6-.7-1.02-1.3-1.25-.26-.1-.64-.15-1.15-.16.12-.16.26-.28.44-.39.41-.27.84-.41,1.3-.41.36,0,.68.08.98.23.39.21.71.52.96.93.37.63.56,1.34.56,2.12v1.62Z" fill="url(#bw)" stroke-width="0"></path><rect x="195.12" y="275.67" width=".43" height="2.07" fill="url(#bx)" stroke-width="0"></rect><rect x="208.28" y="275.67" width="2.41" height="2.07" fill="url(#by)" stroke-width="0"></rect><rect x="207.84" y="275.67" width=".43" height="2.07" fill="url(#bz)" stroke-width="0"></rect><rect x="210.19" y="275.67" width="3.92" height="2.07" fill="url(#ca)" stroke-width="0"></rect><rect x="210.68" y="275.67" width=".43" height="2.07" fill="url(#cb)" stroke-width="0"></rect><rect x="207.52" y="275.67" width="9.56" height="2.07" fill="url(#cc)" stroke-width="0"></rect><rect x="213.52" y="275.67" width=".43" height="2.07" fill="url(#cd)" stroke-width="0"></rect><path d="M227.91,275.67c-.51,0-.9-.11-1.18-.34-.28-.2-.45-.52-.54-.98-.1-.52-.2-.9-.32-1.15-.22-.54-.53-.98-.93-1.33-.65-.56-1.46-.85-2.44-.85-.73,0-1.37.16-1.93.47-.58.33-1.04.82-1.36,1.47-.18.35-.32.82-.42,1.43-.07.39-.21.68-.42.88-.27.26-.68.39-1.22.39h-.35v2.07h.46c.79,0,1.44-.2,1.96-.59.26.48.57.86.91,1.13.63.51,1.43.77,2.38.77s1.72-.25,2.35-.74c.4-.31.74-.75,1.01-1.31.62.5,1.34.74,2.18.74h.14v-2.07h-.26ZM222.48,277.01c-.36,0-.66-.11-.9-.34-.36-.32-.54-.86-.54-1.62,0-.54.1-.98.3-1.33.25-.45.63-.67,1.15-.67s.89.22,1.15.67c.2.33.3.78.3,1.33,0,1.31-.49,1.96-1.47,1.96Z" fill="url(#ce)" stroke-width="0"></path><rect x="216.36" y="275.67" width=".43" height="2.07" fill="url(#cf)" stroke-width="0"></rect><rect x="228.6" y="275.67" width="2.41" height="2.07" fill="url(#cg)" stroke-width="0"></rect><rect x="228.17" y="275.67" width=".43" height="2.07" fill="url(#ch)" stroke-width="0"></rect><rect x="231.45" y="275.67" width="2.41" height="2.07" fill="url(#ci)" stroke-width="0"></rect><rect x="231.01" y="275.67" width=".43" height="2.07" fill="url(#cj)" stroke-width="0"></rect><rect x="227.71" y="275.67" width="10.72" height="2.07" fill="url(#ck)" stroke-width="0"></rect><rect x="233.85" y="275.67" width=".43" height="2.07" fill="url(#cl)" stroke-width="0"></rect><path d="M238.24,277.74c1.08,0,1.94-.28,2.58-.85.66-.59.98-1.41.98-2.46v-8.29l-2.28.74v7.44c0,.89-.45,1.34-1.36,1.34h-1.04v2.07h1.11Z" fill="url(#cm)" stroke-width="0"></path><rect x="236.69" y="275.67" width=".43" height="2.07" fill="url(#cn)" stroke-width="0"></rect><polygon points="246.17 266.14 243.88 266.89 243.88 277.74 246.17 277.74 246.17 266.14" fill="url(#co)" stroke-width="0"></polygon><path d="M258.21,275.67v-2.79c0-1.06-.36-1.91-1.08-2.55-.61-.55-1.37-.83-2.28-.83-1.06,0-2.03.4-2.9,1.2v2.14c.82-.85,1.61-1.28,2.37-1.28.45,0,.82.14,1.11.41.33.3.49.7.49,1.21v2.49h-4.03l-1.35,2.07h9.63v-2.07h-1.98Z" fill="url(#cp)" stroke-width="0"></path><rect x="260.62" y="275.67" width="2.41" height="2.07" fill="url(#cq)" stroke-width="0"></rect><rect x="260.19" y="275.67" width=".43" height="2.07" fill="url(#cr)" stroke-width="0"></rect><rect x="263.46" y="275.67" width="2.41" height="2.07" fill="url(#cs)" stroke-width="0"></rect><rect x="263.03" y="275.67" width=".43" height="2.07" fill="url(#ct)" stroke-width="0"></rect><rect x="266.3" y="275.67" width="2.41" height="2.07" fill="url(#cu)" stroke-width="0"></rect><rect x="265.87" y="275.67" width=".43" height="2.07" fill="url(#cv)" stroke-width="0"></rect><rect x="258.77" y="275.67" width="14.14" height="2.07" fill="url(#cw)" stroke-width="0"></rect><rect x="268.71" y="275.67" width=".43" height="2.07" fill="url(#cx)" stroke-width="0"></rect><path d="M281.05,277c.62.5,1.34.74,2.18.74h.14v-2.07h-.26c-.51,0-.9-.11-1.18-.34-.28-.2-.45-.52-.54-.98-.1-.52-.2-.9-.32-1.15-.22-.54-.53-.98-.93-1.33-.65-.56-1.46-.85-2.44-.85-.73,0-1.37.16-1.93.47-.58.33-1.04.82-1.36,1.47-.18.35-.32.82-.42,1.43-.07.39-.21.68-.42.88-.27.26-.68.39-1.22.39h-.35v2.07h.46c.79,0,1.44-.2,1.96-.59.26.48.57.86.91,1.13.63.51,1.43.77,2.38.77s1.72-.25,2.35-.74c.4-.31.74-.75,1.01-1.31ZM277.67,277.01c-.36,0-.66-.11-.9-.34-.36-.32-.54-.86-.54-1.62,0-.54.1-.98.3-1.33.25-.45.63-.67,1.15-.67s.89.22,1.15.67c.2.33.3.78.3,1.33,0,1.31-.49,1.96-1.47,1.96Z" fill="url(#cy)" stroke-width="0"></path><rect x="271.55" y="275.67" width=".43" height="2.07" fill="url(#cz)" stroke-width="0"></rect><rect x="283.79" y="275.67" width="2.41" height="2.07" fill="url(#da)" stroke-width="0"></rect><rect x="283.36" y="275.67" width=".43" height="2.07" fill="url(#db)" stroke-width="0"></rect><rect x="286.63" y="275.67" width="2.41" height="2.07" fill="url(#dc)" stroke-width="0"></rect><rect x="286.2" y="275.67" width=".43" height="2.07" fill="url(#dd)" stroke-width="0"></rect><rect x="282.79" y="275.67" width="12.19" height="2.07" fill="url(#de)" stroke-width="0"></rect><rect x="289.04" y="275.67" width=".43" height="2.07" fill="url(#df)" stroke-width="0"></rect><path d="M303.3,277.74v-2.07h-1.86v-1.13c0-.9-.09-1.63-.29-2.21-.22-.61-.54-1.13-.96-1.55-.82-.83-1.88-1.25-3.19-1.25-.94,0-1.83.23-2.65.69-.53.29-1.01.69-1.43,1.2l1.42,1.42c.78-.81,1.65-1.21,2.63-1.21.86,0,1.47.41,1.82,1.21.22.52.34,1.15.34,1.89v.95h-6.82v2.07h10.99Z" fill="url(#dg)" stroke-width="0"></path><rect x="291.88" y="275.67" width=".43" height="2.07" fill="url(#dh)" stroke-width="0"></rect><rect x="302.85" y="275.67" width="7.46" height="2.07" fill="url(#di)" stroke-width="0"></rect><rect x="303.3" y="275.67" width=".43" height="2.07" fill="url(#dj)" stroke-width="0"></rect><rect x="306.57" y="275.67" width="2.41" height="2.07" fill="url(#dk)" stroke-width="0"></rect><rect x="306.14" y="275.67" width=".43" height="2.07" fill="url(#dl)" stroke-width="0"></rect><path d="M310.63,277.74c.44,0,.81-.04,1.11-.12.36-.1.69-.28,1.01-.55.73.53,1.55.79,2.47.79,1.02,0,1.85-.29,2.48-.88.78-.73,1.17-1.83,1.17-3.31,0-1.29-.31-2.3-.92-3.02-.65-.74-1.57-1.11-2.75-1.11-1.06,0-1.91.29-2.55.88-.78.73-1.17,1.83-1.17,3.29v.57c0,.93-.45,1.39-1.36,1.39h-.73v2.07h1.22ZM314.13,272.24c.24-.41.6-.62,1.08-.62s.83.2,1.06.6c.2.35.3.85.3,1.48,0,.51-.07.92-.2,1.25-.22.55-.61.82-1.17.82-.48,0-.84-.2-1.08-.6-.2-.35-.29-.84-.29-1.47s.1-1.12.29-1.47Z" fill="url(#dm)" stroke-width="0"></path><rect x="308.98" y="275.67" width=".43" height="2.07" fill="url(#dn)" stroke-width="0"></rect><path d="M327.1,276.31c0-.4-.14-.75-.42-1.04-.28-.28-.63-.42-1.04-.42s-.75.15-1.03.44c-.29.29-.44.64-.44,1.03s.15.75.44,1.04.62.42,1.03.42.76-.14,1.04-.42c.28-.28.42-.63.42-1.04Z" fill="url(#do)" stroke-width="0"></path><path d="M336.52,272.88c0-1.06-.36-1.91-1.08-2.55-.61-.55-1.37-.83-2.28-.83-1.06,0-2.03.4-2.9,1.2v2.14c.82-.85,1.61-1.28,2.37-1.28.45,0,.82.14,1.11.41.33.3.49.7.49,1.21v2.49h-4.03l-1.35,2.07h7.66v-4.86Z" fill="url(#dp)" stroke-width="0"></path><path d="M72,288.77c-1-.84-2.41-1.26-4.46-1.26-1.18,0-2.3.08-3.18.23v10.75c.65.08,1.52.15,2.69.15,2.12,0,3.86-.5,4.94-1.49,1.04-.94,1.7-2.4,1.7-4.34s-.65-3.16-1.7-4.02ZM67.47,297.04c-.41,0-.83,0-1.1-.05v-7.81c.28-.06.73-.11,1.36-.11,2.5,0,3.89,1.38,3.87,3.79,0,2.77-1.54,4.2-4.13,4.18Z" fill="#fff" stroke-width="0"></path><path d="M72,288.77c-1-.84-2.41-1.26-4.46-1.26-1.18,0-2.3.08-3.18.23v10.75c.65.08,1.52.15,2.69.15,2.12,0,3.86-.5,4.94-1.49,1.04-.94,1.7-2.4,1.7-4.34s-.65-3.16-1.7-4.02ZM67.47,297.04c-.41,0-.83,0-1.1-.05v-7.81c.28-.06.73-.11,1.36-.11,2.5,0,3.89,1.38,3.87,3.79,0,2.77-1.54,4.2-4.13,4.18Z" fill="url(#dq)" stroke-width="0"></path><path d="M77.21,292.13h-.06l-.06-1.51h-1.73c.05.71.06,1.47.06,2.54v5.35h1.99v-4.08c0-.23.03-.44.06-.62.18-.89.83-1.51,1.78-1.51.24,0,.42.03.58.06v-1.88c-.16-.03-.28-.05-.47-.05-.84,0-1.77.57-2.16,1.69Z" fill="url(#dr)" stroke-width="0"></path><path d="M81.21,296.13c-.71,0-1.23.53-1.23,1.28s.5,1.28,1.23,1.28,1.23-.55,1.23-1.28-.5-1.28-1.23-1.28Z" fill="url(#ds)" stroke-width="0"></path><path d="M95.63,287.59l-1.51,4.38c-.42,1.28-.79,2.63-1.09,3.81h-.05c-.28-1.22-.62-2.51-1-3.79l-1.43-4.39h-2.63l-.73,10.92h1.86l.24-4.39c.08-1.49.15-3.23.19-4.65h.03c.29,1.36.68,2.85,1.1,4.25l1.46,4.67h1.54l1.59-4.73c.49-1.38.94-2.85,1.3-4.18h.05c-.02,1.47.06,3.18.13,4.59l.21,4.46h1.94l-.63-10.92h-2.59Z" fill="url(#dt)" stroke-width="0"></path><path d="M104.46,290.44c-2.38,0-4.08,1.59-4.08,4.18s1.72,4.07,3.95,4.07c2.01,0,4.05-1.3,4.05-4.2,0-2.4-1.57-4.05-3.92-4.05ZM104.4,297.25c-1.22,0-1.96-1.15-1.96-2.67,0-1.31.57-2.67,1.98-2.67s1.91,1.41,1.91,2.64c0,1.59-.79,2.71-1.93,2.71Z" fill="url(#du)" stroke-width="0"></path><path d="M114.41,290.44c-.5,0-.97.13-1.36.36-.42.23-.75.53-.99.91h-.03v-4.7h-2.01v11.51h2.01v-4.72c0-.23.02-.44.08-.6.21-.6.76-1.12,1.54-1.12,1.1,0,1.52.86,1.52,2.01v4.42h1.99v-4.65c0-2.53-1.41-3.42-2.76-3.42Z" fill="url(#dv)" stroke-width="0"></path><path d="M125.42,293.76c0-1.72-.73-3.32-3.26-3.32-1.25,0-2.27.34-2.85.7l.39,1.3c.53-.34,1.35-.58,2.12-.58,1.39,0,1.6.86,1.6,1.38v.13c-2.92-.02-4.68.99-4.68,2.98,0,1.2.89,2.35,2.48,2.35,1.02,0,1.85-.44,2.33-1.05h.05l.13.88h1.8c-.08-.49-.11-1.18-.11-1.9v-2.85ZM123.47,295.74c0,.13-.02.29-.06.44-.18.57-.76,1.09-1.56,1.09-.63,0-1.13-.36-1.13-1.13,0-1.2,1.35-1.51,2.76-1.47v1.09Z" fill="url(#dw)" stroke-width="0"></path><path d="M136.52,290.44c-.65,0-1.15.16-1.59.47-.37.23-.7.55-.97.99h-.03c-.34-.88-1.15-1.46-2.19-1.46-1.33,0-2.04.73-2.43,1.35h-.05l-.08-1.17h-1.72c.05.68.06,1.44.06,2.35v5.54h1.95v-4.67c0-.23.03-.45.11-.65.18-.55.68-1.13,1.43-1.13.92,0,1.36.78,1.36,1.88v4.57h1.94v-4.73c0-.23.05-.47.1-.66.21-.57.71-1.05,1.39-1.05.96,0,1.41.78,1.41,2.09v4.36h1.95v-4.65c0-2.53-1.33-3.42-2.64-3.42Z" fill="url(#dx)" stroke-width="0"></path><path d="M150.26,290.44c-.65,0-1.15.16-1.59.47-.37.23-.7.55-.97.99h-.03c-.34-.88-1.15-1.46-2.19-1.46-1.33,0-2.04.73-2.43,1.35h-.05l-.08-1.17h-1.72c.05.68.06,1.44.06,2.35v5.54h1.95v-4.67c0-.23.03-.45.11-.65.18-.55.68-1.13,1.43-1.13.92,0,1.36.78,1.36,1.88v4.57h1.94v-4.73c0-.23.05-.47.1-.66.21-.57.71-1.05,1.39-1.05.96,0,1.41.78,1.41,2.09v4.36h1.95v-4.65c0-2.53-1.33-3.42-2.64-3.42Z" fill="url(#dy)" stroke-width="0"></path><path d="M158.36,290.44c-2.53,0-3.86,2.06-3.86,4.25,0,2.42,1.51,3.99,4.07,3.99,1.13,0,2.07-.21,2.76-.49l-.29-1.38c-.6.23-1.26.36-2.19.36-1.26,0-2.38-.62-2.43-2.04h5.28c.03-.18.06-.47.06-.84,0-1.73-.84-3.84-3.4-3.84ZM156.42,293.73c.08-.81.6-1.93,1.83-1.93,1.33,0,1.65,1.2,1.64,1.93h-3.47Z" fill="url(#dz)" stroke-width="0"></path><path d="M170.65,287h-1.99v4.47h-.03c-.36-.58-1.13-1.04-2.22-1.04-1.9,0-3.55,1.57-3.53,4.21,0,2.43,1.49,4.04,3.37,4.04,1.15,0,2.11-.55,2.58-1.43h.03l.08,1.25h1.78c-.03-.53-.06-1.41-.06-2.22v-9.29ZM168.65,295.09c0,.21-.02.41-.06.58-.19.86-.91,1.41-1.72,1.41-1.26,0-1.98-1.05-1.98-2.5s.71-2.61,1.99-2.61c.91,0,1.54.63,1.72,1.41.03.16.05.36.05.52v1.18Z" fill="url(#ea)" stroke-width="0"></path><path d="M178.91,287.59l-3.5,10.92h2.06l.94-3.1h3.47l.99,3.1h2.14l-3.55-10.92h-2.54ZM178.73,293.91l.84-2.69c.19-.65.36-1.41.52-2.04h.03c.16.63.34,1.38.55,2.04l.86,2.69h-2.8Z" fill="url(#eb)" stroke-width="0"></path><rect x="186.37" y="287" width="2.01" height="11.51" fill="url(#ec)" stroke-width="0"></rect><rect x="189.95" y="293.5" width="4.13" height="1.38" fill="url(#ed)" stroke-width="0"></rect><path d="M203.87,287.59l-1.51,4.38c-.42,1.28-.79,2.63-1.09,3.81h-.05c-.28-1.22-.62-2.51-1-3.79l-1.43-4.39h-2.63l-.73,10.92h1.86l.24-4.39c.08-1.49.15-3.23.19-4.65h.03c.29,1.36.68,2.85,1.1,4.25l1.46,4.67h1.54l1.59-4.73c.49-1.38.94-2.85,1.3-4.18h.05c-.02,1.47.06,3.18.13,4.59l.21,4.46h1.94l-.63-10.92h-2.59Z" fill="url(#ee)" stroke-width="0"></path><path d="M216.11,290.62h-1.99v4.77c0,.23-.05.44-.11.62-.21.5-.73,1.07-1.52,1.07-1.05,0-1.47-.84-1.47-2.16v-4.3h-1.99v4.64c0,2.58,1.31,3.44,2.76,3.44s2.19-.81,2.53-1.38h.03l.1,1.2h1.75c-.03-.65-.07-1.43-.07-2.37v-5.53Z" fill="url(#ef)" stroke-width="0"></path><path d="M222.65,290.44c-.5,0-.97.13-1.36.36-.42.23-.75.53-.99.91h-.03v-4.7h-2.01v11.51h2.01v-4.72c0-.23.02-.44.08-.6.21-.6.76-1.12,1.54-1.12,1.1,0,1.52.86,1.52,2.01v4.42h1.99v-4.65c0-2.53-1.41-3.42-2.76-3.42Z" fill="url(#eg)" stroke-width="0"></path><path d="M233.66,293.76c0-1.72-.73-3.32-3.26-3.32-1.25,0-2.27.34-2.85.7l.39,1.3c.53-.34,1.35-.58,2.12-.58,1.39,0,1.6.86,1.6,1.38v.13c-2.92-.02-4.68.99-4.68,2.98,0,1.2.89,2.35,2.48,2.35,1.02,0,1.85-.44,2.33-1.05h.05l.13.88h1.8c-.08-.49-.11-1.18-.11-1.9v-2.85ZM231.71,295.74c0,.13-.02.29-.06.44-.18.57-.76,1.09-1.56,1.09-.63,0-1.13-.36-1.13-1.13,0-1.2,1.35-1.51,2.76-1.47v1.09Z" fill="url(#eh)" stroke-width="0"></path><path d="M240.11,290.44c-1.31,0-2.17.75-2.51,1.36h-.05l-.1-1.18h-1.75c.05.68.06,1.44.06,2.35v5.54h2.01v-4.64c0-.23.02-.47.08-.65.21-.6.76-1.17,1.56-1.17,1.09,0,1.51.86,1.51,1.99v4.46h1.99v-4.68c0-2.5-1.43-3.39-2.8-3.39Z" fill="url(#ei)" stroke-width="0"></path><path d="M249.38,290.44c-1.31,0-2.17.75-2.51,1.36h-.05l-.1-1.18h-1.75c.05.68.06,1.44.06,2.35v5.54h2.01v-4.64c0-.23.02-.47.08-.65.21-.6.76-1.17,1.56-1.17,1.09,0,1.51.86,1.51,1.99v4.46h1.99v-4.68c0-2.5-1.43-3.39-2.8-3.39Z" fill="url(#ej)" stroke-width="0"></path><path d="M260.43,293.76c0-1.72-.73-3.32-3.26-3.32-1.25,0-2.27.34-2.85.7l.39,1.3c.53-.34,1.35-.58,2.12-.58,1.39,0,1.6.86,1.6,1.38v.13c-2.92-.02-4.68.99-4.68,2.98,0,1.2.89,2.35,2.48,2.35,1.02,0,1.85-.44,2.33-1.05h.05l.13.88h1.8c-.08-.49-.11-1.18-.11-1.9v-2.85ZM258.48,295.74c0,.13-.02.29-.06.44-.18.57-.76,1.09-1.56,1.09-.63,0-1.13-.36-1.13-1.13,0-1.2,1.35-1.51,2.76-1.47v1.09Z" fill="url(#ek)" stroke-width="0"></path><path d="M275.03,292.37h-1.78c-.19,1.15-.52,2.17-.99,2.9-.6-.65-1.44-1.62-2.2-2.5l.02-.06c1.6-.79,2.25-1.72,2.25-2.85,0-1.49-1.17-2.45-2.71-2.45-2.03,0-3.06,1.44-3.06,2.8,0,.78.36,1.57.88,2.19v.05c-1.25.66-2.11,1.7-2.11,3.16,0,1.57,1.2,3.08,3.61,3.08,1.25,0,2.25-.39,3.08-1.09.32.36.58.63.86.91h2.33c-.68-.71-1.28-1.38-1.88-2.04.91-1.04,1.41-2.42,1.7-4.1ZM269.52,288.69c.76,0,1.09.65,1.09,1.23,0,.76-.54,1.26-1.46,1.85-.49-.55-.79-1.09-.79-1.75s.41-1.33,1.17-1.33ZM269.23,297.22c-1.22,0-2.01-.84-2.01-1.93,0-.91.6-1.47,1.12-1.83,1.02,1.18,2.06,2.33,2.72,3.03-.41.42-1.05.73-1.83.73Z" fill="url(#el)" stroke-width="0"></path><path d="M282.82,287.51c-1.35,0-2.33.1-3.05.23v10.78h1.98v-4.12c.26.05.6.06.97.06,1.41,0,2.66-.37,3.45-1.17.62-.58.94-1.44.94-2.48s-.42-1.88-1.07-2.42c-.7-.58-1.77-.89-3.23-.89ZM282.73,292.9c-.41,0-.73-.02-.97-.08v-3.7c.21-.05.6-.1,1.15-.1,1.38,0,2.22.65,2.22,1.86,0,1.28-.91,2.01-2.4,2.01Z" fill="url(#em)" stroke-width="0"></path><path d="M294.54,293.76c0-1.72-.73-3.32-3.26-3.32-1.25,0-2.27.34-2.85.7l.39,1.3c.54-.34,1.35-.58,2.12-.58,1.39,0,1.6.86,1.6,1.38v.13c-2.92-.02-4.68.99-4.68,2.98,0,1.2.89,2.35,2.48,2.35,1.02,0,1.85-.44,2.33-1.05h.05l.13.88h1.8c-.08-.49-.11-1.18-.11-1.9v-2.85ZM292.6,295.74c0,.13-.02.29-.06.44-.18.57-.76,1.09-1.56,1.09-.63,0-1.13-.36-1.13-1.13,0-1.2,1.35-1.51,2.76-1.47v1.09Z" fill="url(#en)" stroke-width="0"></path><path d="M298.45,292.13h-.06l-.06-1.51h-1.73c.05.71.06,1.47.06,2.54v5.35h1.99v-4.08c0-.23.03-.44.06-.62.18-.89.83-1.51,1.78-1.51.24,0,.42.03.58.06v-1.88c-.16-.03-.28-.05-.47-.05-.84,0-1.77.57-2.16,1.69Z" fill="url(#eo)" stroke-width="0"></path><path d="M305.07,288.37l-1.95.47v1.78h-1.13v1.49h1.13v3.71c0,1.04.19,1.75.62,2.2.37.41.99.65,1.72.65.63,0,1.15-.08,1.44-.19l-.03-1.52c-.18.05-.44.1-.78.1-.76,0-1.02-.5-1.02-1.46v-3.48h1.9v-1.49h-1.9v-2.25Z" fill="url(#ep)" stroke-width="0"></path><path d="M312.82,290.44c-1.31,0-2.17.75-2.51,1.36h-.05l-.1-1.18h-1.75c.05.68.06,1.44.06,2.35v5.54h2.01v-4.64c0-.23.02-.47.08-.65.21-.6.76-1.17,1.56-1.17,1.09,0,1.51.86,1.51,1.99v4.46h1.99v-4.68c0-2.5-1.43-3.39-2.8-3.39Z" fill="url(#eq)" stroke-width="0"></path><path d="M321.1,290.44c-2.53,0-3.86,2.06-3.86,4.25,0,2.42,1.51,3.99,4.07,3.99,1.13,0,2.07-.21,2.76-.49l-.29-1.38c-.6.23-1.26.36-2.19.36-1.26,0-2.38-.62-2.43-2.04h5.28c.03-.18.06-.47.06-.84,0-1.73-.84-3.84-3.4-3.84ZM319.16,293.73c.08-.81.6-1.93,1.83-1.93,1.33,0,1.65,1.2,1.64,1.93h-3.47Z" fill="url(#er)" stroke-width="0"></path><path d="M327.91,292.13h-.06l-.06-1.51h-1.73c.05.71.06,1.47.06,2.54v5.35h1.99v-4.08c0-.23.03-.44.06-.62.18-.89.83-1.51,1.78-1.51.24,0,.42.03.58.06v-1.88c-.16-.03-.28-.05-.47-.05-.84,0-1.77.57-2.16,1.69Z" fill="url(#es)" stroke-width="0"></path><path d="M334.89,293.8c-1-.36-1.38-.6-1.38-1.1s.39-.83,1.1-.83,1.33.26,1.67.45l.39-1.41c-.45-.24-1.22-.47-2.09-.47-1.83,0-2.98,1.09-2.98,2.48-.02.92.63,1.77,2.17,2.3.97.34,1.3.62,1.3,1.15s-.39.88-1.26.88c-.71,0-1.57-.29-2.03-.57l-.39,1.44c.58.32,1.44.55,2.4.55,2.09,0,3.21-1.04,3.21-2.46-.02-1.17-.68-1.9-2.11-2.42Z" fill="url(#et)" stroke-width="0"></path></g><g><path d="M128.29,321.71c.29,0,.55-.11.78-.34.23-.22.34-.47.34-.78s-.11-.56-.34-.79c-.23-.22-.49-.32-.78-.32s-.56.11-.78.32c-.23.23-.34.49-.34.79s.11.56.34.79c.23.22.49.32.78.32Z" fill="url(#eu)" stroke-width="0"></path><path d="M125.37,328.07c.82.5,1.9.74,3.23.74,1.86,0,3.23-.54,4.13-1.62.55-.66.83-1.45.83-2.37v-5.6l-2.11.65v4.57c0,.75-.27,1.35-.82,1.79-.52.42-1.2.63-2.06.63-1.89,0-2.93-.85-3.13-2.57-.02-.22-.03-.79-.03-1.73v-.66l-2.08.62v1c.02,1.22.25,2.26.68,3.11.3.6.75,1.09,1.36,1.46Z" fill="url(#ev)" stroke-width="0"></path><path d="M136.59,324.82c.64.65,1.49.97,2.55.97.43,0,.87-.1,1.31-.29-.06.21-.11.36-.15.46-.09.21-.23.39-.42.55-.35.32-.84.47-1.46.47-1.02,0-1.96-.28-2.82-.83l.94,2.13c.25.12.52.22.81.31.56.15,1.08.22,1.56.22.43,0,.85-.06,1.27-.19.57-.2,1.05-.5,1.44-.93.37-.42.62-.9.74-1.42.11-.45.17-1.06.17-1.84v-2.07c0-2.92-1.17-4.38-3.51-4.38-.67,0-1.26.16-1.78.46-.5.28-.89.68-1.19,1.21-.38.65-.57,1.4-.57,2.24,0,.59.1,1.13.29,1.64.19.49.46.92.82,1.29ZM137.98,320.4c.27-.37.61-.56,1.02-.56.38,0,.7.17.97.5.32.4.47.93.47,1.57,0,.59-.14,1.08-.41,1.46s-.62.57-1.05.57c-.32,0-.61-.12-.85-.37-.38-.38-.57-.93-.57-1.65,0-.61.14-1.11.42-1.51Z" fill="url(#ew)" stroke-width="0"></path><path d="M144.43,328.59c.53.15,1.02.22,1.47.22.45,0,.91-.07,1.36-.22.64-.21,1.16-.54,1.57-.99.61-.66.91-1.53.91-2.61v-6.96l-2.1.68v5.9c0,.73-.22,1.32-.66,1.75-.41.41-.93.62-1.58.62-.94,0-1.84-.28-2.69-.83l.94,2.13c.25.12.51.22.78.31Z" fill="url(#ex)" stroke-width="0"></path><path d="M154.44,323.79c-.23,0-.39-.05-.5-.14-.13-.12-.2-.32-.2-.59v-8l-2.1.68v7.64c0,.67.18,1.21.55,1.62.41.45,1.01.68,1.8.68h2.39s.64-1.9.64-1.9h-2.59Z" fill="url(#ey)" stroke-width="0"></path><path d="M164.93,317.61c.3,0,.56-.11.78-.34.23-.22.34-.47.34-.78s-.11-.57-.34-.8c-.23-.22-.49-.32-.78-.32s-.56.11-.78.32c-.23.23-.34.5-.34.8s.11.56.34.79c.23.22.49.32.78.32Z" fill="url(#ez)" stroke-width="0"></path><path d="M162.02,317.61c.29,0,.55-.11.78-.34.23-.22.34-.47.34-.78s-.11-.57-.34-.8c-.23-.22-.49-.32-.78-.32-.31,0-.57.11-.78.32-.23.23-.34.5-.34.8s.11.56.34.79c.23.22.49.32.78.32Z" fill="url(#fa)" stroke-width="0"></path><polygon points="169.09 323.79 169.09 318.52 166.99 319.21 166.99 323.79 164.58 323.79 164.58 319.07 162.49 319.75 162.49 323.79 160.12 323.79 160.12 319.7 158.03 320.38 158.03 323.79 155.93 323.79 155.93 325.69 172.48 325.67 173.07 323.78 169.09 323.79" fill="url(#fb)" stroke-width="0"></polygon><path d="M162.7,314.8c.21.21.45.31.73.31s.52-.1.73-.31c.22-.22.32-.46.32-.74s-.1-.49-.28-.69h-1.55c-.18.21-.28.43-.28.69,0,.28.11.53.32.74Z" fill="url(#fc)" stroke-width="0"></path><path d="M174.61,317.08c.29,0,.55-.11.78-.34.23-.22.34-.48.34-.78s-.11-.56-.34-.79c-.23-.22-.49-.32-.78-.32-.31,0-.57.11-.78.32-.23.23-.34.49-.34.79s.11.57.34.8c.23.22.49.32.78.32Z" fill="url(#fd)" stroke-width="0"></path><path d="M177.02,323.79c-.39,0-.69-.08-.91-.27-.23-.22-.34-.52-.34-.93v-4.07l-2.09.68v3.36c0,.82-.4,1.23-1.2,1.23h-.93v1.9h1.04c.83,0,1.55-.26,2.17-.79.61.53,1.32.79,2.12.79h1.97s.28-1.91.28-1.91h-2.1Z" fill="url(#fe)" stroke-width="0"></path><path d="M171.69,317.08c.29,0,.55-.11.78-.34.23-.22.34-.48.34-.78s-.11-.56-.34-.79c-.23-.22-.49-.32-.78-.32s-.56.11-.78.32c-.23.23-.34.49-.34.79s.11.57.34.8c.23.22.49.32.78.32Z" fill="url(#ff)" stroke-width="0"></path><polygon points="191.27 323.79 191.27 318.52 189.17 319.21 189.17 323.79 186.76 323.79 186.76 319.07 184.67 319.75 184.67 323.79 182.3 323.79 182.3 319.7 180.21 320.38 180.21 323.79 178.11 323.79 178.11 325.69 194.26 325.7 196.87 323.78 191.27 323.79" fill="url(#fg)" stroke-width="0"></polygon><path d="M199.04,318.17c-.97,0-1.75.27-2.33.81-.71.67-1.07,1.67-1.07,3.01v.52c0,.85-.41,1.27-1.24,1.27h-.66v1.9h1.12c.4,0,.74-.04,1.02-.11.33-.09.64-.26.93-.51.66.49,1.42.73,2.26.73.94,0,1.7-.27,2.27-.81.71-.67,1.07-1.68,1.07-3.03,0-1.19-.28-2.11-.84-2.77-.6-.68-1.44-1.02-2.52-1.02ZM200.11,323.14c-.21.5-.56.75-1.07.75-.44,0-.77-.18-.99-.55-.18-.32-.27-.77-.27-1.35s.09-1.02.27-1.35c.22-.38.55-.57.99-.57s.76.18.97.55c.18.32.28.78.28,1.36,0,.46-.06.85-.18,1.15Z" fill="url(#fh)" stroke-width="0"></path><path d="M205.42,324.82c.64.65,1.49.97,2.55.97.43,0,.87-.1,1.31-.29-.06.21-.11.36-.15.46-.09.21-.24.39-.42.55-.35.32-.84.47-1.46.47-1.02,0-1.96-.28-2.82-.83l.94,2.13c.25.12.52.22.81.31.56.15,1.08.22,1.56.22.43,0,.85-.06,1.27-.19.57-.2,1.05-.5,1.44-.93.37-.42.62-.9.74-1.42.11-.45.17-1.06.17-1.84v-2.07c0-2.92-1.17-4.38-3.51-4.38-.67,0-1.26.16-1.78.46-.5.28-.89.68-1.19,1.21-.38.65-.57,1.4-.57,2.24,0,.59.1,1.13.29,1.64.19.49.46.92.82,1.29ZM206.82,320.4c.27-.37.61-.56,1.02-.56.38,0,.7.17.97.5.32.4.47.93.47,1.57,0,.59-.14,1.08-.41,1.46s-.62.57-1.05.57c-.32,0-.61-.12-.85-.37-.38-.38-.57-.93-.57-1.65,0-.61.14-1.11.42-1.51Z" fill="url(#fi)" stroke-width="0"></path><path d="M224.78,327.19c.55-.66.83-1.45.83-2.37v-5.6l-2.11.65v4.57c0,.75-.27,1.35-.82,1.79-.52.42-1.2.63-2.06.63-1.89,0-2.93-.85-3.13-2.57-.02-.22-.03-.79-.03-1.73v-.66l-2.08.62v1c.02,1.22.25,2.26.68,3.11.3.6.75,1.09,1.36,1.46.82.5,1.9.74,3.23.74,1.86,0,3.23-.54,4.13-1.62Z" fill="url(#fj)" stroke-width="0"></path><path d="M220.34,321.71c.29,0,.55-.11.78-.34.23-.22.34-.47.34-.78s-.11-.56-.34-.79c-.23-.22-.49-.32-.78-.32s-.56.11-.78.32c-.23.23-.34.49-.34.79s.11.56.34.79c.23.22.48.32.78.32Z" fill="url(#fk)" stroke-width="0"></path><path d="M234.57,323.79v-1.52c0-1.16-.2-2.08-.6-2.79-.59-1-1.55-1.5-2.9-1.5-.67,0-1.26.16-1.78.46-.5.28-.89.68-1.19,1.21-.38.66-.57,1.41-.57,2.24,0,1.17.36,2.1,1.07,2.82.65.65,1.47.97,2.46.97h1.39c-.13.36-.3.64-.53.82-.35.32-.83.47-1.42.47-1.03,0-1.98-.28-2.84-.83l.94,2.13c.25.12.52.22.81.31.56.15,1.08.22,1.56.22.71,0,1.36-.17,1.93-.5.53-.31.94-.73,1.23-1.28.18-.31.32-.76.41-1.35l8.02.02,2.13-1.93h-10.1ZM232.49,322.85v.93h-1.45c-.35,0-.65-.11-.9-.34-.36-.34-.54-.85-.54-1.54,0-.61.14-1.11.42-1.51.27-.37.61-.56,1.02-.56.36,0,.66.15.91.44.29.33.47.76.52,1.31.01.13.02.37.02.73v.54Z" fill="url(#fl)" stroke-width="0"></path><path d="M246.86,325.8c.94,0,1.7-.27,2.27-.81.71-.67,1.07-1.68,1.07-3.03,0-1.19-.28-2.11-.84-2.77-.6-.68-1.44-1.02-2.52-1.02-.97,0-1.75.27-2.33.81-.71.67-1.07,1.67-1.07,3.01v.52c0,.85-.41,1.27-1.24,1.27h-.66v1.9h1.12c.4,0,.74-.04,1.02-.11.33-.09.64-.26.93-.51.66.49,1.42.73,2.26.73ZM245.86,320.65c.22-.38.55-.57.99-.57s.76.18.97.55c.18.32.28.78.28,1.36,0,.46-.06.85-.18,1.15-.21.5-.56.75-1.07.75-.44,0-.77-.18-.99-.55-.18-.32-.27-.77-.27-1.35s.09-1.02.27-1.35Z" fill="url(#fm)" stroke-width="0"></path><path d="M254.92,323.79c-.23,0-.39-.05-.5-.14-.13-.12-.2-.32-.2-.59v-8l-2.1.68v7.64c0,.67.18,1.21.55,1.62.41.45,1.01.68,1.8.68h1.54v-1.9h-1.09Z" fill="url(#fn)" stroke-width="0"></path><path d="M264.78,323.79v-1.04c0-.82-.08-1.5-.27-2.03-.21-.56-.5-1.03-.88-1.42-.75-.76-1.72-1.15-2.92-1.15-.87,0-1.68.21-2.43.63-.49.27-.92.64-1.31,1.1l1.3,1.3c.71-.74,1.52-1.11,2.41-1.11.79,0,1.35.37,1.67,1.11.21.47.31,1.05.31,1.73v.87l-7.91-.03.74,1.94,11-.02v-1.9h-1.7Z" fill="url(#fo)" stroke-width="0"></path><rect x="266.88" y="323.79" width="2.21" height="1.9" fill="url(#fp)" stroke-width="0"></rect><path d="M277.08,324.99c.71-.67,1.07-1.68,1.07-3.03,0-1.19-.28-2.11-.84-2.77-.6-.68-1.44-1.02-2.52-1.02-.97,0-1.75.27-2.33.81-.71.67-1.07,1.67-1.07,3.01v.52c0,.85-.41,1.27-1.24,1.27h-4.21s.28,1.88.28,1.88h4.38c.4.01.74-.02,1.02-.1.33-.09.64-.26.93-.51.66.49,1.42.73,2.26.73.94,0,1.7-.27,2.27-.81ZM273.8,323.34c-.18-.32-.27-.77-.27-1.35s.09-1.02.27-1.35c.22-.38.55-.57.99-.57s.76.18.97.55c.18.32.28.78.28,1.36,0,.46-.06.85-.18,1.15-.21.5-.56.75-1.07.75-.44,0-.77-.18-.99-.55Z" fill="url(#fq)" stroke-width="0"></path><polygon points="123.39 332.33 121.58 332.33 121.58 342.26 127.47 342.26 127.47 340.74 123.39 340.74 123.39 332.33" fill="url(#fr)" stroke-width="0"></polygon><path d="M134.34,337.94c0-1.56-.66-3.02-2.96-3.02-1.13,0-2.06.31-2.59.63l.35,1.18c.49-.31,1.22-.53,1.93-.53,1.27,0,1.46.78,1.46,1.25v.12c-2.65-.01-4.26.9-4.26,2.71,0,1.09.81,2.14,2.25,2.14.93,0,1.68-.4,2.12-.96h.04l.12.8h1.64c-.07-.44-.1-1.08-.1-1.72v-2.59ZM132.57,339.74c0,.12-.01.27-.06.4-.16.52-.69.99-1.41.99-.57,0-1.03-.32-1.03-1.03,0-1.09,1.22-1.37,2.5-1.34v.99Z" fill="url(#fs)" stroke-width="0"></path><path d="M143.4,338.27c-.19.84-.35,1.62-.47,2.4h-.03c-.16-.78-.35-1.56-.57-2.4l-.9-3.18h-1.47l-.93,3.27c-.21.74-.44,1.53-.59,2.31h-.03c-.13-.78-.29-1.56-.46-2.33l-.75-3.26h-1.86l2.12,7.18h1.69l.91-2.92c.21-.71.4-1.41.54-2.3h.03c.16.87.32,1.55.55,2.3l.85,2.92h1.68l2.25-7.18h-1.78l-.8,3.18Z" fill="url(#ft)" stroke-width="0"></path><path d="M150.63,338.91c-.13.47-.26,1-.38,1.41h-.04c-.1-.41-.25-.96-.4-1.4l-1.3-3.85h-1.99l2.62,6.59c.09.18.1.28.1.35,0,.09-.04.19-.12.32-.25.49-.65.91-.99,1.13-.37.27-.75.43-1.06.5l.41,1.53c.46-.06,1.19-.29,1.9-.93.85-.74,1.52-1.93,2.5-4.61l1.8-4.89h-1.95l-1.12,3.83Z" fill="url(#fu)" stroke-width="0"></path><path d="M157.6,334.92c-2.3,0-3.51,1.87-3.51,3.86,0,2.2,1.37,3.63,3.7,3.63,1.03,0,1.89-.19,2.5-.44l-.27-1.25c-.55.21-1.15.32-1.99.32-1.15,0-2.17-.56-2.21-1.86h4.8c.03-.16.06-.43.06-.77,0-1.58-.77-3.49-3.09-3.49ZM155.83,337.91c.07-.74.55-1.75,1.67-1.75,1.21,0,1.5,1.09,1.49,1.75h-3.15Z" fill="url(#fv)" stroke-width="0"></path><path d="M163.79,336.45h-.06l-.06-1.37h-1.58c.04.65.06,1.34.06,2.31v4.86h1.81v-3.71c0-.21.03-.4.06-.56.16-.81.75-1.37,1.62-1.37.22,0,.38.03.53.06v-1.71c-.15-.03-.25-.04-.43-.04-.77,0-1.61.52-1.96,1.53Z" fill="url(#fw)" stroke-width="0"></path><path d="M170.14,337.97c-.91-.32-1.25-.55-1.25-1s.35-.75,1-.75,1.21.24,1.52.41l.35-1.28c-.41-.22-1.11-.43-1.9-.43-1.67,0-2.71.99-2.71,2.25-.01.84.57,1.61,1.97,2.09.88.31,1.18.56,1.18,1.05s-.35.8-1.15.8c-.65,0-1.43-.27-1.84-.52l-.35,1.31c.53.29,1.31.5,2.18.5,1.9,0,2.92-.94,2.92-2.24-.01-1.06-.62-1.72-1.92-2.2Z" fill="url(#fx)" stroke-width="0"></path><path d="M182.16,337.94c0-1.56-.66-3.02-2.96-3.02-1.13,0-2.06.31-2.59.63l.35,1.18c.49-.31,1.22-.53,1.93-.53,1.27,0,1.46.78,1.46,1.25v.12c-2.65-.01-4.26.9-4.26,2.71,0,1.09.81,2.14,2.25,2.14.93,0,1.68-.4,2.12-.96h.04l.12.8h1.64c-.07-.44-.1-1.08-.1-1.72v-2.59ZM180.39,339.74c0,.12-.02.27-.06.4-.16.52-.69.99-1.42.99-.57,0-1.03-.32-1.03-1.03,0-1.09,1.22-1.37,2.51-1.34v.99Z" fill="url(#fy)" stroke-width="0"></path><path d="M188.02,334.92c-1.19,0-1.97.68-2.28,1.24h-.04l-.09-1.08h-1.59c.04.62.06,1.31.06,2.14v5.04h1.83v-4.21c0-.21.02-.43.07-.59.19-.55.69-1.06,1.41-1.06.99,0,1.37.78,1.37,1.81v4.05h1.81v-4.26c0-2.27-1.3-3.08-2.55-3.08Z" fill="url(#fz)" stroke-width="0"></path><path d="M199.12,331.8h-1.81v4.07h-.03c-.32-.53-1.03-.94-2.02-.94-1.72,0-3.23,1.43-3.21,3.83,0,2.21,1.36,3.67,3.06,3.67,1.05,0,1.92-.5,2.34-1.3h.03l.07,1.13h1.62c-.03-.49-.06-1.28-.06-2.02v-8.44ZM197.3,339.15c0,.19-.02.37-.06.53-.18.78-.83,1.28-1.56,1.28-1.15,0-1.8-.96-1.8-2.27s.65-2.37,1.81-2.37c.83,0,1.4.57,1.56,1.28.03.15.04.32.04.47v1.08Z" fill="url(#ga)" stroke-width="0"></path><path d="M209.05,333.67c.83,0,1.47.18,1.95.38l.4-1.44c-.37-.19-1.22-.44-2.42-.44-3.04,0-5.3,1.97-5.3,5.25,0,3.02,1.92,5,5.07,5,1.19,0,2.14-.22,2.56-.44l-.29-1.43c-.47.22-1.24.37-1.97.37-2.18,0-3.46-1.4-3.46-3.58,0-2.39,1.46-3.65,3.48-3.65Z" fill="url(#gb)" stroke-width="0"></path><path d="M215.79,334.92c-2.17,0-3.71,1.44-3.71,3.8s1.56,3.7,3.6,3.7c1.83,0,3.68-1.18,3.68-3.82,0-2.18-1.43-3.68-3.57-3.68ZM215.73,341.11c-1.1,0-1.78-1.05-1.78-2.43,0-1.19.52-2.43,1.8-2.43s1.74,1.28,1.74,2.4c0,1.44-.72,2.46-1.75,2.46Z" fill="url(#gc)" stroke-width="0"></path><path d="M224.8,334.92c-1.19,0-1.97.68-2.28,1.24h-.04l-.09-1.08h-1.59c.04.62.06,1.31.06,2.14v5.04h1.83v-4.21c0-.21.01-.43.07-.59.19-.55.69-1.06,1.42-1.06.99,0,1.37.78,1.37,1.81v4.05h1.81v-4.26c0-2.27-1.3-3.08-2.55-3.08Z" fill="url(#gd)" stroke-width="0"></path><path d="M232.01,337.97c-.91-.32-1.25-.55-1.25-1s.35-.75,1-.75,1.21.24,1.52.41l.35-1.28c-.41-.22-1.11-.43-1.9-.43-1.67,0-2.71.99-2.71,2.25-.01.84.57,1.61,1.97,2.09.88.31,1.18.56,1.18,1.05s-.35.8-1.15.8c-.65,0-1.43-.27-1.84-.52l-.35,1.31c.53.29,1.31.5,2.18.5,1.9,0,2.92-.94,2.92-2.24-.01-1.06-.62-1.72-1.92-2.2Z" fill="url(#ge)" stroke-width="0"></path><path d="M241.84,335.08h-1.81v4.33c0,.21-.04.4-.1.56-.19.46-.66.97-1.38.97-.96,0-1.34-.77-1.34-1.96v-3.91h-1.81v4.21c0,2.34,1.19,3.12,2.51,3.12s1.99-.74,2.3-1.25h.03l.09,1.09h1.59c-.03-.59-.06-1.3-.06-2.15v-5.02Z" fill="url(#gf)" stroke-width="0"></path><rect x="243.8" y="331.8" width="1.83" height="10.46" fill="url(#gg)" stroke-width="0"></rect><path d="M249.66,333.04l-1.77.43v1.62h-1.03v1.36h1.03v3.37c0,.94.18,1.59.56,2,.34.37.9.59,1.56.59.57,0,1.05-.07,1.31-.18l-.03-1.39c-.16.04-.4.09-.71.09-.69,0-.93-.46-.93-1.33v-3.17h1.72v-1.36h-1.72v-2.05Z" fill="url(#gh)" stroke-width="0"></path><path d="M258.33,337.94c0-1.56-.66-3.02-2.96-3.02-1.13,0-2.06.31-2.59.63l.35,1.18c.49-.31,1.22-.53,1.93-.53,1.27,0,1.46.78,1.46,1.25v.12c-2.65-.01-4.26.9-4.26,2.71,0,1.09.81,2.14,2.25,2.14.93,0,1.68-.4,2.12-.96h.04l.12.8h1.64c-.07-.44-.1-1.08-.1-1.72v-2.59ZM256.56,339.74c0,.12-.02.27-.06.4-.16.52-.69.99-1.42.99-.57,0-1.03-.32-1.03-1.03,0-1.09,1.22-1.37,2.51-1.34v.99Z" fill="url(#gi)" stroke-width="0"></path><path d="M264.19,334.92c-1.19,0-1.97.68-2.28,1.24h-.04l-.09-1.08h-1.59c.04.62.06,1.31.06,2.14v5.04h1.83v-4.21c0-.21.02-.43.07-.59.19-.55.69-1.06,1.41-1.06.99,0,1.37.78,1.37,1.81v4.05h1.81v-4.26c0-2.27-1.3-3.08-2.55-3.08Z" fill="url(#gj)" stroke-width="0"></path><path d="M270.67,333.04l-1.77.43v1.62h-1.03v1.36h1.03v3.37c0,.94.18,1.59.56,2,.34.37.9.59,1.56.59.57,0,1.05-.07,1.31-.18l-.03-1.39c-.16.04-.4.09-.71.09-.69,0-.93-.46-.93-1.33v-3.17h1.72v-1.36h-1.72v-2.05Z" fill="url(#gk)" stroke-width="0"></path><path d="M276.51,337.97c-.91-.32-1.25-.55-1.25-1s.35-.75,1-.75,1.21.24,1.52.41l.35-1.28c-.41-.22-1.1-.43-1.9-.43-1.67,0-2.71.99-2.71,2.25-.01.84.57,1.61,1.97,2.09.88.31,1.18.56,1.18,1.05s-.35.8-1.15.8c-.65,0-1.43-.27-1.84-.52l-.35,1.31c.53.29,1.31.5,2.18.5,1.9,0,2.92-.94,2.92-2.24-.02-1.06-.62-1.72-1.92-2.2Z" fill="url(#gl)" stroke-width="0"></path></g></svg>