<svg xmlns="http://www.w3.org/2000/svg" width="69" height="68" viewBox="0 0 69 68" fill="none"><path d="M10.0124 57.0952C9.03741 57.3487 8.65861 57.4374 8.24167 57.4374C7.48354 57.4374 6.86755 57.2553 6.45985 56.9101C6.3924 56.8532 6.33604 56.7849 6.29315 56.7076C6.14374 56.443 6.20063 56.0825 6.43094 55.8319C6.45457 55.8068 6.47872 55.7828 6.4873 55.7678C7.26035 55.5369 8.19244 55.3706 9.11199 55.2983L9.13997 55.2963L9.32264 54.4544L9.26958 54.4602C8.64832 54.5334 8.07338 54.6323 7.57698 54.7528C6.80631 54.6106 6.23613 53.9803 6.15377 53.2052C6.45549 52.6263 7.09022 52.2211 7.69696 52.2211C8.00686 52.2211 8.29169 52.2944 8.82716 52.5109L8.85844 52.5239L9.032 52.2082L9.00165 52.1895C8.80406 52.0628 8.65122 51.9485 8.50326 51.8372C8.30806 51.6912 8.12341 51.5524 7.83673 51.3957C6.74362 51.3957 5.57343 52.2382 5.57343 53.4936C5.57343 54.1125 5.94893 54.7573 6.5137 55.1188C6.45879 55.1486 6.27757 55.2547 6.27757 55.2547C6.16288 55.3275 6.05689 55.4518 5.96279 55.6248C5.6216 56.2543 5.66067 56.9984 6.06257 57.5204C6.30542 57.8361 6.63711 58.0544 7.02119 58.1513C7.38217 58.2424 7.78895 58.2891 8.229 58.2891H8.23718L8.24444 58.2862C8.58813 58.1353 8.87969 58.0014 9.16399 57.8712C9.47917 57.7271 9.78433 57.5873 10.1384 57.4341L10.1717 57.4196L10.0454 57.0866L10.0124 57.0952ZM28.6463 51.2953C27.5359 51.2953 26.8279 52.9146 26.8279 53.762C26.8279 54.455 27.5971 54.9442 29.3306 55.3506H11.7397C11.717 53.3408 11.6659 52.254 11.573 50.291L11.5349 49.476H10.6688L10.6726 49.5169C10.918 52.2664 11.0129 54.0275 11.0924 56.14L11.0934 56.1761H30.1595L30.1653 56.1458C30.2015 55.9646 30.3118 54.7689 30.3118 54.4743C30.3119 52.4833 29.6896 51.2953 28.6463 51.2953ZM29.6642 54.6819C28.6048 54.4645 28.091 54.2457 27.4125 53.7522C27.4895 52.863 28.0183 52.0827 28.5445 52.0827C29.2038 52.0827 29.6642 53.1237 29.6642 54.6139V54.6819ZM29.2776 50.112L28.6139 49.4758L27.9118 50.2051L28.6308 50.8552L29.2776 50.112ZM57.715 50.7193L57.0514 50.0831L56.3492 50.8127L57.0683 51.4624L57.715 50.7193ZM49.4489 50.7323L48.7853 50.0831L48.0831 50.8123L48.8017 51.462L49.4489 50.7323ZM47.9351 50.7187L47.2714 50.0831L46.5697 50.8123L47.2887 51.4625L47.9351 50.7187ZM52.1522 52.0283L51.3449 52.4876L51.3618 52.5204C51.9209 53.6129 52.2612 54.5003 52.4655 55.3784C52.158 56.3616 51.4996 57.1413 50.744 57.4156C50.4061 57.567 49.8741 57.6652 49.3213 57.6792L49.2861 57.6801L49.2706 58.03L51.1512 58.281C52.3088 57.4 52.9721 56.254 52.9721 55.1353C52.9721 54.4389 52.7243 53.4932 52.1681 52.0695L52.1522 52.0283ZM55.257 56.1745C55.1963 53.4125 55.1461 52.1445 55.03 49.512L55.0285 49.4758H54.1625L54.1659 49.5167C54.364 52.0783 54.4435 53.5801 54.5543 55.6578L54.5818 56.1744H55.257V56.1745ZM57.6692 52.0283L56.862 52.4876L56.8789 52.5204C57.438 53.6129 57.7782 54.5003 57.9825 55.3784C57.6755 56.3616 57.0167 57.1413 56.261 57.4156C55.9232 57.567 55.3916 57.6652 54.8384 57.6792L54.8031 57.6801L54.7877 58.03L56.6682 58.281C57.8259 57.4 58.4891 56.254 58.4891 55.1353C58.4891 54.4389 58.2414 53.4932 57.6852 52.0695L57.6692 52.0283ZM61.3118 51.8929C60.2668 51.8929 59.4809 53.3663 59.4809 54.3215C59.4809 55.1394 60.3744 55.6816 62.2117 55.9789C61.9196 56.6455 61.3952 57.1891 60.8005 57.4403C60.4742 57.5859 59.97 57.6664 59.3016 57.6793L59.2674 57.6799L59.2356 58.0297L61.1187 58.2813C62.3178 57.3916 62.9776 56.2021 62.9776 54.9322C62.9774 53.0857 62.3238 51.8929 61.3118 51.8929ZM60.065 54.3133C60.1657 53.4439 60.7012 52.6809 61.2101 52.6809C61.8478 52.6809 62.2873 53.6331 62.39 55.2314C61.2116 55.0593 60.4905 54.7668 60.065 54.3133ZM39.7842 49.512L39.7833 49.4758H38.9172L38.9206 49.5167C39.1028 51.8726 39.1833 53.2991 39.2927 55.3503H35.4182C35.0496 55.3503 34.7815 55.1483 34.5483 54.6958C34.2032 54.0471 33.982 53.0899 33.8533 51.684L33.8484 51.6314L33.0999 51.9568L33.1043 51.9852C33.3053 53.3978 33.6508 54.5636 34.0754 55.2673C34.101 55.3102 34.127 55.3473 34.1554 55.3863C33.7202 55.4616 33.3013 55.4774 32.8107 55.4774C32.2236 55.4774 31.7085 55.4225 31.1403 55.3L31.1012 55.2918L30.9614 56.0774L30.9962 56.0856C31.5634 56.2239 32.1972 56.3035 32.7346 56.3035C33.2869 56.3035 33.8715 56.2875 34.4084 56.1753L34.4311 56.1705L34.5227 55.8147C34.7848 56.048 35.0693 56.1685 35.355 56.169L35.3815 56.1757L40.0136 56.1743L40.0122 56.1357C39.9515 53.3474 39.9014 52.1614 39.7842 49.512ZM50.0957 55.2612C50.0991 54.7668 49.2763 53.0393 48.6065 52.0013C48.4387 52.0836 48.1501 52.2995 47.9708 52.4428C47.0267 53.2009 46.3698 54.2042 46.3698 54.892C46.3698 55.6704 47.1858 56.3036 48.1887 56.3036C48.8042 56.3036 49.4004 56.1484 49.8384 55.8612L50.0957 55.2612ZM48.2522 55.5031C47.7206 55.5031 47.2376 55.2708 46.965 54.9166C47.2141 54.1695 47.7202 53.4779 48.3564 53.0139C48.8022 53.716 49.1072 54.3562 49.4017 55.2068C49.0465 55.4251 48.5781 55.5031 48.2522 55.5031ZM42.2008 56.1745C42.1395 53.4115 42.0894 52.1434 41.9732 49.512L41.9718 49.4758H41.1057L41.1091 49.5167C41.3072 52.0783 41.3867 53.5801 41.4975 55.6578L41.525 56.1744H42.2008V56.1745Z" fill="#69767B"></path><path d="M7.61199 61.6857L6.28236 59.8124H5.57385L5.81433 60.1492V63.6198H6.29635V60.8239L7.51709 62.5339L8.79142 60.8292V63.6198H9.36781V59.8124H9.04193L7.61199 61.6857Z" fill="#69767B"></path><path d="M28.7615 61.4708L27.8945 59.8427L27.8782 59.8124H27.2358L28.3982 62.0144V63.6198H28.9746V62.055L30.2209 59.8124H29.6783L28.7615 61.4708Z" fill="#69767B"></path><path d="M26.1414 61.7728C26.2306 61.7126 26.3144 61.6379 26.3906 61.5501C26.4673 61.462 26.5333 61.3569 26.5863 61.2383C26.6394 61.1197 26.6668 60.9838 26.6668 60.8344C26.6668 60.6532 26.6316 60.4932 26.5627 60.3587C26.4933 60.2242 26.3974 60.1115 26.2773 60.0233C26.1574 59.9346 26.0138 59.8667 25.8498 59.8214C25.6879 59.7761 25.5072 59.7534 25.3129 59.7534C25.0753 59.7534 24.8758 59.7654 24.7206 59.7887C24.5813 59.8094 24.4396 59.8345 24.3007 59.8628L24.2554 59.8719V63.6196H24.8323V62.0749L25.3851 62.0807L26.4883 63.6196H27.2093L25.9055 61.9014C25.976 61.8735 26.0556 61.8301 26.1414 61.7728ZM26.0402 61.1641C26.0083 61.2455 25.9655 61.3197 25.9138 61.3853C25.8633 61.4504 25.8088 61.5053 25.7528 61.5501C25.7079 61.5863 25.6559 61.6239 25.5812 61.659H24.8323V60.1871H25.1577C25.4734 60.1871 25.7105 60.2426 25.8624 60.352C26.0138 60.4614 26.0899 60.6417 26.0899 60.8874C26.0898 60.9891 26.0734 61.0821 26.0402 61.1641Z" fill="#69767B"></path><path d="M11.1491 59.8124H10.5727V63.6198H11.1491V59.8124Z" fill="#69767B"></path><path d="M17.0974 59.8124H16.5205V63.6198H17.0974V59.8124Z" fill="#69767B"></path><path d="M14.8279 62.4263L12.7396 59.8127H12.0181L12.4013 60.2913V63.6202H12.8832V60.8995L15.0492 63.6202H15.3152V59.8127H14.8279V62.4263Z" fill="#69767B"></path><path d="M20.7819 60.2824H21.9121V63.6199H22.489V60.2824H23.5227L23.7039 59.8124H20.7819V60.2824Z" fill="#69767B"></path><path d="M20.0908 62.0184C20.0238 61.9413 19.9496 61.8724 19.8706 61.8135C19.792 61.7548 19.7163 61.7027 19.6459 61.6594L19.2969 61.4401C19.2213 61.3967 19.1504 61.3543 19.0834 61.3105C19.0174 61.2676 18.9567 61.22 18.9036 61.1693C18.8502 61.1173 18.8077 61.0619 18.7773 61.0044C18.746 60.9461 18.7306 60.8772 18.7306 60.7991C18.7306 60.7056 18.7499 60.6217 18.7889 60.5494C18.828 60.477 18.8814 60.4168 18.948 60.3701C19.0136 60.3234 19.0896 60.2878 19.1741 60.2641C19.2584 60.2405 19.3485 60.2289 19.442 60.2289C19.6183 60.2289 19.7761 60.2656 19.9115 60.3378C20.006 60.3889 20.0932 60.4487 20.1688 60.5156L20.2633 60.5985V59.997L20.2359 59.9801C20.2041 59.9614 20.165 59.9406 20.1188 59.9189C20.059 59.8914 19.9911 59.8654 19.9174 59.8422C19.8451 59.8191 19.7685 59.7993 19.6831 59.7824C19.4065 59.7299 19.1433 59.764 18.9236 59.8364C18.7674 59.8869 18.632 59.9621 18.5197 60.0585C18.4068 60.1559 18.3187 60.2739 18.2579 60.4093C18.1967 60.5447 18.1659 60.6976 18.1659 60.8637C18.1659 61.0498 18.2219 61.2242 18.3326 61.3838C18.4426 61.5433 18.6242 61.7019 18.8719 61.8556L19.3664 62.1544C19.4218 62.1868 19.4782 62.2286 19.5341 62.2782C19.5881 62.326 19.6359 62.3828 19.6759 62.446C19.7149 62.5082 19.7342 62.5809 19.7342 62.6629C19.7342 62.7487 19.7155 62.8268 19.6788 62.8942C19.6412 62.9631 19.5906 63.0224 19.5284 63.0706C19.4658 63.1202 19.3936 63.1583 19.3134 63.1853C19.2335 63.2132 19.1495 63.2272 19.0633 63.2272C18.8605 63.2272 18.6796 63.192 18.5269 63.1236C18.4103 63.0716 18.2985 63.0075 18.1934 62.9337L18.0889 62.8599L18.1723 63.5183L18.205 63.5299C18.3293 63.5762 18.4648 63.6151 18.6069 63.646C18.7607 63.6798 18.9265 63.6966 19.099 63.6966C19.2725 63.6966 19.4358 63.6706 19.5863 63.6195C19.7362 63.5679 19.8673 63.4937 19.9747 63.3997C20.0832 63.3052 20.169 63.1896 20.2306 63.0551C20.2913 62.9206 20.3226 62.7708 20.3226 62.6093C20.3226 62.4907 20.3004 62.3804 20.257 62.2825C20.2137 62.1845 20.1579 62.096 20.0908 62.0184Z" fill="#69767B"></path><path d="M59.5706 62.0182C59.5036 61.9415 59.4294 61.8726 59.3509 61.8134C59.2733 61.7556 59.1976 61.7034 59.1258 61.6596L58.7765 61.4404C58.7012 61.397 58.6309 61.3541 58.5634 61.3102C58.4978 61.2679 58.4377 61.2206 58.3842 61.169C58.3311 61.1179 58.2888 61.0625 58.2575 61.0042C58.2262 60.9454 58.2102 60.8764 58.2102 60.7988C58.2102 60.7058 58.23 60.6214 58.2691 60.5492C58.3082 60.4769 58.3616 60.4167 58.4281 60.3704C58.4941 60.3231 58.5703 60.2875 58.6546 60.2644C58.7385 60.2408 58.8286 60.2288 58.9226 60.2288C59.0989 60.2288 59.2561 60.2654 59.391 60.3376C59.4859 60.3887 59.5731 60.4485 59.6489 60.5154L59.7434 60.5983V59.9969L59.7159 59.98C59.6841 59.9612 59.6451 59.9405 59.5993 59.9192C59.5391 59.8913 59.4706 59.8653 59.3973 59.8422C59.3241 59.8191 59.2474 59.7993 59.1631 59.7829C58.885 59.7294 58.6232 59.7642 58.4035 59.8364C58.2473 59.8874 58.1114 59.9627 57.9996 60.0585C57.8863 60.1563 57.7982 60.2744 57.7379 60.4093C57.6766 60.5457 57.6457 60.6985 57.6457 60.8637C57.6457 61.0493 57.7021 61.2242 57.813 61.3843C57.9229 61.5433 58.104 61.7019 58.3523 61.8556L58.8463 62.1544C58.9022 62.1868 58.9586 62.2286 59.014 62.2782C59.0689 62.3269 59.1162 62.3833 59.1558 62.446C59.1949 62.5082 59.2141 62.5809 59.2141 62.6629C59.2141 62.7486 59.1958 62.8268 59.1587 62.8946C59.1216 62.9626 59.0709 63.0224 59.0084 63.071C58.9462 63.1197 58.8739 63.1582 58.7939 63.1856C58.7139 63.2131 58.6296 63.2271 58.5438 63.2271C58.3404 63.2271 58.1597 63.1919 58.0069 63.124C57.8902 63.071 57.7784 63.0073 57.6738 62.9341L57.5688 62.8599L57.6522 63.5183L57.6849 63.5303C57.8102 63.5766 57.9457 63.6155 58.0868 63.6464C58.2406 63.6797 58.4064 63.6966 58.5794 63.6966C58.7524 63.6966 58.9162 63.6706 59.0656 63.6195C59.216 63.5679 59.3466 63.4937 59.455 63.3997C59.5635 63.3052 59.6493 63.1891 59.7104 63.0551C59.7711 62.9211 59.802 62.7712 59.802 62.6093C59.802 62.4902 59.7798 62.3799 59.7375 62.2825C59.694 62.184 59.6377 62.0953 59.5706 62.0182Z" fill="#69767B"></path><path d="M51.0971 61.9094H52.1669L52.3414 61.4637H51.0971V60.2582H52.4151L52.5963 59.8124H50.5201V63.6199H52.4619L52.7033 63.1563H51.0971V61.9094Z" fill="#69767B"></path><path d="M47.6738 63.6198H48.2507V61.9923H49.3495L49.5303 61.5464H48.2507V60.2581H49.6039L49.7848 59.8124H47.6738V63.6198Z" fill="#69767B"></path><path d="M35.0401 60.3021C34.8747 60.127 34.6753 59.9892 34.4463 59.8929C34.2178 59.796 33.9648 59.7473 33.6934 59.7473C33.4226 59.7473 33.169 59.796 32.9402 59.8929C32.7122 59.9888 32.5121 60.1266 32.3469 60.3021C32.1811 60.4775 32.051 60.6881 31.9585 60.9277C31.8659 61.1672 31.8192 61.4346 31.8192 61.722C31.8192 62.0135 31.8659 62.2825 31.9585 62.5225C32.0505 62.762 32.1811 62.9712 32.3469 63.1456C32.5123 63.3186 32.7122 63.4549 32.9402 63.5514C33.1686 63.6483 33.4217 63.697 33.6934 63.697C33.9648 63.697 34.2183 63.6483 34.4463 63.5514C34.6753 63.4546 34.8747 63.3172 35.0396 63.1423C35.2049 62.9683 35.3349 62.7577 35.428 62.5163C35.5205 62.2763 35.5678 62.0088 35.5678 61.722C35.5678 61.4352 35.5205 61.1678 35.428 60.9277C35.3351 60.6867 35.2049 60.4761 35.0401 60.3021ZM34.9557 61.722C34.9557 61.9403 34.9268 62.1442 34.87 62.3278C34.8136 62.5099 34.7311 62.6686 34.6251 62.7996C34.5195 62.9307 34.387 63.0348 34.2303 63.109C34.0737 63.1837 33.893 63.2213 33.6934 63.2213C33.4939 63.2213 33.3126 63.1837 33.1565 63.109C32.9998 63.0348 32.8659 62.9307 32.7584 62.7996C32.651 62.6695 32.5685 62.5105 32.5136 62.3278C32.4587 62.1456 32.4307 61.9417 32.4307 61.722C32.4307 61.507 32.4596 61.3046 32.5165 61.12C32.5729 60.9364 32.6553 60.7768 32.7613 60.6443C32.8673 60.5132 33.0004 60.4091 33.1565 60.3349C33.3132 60.2607 33.4939 60.2231 33.6934 60.2231C33.893 60.2231 34.0737 60.2607 34.2303 60.3349C34.387 60.4096 34.5201 60.5138 34.6251 60.6443C34.7311 60.7759 34.8136 60.9359 34.87 61.1194C34.9268 61.305 34.9557 61.5075 34.9557 61.722Z" fill="#69767B"></path><path d="M61.371 63.1563V61.9095H62.4409L62.6154 61.4631H61.371V60.2583H62.6892L62.8704 59.8125H60.7945V63.6199H62.7364L62.9773 63.1563H61.371Z" fill="#69767B"></path><path d="M56.0836 62.4265L53.9949 59.8124H53.2734L53.6571 60.2915V63.6199H54.1389V60.8997L56.3044 63.6199H56.5709V59.8124H56.0836V62.4265Z" fill="#69767B"></path><path d="M45.1665 61.9094H46.2365L46.4114 61.4637H45.1665V60.2582H46.4847L46.6659 59.8124H44.5901V63.6199H46.5319L46.7735 63.1563H45.1665V61.9094Z" fill="#69767B"></path><path d="M36.4175 63.6198H36.994V61.9923H38.0933L38.274 61.5464H36.994V60.2581H38.3478L38.5285 59.8124H36.4175V63.6198Z" fill="#69767B"></path><path d="M43.2217 60.2894C43.0539 60.1184 42.8467 59.9848 42.6048 59.8923C42.3619 59.8003 42.0857 59.7534 41.7835 59.7534C41.5402 59.7534 41.3248 59.765 41.1439 59.7887C40.9811 59.8099 40.8258 59.835 40.6826 59.8634L40.6368 59.8721V63.5422L40.6792 63.5533C40.8099 63.588 40.966 63.6204 41.1433 63.6493C41.3365 63.6811 41.5501 63.6969 41.7775 63.6969C42.0729 63.6969 42.3447 63.6487 42.5867 63.5542C42.8291 63.4603 43.0378 63.3243 43.2065 63.1513C43.3761 62.9773 43.5086 62.769 43.6007 62.5315C43.6933 62.2939 43.7405 62.0258 43.7405 61.7339C43.7405 61.4312 43.6956 61.155 43.6069 60.9127C43.519 60.6707 43.3889 60.4615 43.2217 60.2894ZM43.1286 61.7397C43.1286 61.9325 43.0983 62.1209 43.037 62.3006C42.9763 62.4813 42.8881 62.6438 42.7753 62.7845C42.6626 62.9252 42.5208 63.0395 42.355 63.1238C42.1073 63.2491 41.7878 63.2814 41.4606 63.2212C41.3555 63.202 41.2721 63.1845 41.2138 63.1692V60.1874H41.6398C41.8784 60.1874 42.0924 60.2259 42.2755 60.3026C42.4596 60.3788 42.6157 60.4862 42.74 60.6212C42.8644 60.7561 42.9618 60.9206 43.0283 61.1114C43.095 61.3025 43.1286 61.5136 43.1286 61.7397Z" fill="#69767B"></path><path d="M34.8662 5.97758H33.6855C33.6855 5.7144 33.858 5.49134 34.0966 5.41519C34.153 5.39684 34.2133 5.38721 34.2759 5.38721C34.6016 5.38721 34.8662 5.65184 34.8662 5.97758Z" fill="#DBBF74"></path><path d="M34.8662 5.97778C34.8662 6.30353 34.6021 6.56816 34.2759 6.56816C34.2557 6.56816 34.2353 6.56724 34.2157 6.56526C34.0263 6.54599 33.8634 6.4371 33.7698 6.28135C33.7164 6.19266 33.6855 6.08905 33.6855 5.97778H34.8662Z" fill="#9E892E"></path><path d="M34.2758 4.3031C34.1544 4.63808 33.8483 5.16682 33.8483 5.16682H34.2758H34.7037C34.7037 5.16682 34.3973 4.63808 34.2758 4.3031Z" fill="#DBBF74"></path><path d="M34.2758 5.16675H33.8483L34.0966 5.41501C34.153 5.3972 34.2133 5.38756 34.2758 5.38756C34.3385 5.38756 34.3987 5.3972 34.4551 5.41501L34.7037 5.16675H34.2758Z" fill="#9E892E"></path><path d="M28.0582 16.8393C28.0022 16.8754 27.9468 16.9131 27.8915 16.9507L28.0115 17.1044C28.0683 17.0664 28.1252 17.0278 28.1825 16.9907C29.6843 16.019 31.4308 15.3973 33.3081 15.2363C33.309 15.1712 33.3134 15.1067 33.3168 15.0416C31.3899 15.2021 29.597 15.8397 28.0582 16.8393Z" fill="#9EA5A9"></path><path d="M26.1636 16.0445C25.1549 16.833 24.2638 17.7646 23.5206 18.8086L23.3495 18.7137C24.1062 17.6471 25.0152 16.6952 26.0447 15.8909L26.1636 16.0445Z" fill="#9EA5A9"></path><path d="M34.2759 41.5834C34.0797 41.5834 33.8845 41.5795 33.6902 41.5723C33.7153 41.5997 33.7408 41.6268 33.7664 41.6532L33.8811 41.7728C34.0122 41.7762 34.1438 41.778 34.2759 41.778C34.4079 41.778 34.5394 41.7761 34.6706 41.7728L34.7853 41.6532C34.8109 41.6266 34.8364 41.5997 34.862 41.5723C34.6672 41.5794 34.472 41.5834 34.2759 41.5834Z" fill="#9EA5A9"></path><path d="M32.3925 33.5575C32.8008 33.6713 33.1675 33.7353 33.5805 33.774V33.9686C33.1868 33.9334 32.846 33.8766 32.459 33.7763L32.3925 33.5575Z" fill="#9EA5A9"></path><path d="M19.3765 22.8151C19.4281 22.8353 19.4902 22.8566 19.5611 22.8778H19.5616C20.928 17.239 25.4608 12.8232 31.1633 11.627C31.1382 11.5716 31.1084 11.5109 31.0731 11.4473C25.3263 12.6733 20.7617 17.1285 19.3765 22.8151Z" fill="#9EA5A9"></path><path d="M22.468 20.5585C22.0617 21.3701 21.7368 22.23 21.5041 23.1259C21.4361 23.1268 21.3691 23.1268 21.3027 23.1268C21.5393 22.2015 21.8729 21.3142 22.2911 20.4771L22.468 20.5585Z" fill="#9EA5A9"></path><path d="M21.2514 24.3236C21.1397 25.0143 21.0808 25.7228 21.0808 26.4443C21.0808 27.3831 21.18 28.2993 21.3671 29.1827C21.3054 29.2049 21.2442 29.2276 21.1829 29.2507C20.9887 28.3455 20.8861 27.4067 20.8861 26.4443C20.8861 25.7117 20.9459 24.9931 21.0591 24.2924L21.2514 24.3236Z" fill="#9EA5A9"></path><path d="M42.3525 16.0172C43.4889 16.8996 44.4779 17.9633 45.2756 19.1644C45.3513 19.16 45.4274 19.1576 45.5032 19.1567C44.6824 17.8969 43.6563 16.7831 42.4717 15.8635L42.3525 16.0172Z" fill="#9EA5A9"></path><path d="M39.2726 20.7797C39.4915 20.9729 39.6987 21.1787 39.8939 21.3956L39.7141 21.4872C39.5373 21.293 39.3497 21.1079 39.1532 20.934L39.2726 20.7797Z" fill="#9EA5A9"></path><path d="M40.0902 18.9348C40.6763 19.3898 41.2074 19.9113 41.673 20.4887L41.4962 20.5788C41.0465 20.0261 40.5346 19.5257 39.9712 19.0886L40.0902 18.9348Z" fill="#9EA5A9"></path><path d="M41.162 17.5527C41.9523 18.1662 42.6584 18.8828 43.2614 19.682C43.3215 19.6531 43.3819 19.6257 43.4426 19.5997C42.8237 18.7732 42.0964 18.0323 41.281 17.399L41.162 17.5527Z" fill="#9EA5A9"></path><path d="M19.2698 23.2844C19.0553 24.3043 18.9421 25.3616 18.9421 26.4442C18.9421 28.2568 19.2582 29.9971 19.8385 31.6127L20.0139 31.5249C19.4463 29.9359 19.1368 28.2259 19.1368 26.4441C19.1368 25.4378 19.2356 24.4541 19.424 23.5017C19.358 23.4232 19.3083 23.3547 19.2702 23.2843H19.2698V23.2844Z" fill="#9EA5A9"></path><path d="M22.8703 25.486C22.8443 25.8021 22.8309 26.1216 22.8309 26.4441C22.8309 27.2262 22.9099 27.9907 23.0597 28.729L23.2526 28.7001C23.1037 27.9709 23.025 27.2167 23.025 26.4441C23.025 26.1294 23.0385 25.8175 23.0636 25.5091C22.997 25.5029 22.9334 25.4945 22.8707 25.486H22.8703Z" fill="#9EA5A9"></path><path d="M24.7749 26.4229C24.7735 27.1139 24.8462 27.7888 24.9856 28.4384L25.1784 28.409C25.0406 27.7704 24.9683 27.1072 24.9692 26.4272H24.9697C24.9065 26.4272 24.8106 26.4243 24.7749 26.4229Z" fill="#9EA5A9"></path><path d="M26.7545 27.1795C26.782 27.4658 26.8263 27.7473 26.8852 28.0234L27.0645 27.9324C27.0139 27.6846 26.9752 27.433 26.9498 27.1771H26.9503C26.8688 27.1777 26.8269 27.1786 26.7542 27.18L26.7545 27.1795Z" fill="#9EA5A9"></path><path d="M27.576 37.8082C29.2325 38.7928 31.0995 39.4121 33.118 39.5881C33.118 39.5881 32.5329 39.6108 32.0967 39.656C30.4166 39.3799 28.9177 38.8357 27.509 37.9942C27.509 37.9942 27.5653 37.8515 27.576 37.8082Z" fill="#9EA5A9"></path><path d="M28.2988 35.9719C28.7378 36.2515 29.1475 36.4698 29.6242 36.6872C29.6511 36.7546 29.6811 36.822 29.7134 36.8896L29.7433 36.9532C29.1943 36.7157 28.7245 36.466 28.2237 36.1489L28.2988 35.9719Z" fill="#9EA5A9"></path><path d="M31.6285 41.5488C31.5991 41.4803 31.5707 41.4095 31.5538 41.3377C29.3749 40.9406 27.3569 40.0755 25.6084 38.8503L25.6089 38.8498C25.2619 38.6902 24.5187 38.2642 24.5187 38.2642C26.525 39.9232 28.9594 41.0823 31.6285 41.5488Z" fill="#9EA5A9"></path><path d="M29.1596 34.2147C29.335 34.3303 29.5144 34.4408 29.698 34.5448L29.618 34.7226C29.428 34.6156 29.2425 34.5023 29.0609 34.3829L29.1596 34.2147Z" fill="#9EA5A9"></path><path d="M33.5803 35.7248V35.9195C32.5427 35.8443 31.5504 35.6014 30.6307 35.2183C30.5883 35.1566 30.5478 35.0934 30.5107 35.0289C30.492 34.9965 30.4742 34.9638 30.4573 34.9305C31.4222 35.3668 32.4748 35.6429 33.5803 35.7248Z" fill="#9EA5A9"></path><path d="M24.0573 21.2914C23.7754 21.8476 23.5382 22.4303 23.3494 23.0341C23.4197 23.0292 23.4891 23.025 23.5575 23.0207C23.7402 22.4505 23.9667 21.8996 24.2342 21.3728L24.0573 21.2914Z" fill="#9EA5A9"></path><path d="M25.9652 21.8427C25.7624 22.208 25.5826 22.5882 25.4278 22.981C25.4967 22.9854 25.5647 22.9907 25.6312 22.9969C25.7782 22.6297 25.9478 22.2735 26.1387 21.9312L25.9652 21.8427Z" fill="#9EA5A9"></path><path d="M27.6985 22.7258C27.5564 22.9765 27.4281 23.2362 27.3148 23.5038V23.5032C27.3708 23.537 27.4262 23.5717 27.4811 23.6088C27.5958 23.3351 27.7265 23.0701 27.8719 22.8145L27.6985 22.7258Z" fill="#9EA5A9"></path><path d="M29.381 20.9492L29.262 20.795C28.9328 21.0875 28.6291 21.4081 28.3553 21.7531L28.5322 21.8437C28.7901 21.5227 29.074 21.2229 29.381 20.9492Z" fill="#9EA5A9"></path><path d="M28.426 18.9624C27.732 19.5061 27.116 20.1442 26.596 20.8569L26.7714 20.9462C27.2765 20.2584 27.8736 19.642 28.5451 19.1162L28.426 18.9624Z" fill="#9EA5A9"></path><path d="M27.2353 17.4266C26.4127 18.0706 25.6796 18.8248 25.0593 19.6663L25.2303 19.7617C25.8371 18.9424 26.5523 18.2084 27.3542 17.5804L27.2353 17.4266Z" fill="#9EA5A9"></path><path d="M49.1752 22.8151C49.1236 22.8353 49.0609 22.8566 48.9906 22.8778C47.6237 17.239 43.0909 12.8232 37.3884 11.627C37.413 11.5716 37.4429 11.5109 37.4786 11.4473C43.225 12.6733 47.79 17.1285 49.1752 22.8151Z" fill="#9EA5A9"></path><path d="M36.1007 33.7783C35.7281 33.8729 35.3502 33.935 34.971 33.9687V33.774C35.3691 33.7369 35.7642 33.6684 36.1576 33.5619L36.1007 33.7783Z" fill="#9EA5A9"></path><path d="M41.0722 37.977C39.6756 38.8035 38.1164 39.3829 36.4551 39.6561C36.0185 39.6108 35.4338 39.5881 35.4338 39.5881C37.4555 39.4118 39.3488 38.7775 41.0076 37.7894L41.0722 37.977Z" fill="#9EA5A9"></path><path d="M40.3415 36.1465C39.8538 36.4526 39.3414 36.7229 38.8083 36.9534L38.8382 36.8903C38.8705 36.8228 38.9003 36.7554 38.9269 36.6878C39.3886 36.4777 39.8335 36.2372 40.259 35.9688L40.3415 36.1465Z" fill="#9EA5A9"></path><path d="M44.033 38.264C44.033 38.264 43.2898 38.6901 42.9428 38.8497V38.8502C41.1948 40.0753 39.1768 40.9409 36.9973 41.338C36.981 41.4098 36.9521 41.4807 36.9232 41.5491C39.5922 41.0825 42.0266 39.9234 44.033 38.264Z" fill="#9EA5A9"></path><path d="M39.3521 34.2411C39.1892 34.3476 39.0234 34.4488 38.8537 34.5448L38.9337 34.7231C39.1091 34.6238 39.2812 34.5197 39.4494 34.4098L39.3521 34.2411Z" fill="#9EA5A9"></path><path d="M38.0944 34.9307C38.0775 34.9634 38.0596 34.9963 38.0409 35.029C38.0033 35.0935 37.9633 35.1568 37.9204 35.2179C37.0014 35.6016 36.009 35.8444 34.9708 35.9196V35.725C36.0769 35.643 37.129 35.3669 38.0944 34.9307Z" fill="#9EA5A9"></path><path d="M45.7932 20.011C46.3373 20.9807 46.7614 22.0257 47.0477 23.1259C47.1151 23.1268 47.1826 23.1269 47.2491 23.1269C46.9512 21.9639 46.5011 20.8612 45.9208 19.8413C45.8793 19.8993 45.837 19.9551 45.7932 20.011Z" fill="#9EA5A9"></path><path d="M44.2977 21.3344C44.5734 21.8728 44.8066 22.4363 44.9936 23.0203C45.0625 23.0247 45.132 23.0294 45.2018 23.0338C45.006 22.4082 44.7584 21.8052 44.4629 21.2308C44.3353 21.3143 44.3122 21.3259 44.2977 21.3344Z" fill="#9EA5A9"></path><path d="M42.5722 22.2298C42.6994 22.4795 42.8156 22.7354 42.9201 22.9975C42.9872 22.9913 43.0546 22.9859 43.1235 22.9817C43.0108 22.6945 42.8845 22.4144 42.7452 22.1416L42.5722 22.2298Z" fill="#9EA5A9"></path><path d="M40.8401 23.1122L41.0132 23.024C41.0932 23.1807 41.1679 23.3407 41.2368 23.5036C41.1804 23.5368 41.125 23.5721 41.0705 23.6086C40.9997 23.4399 40.9225 23.2747 40.8401 23.1122Z" fill="#9EA5A9"></path><path d="M47.4921 24.2924L47.3003 24.3236C47.4121 25.0143 47.4705 25.7223 47.4705 26.4443C47.4705 27.4838 47.3494 28.496 47.1211 29.4672L47.3221 29.4628C47.5462 28.4922 47.6653 27.4819 47.6653 26.4443C47.6651 25.7117 47.6059 24.9932 47.4921 24.2924Z" fill="#9EA5A9"></path><path d="M45.6806 25.4862C45.6179 25.4949 45.5548 25.5031 45.4877 25.5093C45.5133 25.8178 45.5263 26.1296 45.5263 26.4443C45.5263 27.2752 45.4356 28.0849 45.2636 28.8647L45.4448 28.9476C45.6251 28.1412 45.7209 27.3037 45.7209 26.4443C45.7209 26.1219 45.7075 25.8019 45.681 25.4862H45.6806Z" fill="#9EA5A9"></path><path d="M43.582 26.4272C43.6061 26.4272 43.6297 26.4272 43.6532 26.4267L43.6649 26.4258C43.7029 26.4252 43.7396 26.4243 43.7761 26.4229C43.7781 27.1646 43.6942 27.8866 43.5342 28.5796L43.3342 28.582C43.4976 27.8899 43.5834 27.1684 43.582 26.4272Z" fill="#9EA5A9"></path><path d="M41.6013 27.1771C41.662 27.1771 41.7189 27.178 41.772 27.1795C41.7807 27.1795 41.7889 27.1795 41.797 27.1795C41.7536 27.6248 41.6718 28.0591 41.5542 28.4784L41.3773 28.3882C41.4848 27.9964 41.5605 27.5921 41.602 27.1771H41.6013Z" fill="#9EA5A9"></path><path d="M25.657 9.82581C25.0194 10.3786 24.5408 10.9931 24.2242 11.6269C23.9075 12.2611 23.7678 12.8791 23.7596 13.4554C24.1769 12.2302 24.7977 11.0022 25.657 9.82581Z" fill="#3C934E"></path><path d="M27.3335 9.29517C26.6641 9.75883 26.1406 10.2914 25.7696 10.8552C25.3985 11.4196 25.1971 11.9845 25.1258 12.5238C25.6611 11.4158 26.3869 10.3232 27.3335 9.29517Z" fill="#3C934E"></path><path d="M29.0126 8.92932C28.3224 9.30865 27.7657 9.76123 27.3504 10.2557C26.9349 10.7497 26.6809 11.2595 26.5532 11.7555C27.1884 10.7699 28 9.81363 29.0126 8.92932Z" fill="#3C934E"></path><path d="M23.9998 10.5396C23.4056 11.1859 22.9828 11.8833 22.7307 12.5846C22.4792 13.2863 22.4088 13.9523 22.471 14.5596H22.4715C22.7534 13.2256 23.2488 11.865 23.9998 10.5396Z" fill="#3C934E"></path><path d="M21.4362 43.2224C23.0759 43.8475 24.7607 44.0557 26.2986 43.8991C27.7049 43.7564 28.9142 43.3271 29.8781 42.7347C29.8188 42.7216 29.76 42.7082 29.7007 42.6947C27.0876 43.445 24.2595 43.6619 21.4362 43.2224Z" fill="#3C934E"></path><path d="M18.8959 40.853C20.3022 41.7042 21.7992 42.1712 23.219 42.271C24.5622 42.3664 25.7627 42.1374 26.7614 41.7061C26.7301 41.6915 26.6983 41.6777 26.6669 41.6632C24.1487 41.9736 21.4873 41.7311 18.8959 40.853Z" fill="#3C934E"></path><path d="M16.9525 38.1982C18.1337 39.2229 19.4432 39.8986 20.7339 40.2176C21.9875 40.5285 23.1528 40.4943 24.1621 40.2278C24.1476 40.2172 24.1332 40.2071 24.1183 40.1965C21.7363 40.0981 19.2803 39.447 16.9525 38.1982Z" fill="#3C934E"></path><path d="M15.5529 35.3763C16.5191 36.5253 17.6431 37.3659 18.7988 37.8676C19.9328 38.3607 21.0318 38.5086 22.0231 38.4083C22.0154 38.4007 22.0077 38.3925 22 38.3842C19.7985 37.9163 17.5873 36.9172 15.5529 35.3763Z" fill="#3C934E"></path><path d="M14.6451 32.4868C15.4076 33.7172 16.3507 34.6802 17.3666 35.3299C18.3629 35.9676 19.3715 36.2755 20.3181 36.3338C20.3119 36.3247 20.3056 36.3151 20.2994 36.3058C18.3118 35.5193 16.3711 34.2412 14.6451 32.4868Z" fill="#3C934E"></path><path d="M14.1771 29.6119C14.7482 30.8857 15.5165 31.935 16.3917 32.6988C17.2438 33.4435 18.1475 33.8849 19.029 34.084C19.0227 34.071 19.0164 34.058 19.0102 34.045C17.2558 32.9982 15.5947 31.5088 14.1771 29.6119Z" fill="#3C934E"></path><path d="M14.0998 26.8196C14.4921 28.1054 15.094 29.2052 15.8291 30.0544C16.5367 30.8718 17.3265 31.4175 18.1286 31.7365C18.1227 31.7177 18.1169 31.6994 18.1113 31.6805C16.5998 30.4327 15.2189 28.7956 14.0998 26.8196Z" fill="#3C934E"></path><path d="M14.3655 24.1619C14.5925 25.4318 15.0369 26.5548 15.6345 27.4599C16.2013 28.3183 16.8727 28.9395 17.583 29.3555C17.5792 29.3305 17.5753 29.305 17.5714 29.2799C16.3063 27.8869 15.1998 26.1609 14.3655 24.1619Z" fill="#3C934E"></path><path d="M14.9288 21.6791C15.005 22.9105 15.3009 24.0311 15.766 24.9675C16.2012 25.8456 16.7594 26.5194 17.3777 27.0096C17.3772 26.9827 17.3768 26.9556 17.3763 26.9282C16.2846 25.3896 15.4816 23.6025 14.9288 21.6791Z" fill="#3C934E"></path><path d="M15.7478 19.4C15.6865 20.5746 15.8452 21.671 16.1835 22.6171C16.4986 23.501 16.9512 24.2104 17.4809 24.756C17.4838 24.7291 17.4867 24.7015 17.49 24.6741C16.6581 23.1067 16.0639 21.2749 15.7478 19.4Z" fill="#3C934E"></path><path d="M16.782 17.3438C16.5978 18.4465 16.6302 19.502 16.8479 20.4388C17.0528 21.3184 17.4065 22.0491 17.8524 22.6356C17.8586 22.6096 17.8649 22.5836 17.8711 22.558C17.3116 21.0205 16.8821 19.1496 16.782 17.3438Z" fill="#3C934E"></path><path d="M17.9948 15.5206C17.7018 16.5414 17.6193 17.5415 17.7255 18.4523C17.8258 19.3179 18.087 20.0587 18.4523 20.6727C18.4596 20.6535 18.4668 20.6342 18.474 20.6149C18.1037 19.0798 17.8969 17.258 17.9948 15.5206Z" fill="#3C934E"></path><path d="M19.3524 13.9338C18.964 14.865 18.779 15.7985 18.7813 16.6708C18.7833 17.5119 18.9558 18.2522 19.243 18.8811C19.2492 18.8686 19.2561 18.856 19.2623 18.844C19.0691 17.3296 19.0685 15.5922 19.3524 13.9338Z" fill="#3C934E"></path><path d="M20.8241 12.5804C20.3542 13.418 20.078 14.2774 19.986 15.1001C19.8955 15.9049 19.9826 16.6318 20.1932 17.2654C20.1976 17.2587 20.2023 17.252 20.2067 17.2452C20.1807 15.7706 20.3677 14.1454 20.8241 12.5804Z" fill="#3C934E"></path><path d="M22.3815 11.4529C21.8431 12.195 21.488 12.975 21.3106 13.7393C21.1352 14.4974 21.1414 15.2001 21.2764 15.8257C21.2788 15.8234 21.2807 15.8208 21.2826 15.8185C21.4156 14.4034 21.7679 12.9064 22.3815 11.4529Z" fill="#3C934E"></path><path d="M32.6821 43.4381C30.1692 44.5042 27.4456 45.1149 24.6272 45.1692C26.5063 45.5086 28.3768 45.4064 30.0194 44.9567C31.045 44.6763 31.9448 44.2753 32.7062 43.7991C32.6904 43.7576 32.6821 43.7128 32.6821 43.666V43.4381Z" fill="#3C934E"></path><path d="M24.8599 11.624C25.192 11.0056 25.4648 10.4085 25.6571 9.82581C24.7974 11.0022 24.177 12.2303 23.7592 13.4554C24.1543 12.8496 24.5278 12.2423 24.8599 11.624Z" fill="#056D31"></path><path d="M26.3801 10.9092C26.7648 10.3598 27.089 9.8243 27.3335 9.29517C26.3874 10.3236 25.6611 11.4158 25.1256 12.5238C25.5709 11.9931 25.995 11.4587 26.3801 10.9092Z" fill="#056D31"></path><path d="M27.9309 10.3574C28.3579 9.87738 28.7247 9.40368 29.0124 8.92932C27.9998 9.81324 27.1882 10.7695 26.553 11.7555C27.0383 11.2997 27.5034 10.838 27.9309 10.3574Z" fill="#056D31"></path><path d="M32.6821 43.1793C31.3605 43.5061 30.1089 43.7895 28.9036 44.0671C27.3266 44.43 25.9092 44.7674 24.6272 45.1693C27.4456 45.1144 30.1692 44.5037 32.6821 43.4376V43.1793Z" fill="#056D31"></path><path d="M32.7484 42.823C24.6775 42.2137 19.0078 36.4376 17.945 29.0135C16.8635 21.2935 20.8145 14.4657 27.1566 11.5878C27.9398 11.2196 28.8107 10.9386 29.0228 10.8668L29.0126 10.8359C29.0126 10.8359 28.8387 10.8894 28.5119 10.9901C26.157 11.7487 24.1279 12.9868 22.4715 14.559C22.8059 13.8785 23.1178 13.2003 23.3872 12.515C23.6566 11.8302 23.8682 11.1727 23.9998 10.5391C23.2484 11.8645 22.7529 13.225 22.471 14.5591V14.5596C22.0545 14.9548 21.6618 15.3708 21.2931 15.8055C21.5514 15.0666 21.7875 14.3317 21.9813 13.5952C22.1774 12.8458 22.3192 12.1339 22.3813 11.4529C21.7673 12.9065 21.4155 14.4035 21.2824 15.8185C21.2804 15.8209 21.2781 15.8234 21.2762 15.8258C20.9018 16.2691 20.5519 16.7324 20.2284 17.2124C20.4014 16.4269 20.5532 15.6489 20.6626 14.8726C20.7768 14.0653 20.8386 13.3014 20.8236 12.5804C20.3672 14.1453 20.1802 15.7705 20.2062 17.2452C20.2018 17.2519 20.1975 17.2586 20.1931 17.2654C19.8659 17.755 19.5657 18.262 19.2934 18.784C19.3743 17.9652 19.4351 17.1554 19.4559 16.3525C19.478 15.4942 19.452 14.6879 19.3523 13.9336C19.0683 15.5926 19.0689 17.3295 19.2621 18.8438C19.2559 18.8563 19.249 18.8683 19.2428 18.8809C18.9686 19.4144 18.7237 19.9633 18.5083 20.5248C18.4929 19.6847 18.4592 18.8553 18.3869 18.0359C18.3078 17.1376 18.1859 16.297 17.9946 15.5206C17.8968 17.2581 18.1035 19.0799 18.4737 20.6149C18.4665 20.6342 18.4592 20.6529 18.4521 20.6722C18.2367 21.2491 18.0531 21.839 17.9012 22.4386C17.7856 21.5865 17.6529 20.7464 17.4848 19.9194C17.2959 18.9931 17.0707 18.1313 16.7821 17.3432C16.8824 19.1491 17.3112 21.0201 17.8714 22.5575C17.8652 22.5835 17.8588 22.6091 17.8526 22.6351C17.7032 23.2558 17.588 23.8873 17.508 24.5253C17.2863 23.6665 17.0501 22.8211 16.7802 21.9921C16.4742 21.0527 16.1392 20.1842 15.7478 19.3996C16.0639 21.2745 16.6583 23.1063 17.4901 24.6736C17.4866 24.7011 17.4838 24.7282 17.4809 24.7556C17.4068 25.4216 17.371 26.0945 17.375 26.7712C17.0371 25.9104 16.6877 25.0631 16.3069 24.2361C15.8765 23.3026 15.4268 22.4443 14.929 21.6789C15.4817 23.6023 16.2847 25.3894 17.3764 26.9278C17.3769 26.9548 17.3773 26.9818 17.3779 27.0093C17.3913 27.7192 17.4491 28.432 17.5518 29.1448C17.0823 28.2874 16.6063 27.444 16.1006 26.6256C15.5406 25.7181 14.9714 24.889 14.3655 24.1614C15.1993 26.1606 16.3064 27.8865 17.5715 29.2793C17.5753 29.3044 17.5791 29.3299 17.5831 29.3549C17.6998 30.0996 17.8656 30.8427 18.0819 31.5797C17.463 30.7436 16.8446 29.9193 16.1999 29.1237C15.5054 28.2672 14.8147 27.4889 14.1 26.819C15.2186 28.7955 16.5999 30.4322 18.1113 31.6804C18.1166 31.6988 18.1224 31.7171 18.1282 31.7358C18.3576 32.4905 18.6401 33.2381 18.9783 33.9741C18.2004 33.1952 17.4322 32.4236 16.6432 31.6838C15.8118 30.9055 14.9993 30.2018 14.1771 29.6114C15.595 31.5084 17.2558 32.9982 19.0101 34.0444C19.0163 34.0579 19.0227 34.071 19.0289 34.0839C19.3904 34.8511 19.8039 35.5751 20.2641 36.2541C19.3239 35.5731 18.4043 34.8946 17.4726 34.2473C16.5044 33.574 15.5708 32.9726 14.6449 32.4862C16.3704 34.241 18.3117 35.5191 20.2993 36.3052C20.3055 36.3149 20.3118 36.324 20.318 36.3332C20.8135 37.0546 21.3619 37.7241 21.9562 38.3391C20.8584 37.8017 19.7952 37.2562 18.7305 36.7414C17.6259 36.2069 16.5762 35.7346 15.5529 35.376C17.5868 36.9169 19.7985 37.916 22 38.3839C22.0078 38.3921 22.0155 38.4003 22.0231 38.408C22.6473 39.0457 23.3211 39.6235 24.0382 40.1392C22.8092 39.7898 21.628 39.4225 20.4596 39.0798C19.2229 38.7174 18.0629 38.4022 16.9519 38.1979C19.2798 39.4466 21.7358 40.0977 24.1176 40.1961C24.1325 40.2066 24.1471 40.2168 24.162 40.2273C24.9003 40.7474 25.6835 41.2014 26.5029 41.5869C25.1882 41.4588 23.9326 41.3021 22.7031 41.1614C21.3416 41.0053 20.0813 40.879 18.8957 40.8524C21.4871 41.7305 24.1485 41.9735 26.6668 41.6626C26.6981 41.6771 26.7295 41.6915 26.7613 41.7055C27.6067 42.0848 28.4896 42.3907 29.4014 42.6212C28.0438 42.7272 26.755 42.7951 25.5043 42.868C24.0276 42.9538 22.6806 43.0454 21.4361 43.2217C24.2594 43.6612 27.0869 43.4449 29.7007 42.694C29.7595 42.708 29.8188 42.721 29.8781 42.734C30.7885 42.9354 31.7259 43.0618 32.6816 43.1095H32.6821V43.0372C32.6822 42.9584 32.7064 42.8842 32.7484 42.823Z" fill="#056D31"></path><path d="M42.8947 9.82581C43.5323 10.3786 44.0109 10.9931 44.3276 11.6269C44.6442 12.2611 44.784 12.8791 44.7922 13.4554C44.3747 12.2302 43.7539 11.0022 42.8947 9.82581Z" fill="#3C934E"></path><path d="M41.2181 9.29517C41.8876 9.75883 42.411 10.2914 42.782 10.8552C43.1532 11.4196 43.3546 11.9845 43.4259 12.5238C42.8904 11.4158 42.1646 10.3232 41.2181 9.29517Z" fill="#3C934E"></path><path d="M39.5391 8.92932C40.2292 9.30865 40.7859 9.76123 41.2013 10.2557C41.6168 10.7497 41.8707 11.2595 41.9985 11.7555C41.3636 10.7699 40.5515 9.81363 39.5391 8.92932Z" fill="#3C934E"></path><path d="M44.5516 10.5396C45.1458 11.1859 45.5686 11.8833 45.8207 12.5846C46.0723 13.2863 46.1426 13.9523 46.0804 14.5596H46.0799C45.7985 13.2256 45.303 11.865 44.5516 10.5396Z" fill="#3C934E"></path><path d="M47.1153 43.2224C45.4756 43.8475 43.7908 44.0557 42.2528 43.8991C40.8464 43.7564 39.6372 43.3271 38.6733 42.7347C38.7325 42.7216 38.7914 42.7082 38.8507 42.6947C41.4639 43.445 44.2919 43.6619 47.1153 43.2224Z" fill="#3C934E"></path><path d="M49.6558 40.853C48.2494 41.7042 46.7524 42.1712 45.3327 42.271C43.9894 42.3664 42.7889 42.1374 41.7903 41.7061C41.8216 41.6915 41.8534 41.6777 41.8848 41.6632C44.4028 41.9736 47.0642 41.7311 49.6558 40.853Z" fill="#3C934E"></path><path d="M51.5991 38.1982C50.4178 39.2229 49.1084 39.8986 47.8177 40.2176C46.5641 40.5285 45.3988 40.4943 44.3895 40.2278C44.404 40.2172 44.4184 40.2071 44.4333 40.1965C46.8152 40.0981 49.2713 39.447 51.5991 38.1982Z" fill="#3C934E"></path><path d="M52.9985 35.3763C52.0322 36.5253 50.9082 37.3659 49.753 37.8676C48.6184 38.3607 47.5196 38.5086 46.5281 38.4083C46.5358 38.4007 46.5436 38.3925 46.5512 38.3842C48.7529 37.9163 50.9646 36.9172 52.9985 35.3763Z" fill="#3C934E"></path><path d="M53.9064 32.4868C53.144 33.7172 52.2008 34.6802 51.1849 35.3299C50.1886 35.9676 49.18 36.2755 48.2334 36.3338C48.2396 36.3247 48.2459 36.3151 48.2521 36.3058C50.2397 35.5193 52.181 34.2412 53.9064 32.4868Z" fill="#3C934E"></path><path d="M54.3743 29.6119C53.8032 30.8857 53.0349 31.935 52.1597 32.6988C51.3076 33.4435 50.4039 33.8849 49.5225 34.084C49.5287 34.071 49.535 34.058 49.5412 34.045C51.2956 32.9982 52.9569 31.5088 54.3743 29.6119Z" fill="#3C934E"></path><path d="M54.4518 26.8196C54.0595 28.1054 53.4575 29.2052 52.7225 30.0544C52.0149 30.8718 51.2251 31.4175 50.423 31.7365C50.4288 31.7177 50.4347 31.6994 50.4403 31.6805C51.9518 30.4327 53.3332 28.7956 54.4518 26.8196Z" fill="#3C934E"></path><path d="M54.1861 24.1619C53.9591 25.4318 53.5147 26.5548 52.9171 27.4599C52.3503 28.3183 51.6789 28.9395 50.9686 29.3555C50.9724 29.3305 50.9764 29.305 50.9802 29.2799C52.2453 27.8869 53.3518 26.1609 54.1861 24.1619Z" fill="#3C934E"></path><path d="M53.6228 21.6791C53.5466 22.9105 53.2507 24.0311 52.7861 24.9675C52.3504 25.8456 51.7924 26.5194 51.174 27.0096C51.1745 26.9827 51.1749 26.9556 51.1755 26.9282C52.267 25.3896 53.0699 23.6025 53.6228 21.6791Z" fill="#3C934E"></path><path d="M52.8039 19.4C52.8652 20.5746 52.7065 21.671 52.3682 22.6171C52.0531 23.501 51.6005 24.2104 51.0708 24.756C51.0674 24.7291 51.0646 24.7015 51.0617 24.6741C51.8935 23.1067 52.4877 21.2749 52.8039 19.4Z" fill="#3C934E"></path><path d="M51.7695 17.3438C51.9536 18.4465 51.9213 19.502 51.7035 20.4388C51.4987 21.3184 51.145 22.0491 50.6991 22.6356C50.6929 22.6096 50.6866 22.5836 50.6804 22.558C51.2399 21.0205 51.6693 19.1496 51.7695 17.3438Z" fill="#3C934E"></path><path d="M50.5567 15.5206C50.8497 16.5414 50.9322 17.5415 50.8266 18.4523C50.7259 19.3179 50.4647 20.0587 50.0994 20.6727C50.0921 20.6535 50.0849 20.6342 50.0778 20.6149C50.4478 19.0798 50.6545 17.258 50.5567 15.5206Z" fill="#3C934E"></path><path d="M49.1991 13.9338C49.5875 14.865 49.7726 15.7985 49.7702 16.6708C49.7682 17.5119 49.5957 18.2522 49.3085 18.8811C49.3023 18.8686 49.2954 18.856 49.2892 18.844C49.4825 17.3296 49.4829 15.5922 49.1991 13.9338Z" fill="#3C934E"></path><path d="M47.7275 12.5804C48.1974 13.418 48.4735 14.2774 48.5657 15.1001C48.6562 15.9049 48.5686 16.6318 48.3584 17.2654C48.3541 17.2587 48.3493 17.252 48.345 17.2452C48.371 15.7706 48.1839 14.1454 47.7275 12.5804Z" fill="#3C934E"></path><path d="M46.1702 11.4529C46.7086 12.195 47.0638 12.975 47.2412 13.7393C47.4166 14.4974 47.4104 15.2001 47.2754 15.8257C47.273 15.8234 47.271 15.8208 47.2692 15.8185C47.136 14.4034 46.7837 12.9064 46.1702 11.4529Z" fill="#3C934E"></path><path d="M35.8693 43.4381C38.3822 44.5042 41.1052 45.1149 43.9242 45.1692C42.0451 45.5086 40.1746 45.4064 38.532 44.9567C37.5063 44.6763 36.6066 44.2753 35.8452 43.7991C35.8606 43.7576 35.8693 43.7128 35.8693 43.666V43.4381Z" fill="#3C934E"></path><path d="M43.6917 11.624C43.3596 11.0056 43.0868 10.4085 42.8945 9.82581C43.7538 11.0022 44.3746 12.2303 44.7924 13.4554C44.3971 12.8496 44.0236 12.2423 43.6917 11.624Z" fill="#056D31"></path><path d="M42.1716 10.9092C41.787 10.3598 41.4627 9.8243 41.2179 9.29517C42.1645 10.3236 42.8907 11.4158 43.4262 12.5238C42.9808 11.9931 42.5562 11.4587 42.1716 10.9092Z" fill="#056D31"></path><path d="M40.6206 10.3574C40.1931 9.87738 39.8268 9.40368 39.5391 8.92932C40.5517 9.81324 41.3632 10.7695 41.9985 11.7555C41.5131 11.2997 41.0481 10.838 40.6206 10.3574Z" fill="#056D31"></path><path d="M35.8695 43.1793C37.191 43.5061 38.4427 43.7895 39.648 44.0671C41.225 44.43 42.6419 44.7674 43.9244 45.1693C41.1054 45.1144 38.3824 44.5037 35.8695 43.4376V43.1793Z" fill="#056D31"></path><path d="M35.8032 42.823C43.8741 42.2137 49.5438 36.4376 50.6064 29.0135C51.6879 21.2935 47.7369 14.4657 41.3948 11.5878C40.6116 11.2196 39.7408 10.9386 39.5287 10.8668L39.5388 10.8359C39.5388 10.8359 39.7128 10.8894 40.0396 10.9901C42.3945 11.7487 44.4235 12.9868 46.08 14.559C45.7455 13.8785 45.4336 13.2003 45.1642 12.515C44.8949 11.8302 44.6833 11.1727 44.5517 10.5391C45.3031 11.8645 45.7986 13.2249 46.08 14.559L46.0805 14.5596C46.4969 14.9548 46.8897 15.3708 47.2583 15.8055C47 15.0666 46.7639 14.3317 46.5702 13.5952C46.3735 12.8458 46.2328 12.1339 46.1701 11.4529C46.7841 12.9065 47.136 14.4035 47.269 15.8185C47.271 15.8209 47.2729 15.8234 47.2752 15.8258C47.6497 16.2691 47.9992 16.7324 48.3225 17.2124C48.15 16.4269 47.9981 15.6489 47.8888 14.8726C47.7747 14.0653 47.7129 13.3014 47.7278 12.5804C48.1842 14.1453 48.3707 15.7705 48.3453 17.2452C48.3496 17.2519 48.354 17.2586 48.3583 17.2654C48.6855 17.755 48.9858 18.262 49.2581 18.784C49.1772 17.9652 49.1163 17.1554 49.0956 16.3525C49.0734 15.4942 49.0994 14.6879 49.1992 13.9336C49.4831 15.5926 49.4826 17.3295 49.2894 18.8438C49.2956 18.8563 49.3024 18.8683 49.3086 18.8809C49.5829 19.4144 49.8277 19.9633 50.0431 20.5248C50.0586 19.6847 50.0922 18.8553 50.1642 18.0359C50.2436 17.1376 50.3656 16.297 50.5569 15.5206C50.6548 17.2581 50.4481 19.0799 50.0778 20.6149C50.0851 20.6342 50.0924 20.6529 50.0995 20.6722C50.3149 21.2491 50.4985 21.839 50.6504 22.4386C50.766 21.5865 50.8985 20.7464 51.0668 19.9194C51.2557 18.9931 51.4809 18.1313 51.7695 17.3432C51.6692 19.1491 51.2399 21.0201 50.6802 22.5575C50.6864 22.5835 50.6928 22.6091 50.699 22.6351C50.8484 23.2558 50.9636 23.8873 51.0431 24.5253C51.2652 23.6665 51.5014 22.8211 51.7714 21.9921C52.0774 21.0527 52.4124 20.1842 52.8038 19.3996C52.4876 21.2745 51.8933 23.1063 51.0615 24.6736C51.065 24.7011 51.0677 24.7282 51.0706 24.7556C51.1448 25.4216 51.1806 26.0945 51.1766 26.7712C51.5145 25.9104 51.8639 25.0631 52.2447 24.2361C52.6751 23.3026 53.1248 22.4443 53.6226 21.6789C53.0698 23.6023 52.2668 25.3894 51.1752 26.9278C51.1746 26.9548 51.1743 26.9818 51.1737 27.0093C51.1597 27.7192 51.1025 28.432 50.9998 29.1448C51.4692 28.2874 51.9449 27.444 52.451 26.6256C53.011 25.7181 53.5802 24.889 54.1861 24.1614C53.3518 26.1606 52.2452 27.8865 50.9801 29.2793C50.9763 29.3044 50.9724 29.3299 50.9685 29.3549C50.8518 30.0996 50.686 30.8427 50.4697 31.5797C51.0886 30.7436 51.7068 29.9193 52.3517 29.1237C53.0462 28.2672 53.7369 27.4889 54.4516 26.819C53.333 28.7955 51.9517 30.4322 50.4403 31.6804C50.4345 31.6988 50.4292 31.7171 50.4234 31.7358C50.194 32.4905 49.911 33.2381 49.5733 33.9741C50.3512 33.1952 51.1193 32.4236 51.9084 31.6838C52.7397 30.9055 53.5519 30.2018 54.3745 29.6114C52.9566 31.5084 51.2958 32.9982 49.5414 34.0444C49.5352 34.0579 49.5289 34.071 49.5227 34.0839C49.1612 34.8511 48.7473 35.5751 48.2869 36.2541C49.2277 35.5731 50.1473 34.8946 51.0784 34.2473C52.0472 33.574 52.9808 32.9726 53.9065 32.4862C52.181 34.241 50.2398 35.5191 48.2522 36.3052C48.246 36.3149 48.2397 36.324 48.2335 36.3332C47.738 37.0546 47.19 37.7241 46.5952 38.3391C47.6931 37.8017 48.7564 37.2562 49.821 36.7414C50.9256 36.2069 51.9753 35.7346 52.9986 35.376C50.9647 36.9169 48.753 37.916 46.5514 38.3839C46.5436 38.3921 46.536 38.4003 46.5283 38.408C45.9042 39.0457 45.2304 39.6235 44.5133 40.1392C45.7422 39.7898 46.9231 39.4225 48.0918 39.0798C49.3285 38.7174 50.4886 38.4022 51.5995 38.1979C49.2717 39.4466 46.8151 40.0977 44.4333 40.1961C44.4188 40.2066 44.4039 40.2168 44.3895 40.2273C43.6511 40.7474 42.8679 41.2014 42.0486 41.5869C43.3633 41.4588 44.6189 41.3021 45.8478 41.1614C47.2098 41.0053 48.4701 40.879 49.6557 40.8524C47.0643 41.7305 44.4029 41.9735 41.8846 41.6626C41.8534 41.6771 41.8219 41.6915 41.7901 41.7055C40.9448 42.0848 40.0619 42.3907 39.15 42.6212C40.5072 42.7272 41.7965 42.7951 43.0472 42.868C44.5238 42.9538 45.8709 43.0454 47.1154 43.2217C44.2921 43.6612 41.464 43.4449 38.8508 42.694C38.7919 42.708 38.7327 42.721 38.6734 42.734C37.763 42.9354 36.8256 43.0618 35.8693 43.1095V43.0372C35.8692 42.9584 35.8451 42.8842 35.8032 42.823Z" fill="#056D31"></path><path d="M34.2758 41.0774H35.6319C35.8377 40.7724 36.0142 40.4474 36.1578 40.1068L36.2532 39.8803L36.2566 39.8716H34.2758H32.2949L32.3938 40.1068C32.5061 40.3723 32.6381 40.6283 32.7886 40.8731C32.8309 40.942 32.8749 41.0105 32.9196 41.0774H34.2758Z" fill="#951B15"></path><path d="M35.2778 44.0469H35.4885C35.6522 44.0469 35.7916 43.9438 35.8456 43.7992C35.8611 43.7577 35.8698 43.7129 35.8698 43.6661V43.4382V43.1794V43.11V43.0376C35.8698 42.9586 35.8452 42.8848 35.8032 42.8231C35.7623 42.763 35.7044 42.7152 35.6355 42.6863L36.5787 41.6048C36.851 41.2929 36.8833 40.8379 36.6577 40.4905L36.2568 39.8722L36.2533 39.8804L36.1579 40.1069C36.0143 40.4477 35.8378 40.7725 35.6321 41.0775C35.4499 41.3474 35.2455 41.6013 35.019 41.8371L34.2758 42.6106L33.5325 41.8371C33.3065 41.6013 33.1016 41.3474 32.92 41.0775C32.8747 41.0104 32.8308 40.9421 32.7884 40.8732C32.6381 40.6289 32.506 40.3724 32.3936 40.1069L32.2948 39.8722L31.8938 40.4905C31.6682 40.8381 31.701 41.293 31.9729 41.6048L32.916 42.6863C32.8471 42.7152 32.7893 42.763 32.7483 42.8231C32.7063 42.8848 32.6823 42.9586 32.6823 43.0376V43.11V43.1794V43.4382V43.6661C32.6823 43.7129 32.6905 43.7577 32.7059 43.7992C32.7599 43.9437 32.8997 44.0469 33.0631 44.0469H33.2741C32.6736 44.688 31.8784 45.2644 30.8369 45.7598H32.3131C32.3131 45.7598 33.4404 44.8417 33.838 44.0469H33.8389H34.2758H34.7129H34.7134C35.1111 44.8416 36.2383 45.7598 36.2383 45.7598H37.7149C36.673 45.2644 35.8778 44.6879 35.2778 44.0469Z" fill="#CB3438"></path><path d="M32.3139 45.7597L32.3096 47.2065C33.2171 46.1983 33.9323 45.177 34.2755 44.1302C34.6192 45.177 35.3344 46.1983 36.2418 47.2065L36.2375 45.7597C36.2375 45.7597 35.1102 44.8416 34.7125 44.0468H33.8388C33.4412 44.8416 32.3139 45.7597 32.3139 45.7597Z" fill="#951B15"></path><path d="M34.2758 31.4466C31.5354 31.4466 29.3137 29.2253 29.3137 26.4845C29.3137 23.744 31.5355 21.5227 34.2758 21.5227C37.0163 21.5227 39.238 23.744 39.238 26.4845C39.238 29.2253 37.0161 31.4466 34.2758 31.4466Z" fill="white"></path><path d="M37.9652 26.8288C36.889 26.8288 35.4017 27.5917 34.551 28.0863C34.3862 26.2703 34.4483 25.0943 34.4999 24.4852C34.4999 24.4813 34.5047 24.4794 34.5081 24.4813C35.0343 24.8134 34.8864 25.7406 34.7766 26.0058C34.7742 26.0111 34.7824 26.0149 34.7857 26.0105C35.4417 25.234 35.1216 24.3772 34.9867 24.1598C34.9838 24.1551 34.9905 24.1502 34.9949 24.1536C35.5814 24.6313 35.5558 25.264 35.524 25.6188C35.5235 25.6246 35.5313 25.6264 35.5342 25.6212C35.7723 25.1517 35.845 24.3575 35.1139 23.7132C35.1096 23.7097 35.1134 23.703 35.1183 23.7041C35.7718 23.8622 36.0364 24.482 36.0417 24.9446C36.0417 24.9523 36.0422 24.96 36.0422 24.9677C36.0422 24.9739 36.0509 24.9744 36.0524 24.9686C36.1463 24.6226 36.1256 24.3416 36.0418 24.1165C35.8524 23.6076 35.3396 23.3849 35.0904 23.354C35.0842 23.3531 35.0857 23.3444 35.0914 23.3439C35.5781 23.2981 35.8731 23.4499 36.0418 23.5989C36.1459 23.6905 36.2023 23.7815 36.2245 23.8235C36.2274 23.8288 36.235 23.8255 36.2346 23.8201C36.2163 23.6336 36.145 23.4789 36.0418 23.356C35.7531 23.0119 35.2113 22.9154 34.861 23.063C34.8562 23.065 34.8519 23.0596 34.8548 23.0553C35.0819 22.7296 35.5344 22.6953 35.7744 22.8096C35.7797 22.812 35.784 22.8058 35.7806 22.8014C35.4211 22.3893 34.8307 22.3802 34.5155 22.8574C34.5135 22.8608 34.5088 22.8608 34.5068 22.8574C34.4726 22.7967 34.4399 22.7287 34.409 22.6574C34.3415 22.5018 34.3112 22.3268 34.2827 22.1523C34.2812 22.145 34.2707 22.145 34.2692 22.1523C34.2403 22.3268 34.2104 22.5017 34.1429 22.6574C34.1116 22.7287 34.0788 22.7967 34.0446 22.8574C34.0426 22.8608 34.0384 22.8608 34.0359 22.8574C33.7212 22.3802 33.1303 22.3893 32.7712 22.8014C32.7673 22.8058 32.7721 22.812 32.777 22.8096C33.0169 22.6954 33.47 22.7296 33.6965 23.0553C33.6994 23.0597 33.6951 23.065 33.6907 23.063C33.3403 22.9156 32.7986 23.0119 32.51 23.356C32.4064 23.4789 32.3355 23.6336 32.3171 23.8201C32.3166 23.8254 32.3244 23.8288 32.3268 23.8235C32.3495 23.7815 32.4058 23.6905 32.51 23.5989C32.6786 23.45 32.9736 23.2981 33.4599 23.3439C33.4661 23.3444 33.4671 23.353 33.4613 23.354C33.2116 23.3849 32.6994 23.6076 32.51 24.1165C32.4262 24.3416 32.4054 24.6226 32.4994 24.9686C32.5009 24.9744 32.5096 24.9739 32.509 24.9677C32.509 24.96 32.5096 24.9523 32.51 24.9446C32.5147 24.4819 32.7794 23.8622 33.4329 23.7041C33.4382 23.7031 33.4417 23.7099 33.4378 23.7132C32.7062 24.3575 32.779 25.1518 33.0176 25.6212C33.02 25.6264 33.0278 25.6246 33.0272 25.6188C32.9959 25.264 32.9698 24.6313 33.5564 24.1536C33.5607 24.1502 33.568 24.1551 33.5651 24.1598C33.4302 24.3772 33.1096 25.234 33.7656 26.0105C33.7694 26.0149 33.7772 26.0111 33.7752 26.0058C33.6648 25.7407 33.5169 24.8134 34.0437 24.4813C34.0471 24.4794 34.0514 24.4813 34.0518 24.4852C34.1029 25.0944 34.1651 26.2703 34.0002 28.0863C33.1496 27.5917 31.6627 26.8288 30.5865 26.8288C30.2554 26.8288 29.9787 26.917 29.9967 26.9199C31.4199 27.1446 33.1058 28.1345 33.8148 28.5841C33.3575 28.8699 31.8923 29.776 31.7169 29.776C31.6276 29.776 31.6152 29.6685 31.5395 29.6685C31.4715 29.6685 31.4715 29.7182 31.4715 29.7384C31.4715 30.043 31.887 30.2406 32.2224 30.083L34.2759 28.8959L36.3291 30.083C36.6646 30.2406 37.08 30.043 37.08 29.7384C37.08 29.7182 37.08 29.6685 37.012 29.6685C36.9368 29.6685 36.9244 29.776 36.8346 29.776C36.6592 29.776 35.194 28.8699 34.7367 28.5841C35.4456 28.1345 37.1316 27.1446 38.5548 26.9199C38.5729 26.9171 38.2963 26.8288 37.9652 26.8288Z" fill="#056D31"></path><path d="M42.489 25.7561C43.1754 25.8129 44.6255 25.9913 45.0694 25.6722C45.0939 25.798 44.624 26.2579 43.1748 26.1619C41.955 26.081 40.367 25.9031 39.9265 26.2699C40.0417 25.7473 41.0702 25.6385 42.489 25.7561Z" fill="#69767B"></path><path d="M20.2493 31.0215L20.4054 31.3279L24.2114 29.3871L20.2493 31.0215Z" fill="#69767B"></path><path d="M47.1211 29.4672L46.6073 29.4782L47.3543 29.8189L47.5752 29.4575L47.3216 29.4628L47.1211 29.4672Z" fill="#69767B"></path><path d="M46.4937 31.5159L42.9311 29.6614C42.4415 29.4064 41.8849 29.3101 41.3383 29.3857L43.0064 31.7299L45.6263 33.2105L45.4638 33.6013L46.7458 34.2549L47.1295 33.5021C47.4987 32.7777 47.2148 31.8914 46.4937 31.5159Z" fill="#69767B"></path><path d="M38.7166 34.621C38.6507 34.4856 38.5725 34.3501 38.4814 34.2147C38.6434 35.5352 37.7942 36.1387 37.7942 36.1387L38.3537 35.7512C38.3537 35.7512 37.8934 37.0259 36.8692 37.5117C35.845 37.9971 34.2758 38.5156 34.2758 38.68C34.2758 38.5137 32.6232 37.9971 31.599 37.5117C30.5748 37.0259 30.1151 35.7512 30.1151 35.7512L30.9541 36.1016L31.2564 36.0447C30.9286 35.8404 30.6038 35.504 30.3754 35.1073C30.3234 35.0168 30.2761 34.9227 30.2351 34.8269C30.1512 34.6302 30.0929 34.4235 30.0702 34.2149C29.9786 34.3503 29.9006 34.4857 29.8345 34.6211C29.8056 34.6804 29.7796 34.7402 29.7554 34.7994C29.4893 35.4607 29.5226 36.1287 29.8543 36.8226L30.0827 36.5031C30.7055 38.322 33.3301 38.2324 34.2753 39.5399H34.2758C35.221 38.2323 37.8462 38.3219 38.4689 36.5031L38.6974 36.8221C39.0285 36.1285 39.0622 35.4605 38.7957 34.7993C38.7717 34.74 38.7455 34.6802 38.7166 34.621Z" fill="#69767B"></path><path d="M26.0625 25.7561C25.3762 25.8129 23.9255 25.9913 23.4822 25.6722C23.4576 25.798 23.9275 26.2579 25.3767 26.1619C26.5965 26.081 28.1846 25.9031 28.625 26.2699C28.5094 25.7473 27.4814 25.6385 26.0625 25.7561Z" fill="#69767B"></path><path d="M27.6152 25.2528C27.5703 25.18 27.5212 25.1144 27.4687 25.0557C26.7564 24.2552 25.3848 24.7073 23.9494 24.8379C22.7083 24.9506 22.2207 24.8519 21.8235 24.6803C21.5614 24.5671 21.5416 24.5222 21.5416 24.5222C21.5416 24.5222 21.5381 24.5304 21.5381 24.5429C21.5381 24.7261 22.1603 25.3883 23.9827 25.2582C25.6276 25.141 26.926 24.8287 27.6152 25.2528Z" fill="#69767B"></path><path d="M40.9364 25.2528C40.9813 25.18 41.0304 25.1144 41.0824 25.0557C41.7952 24.2552 43.1668 24.7073 44.6021 24.8379C45.8431 24.9506 46.3308 24.8519 46.728 24.6803C46.9901 24.5671 47.0099 24.5222 47.0099 24.5222C47.0099 24.5222 47.0133 24.5304 47.0133 24.5429C47.0133 24.7261 46.3911 25.3883 44.5684 25.2582C42.924 25.141 41.6251 24.8287 40.9364 25.2528Z" fill="#69767B"></path><path d="M44.9116 32.806L45.6263 33.2104L45.4639 33.6012L44.9116 32.806Z" fill="#BEC6CB"></path><path d="M28.3553 21.7532L26.7716 20.9463L26.5962 20.8567L26.2694 20.6904L26.3128 20.6113C26.3677 20.5043 26.3277 20.3727 26.2221 20.314L25.2303 19.7616L25.0592 19.6662L23.5204 18.8083L23.3497 18.7134L22.2971 18.1268L22.0706 18.5707L21.6571 19.3823L21.4393 19.8103L21.7 19.941L21.7145 19.9126C21.9343 19.4813 22.4616 19.3088 22.8938 19.5271L26.0531 21.1219L25.8506 21.519L26.0145 21.48C26.3335 21.4058 26.6685 21.4458 26.9606 21.5932L30.0509 23.1498C30.1685 23.0299 30.2914 22.9146 30.4206 22.8052L28.5328 21.8432L28.3553 21.7532Z" fill="#BEC6CB"></path><path d="M37.7941 36.1389C37.7941 36.1389 38.6433 35.5355 38.4813 34.215C38.4586 34.4236 38.4004 34.6299 38.3159 34.827C38.2754 34.9229 38.2282 35.0164 38.1762 35.1071C37.9477 35.5037 37.6229 35.8401 37.2946 36.045L37.7941 36.1389Z" fill="#BEC6CB"></path><path d="M35.9287 37.3589C35.826 37.3589 35.7267 37.3487 35.6322 37.3285L35.6317 37.329C35.1184 37.4852 34.7796 37.6404 34.5686 37.7571C34.3579 37.8732 34.2761 37.9508 34.2761 37.9508V31.5538C34.0943 31.5538 33.9146 31.5462 33.7373 31.5311V36.1806C33.7382 36.5551 33.6371 36.8495 33.4361 37.0558C32.8043 37.7036 31.2833 37.2751 30.7574 36.1392L30.9545 36.1021L30.1149 35.7517C30.1149 35.7517 30.5752 37.0264 31.5994 37.5117C32.6236 37.9975 34.2762 38.5141 34.2762 38.6804C34.2762 38.5161 35.845 37.9975 36.8696 37.5117C37.8933 37.0264 38.3535 35.7517 38.3535 35.7517L37.7944 36.1392C37.4357 36.9135 36.615 37.3589 35.9287 37.3589Z" fill="#BEC6CB"></path><path d="M34.8961 14.8607C34.7727 14.8906 34.579 14.9215 34.2758 14.9407C34.0869 14.9523 33.8868 14.9547 33.604 14.9547C33.604 14.9547 33.6089 14.9981 33.6632 15.0521C33.6816 15.0699 33.7052 15.0892 33.736 15.1081C33.8121 15.1548 33.9317 15.2011 34.1191 15.2291C34.1669 15.2364 34.2184 15.2422 34.2758 15.2464V21.4256C33.763 21.4251 33.2637 21.4873 32.787 21.6054V19.3648C32.787 19.225 32.866 19.0972 32.9913 19.0347L33.307 18.8558C33.1518 18.9451 33.0684 19.1219 33.0989 19.2988L33.1167 19.4033L33.4468 21.3273V15.3029C33.4468 14.728 33.5513 14.1569 33.7558 13.6189L34.2758 12.1715V14.335C34.2758 14.6486 34.3101 14.8328 34.8961 14.8607Z" fill="#BEC6CB"></path><path d="M24.9933 30.9214L21.1863 32.8608L21.3424 33.1674L24.9933 30.9214Z" fill="#BEC6CB"></path><path d="M25.1338 26.5447C25.132 26.5419 25.1296 26.539 25.1279 26.5366C25.1296 26.539 25.1314 26.5419 25.1338 26.5447Z" fill="#BEC6CB"></path><path d="M28.6251 26.2698C27.9297 26.0664 25.5811 26.6033 25.1276 26.5363C25.1291 26.5383 25.1305 26.5406 25.132 26.5425C25.2365 26.6688 26.0839 26.6572 27.0747 26.6273C27.3913 26.6177 28.0458 26.5517 28.6622 26.7666C28.6377 26.3547 28.6257 26.2727 28.6251 26.2698Z" fill="#BEC6CB"></path><path d="M28.6151 26.2298C28.5308 25.9213 28.2436 25.5411 27.7332 25.3021C27.6932 25.2833 27.6541 25.2668 27.615 25.253C27.0565 25.052 26.5037 25.2959 24.6683 25.6052C24.3266 25.663 23.6432 25.7088 23.4837 25.6727C23.4832 25.6727 23.4828 25.6727 23.4818 25.6722C23.9256 25.9917 25.3759 25.8129 26.0626 25.756C27.4809 25.6384 28.5095 25.7473 28.6251 26.2698C28.6224 26.2563 28.6189 26.2433 28.6151 26.2298Z" fill="#BEC6CB"></path><path d="M27.5661 25.1754C27.2977 24.7595 27.0345 24.5094 26.7526 24.3667C26.1631 24.0688 25.4928 24.2433 24.526 24.3609C23.2175 24.5205 22.0009 24.6977 21.5417 24.5223C21.5417 24.5223 21.5615 24.5672 21.8237 24.6804C22.2212 24.852 22.7085 24.9509 23.9496 24.838C25.3848 24.7073 26.7565 24.2553 27.4689 25.0559C27.5214 25.1147 27.5705 25.1803 27.6154 25.253C27.5989 25.2265 27.5825 25.201 27.5661 25.1754Z" fill="#BEC6CB"></path><path d="M43.4188 26.5447C43.4206 26.5419 43.423 26.539 43.4245 26.5366C43.423 26.539 43.4212 26.5419 43.4188 26.5447Z" fill="#BEC6CB"></path><path d="M39.9263 26.2698C40.6218 26.0664 42.9703 26.6033 43.4238 26.5363C43.4224 26.5383 43.4209 26.5406 43.4189 26.5425C43.3148 26.6688 42.4676 26.6572 41.4762 26.6273C41.1601 26.6177 40.5056 26.5517 39.8891 26.7666C39.9138 26.3547 39.9258 26.2727 39.9263 26.2698Z" fill="#BEC6CB"></path><path d="M39.9363 26.2298C40.0206 25.9213 40.3078 25.5411 40.8188 25.3021C40.8582 25.2833 40.8973 25.2668 40.9364 25.253C41.4955 25.052 42.0478 25.2959 43.8831 25.6052C44.2248 25.663 44.9082 25.7088 45.0677 25.6727C45.0682 25.6727 45.0691 25.6727 45.0697 25.6722C44.6258 25.9917 43.1755 25.8129 42.4893 25.756C41.0705 25.6384 40.0419 25.7473 39.9263 26.2698C39.929 26.2563 39.9325 26.2433 39.9363 26.2298Z" fill="#BEC6CB"></path><path d="M40.9855 25.1754C41.254 24.7595 41.5175 24.5094 41.7991 24.3667C42.389 24.0688 43.0589 24.2433 44.0257 24.3609C45.3342 24.5205 46.5507 24.6977 47.0099 24.5223C47.0099 24.5223 46.9901 24.5672 46.728 24.6804C46.3308 24.852 45.8435 24.9509 44.6026 24.838C43.1668 24.7073 41.7952 24.2553 41.0824 25.0559C41.0304 25.1147 40.9817 25.1803 40.9364 25.253C40.9528 25.2265 40.9691 25.201 40.9855 25.1754Z" fill="#BEC6CB"></path><path d="M26.8852 28.0235L26.529 28.2052L25.1781 28.4091L24.9853 28.4386L23.2521 28.7003L23.0598 28.7292L22.8917 28.7548C22.3736 28.8619 21.8642 29.0049 21.3672 29.1828C21.3056 29.205 21.2444 29.2277 21.1826 29.2508C20.7946 29.3973 20.4148 29.5651 20.0442 29.7536L19.6938 29.9324L20.2491 31.0221L24.2112 29.3873L20.4052 31.3285L20.0139 31.5247L19.8384 31.6128C20.0337 32.1565 20.2587 32.6862 20.5122 33.2C20.291 32.7663 20.4635 32.2352 20.8974 32.0143L28.8906 27.9459C28.8053 27.6909 28.7421 27.4278 28.7027 27.1579C28.6785 27.1497 28.6545 27.1419 28.6303 27.1343L27.0644 27.9319L26.8852 28.0235Z" fill="#BEC6CB"></path><path d="M27.3147 23.5036C26.8289 23.2153 26.2872 23.0588 25.6312 22.997C25.5647 22.9908 25.4967 22.9854 25.4283 22.981C25.2813 22.9719 25.1295 22.9665 24.9714 22.9656C24.5401 22.9627 24.0644 22.9883 23.5578 23.0205C23.4889 23.0249 23.4195 23.0292 23.3497 23.0336C23.0832 23.0514 22.8244 23.0683 22.5656 23.0837C22.2055 23.105 21.8465 23.1213 21.5039 23.1257C21.4359 23.1266 21.369 23.1266 21.3028 23.1266L21.0754 23.1257C20.6412 23.1213 19.9654 22.999 19.5611 22.878C19.4903 22.8567 19.4276 22.8356 19.3765 22.8149C19.3336 22.798 19.2984 22.7816 19.2729 22.7658C19.2642 22.761 19.2569 22.7556 19.2502 22.7509C19.2497 22.7509 19.2911 22.7947 19.2916 22.7952C20.4344 24.0034 22.1208 23.5764 25.3836 23.4487C26.9177 23.3885 27.9192 24.5196 28.7033 25.818C28.7337 25.6117 28.778 25.4093 28.8358 25.2112H28.8353C28.6459 24.8426 28.3827 24.3971 28.083 24.1104C27.8883 23.9148 27.6897 23.7489 27.481 23.6088C27.4265 23.5721 27.3712 23.5368 27.3147 23.5036Z" fill="#BEC6CB"></path><path d="M41.0703 23.6089C41.1252 23.5718 41.1807 23.5366 41.2366 23.5033V23.5039C41.7229 23.2156 42.2641 23.0585 42.9206 22.9969C42.9871 22.9911 43.0546 22.9853 43.1235 22.9815C43.27 22.9718 43.4218 22.9669 43.5804 22.9655C44.0118 22.9626 44.487 22.9882 44.9935 23.0204C45.0629 23.0248 45.1323 23.0291 45.2021 23.0339C45.4686 23.0512 45.7271 23.0686 45.9863 23.084C46.3463 23.1047 46.7053 23.1216 47.048 23.126C47.1154 23.1265 47.1825 23.1269 47.249 23.1265L47.4765 23.126C47.9108 23.1212 48.5864 22.9988 48.9904 22.8777C49.0613 22.8565 49.124 22.8354 49.1755 22.815C49.2178 22.7977 49.2531 22.7812 49.2791 22.7659C49.2873 22.7607 49.2949 22.7554 49.3013 22.7505C49.3018 22.7505 49.2603 22.7948 49.2603 22.7954C48.1171 24.0032 46.4312 23.5766 43.1684 23.4484C41.6338 23.3882 40.6322 24.5194 39.8486 25.8183C39.8183 25.6114 39.7734 25.4091 39.7161 25.2115V25.211C39.9061 24.8427 40.1691 24.397 40.4685 24.1102C40.6631 23.915 40.8622 23.7492 41.0703 23.6089Z" fill="#BEC6CB"></path><path d="M34.2758 6.56808C34.2609 6.66786 34.2025 6.75603 34.1197 6.85489C34.0362 6.95374 33.9288 7.06356 33.815 7.20676C33.2203 7.49832 31.5513 7.308 31.5513 8.97222C31.5513 9.42665 31.7658 9.86194 32.1379 10.141C31.6742 10.0373 31.2414 9.69801 31.09 9.0031C30.9488 8.26134 31.3705 7.57501 32.0385 7.23963C32.6741 6.92154 33.9307 6.95044 34.2155 6.56531C34.2353 6.56716 34.2555 6.56808 34.2758 6.56808Z" fill="#9E892E"></path><path d="M30.9603 7.82946C30.9276 7.88635 30.8953 7.94614 30.864 8.00976C30.8591 8.01992 30.8538 8.02995 30.8491 8.04064H30.8486C30.3058 8.16986 29.9015 8.65662 29.9015 9.23921C29.9015 9.47204 29.9512 9.69945 30.0789 9.87446C30.104 9.90825 30.1291 9.93901 30.1556 9.96844L30.1561 9.96897C30.1556 9.96897 30.1556 9.96844 30.1552 9.96844C29.5783 9.40354 29.6308 8.69516 30.0353 8.10611C30.2685 7.76585 30.6189 7.46558 31.0333 7.25545C31.0357 7.254 31.0386 7.25255 31.0411 7.2511C30.9854 7.41212 30.9478 7.6295 30.9603 7.82946Z" fill="#9E892E"></path><path d="M30.5398 10.5505L30.5378 10.5511C31.0472 10.847 31.4704 11.4601 31.5373 12.061C32.4343 11.712 33.0676 11.503 34.2758 11.503C33.027 10.325 31.2043 10.5688 30.5398 10.5505Z" fill="#9E892E"></path><path d="M34.2757 6.56808C34.2906 6.66786 34.3495 6.75603 34.4318 6.85489C34.5152 6.95374 34.6227 7.06356 34.7365 7.20676C35.3312 7.49832 37.0002 7.308 37.0002 8.97222C37.0002 9.42665 36.7857 9.86194 36.4136 10.141C36.8773 10.0373 37.3101 9.69801 37.4615 9.0031C37.6032 8.26134 37.181 7.57501 36.513 7.23963C35.8774 6.92154 34.6208 6.95044 34.336 6.56531C34.3161 6.56716 34.2959 6.56808 34.2757 6.56808Z" fill="#9E892E"></path><path d="M37.591 7.82946C37.6237 7.88635 37.656 7.94614 37.6873 8.00976C37.6926 8.01992 37.6975 8.02995 37.7022 8.04064H37.7028C38.2455 8.16986 38.6498 8.65662 38.6498 9.23921C38.6498 9.47204 38.6005 9.69945 38.4724 9.87446C38.4478 9.90825 38.4222 9.93901 38.3957 9.96844L38.3952 9.96897L38.3961 9.96844C38.973 9.40354 38.9205 8.69516 38.5161 8.10611C38.2828 7.76585 37.9324 7.46558 37.518 7.25545C37.5156 7.254 37.5127 7.25255 37.5102 7.2511C37.5659 7.41212 37.6035 7.6295 37.591 7.82946Z" fill="#9E892E"></path><path d="M37.5104 7.25132C37.5133 7.25277 37.5157 7.25423 37.518 7.25568C37.9325 7.4658 38.2829 7.76607 38.5166 8.1058C38.9205 8.69526 38.9736 9.40376 38.3961 9.96853L38.3952 9.96906L38.3947 9.96959C37.9528 10.4616 37.3025 10.3609 37.1107 10.3171C37.0746 10.308 37.062 10.3051 37.0582 10.3036C37.1802 10.3325 37.8949 9.81833 37.8949 8.97243C37.8949 8.79504 37.8732 8.61963 37.8385 8.45966C37.8038 8.29969 37.7556 8.15503 37.7026 8.04087C37.6977 8.03031 37.6924 8.01962 37.6871 8.00998C37.6562 7.94636 37.624 7.88657 37.5908 7.82969C36.7657 6.39776 35.4701 6.85708 34.782 6.28162C34.7352 6.35922 34.6711 6.42522 34.5949 6.47445C34.5188 6.52355 34.431 6.55588 34.3361 6.56512C34.6209 6.95026 35.8769 6.92175 36.5131 7.23984C37.1805 7.57482 37.6028 8.26115 37.4615 9.00278C37.3098 9.69783 36.877 10.0376 36.4137 10.1406C36.0662 10.065 35.8239 10.0038 35.5694 9.95889C35.3149 9.91362 35.0484 9.88511 34.6531 9.87363C34.7635 9.64332 34.8469 9.39505 34.9013 9.13437C34.948 8.91316 34.9745 8.68324 34.9745 8.4462C34.9745 8.02687 34.8993 7.61191 34.736 7.20711L34.7355 7.20658C34.5085 6.92083 34.3056 6.76799 34.2753 6.56842C34.2449 6.76799 34.0424 6.9207 33.8154 7.20658L33.8149 7.20711C33.6515 7.61191 33.5764 8.02687 33.5764 8.4462C33.5764 8.68338 33.6029 8.91316 33.6496 9.13437C33.7036 9.39505 33.7874 9.64332 33.8978 9.87363C33.5026 9.88525 33.236 9.91362 32.9815 9.95889C32.7271 10.0038 32.4846 10.0649 32.1372 10.1406C31.6741 10.0376 31.2413 9.69769 31.0894 9.00278C30.9481 8.26102 31.3704 7.57469 32.0378 7.23984C32.674 6.92175 33.9305 6.95013 34.2148 6.56512C34.1199 6.55602 34.0321 6.52368 33.956 6.47445C33.8798 6.42535 33.8157 6.35922 33.769 6.28162C33.0808 6.85708 31.7852 6.39776 30.9602 7.82969C30.9269 7.88657 30.8946 7.94636 30.8638 8.00998C30.8585 8.01962 30.8532 8.03017 30.8484 8.04087C30.7953 8.15503 30.7471 8.29969 30.7124 8.45966C30.6777 8.61963 30.6561 8.79504 30.6561 8.97243C30.6561 9.8182 31.3708 10.3325 31.4927 10.3036C31.4889 10.3051 31.4764 10.308 31.4402 10.3171C31.2484 10.3609 30.5982 10.4616 30.1562 9.96959H30.1557V9.96906C30.1552 9.96906 30.1552 9.96853 30.1548 9.96853C29.5773 9.40363 29.6299 8.69526 30.0343 8.1058C30.268 7.76607 30.6184 7.4658 31.0323 7.25568C31.0353 7.25423 31.0376 7.25277 31.0405 7.25132C29.9836 7.30042 29.1411 8.17048 29.1411 9.23944C29.1411 9.57151 29.224 9.88432 29.3676 10.1599C29.3927 10.2072 29.4192 10.2524 29.4476 10.2977C29.4843 10.2953 29.5208 10.2919 29.5579 10.2919C29.9142 10.2919 30.2495 10.3839 30.5373 10.5512C30.5373 10.5512 30.5382 10.5507 30.5387 10.5507H30.5392C31.2043 10.5691 33.0267 10.3252 34.2749 11.5026H34.2754C35.5237 10.3252 37.3459 10.5691 38.011 10.5507C38.0115 10.5507 38.0125 10.5507 38.0125 10.5507C38.3007 10.384 38.6361 10.2919 38.9923 10.2919C39.0294 10.2919 39.0661 10.2953 39.1027 10.2977C39.1307 10.2524 39.1576 10.207 39.1827 10.1599C39.3263 9.88419 39.4091 9.57138 39.4091 9.23944C39.4098 8.17048 38.5673 7.30042 37.5104 7.25132Z" fill="#DBBF74"></path><path d="M38.0117 10.5505L38.0137 10.5511C37.5042 10.847 37.0811 11.4601 37.0142 12.061C36.1172 11.712 35.4839 11.503 34.2757 11.503C35.5243 10.325 37.347 10.5688 38.0117 10.5505Z" fill="#9E892E"></path><path d="M49.3014 22.7506C49.3019 22.7506 49.2605 22.795 49.2605 22.7955C48.1174 24.0033 46.4314 23.5767 43.1685 23.4486C41.6339 23.3888 40.6325 24.5195 39.8488 25.8184C39.8179 25.6116 39.7736 25.4092 39.7163 25.2117C39.6556 25.003 39.5809 24.7996 39.4927 24.6024C39.4585 24.5262 39.4229 24.4515 39.3853 24.3774C39.3838 24.3754 39.3829 24.3726 39.3814 24.3701C39.3791 24.3658 39.3771 24.3614 39.3747 24.357C39.2706 24.1546 39.152 23.9599 39.0204 23.7743L43.9132 21.2811C44.8747 20.7909 45.627 20.0526 46.1316 19.1841C46.1278 19.1861 44.7093 19.9017 44.7055 19.9037C44.679 19.9182 44.0404 20.2656 44.2173 20.7751C44.2173 20.7751 43.6678 20.1476 43.6191 19.7148C43.6191 19.7148 43.5926 20.0696 43.6331 20.445L38.4338 23.0836C38.2049 22.8566 37.961 22.6629 37.72 22.4976L39.4088 20.3254L39.3268 19.6396L43.1487 14.7111L42.9835 14.5804L39.4536 19.1238L37.1316 22.1374C37.1249 22.134 37.1181 22.1298 37.1114 22.1263H37.1099C36.6183 21.8651 36.2097 21.7157 35.7649 21.6054V19.3643C35.7649 19.2245 35.6858 19.0967 35.5606 19.0345C35.5586 19.0331 35.107 18.7777 35.1051 18.7763V15.3029C35.1051 14.7274 35.0005 14.1569 34.7957 13.6189L34.2762 12.1715V14.3345C34.2762 14.6482 34.3109 14.8329 34.8965 14.8603C34.7736 14.8902 34.5794 14.9211 34.2762 14.9403C34.0872 14.9523 33.8878 14.9543 33.6048 14.9543C33.6048 14.9543 33.613 15.0314 33.7368 15.1076C33.8124 15.1543 33.932 15.201 34.1194 15.229C34.167 15.2357 34.2192 15.242 34.2761 15.2463V21.425C33.7637 21.4244 33.264 21.4871 32.7878 21.6053C32.3126 21.7229 31.7501 21.947 31.4166 22.132L25.5723 14.585L25.4031 14.7108L29.2251 19.6393L29.1431 20.3251L30.8299 22.4948C30.6814 22.597 30.5431 22.7011 30.4202 22.8053C30.2915 22.9147 30.1681 23.0294 30.051 23.1494L26.9607 21.5927C26.6682 21.4457 26.3336 21.4053 26.0146 21.4795L25.8503 21.5185L26.0528 21.1219L22.8941 19.5271C22.4618 19.3088 21.934 19.4813 21.7142 19.9127L21.7002 19.9406L25.5158 21.7003C25.6253 21.7508 25.7549 21.7061 25.8099 21.599L25.8503 21.5185L29.7456 23.4917C29.3345 23.9958 29.0184 24.5814 28.8357 25.2114C28.7784 25.409 28.7341 25.6114 28.7032 25.8181C27.9196 24.5193 26.9181 23.3887 25.3835 23.4483C22.1206 23.5765 20.4347 24.0031 19.2915 22.7952C19.2915 22.7947 19.25 22.7504 19.2506 22.7504C19.2197 22.8396 19.3247 23.027 19.3807 23.1099C19.6781 23.549 20.5113 24.1958 22.3047 24.0989C24.1304 24.0011 25.0683 23.9349 25.6794 23.9904C26.0976 24.028 26.4481 24.1625 26.7527 24.3663C27.0346 24.509 27.2978 24.7591 27.5663 25.175C27.5826 25.2006 27.599 25.226 27.6155 25.2526C27.6545 25.2666 27.6936 25.2829 27.7331 25.3013C28.244 25.5408 28.5312 25.9211 28.6155 26.2295C28.6194 26.243 28.6228 26.2561 28.6257 26.2695C28.6262 26.2724 28.6377 26.3544 28.6628 26.7665C28.0464 26.5514 27.3914 26.6176 27.0753 26.6272C26.0839 26.657 25.2371 26.6687 25.1326 26.5423C25.1331 26.5423 25.1331 26.5429 25.1331 26.5429C25.23 26.6783 25.8145 26.9467 26.8055 26.9255C27.2517 26.9153 27.9747 26.9279 28.6311 27.1342C28.6553 27.1414 28.6793 27.1496 28.7029 27.1573C28.7429 27.4276 28.8061 27.6908 28.8909 27.9458L20.8976 32.0135C20.4639 32.2347 20.2918 32.7652 20.5125 33.1991L21.1867 32.8608L24.9937 30.9214L21.3428 33.1673L21.8966 34.2546L22.2475 34.0757C23.1477 33.617 23.9826 33.0395 24.7291 32.3595L27.3441 29.7232L29.2479 28.753C29.2484 28.7539 29.2488 28.755 29.2493 28.7564C29.3973 29.0225 29.5703 29.2741 29.765 29.5097C30.3997 30.2784 31.2668 30.8722 32.261 31.2172C32.729 31.3791 33.2245 31.4866 33.7377 31.5304C33.9151 31.5458 34.0948 31.5531 34.2761 31.5531V37.9501C34.2761 37.9501 34.6052 37.6407 35.6322 37.3283C35.4308 37.2849 35.2524 37.1952 35.1155 37.0551C34.915 36.8488 34.8138 36.5543 34.8147 36.1799V31.5304C35.3275 31.4866 35.8235 31.379 36.291 31.2172C37.2852 30.8726 38.1528 30.2784 38.7875 29.5097C38.9422 29.3222 39.0834 29.1241 39.2092 28.9169H39.2077C39.3026 28.7602 39.389 28.5983 39.4656 28.4325L39.4671 28.434L41.3385 29.3853C41.1019 28.8957 40.712 28.5183 40.2667 28.2957L39.6463 27.9838C39.748 27.6884 39.8097 27.4267 39.8492 27.1573C39.8728 27.1496 39.897 27.1413 39.921 27.1342C40.5774 26.9279 41.3004 26.9153 41.7466 26.9255C42.7376 26.9467 43.3222 26.6783 43.419 26.5429C43.419 26.5429 43.419 26.5423 43.4196 26.5423C43.315 26.6687 42.4682 26.657 41.4768 26.6272C41.1607 26.6176 40.5057 26.5516 39.8893 26.7665C39.9144 26.3544 39.926 26.2724 39.9264 26.2695C39.9293 26.2561 39.9326 26.243 39.9366 26.2295C40.0209 25.9211 40.3081 25.5408 40.819 25.3013C40.8585 25.2829 40.8976 25.2666 40.9366 25.2526C40.953 25.226 40.9694 25.2006 40.9859 25.175C41.2543 24.7591 41.5179 24.509 41.7994 24.3663C42.104 24.1624 42.4543 24.028 42.8727 23.9904C43.4838 23.9349 44.4217 24.0009 46.2474 24.0989C48.0412 24.1958 48.874 23.549 49.1714 23.1099C49.2315 23.0205 49.3312 22.8373 49.3014 22.7506ZM34.2759 31.4466C31.5355 31.4466 29.3138 29.2252 29.3138 26.4844C29.3138 23.744 31.5356 21.5226 34.2759 21.5226C37.0164 21.5226 39.2381 23.744 39.2381 26.4844C39.2381 29.2252 37.0162 31.4466 34.2759 31.4466Z" fill="#69767B"></path><path d="M47.5753 29.4573L47.354 29.8189L46.6075 29.4781L45.4446 28.947L45.2639 28.8646L44.6172 28.5692L43.5347 28.5798L43.3348 28.5817L41.7878 28.5972L41.5546 28.4787L41.3777 28.3885L39.7698 27.5668C39.7371 27.7007 39.6966 27.8385 39.6464 27.9841L40.2668 28.296C40.7083 28.5167 41.0952 28.8898 41.3324 29.3731C41.3348 29.3775 41.3368 29.3813 41.3386 29.3857C41.8857 29.3101 42.4418 29.4064 42.9314 29.6614L46.494 31.5159C47.2151 31.8914 47.4988 32.7777 47.1297 33.5021L46.7465 34.2544L48.8579 30.1111L47.5753 29.4573Z" fill="#BEC6CB"></path><path d="M37.1095 22.1265H37.1115C37.1177 22.13 37.1245 22.1342 37.1313 22.1376L39.4533 19.124L42.9832 14.5806L42.6867 14.3463L39.7443 18.1268L37.2671 21.326L39.393 17.8516L37.2087 20.5135L36.8743 20.5255L35.9446 21.6534C36.3225 21.7587 36.6849 21.901 37.1095 22.1265Z" fill="#BEC6CB"></path><path d="M39.3919 17.853L39.3933 17.8521L39.1032 17.6227C39.0305 17.5711 38.9678 17.5264 38.8955 17.5085C38.6824 17.4569 38.5056 17.6261 38.4598 18.0224L38.2829 19.2051L39.3919 17.853Z" fill="#69767B"></path><path d="M38.4598 18.0217C38.4636 17.9869 38.4699 17.9561 38.4761 17.9248C37.4881 17.4356 36.4051 17.1121 35.2615 16.9941V17.1897C36.395 17.3093 37.4683 17.6336 38.4443 18.1247L38.4598 18.0217Z" fill="#9EA5A9"></path><path d="M39.7383 18.1347L39.3928 17.8517L37.2668 21.3257L39.7383 18.1347Z" fill="#69767B"></path><path d="M25.5721 14.5851L31.4164 22.1325C31.7085 21.97 32.1764 21.7777 32.6078 21.6534L31.6772 20.5255L31.3427 20.5135L29.159 17.8516L28.8077 18.1268L25.8649 14.3463L25.5721 14.5851Z" fill="#BEC6CB"></path><path d="M30.2691 19.2051L30.0917 18.0219C30.0459 17.6256 29.869 17.457 29.6565 17.5086C29.5838 17.5264 29.5211 17.5713 29.4484 17.6223L29.1587 17.8517L30.2691 19.2051Z" fill="#69767B"></path><path d="M30.0755 17.9239C30.0817 17.9551 30.0875 17.9865 30.0919 18.0217L30.1073 18.1258C31.0837 17.6347 32.1561 17.3093 33.2902 17.1893V16.9941C32.1464 17.1123 31.0625 17.4351 30.0755 17.9239Z" fill="#9EA5A9"></path><path d="M31.2844 21.3256L29.1589 17.8517L28.8071 18.1269L31.2844 21.3256Z" fill="#69767B"></path><path d="M41.6729 20.4887L41.496 20.5789L39.8936 21.3953L39.7138 21.4869L37.7242 22.501C37.9633 22.6658 38.2063 22.8582 38.4337 23.0837L43.633 20.445C43.5925 20.0695 43.6185 19.7149 43.6185 19.7149C43.6247 19.7689 43.6387 19.8262 43.6585 19.885C43.698 20.0021 43.7601 20.125 43.8295 20.2407C43.8637 20.2985 43.9004 20.3549 43.9361 20.4074C44.0797 20.6185 44.2171 20.7757 44.2171 20.7757C44.1949 20.7115 44.1853 20.6504 44.1862 20.5921C44.1886 20.3299 44.3929 20.1255 44.5443 20.0099C44.5948 19.9713 44.6397 19.9424 44.6691 19.9246C44.7164 19.8962 44.5732 19.9704 46.1309 19.1843C45.913 19.1621 45.6957 19.1534 45.5029 19.1569V19.1563C45.4272 19.1578 45.3511 19.1602 45.2753 19.1645C44.6579 19.1997 44.0381 19.3419 43.4424 19.5997C43.3817 19.6257 43.321 19.6531 43.2607 19.682C43.2173 19.7027 43.1734 19.724 43.13 19.7462L41.6729 20.4887Z" fill="#BEC6CB"></path><path d="M40.3088 30.9897C40.638 30.554 40.9213 30.0818 41.1507 29.5805L40.9772 29.4918C40.7594 29.969 40.4895 30.4167 40.1796 30.8331L40.3088 30.9897Z" fill="#9EA5A9"></path><path d="M41.3867 32.7336C41.7853 32.283 42.1448 31.7966 42.4532 31.2766L42.3298 31.103C42.0228 31.6318 41.6647 32.1272 41.2632 32.5837L41.3867 32.7336Z" fill="#9EA5A9"></path><path d="M42.6335 34.2509C43.127 33.7232 43.5732 33.1511 43.9603 32.5371L43.7911 32.4417C43.4156 33.0344 42.9843 33.5877 42.5086 34.0991L42.6335 34.2509Z" fill="#9EA5A9"></path><path d="M43.8778 35.765C44.4465 35.1794 44.9627 34.5428 45.4177 33.8618L45.2986 33.6902C44.8442 34.3794 44.3255 35.0229 43.754 35.6136L43.8778 35.765Z" fill="#9EA5A9"></path><path d="M24.798 35.6138C24.2413 35.0384 23.7352 34.4133 23.2895 33.7448C23.2355 33.7809 23.1796 33.8122 23.1252 33.8469L23.1243 33.8474C23.5816 34.5342 24.1012 35.1752 24.6738 35.7652L24.798 35.6138Z" fill="#9EA5A9"></path><path d="M26.0427 34.0991C25.5964 33.6196 25.1886 33.1029 24.8305 32.551C24.8305 32.551 24.7042 32.6657 24.6849 32.6835C25.0497 33.2426 25.4638 33.7656 25.9178 34.2509L26.0427 34.0991Z" fill="#9EA5A9"></path><path d="M27.2899 32.5815C26.8962 32.1333 26.5414 31.65 26.2382 31.1323L26.0965 31.275C26.4055 31.796 26.7654 32.2827 27.1645 32.7339L27.2899 32.5815Z" fill="#9EA5A9"></path><path d="M28.3713 30.8338C28.1279 30.5076 27.9091 30.161 27.7221 29.7961L27.5486 29.8848C27.7482 30.2733 27.9829 30.6415 28.2441 30.988L28.3713 30.8338Z" fill="#9EA5A9"></path><path d="M26.8176 15.3298C26.7766 15.3573 26.7356 15.3853 26.6951 15.4132L26.8146 15.567C26.8566 15.5376 26.899 15.5092 26.9414 15.4807C28.8986 14.1669 31.227 13.3697 33.7317 13.2675L33.8025 13.0699C31.2241 13.1606 28.8273 13.9766 26.8176 15.3298Z" fill="#9EA5A9"></path><path d="M30.859 19.9254C30.9177 19.8945 30.9766 19.8632 31.0364 19.8338C31.541 19.5855 32.0784 19.3928 32.6399 19.2651C32.6553 19.1842 32.6895 19.1089 32.7387 19.0448C32.0953 19.1784 31.4818 19.3938 30.9097 19.6795C30.8504 19.7094 30.7915 19.7412 30.7333 19.7726L30.859 19.9254Z" fill="#9EA5A9"></path><path d="M37.5153 19.8338C37.5751 19.8633 37.6339 19.8946 37.6927 19.9254L37.819 19.7717C37.7603 19.7404 37.702 19.7095 37.6422 19.6797C37.0702 19.3939 36.4565 19.178 35.8131 19.0444C35.8622 19.1086 35.896 19.1837 35.9114 19.2651C36.4733 19.3929 37.0102 19.5852 37.5153 19.8338Z" fill="#9EA5A9"></path><path d="M40.5403 17.1041L40.6603 16.9499C40.6048 16.9128 40.5494 16.8757 40.493 16.839C38.9546 15.8399 37.1613 15.2019 35.2344 15.0414C35.2379 15.1065 35.2426 15.171 35.2435 15.2366C37.1203 15.3971 38.8674 16.0193 40.3691 16.9904C40.4267 17.0275 40.4835 17.0655 40.5403 17.1041Z" fill="#9EA5A9"></path><path d="M41.7368 15.5667L41.8564 15.413C41.8159 15.385 41.775 15.357 41.7341 15.3295C39.7243 13.9761 37.327 13.1607 34.7491 13.0702L34.8194 13.2672C37.3241 13.3699 39.6529 14.1666 41.6101 15.4804C41.6525 15.5089 41.6949 15.5378 41.7368 15.5667Z" fill="#9EA5A9"></path><path d="M33.1166 19.4029L33.4467 21.3269V18.7764L33.3093 18.8545C33.1522 18.9432 33.0679 19.121 33.0986 19.2984L33.1166 19.4029Z" fill="#69767B"></path><path d="M26.433 35.9284C26.433 35.9284 26.6161 36.9236 26.7868 37.7739C26.7757 37.7464 26.7637 37.7204 26.752 37.6939C26.7404 37.6673 26.6643 37.4654 26.4816 37.1829C26.3336 36.9608 26.1924 36.7729 25.9857 36.5608H25.9848C25.1887 36.4519 23.9896 36.5631 23.4965 37.1975C23.4652 37.2351 23.4501 37.2804 23.4501 37.3247C23.4501 37.3912 23.4829 37.4563 23.5446 37.4954L26.7646 39.0907C26.7978 39.1114 26.8344 39.1216 26.8706 39.1216C26.9236 39.1216 26.9751 39.1003 27.0132 39.0623C27.0567 39.0189 27.0788 38.9534 27.0985 38.8454C27.8508 35.8945 29.4471 33.434 29.8351 32.8643C29.8973 32.7737 29.92 32.7511 29.932 32.7395C29.9754 32.6957 30.0352 32.6691 30.1016 32.6691C30.1676 32.6691 30.2269 32.6957 30.2703 32.739C30.3161 32.7848 30.3272 32.8228 30.3797 32.9833C30.3835 32.9949 30.8636 34.4576 30.8785 34.5179C30.9006 34.5984 30.9348 34.6596 30.9773 34.7025C31.0275 34.7527 31.0897 34.7772 31.1591 34.7772C31.2405 34.7772 31.3316 34.7434 31.4256 34.678L32.2935 34.0716C32.2935 34.0716 32.32 34.0509 32.3268 34.0442C32.3547 34.0162 32.372 33.9771 32.372 33.9342C32.372 33.8937 32.3557 33.8532 32.3262 33.8239C32.2983 33.7959 32.2588 33.7819 32.2477 33.7819L31.3416 33.6127C31.3407 33.6142 31.3402 33.6151 31.3392 33.6171V33.6176C31.2251 33.8253 31.0886 34.0976 31.0048 34.339C31.0164 34.1535 31.0689 33.2984 31.0897 32.978L30.5764 31.6633C30.5195 31.5182 30.3893 31.4146 30.2352 31.3924C30.0809 31.3697 29.9267 31.4319 29.8313 31.5549L26.433 35.9284Z" fill="#69767B"></path><path d="M23.4799 37.2209C23.4804 37.2204 23.4808 37.2195 23.4813 37.2189C23.4833 37.216 23.4848 37.2127 23.4871 37.2098C23.49 37.206 23.4929 37.2022 23.4962 37.1978C23.516 37.1722 23.5368 37.1482 23.5584 37.1246C22.4446 36.0103 21.5203 34.7427 20.7934 33.3268L20.6184 33.4117C21.3563 34.8527 22.3168 36.1612 23.4528 37.2943C23.4568 37.2686 23.4659 37.244 23.4799 37.2209Z" fill="#9EA5A9"></path><path d="M23.5305 37.1562C24.0428 36.5586 25.2062 36.4545 25.985 36.561H25.9855C26.1928 36.7731 26.3335 36.9605 26.4819 37.1826C26.6641 37.4655 26.7408 37.667 26.7524 37.6936C26.7635 37.7205 26.776 37.7461 26.7866 37.7735C26.6159 36.9238 26.4328 35.9281 26.4328 35.9281L29.8316 31.5549C29.9271 31.432 30.0813 31.3698 30.2355 31.392C30.3898 31.4147 30.5198 31.5178 30.5763 31.6628L31.0901 32.9781C31.0689 33.2981 31.0163 34.153 31.0053 34.3391C31.0891 34.0972 31.2255 33.8253 31.3397 33.6172C31.3406 33.6152 31.3406 33.6137 31.3417 33.6128L32.2483 33.782C32.2594 33.782 32.2985 33.7955 32.3264 33.8234C32.3414 33.8384 32.3524 33.8558 32.3602 33.874C32.2928 33.6461 31.4605 30.8695 31.4605 30.8695C30.8012 30.5248 30.2223 30.0637 29.765 29.5104C29.7144 29.4491 29.6652 29.3866 29.6179 29.3234L27.4506 31.95L27.4751 32.3563L23.5305 37.1562Z" fill="#BEC6CB"></path><path d="M42.1185 35.9284C42.1185 35.9284 41.9353 36.9236 41.7652 37.7739C41.7757 37.7464 41.7883 37.7204 41.7994 37.6939C41.811 37.6673 41.8871 37.4654 42.0698 37.1829C42.2183 36.9608 42.359 36.7729 42.5657 36.5608H42.5666C43.3628 36.4519 44.5619 36.5631 45.055 37.1975C45.0862 37.2351 45.1013 37.2804 45.1013 37.3247C45.1013 37.3912 45.0685 37.4563 45.0068 37.4954L41.7868 39.0907C41.7536 39.1114 41.717 39.1216 41.6808 39.1216C41.6278 39.1216 41.5763 39.1003 41.5382 39.0623C41.4947 39.0189 41.4726 38.9534 41.4529 38.8454C40.7006 35.8945 39.1043 33.434 38.7163 32.8643C38.6547 32.7737 38.6314 32.7511 38.6194 32.7395C38.576 32.6957 38.5163 32.6691 38.4498 32.6691C38.3838 32.6691 38.3246 32.6957 38.2811 32.739C38.2353 32.7848 38.2243 32.8228 38.1717 32.9833C38.1679 32.9949 37.6879 34.4576 37.6729 34.5179C37.6508 34.5984 37.6166 34.6596 37.5741 34.7025C37.5239 34.7527 37.4618 34.7772 37.3923 34.7772C37.3109 34.7772 37.2198 34.7434 37.1259 34.678L36.2579 34.0716C36.2579 34.0716 36.2314 34.0509 36.2252 34.0442C36.1968 34.0162 36.1794 33.9771 36.1794 33.9342C36.1794 33.8937 36.1957 33.8532 36.2252 33.8239C36.2532 33.7959 36.2926 33.7819 36.3037 33.7819L37.2098 33.6127C37.2113 33.6142 37.2113 33.6151 37.2122 33.6171V33.6176C37.3263 33.8253 37.4628 34.0976 37.5466 34.339C37.535 34.1535 37.4825 33.2984 37.4618 32.978L37.9756 31.6633C38.0319 31.5182 38.1621 31.4146 38.3164 31.3924C38.4707 31.3697 38.6248 31.4319 38.7203 31.5549L42.1185 35.9284Z" fill="#69767B"></path><path d="M49.6093 26.4441C49.6093 25.3611 49.4961 24.3042 49.2816 23.2843C49.2445 23.3528 49.1727 23.4477 49.1274 23.5017C49.3159 24.4536 49.4146 25.4377 49.4146 26.4441C49.4146 28.9975 48.779 31.4053 47.6579 33.5178H47.6584C46.9475 34.8572 46.0569 36.0606 44.9932 37.1247C45.0149 37.1478 45.0356 37.1725 45.0549 37.197C45.0549 37.1975 45.0549 37.1975 45.0554 37.1975C45.0583 37.2014 45.0616 37.2057 45.0645 37.2101C45.0665 37.213 45.0683 37.2154 45.0703 37.2183C45.0708 37.2192 45.0712 37.2202 45.0718 37.2206C45.0857 37.2437 45.0949 37.2688 45.0987 37.2944C46.1831 36.2124 47.1079 34.9704 47.8313 33.6061C48.9659 31.4671 49.6093 29.0293 49.6093 26.4441Z" fill="#9EA5A9"></path><path d="M45.0211 37.1562C44.5088 36.5586 43.3453 36.4545 42.5666 36.561H42.5657C42.3588 36.7731 42.2181 36.9605 42.0697 37.1826C41.887 37.4655 41.8108 37.667 41.7992 37.6936C41.7881 37.7205 41.7756 37.7461 41.765 37.7735C41.9352 36.9238 42.1184 35.9281 42.1184 35.9281L38.7201 31.5549C38.6247 31.432 38.4704 31.3698 38.3162 31.392C38.1619 31.4147 38.0319 31.5178 37.9754 31.6628L37.4616 32.9781C37.4829 33.2981 37.5354 34.153 37.5465 34.3391C37.4627 34.0972 37.3262 33.8253 37.212 33.6172C37.2111 33.6152 37.2111 33.6137 37.21 33.6128L36.3034 33.782C36.2923 33.782 36.2533 33.7955 36.2249 33.8234C36.2104 33.8384 36.1989 33.8558 36.1911 33.874C36.2591 33.6461 37.0914 30.8695 37.0914 30.8695C37.7503 30.5248 38.3295 30.0637 38.7869 29.5104C38.8374 29.4491 38.8867 29.3866 38.9339 29.3234L41.1007 31.95L41.0762 32.3563L45.0211 37.1562Z" fill="#BEC6CB"></path></svg>