<svg xmlns="http://www.w3.org/2000/svg" width="107" height="56" viewBox="0 0 107 56" fill="none"><g clip-path="url(#clip0_106_5901)"><path d="M57.8137 1.19296C58.0442 0.918842 58.3141 0.582839 58.7162 0.616897C59.2254 0.592392 59.6723 1.05673 59.6656 1.55887C59.6627 2.20305 59.5414 2.84016 59.519 3.48309C59.4912 4.28593 59.4085 5.08544 59.3201 5.88412C58.6003 6.30195 57.871 6.70274 57.1628 7.13967C56.8937 7.30871 56.6046 7.44161 56.3081 7.55334C56.0751 6.67408 55.8242 5.80023 55.57 4.92595C55.4998 4.6157 55.3171 4.23277 55.5742 3.95948C56.3239 3.03994 57.0715 2.1179 57.8137 1.19296Z" fill="#A4D2A4"></path><path d="M40.0338 19.6743C41.011 18.8279 41.9838 17.9773 42.9602 17.1288C44.0691 17.4332 45.1747 17.7509 46.2783 18.0762C45.7404 19.1182 45.1822 20.1507 44.6091 21.1737C43.214 21.2904 41.8243 21.4956 40.4242 21.533C39.8988 21.584 39.4972 21.0778 39.4926 20.5868C39.4864 20.2051 39.7638 19.9082 40.0338 19.6743Z" fill="#A4D2A4"></path><path d="M47.045 1.55762C47.0056 1.05797 47.5118 0.672962 47.9787 0.67753C48.3155 0.68916 48.6071 0.900563 48.8056 1.16222C49.5968 2.1424 50.4079 3.1068 51.2054 4.08283C51.3915 4.25187 51.2511 4.50065 51.2141 4.70375C50.9292 5.66939 50.7091 6.6529 50.4092 7.61273C50.0358 7.49062 49.7168 7.25263 49.3759 7.06532C48.7122 6.69651 48.053 6.31772 47.3939 5.94143C47.2992 4.47864 47.0566 3.02623 47.045 1.55762Z" fill="#2CB3A5"></path><path d="M60.5993 17.9792C61.7007 17.6403 62.8097 17.3243 63.9144 16.9957C64.8099 17.7986 65.739 18.5632 66.6511 19.3469C66.97 19.6244 67.3903 19.9176 67.3945 20.3877C67.4634 20.9904 66.8542 21.5241 66.2644 21.4074C64.9382 21.2786 63.6104 21.181 62.2834 21.0714C61.7211 20.0409 61.1363 19.0234 60.5993 17.9792Z" fill="#2CB3A5"></path><path d="M47.4948 24.0227C48.4891 23.4508 49.4959 22.9001 50.4835 22.3165C50.6164 22.8714 50.692 23.4371 50.7622 24.0028C50.8428 24.6777 51.0268 25.3414 51.0409 26.0238C51.0683 26.2227 50.9047 26.3598 50.8004 26.5056C50.1509 27.2743 49.5158 28.056 48.877 28.8331C48.6432 29.1309 48.269 29.3688 47.8778 29.2733C47.3279 29.1691 47.0047 28.5639 47.1173 28.0356C47.298 26.7033 47.332 25.3572 47.4948 24.0227Z" fill="#2CB3A5"></path><path d="M53.2438 2.22867C53.3555 2.2241 53.4681 2.22202 53.5806 2.21912C54.0952 4.00628 54.5006 5.8246 54.9736 7.62215C55.0779 8.20611 55.4072 8.78467 55.2395 9.38648C55.0937 9.91063 54.9525 10.4356 54.8204 10.9631C54.7377 10.9377 54.5708 10.8854 54.4865 10.8601C54.3602 10.2583 54.3303 9.62322 54.0998 9.05131C53.6903 8.84281 53.1865 8.98236 52.7421 8.97779C52.5514 9.58293 52.4518 10.2126 52.3579 10.8385C52.2412 10.8813 52.1253 10.9249 52.0103 10.9693C51.884 10.4157 51.7212 9.872 51.5767 9.3246C51.4616 8.96824 51.6053 8.60898 51.6913 8.2655C52.2242 6.25696 52.6889 4.23056 53.2438 2.22867Z" fill="#5A5A5A"></path><path d="M44.6663 5.83423C44.8503 5.8849 45.031 5.95011 45.195 6.05186C46.959 7.12259 48.7312 8.18292 50.4984 9.24825C50.7144 9.35665 50.8099 9.58633 50.9258 9.78403C51.1663 10.2272 51.4159 10.6654 51.6543 11.111C51.5795 11.1525 51.4329 11.2352 51.3598 11.2767C50.8651 10.9536 50.4133 10.5603 49.8879 10.2878C49.4256 10.3817 49.1075 10.8643 48.8662 11.2447C49.0863 11.8329 49.5265 12.3038 49.8468 12.8388C49.7861 12.9385 49.7255 13.0386 49.6669 13.1395C49.1843 12.8504 48.695 12.573 48.2103 12.2881C48.0488 12.2029 47.9283 12.0646 47.8444 11.9064C46.7471 9.9784 45.6457 8.05293 44.5475 6.12662C44.577 6.05311 44.6368 5.90733 44.6663 5.83423Z" fill="#5A5A5A"></path><path d="M61.7602 5.97756C61.9325 5.86915 62.1805 5.77571 62.2856 6.02324C62.2336 6.22094 62.1323 6.40078 62.0326 6.57729C60.9756 8.39644 59.9572 10.2393 58.8906 12.0518C58.3877 12.5165 57.7232 12.774 57.1471 13.1395C57.096 13.0353 57.0457 12.9314 56.9972 12.8272C57.3161 12.3006 57.7423 11.8267 57.9686 11.2502C57.756 10.8515 57.4117 10.4752 57.0034 10.2742C56.4439 10.5126 55.9975 10.9495 55.4849 11.2705C55.3807 11.2207 55.2769 11.1704 55.1747 11.1214C55.4604 10.5911 55.7412 10.0574 56.0485 9.53943C56.1474 9.35461 56.3368 9.25036 56.5091 9.14196C58.2635 8.09367 60.0104 7.0325 61.7602 5.97756Z" fill="#5A5A5A"></path><path d="M47.0969 13.1312C47.3461 13.0693 47.6065 12.9377 47.8636 13.0407C48.4218 13.2068 48.9875 13.348 49.5415 13.5287C49.5129 13.6055 49.4543 13.7596 49.4257 13.836C48.8226 13.9851 48.1996 14.0528 47.6094 14.2518C47.6223 14.7145 47.4499 15.2619 47.7033 15.6701C48.2507 15.884 48.8633 15.9031 49.4311 16.068C49.4564 16.1478 49.5087 16.306 49.5341 16.3858C48.9111 16.5643 48.2889 16.7579 47.6584 16.9091C45.4298 16.3284 43.1961 15.7466 40.9824 15.1078C41.0343 14.9674 41.011 14.7344 41.2079 14.7153C43.1674 14.1754 45.1345 13.6616 47.0969 13.1312Z" fill="#5A5A5A"></path><path d="M57.2873 13.5373C57.8284 13.3417 58.3896 13.2142 58.9394 13.0426C59.2252 12.9301 59.5155 13.0767 59.793 13.1448C61.7953 13.6827 63.7951 14.2243 65.8003 14.7492C65.7995 14.8693 65.8028 14.9918 65.7899 15.1131C65.6113 15.2078 65.4103 15.2489 65.218 15.3033C63.2265 15.8308 61.2379 16.3707 59.2476 16.899C58.5852 16.7993 57.941 16.5588 57.2943 16.3728C57.3209 16.2976 57.3741 16.1476 57.3998 16.0721C57.9252 15.94 58.4589 15.8528 58.9885 15.7394C59.1617 15.7273 59.2285 15.5508 59.2489 15.4021C59.302 15.0034 59.2563 14.5985 59.1849 14.2047C58.5926 14.0793 57.9975 13.973 57.4094 13.8338C57.3786 13.7595 57.318 13.6116 57.2873 13.5373Z" fill="#5A5A5A"></path><path d="M48.1943 17.6289C48.6869 17.3365 49.1832 17.0491 49.6787 16.7621C49.7298 16.8676 49.7817 16.9739 49.8349 17.0802C49.5362 17.5512 49.1898 17.9935 48.929 18.4878C48.7816 18.695 48.9971 18.8761 49.1172 19.0302C49.3024 19.2312 49.4864 19.4447 49.7223 19.5892C49.8722 19.6669 50.0159 19.5477 50.1422 19.4775C50.555 19.2034 50.9513 18.9035 51.3599 18.6219C51.4351 18.6635 51.5863 18.7461 51.6619 18.7889C51.3396 19.3758 51.0165 19.9626 50.6867 20.5453C48.7762 21.6796 46.8814 22.8409 44.9738 23.9805C44.8006 24.123 44.6229 23.9722 44.5145 23.836C45.5428 22.0318 46.5762 20.2305 47.602 18.4251C47.7723 18.1435 47.8874 17.7946 48.1943 17.6289Z" fill="#5A5A5A"></path><path d="M57.1608 16.7598C57.7273 17.0978 58.3005 17.4255 58.8653 17.7665C59.9178 19.6517 61.0014 21.5199 62.0709 23.3968C62.1643 23.5699 62.2441 23.7506 62.323 23.9334C62.242 23.9591 62.0804 24.011 62.0007 24.0376C61.5882 23.8569 61.2257 23.5837 60.8353 23.3635C59.5103 22.5632 58.1859 21.7633 56.8568 20.9691C56.5611 20.7798 56.1943 20.646 56.022 20.3183C55.7308 19.8187 55.4638 19.3041 55.1755 18.8024C55.2416 18.7567 55.3736 18.6653 55.4405 18.6196C55.9443 18.9265 56.392 19.3232 56.9174 19.5977C56.9685 19.5965 57.0703 19.5923 57.1214 19.5911C57.4138 19.3701 57.6679 19.1002 57.8964 18.8152C58.0305 18.6533 57.9009 18.4527 57.8137 18.3056C57.5458 17.8878 57.2671 17.4766 56.9885 17.0659C57.0449 16.9641 57.1023 16.8619 57.1608 16.7598Z" fill="#5A5A5A"></path><path d="M52.0135 18.9332C52.1273 18.9723 52.2411 19.0117 52.3557 19.0512C52.4429 19.67 52.5588 20.2847 52.7162 20.8894C53.1693 20.948 53.6648 21.036 54.1005 20.8641C54.3173 20.2847 54.3705 19.6584 54.478 19.0512C54.564 19.0213 54.7364 18.9627 54.8223 18.9332C54.9469 19.4221 55.067 19.9126 55.2107 20.3973C55.3469 20.8055 55.2829 21.2371 55.2489 21.6561C54.8153 25.3106 54.4078 28.968 53.9867 32.6246C53.7923 33.6941 53.8721 34.818 53.5136 35.8526C53.4148 35.7633 53.2287 35.7325 53.2129 35.5784C53.0746 34.9584 53.0439 34.3225 52.9758 33.692C52.5962 30.533 52.2602 27.3698 51.8772 24.2113C51.8029 23.1085 51.5786 22.0208 51.5296 20.916C51.6201 20.2419 51.8718 19.5986 52.0135 18.9332Z" fill="#5A5A5A"></path><path d="M38.9676 28.5973C39.1591 28.5961 39.3385 28.6725 39.5171 28.7344C43.599 30.193 47.6871 31.6305 51.7681 33.0924C51.8786 33.9866 52.0314 34.8754 52.1689 35.7667C48.2378 33.9061 44.4039 31.8518 40.538 29.8603C39.9819 29.5488 39.3821 29.3138 38.8505 28.9599C38.8472 28.8291 38.8675 28.6908 38.9676 28.5973Z" fill="#5A5A5A"></path><path d="M67.5179 28.6629C67.655 28.6238 67.8473 28.5237 67.9399 28.6949C68.1613 28.9416 67.7816 29.0807 67.6134 29.182C63.3094 31.385 59.0514 33.6805 54.6854 35.7601C54.7768 34.8692 54.9674 33.992 55.063 33.1011C59.2075 31.603 63.3692 30.1494 67.5179 28.6629Z" fill="#5A5A5A"></path><path d="M8.16539 49.6931C8.27172 49.6939 8.48312 49.6952 8.58945 49.696C8.58737 50.1791 8.58945 50.6617 8.59069 51.1455C9.00935 50.9711 9.48698 50.8361 9.93346 50.9848C10.328 51.1306 10.4202 51.5962 10.4564 51.965C10.4937 52.6287 10.4638 53.2932 10.4734 53.9577C10.328 53.9598 10.1831 53.9631 10.0377 53.9673C9.9941 53.1603 10.1249 52.3296 9.91851 51.5409C9.57503 51.1592 9.01059 51.3877 8.5882 51.4886C8.58945 52.3126 8.58737 53.1366 8.58945 53.9606C8.44699 53.9606 8.30536 53.9619 8.1629 53.9631C8.16747 52.5394 8.16207 51.1165 8.16539 49.6931Z" fill="#5A5A5A"></path><path d="M20.7766 49.6981C20.9232 49.696 21.071 49.6952 21.2177 49.6931C21.2231 51.1156 21.2168 52.5381 21.2218 53.9619C21.0731 53.9606 20.9253 53.9606 20.7774 53.9619C20.7753 52.5402 20.7774 51.1198 20.7766 49.6981Z" fill="#5A5A5A"></path><path d="M56.88 49.6981C56.9843 49.6973 57.1915 49.6952 57.2945 49.694C57.302 51.1165 57.297 52.5394 57.2978 53.9632C57.1566 53.9607 57.0171 53.9586 56.8779 53.9586C56.8821 52.5394 56.8788 51.119 56.88 49.6981Z" fill="#5A5A5A"></path><path d="M70.863 49.792C71.0084 49.7907 71.1563 49.7899 71.3054 49.7907C71.3029 49.9639 71.3041 50.1396 71.3054 50.3149C71.1583 50.3149 71.0117 50.3161 70.8672 50.3182C70.8639 50.1417 70.863 49.9664 70.863 49.792Z" fill="#5A5A5A"></path><path d="M100.001 49.79C100.145 49.7887 100.289 49.79 100.436 49.7908C100.435 49.964 100.435 50.1384 100.437 50.3141C100.29 50.3149 100.146 50.3162 100.002 50.3191C100 50.1417 100 49.9652 100.001 49.79Z" fill="#5A5A5A"></path><path d="M0.0386353 49.829C1.00096 49.8269 1.96203 49.8282 2.92352 49.829V50.2514C2.51816 50.2726 2.11197 50.2734 1.70702 50.2713C1.71034 51.5016 1.70702 52.733 1.7091 53.9632C1.55625 53.962 1.40383 53.9607 1.25099 53.9607C1.24891 52.7318 1.25182 51.5028 1.24974 50.2726C0.848946 50.2713 0.448151 50.2705 0.0473572 50.2734C0.0440346 50.1247 0.041958 49.9769 0.0386353 49.829Z" fill="#5A5A5A"></path><path d="M33.0897 49.8303C33.2363 49.8283 33.3842 49.827 33.5333 49.827C33.8531 51.0647 34.1517 52.3086 34.4582 53.5496C34.5434 53.5517 34.7124 53.555 34.7971 53.5571C35.092 52.3107 35.3969 51.068 35.7225 49.8303C35.8724 49.8291 36.0224 49.8291 36.1731 49.8303C35.8317 51.2084 35.4691 52.5819 35.1269 53.9608C34.7897 53.9621 34.4541 53.9621 34.1181 53.9608C33.7937 52.5798 33.4054 51.2134 33.0897 49.8303Z" fill="#5A5A5A"></path><path d="M58.9818 49.829C59.9504 49.8269 60.9189 49.8269 61.8879 49.829C61.8833 49.976 61.8804 50.1234 61.8783 50.2713C61.4721 50.2713 61.0668 50.2725 60.6606 50.2725C60.6651 51.5007 60.6618 52.7296 60.6631 53.9586C60.5173 53.9598 60.3736 53.9632 60.2303 53.9673C60.2228 52.735 60.2249 51.5036 60.2291 50.2713C59.8166 50.2725 59.403 50.2713 58.9905 50.2734C58.986 50.1247 58.9839 49.9768 58.9818 49.829Z" fill="#5A5A5A"></path><path d="M79.7439 50.028C80.3374 49.6239 81.1083 49.7929 81.7674 49.9121C81.7587 50.0429 81.7516 50.1746 81.7462 50.3075C81.1772 50.2386 80.5276 50.0608 80.0089 50.3939C79.5973 50.8391 79.6505 51.5037 79.6368 52.0685C79.6546 52.5449 79.6492 53.1463 80.082 53.4549C80.5958 53.7344 81.2017 53.5824 81.7471 53.5039C81.7525 53.6048 81.7633 53.8067 81.7687 53.9076C81.1349 54.0077 80.418 54.1576 79.8291 53.8291C79.1924 53.442 79.2264 52.6138 79.1903 51.963C79.2252 51.3039 79.1666 50.484 79.7439 50.028Z" fill="#5A5A5A"></path><path d="M44.9505 50.0769C45.0896 50.0749 45.23 50.0736 45.3716 50.0736V50.9794C45.6756 50.9794 45.9805 50.9794 46.2858 50.9807C46.2829 51.1136 46.2816 51.2465 46.2804 51.3815C45.9776 51.3802 45.6744 51.3802 45.3716 51.3782C45.3791 51.9609 45.3575 52.5448 45.3791 53.1271C45.3791 53.3124 45.4277 53.562 45.6403 53.6143C45.8563 53.6538 46.0764 53.6122 46.2945 53.6035C46.3061 53.694 46.3294 53.8747 46.341 53.9653C46.0071 54.0035 45.6511 54.0853 45.3259 53.9682C45.0302 53.8569 45.0003 53.5026 44.9663 53.2368C44.9272 52.6179 44.96 51.9983 44.9484 51.3782C44.808 51.3794 44.6685 51.3802 44.5293 51.3836C44.5293 51.2826 44.5306 51.0804 44.5306 50.9807C44.6697 50.9794 44.8101 50.9786 44.9513 50.9794C44.9513 50.6775 44.9505 50.3776 44.9505 50.0769Z" fill="#5A5A5A"></path><path d="M98.1836 50.0717C98.29 50.075 98.5026 50.08 98.6089 50.0833C98.606 50.3819 98.606 50.6818 98.6069 50.9816C98.9121 50.9808 99.2174 50.9796 99.5235 50.9775C99.5223 51.1116 99.5223 51.2454 99.5235 51.3804H98.6081C98.6305 52.0524 98.5529 52.7339 98.6496 53.4005C98.81 53.7652 99.261 53.5932 99.5659 53.6028C99.5596 53.6846 99.5468 53.8483 99.5405 53.9301C99.2855 54.0779 98.9611 54.0227 98.6791 54.0077C98.3805 53.9641 98.2285 53.6643 98.2123 53.3901C98.1521 52.7235 98.1965 52.0524 98.1849 51.3837C98.0412 51.3804 97.8987 51.3783 97.7583 51.3775C97.7575 51.2454 97.7583 51.1137 97.7604 50.9829C97.9 50.9796 98.0412 50.9787 98.1836 50.9775C98.1836 50.6755 98.1828 50.3724 98.1836 50.0717Z" fill="#5A5A5A"></path><path d="M3.44086 51.44C3.16135 51.631 3.17422 52.0077 3.12438 52.3076C3.63233 52.3117 4.1407 52.3097 4.64989 52.3097C4.62123 52.0542 4.61376 51.7884 4.49705 51.5546C4.2491 51.2464 3.75776 51.2369 3.44086 51.44ZM3.35281 51.04C3.80594 50.8315 4.41606 50.8751 4.77117 51.2518C5.09014 51.641 5.08184 52.1768 5.06979 52.6531C4.42354 52.6552 3.77603 52.6486 3.12936 52.6594C3.17214 52.9601 3.13809 53.3696 3.46744 53.5228C3.93428 53.7342 4.46922 53.6047 4.96139 53.5822C4.96264 53.6715 4.96471 53.8501 4.96679 53.9407C4.41731 53.9938 3.83252 54.118 3.2984 53.9216C2.76803 53.6749 2.69036 53.0112 2.68953 52.4945C2.70947 51.9629 2.80831 51.2879 3.35281 51.04Z" fill="#5A5A5A"></path><path d="M11.7355 51.1368C12.145 50.9433 12.6467 50.8199 13.0753 51.0251C13.4113 51.1962 13.4558 51.612 13.4981 51.9471C13.543 52.6179 13.5102 53.2912 13.5185 53.964C13.3719 53.9586 13.2253 53.9557 13.0782 53.9511C13.0583 53.2218 13.1189 52.4883 13.0433 51.7619C13.0317 51.5152 12.807 51.3379 12.5711 51.3345C12.2588 51.3262 11.9332 51.3835 11.664 51.5484C11.6345 52.3488 11.6599 53.1516 11.657 53.9536C11.5037 53.9565 11.3525 53.9598 11.2005 53.964C11.2018 52.9581 11.1943 51.9525 11.2059 50.9466C11.3953 50.9732 11.5897 50.9985 11.7355 51.1368Z" fill="#5A5A5A"></path><path d="M15.8918 51.0244C16.3396 50.8317 16.8446 50.9501 17.3114 50.9999C17.306 51.0946 17.2973 51.2848 17.2923 51.3795C16.8371 51.3272 16.3553 51.272 15.9342 51.4962C15.7195 52.0972 15.6443 52.8074 15.9396 53.3931C16.298 53.7556 16.8521 53.592 17.3019 53.5741C17.3048 53.6983 17.3094 53.8229 17.3135 53.9484C16.8072 54.0036 16.2374 54.1332 15.7718 53.857C15.3145 53.5251 15.3124 52.8967 15.3104 52.3875C15.3324 51.8962 15.3984 51.2753 15.8918 51.0244Z" fill="#5A5A5A"></path><path d="M18.3502 52.6539C18.0503 52.8782 18.0852 53.48 18.4457 53.6332C18.8103 53.7076 19.17 53.5631 19.5164 53.4675C19.5164 53.144 19.5164 52.82 19.5185 52.4965C19.1306 52.5447 18.719 52.5031 18.3502 52.6539ZM17.9024 51.0453C18.351 50.9656 18.8095 50.89 19.2664 50.939C19.577 50.9785 19.8748 51.2069 19.9035 51.5354C19.9915 52.1659 19.8906 52.8059 19.9533 53.4385C20.1004 53.6299 20.3226 53.7745 20.2906 54.0544C20.0323 54.0087 19.7822 53.931 19.5517 53.8077C19.1285 53.9576 18.6691 54.1009 18.2202 53.9821C17.6038 53.7566 17.5419 52.7889 18.0237 52.3976C18.4926 52.1754 19.0317 52.2157 19.5334 52.1385C19.494 51.8693 19.5559 51.4727 19.2377 51.3581C18.7954 51.2738 18.3435 51.3697 17.9004 51.3971C17.9004 51.2792 17.9012 51.1624 17.9024 51.0453Z" fill="#5A5A5A"></path><path d="M23.5824 52.6723C23.5268 52.9846 23.4046 53.4461 23.7585 53.6259C24.1265 53.7098 24.4932 53.5694 24.8463 53.4772C24.8517 53.1495 24.8529 52.8231 24.8537 52.4966C24.4264 52.5211 23.9957 52.5543 23.5824 52.6723ZM23.2568 51.0633C23.6862 50.9296 24.1456 50.9051 24.5925 50.9412C24.9177 50.9657 25.2196 51.2228 25.2545 51.5546C25.3143 52.215 25.2579 52.8783 25.2898 53.5408C25.3982 53.596 25.5079 53.6512 25.6184 53.709C25.6076 53.8236 25.5959 53.9407 25.5864 54.0574C25.3451 53.998 25.1112 53.9195 24.8899 53.8086C24.4882 53.9544 24.0584 54.079 23.6281 54.0034C22.9262 53.8302 22.8315 52.6785 23.4557 52.3533C23.9076 52.1918 24.3965 52.2042 24.8679 52.1386C24.8284 51.8695 24.8849 51.4579 24.5605 51.3549C24.1115 51.2805 23.6568 51.3794 23.207 51.3952C23.2198 51.3121 23.2452 51.1464 23.2568 51.0633Z" fill="#5A5A5A"></path><path d="M26.5891 51.156C26.9795 50.9425 27.4579 50.837 27.8874 50.9945C28.2275 51.1485 28.3542 51.5473 28.3671 51.8941C28.3958 52.5831 28.3712 53.2721 28.3816 53.962C28.2425 53.9599 28.1034 53.9599 27.9638 53.9599C27.9127 53.1455 28.1063 52.2812 27.8043 51.5049C27.4559 51.1573 26.9114 51.4061 26.5114 51.5228C26.5135 52.3351 26.5085 53.1463 26.5126 53.9587C26.3735 53.9599 26.2352 53.962 26.0969 53.9653C26.0977 52.9581 26.0927 51.9535 26.101 50.9475C26.2809 50.9733 26.469 50.9999 26.5891 51.156Z" fill="#5A5A5A"></path><path d="M36.9185 51.6412C36.7748 52.1163 36.813 52.6309 36.8599 53.1189C36.9525 53.8345 38.2409 53.8366 38.3314 53.1177C38.4357 52.5777 38.3962 52.0154 38.2293 51.4912C37.8264 51.2794 37.1918 51.1901 36.9185 51.6412ZM37.1702 50.9658C37.6383 50.8753 38.2176 50.8915 38.5482 51.2881C38.8759 51.7558 38.8714 52.3725 38.8195 52.92C38.7887 53.3635 38.562 53.8632 38.0901 53.9728C37.5946 54.0704 36.9575 54.0833 36.614 53.6443C36.3175 53.1795 36.325 52.5968 36.3698 52.0665C36.4134 51.5921 36.6473 51.0539 37.1702 50.9658Z" fill="#5A5A5A"></path><path d="M42.3026 52.6691C42.2337 52.9723 42.1041 53.3785 42.4164 53.592C42.7877 53.7535 43.1947 53.5571 43.564 53.4728C43.5681 53.1463 43.5681 52.8211 43.569 52.4947C43.1428 52.5246 42.7142 52.5491 42.3026 52.6691ZM41.9467 51.0435C42.5684 50.9721 43.3958 50.6967 43.8626 51.2624C44.1176 51.9186 43.9295 52.6459 43.9922 53.3324C43.9581 53.5475 44.1965 53.6198 44.3261 53.7378C44.3178 53.8441 44.3091 53.9512 44.3016 54.0588C44.0603 53.9969 43.8252 53.9184 43.603 53.808C43.132 53.9728 42.5676 54.161 42.0987 53.9006C41.651 53.5442 41.6319 52.7169 42.1136 52.38C42.5738 52.1832 43.0917 52.211 43.5798 52.1408C43.5511 51.8675 43.6022 51.4613 43.2757 51.355C42.8355 51.2786 42.3878 51.37 41.9475 51.4019C41.9467 51.2815 41.9467 51.1615 41.9467 51.0435Z" fill="#5A5A5A"></path><path d="M48.5928 51.4135C48.2805 51.6195 48.2697 52.0502 48.2527 52.3883C48.2614 52.7521 48.2377 53.1728 48.4919 53.4677C48.8129 53.7385 49.2648 53.6442 49.6253 53.5142C49.7753 53.2335 49.8646 52.922 49.8517 52.6022C49.8446 52.2109 49.887 51.7291 49.5659 51.4421C49.2756 51.2772 48.8939 51.2785 48.5928 51.4135ZM48.658 50.9583C49.1726 50.8561 49.8421 50.9284 50.1133 51.4463C50.3484 52.0685 50.3472 52.7787 50.159 53.4133C50.0124 53.8727 49.4849 54.0512 49.0439 54.0259C48.5982 54.0566 48.0944 53.8544 47.9391 53.4058C47.7796 52.8709 47.7912 52.2936 47.8921 51.7495C47.9474 51.3557 48.2718 51.0339 48.658 50.9583Z" fill="#5A5A5A"></path><path d="M51.4159 51.1722C51.818 50.9541 52.3135 50.8266 52.7537 51.0031C53.1109 51.1697 53.218 51.5975 53.2372 51.9588C53.2671 52.6254 53.2426 53.2933 53.2513 53.9607C53.1034 53.9586 52.9568 53.9586 52.811 53.9586C52.8023 53.2941 52.8418 52.6275 52.7898 51.9642C52.7599 51.7462 52.7388 51.4621 52.4954 51.3782C52.1166 51.2453 51.7254 51.421 51.3628 51.524C51.364 52.3372 51.3619 53.1517 51.364 53.9653C51.2224 53.9607 51.082 53.9566 50.9416 53.9537C50.9512 52.9614 50.9225 51.9671 50.9611 50.9753H51.315C51.3403 51.0243 51.3906 51.1232 51.4159 51.1722Z" fill="#5A5A5A"></path><path d="M54.4167 52.6711C54.1687 52.9252 54.1911 53.4166 54.4952 53.6176C54.8598 53.726 55.2353 53.5665 55.5883 53.4793C55.5945 53.1516 55.5945 52.8243 55.5987 52.4979C55.2066 52.5543 54.778 52.4871 54.4167 52.6711ZM53.9984 51.0666C54.4503 50.9296 54.9354 50.8922 55.4043 50.9487C55.7445 50.9985 56.0016 51.3079 56.0273 51.6452C56.0771 52.2906 56.0016 52.9402 56.0846 53.5835C56.1569 53.6151 56.3014 53.6791 56.3737 53.711C56.3571 53.829 56.3401 53.947 56.323 54.0662C56.0888 53.998 55.8603 53.917 55.6477 53.8003C55.2373 53.9536 54.7909 54.0936 54.3514 53.9918C53.667 53.7949 53.603 52.6607 54.2185 52.3479C54.6683 52.1938 55.1522 52.2021 55.619 52.1374C55.5945 51.8769 55.5584 51.6186 55.4712 51.3719C54.9674 51.2909 54.4578 51.3569 53.954 51.3964C53.9656 51.3133 53.9868 51.1485 53.9984 51.0666Z" fill="#5A5A5A"></path><path d="M62.2507 51.3559C62.5888 51.1819 62.9364 51.0245 63.2969 50.9011C63.3019 51.0552 63.3073 51.2105 63.3127 51.3667C62.9589 51.4751 62.5842 51.5636 62.2815 51.7858C62.2387 52.5064 62.2748 53.2307 62.2678 53.9538C62.1166 53.958 61.9666 53.9609 61.818 53.9663C61.82 52.9703 61.8134 51.9748 61.8209 50.9796C61.9687 50.9796 62.1187 50.9809 62.2698 50.9829C62.2644 51.0764 62.2549 51.2625 62.2507 51.3559Z" fill="#5A5A5A"></path><path d="M64.1006 52.6806C64.0727 52.988 63.9207 53.4515 64.2854 53.6176C64.6513 53.7289 65.0276 53.5599 65.3819 53.4739C65.3873 53.1474 65.3881 52.8222 65.3914 52.4966C64.9566 52.5203 64.5184 52.5498 64.1006 52.6806ZM63.7837 51.0612C64.1749 50.9433 64.5886 50.9159 64.9969 50.9275C65.337 50.9296 65.7158 51.136 65.769 51.5007C65.8678 52.1469 65.7582 52.8052 65.825 53.4535C65.889 53.5898 66.0443 53.645 66.1536 53.7418C66.1378 53.8481 66.1228 53.9557 66.1091 54.0641C65.8707 53.9918 65.6369 53.9108 65.4114 53.8086C64.9404 53.9748 64.3772 54.1608 63.9091 53.895C63.4722 53.5333 63.4497 52.7072 63.9328 52.3778C64.3984 52.181 64.9171 52.2117 65.4085 52.134C65.3902 51.8736 65.3424 51.6165 65.2456 51.374C64.7406 51.2901 64.2302 51.3569 63.7251 51.3972C63.7401 51.3133 63.7687 51.1455 63.7837 51.0612Z" fill="#5A5A5A"></path><path d="M68.3066 51.1559C68.7182 50.952 69.2244 50.8191 69.6634 51.0168C70.0186 51.1879 70.0696 51.6186 70.1025 51.9662C70.144 52.6308 70.1132 53.2961 70.1228 53.9619C69.9803 53.9606 69.8387 53.9598 69.6983 53.9606C69.6909 53.3302 69.7133 52.7009 69.6934 52.0713C69.6792 51.8034 69.6261 51.4496 69.3262 51.3603C68.9607 51.2656 68.5981 51.4184 68.2513 51.5164C68.2526 52.3309 68.2513 53.1462 68.2534 53.9606C68.106 53.9619 67.9602 53.9631 67.8144 53.9652C67.8136 52.9722 67.8165 51.9791 67.8123 50.986C67.9099 50.9836 68.106 50.9786 68.2023 50.9752C68.2289 51.0209 68.2812 51.1102 68.3066 51.1559Z" fill="#5A5A5A"></path><path d="M72.5629 51.1561C72.9732 50.9509 73.4783 50.8201 73.9164 51.0157C74.2695 51.1868 74.3301 51.6146 74.3608 51.9643C74.4032 52.6288 74.3725 53.2963 74.3812 53.962C74.2375 53.9608 74.095 53.9608 73.9526 53.9608C73.9069 53.17 74.0622 52.3514 73.8462 51.5805C73.5443 51.122 72.9213 51.4049 72.5056 51.5153C72.5056 52.331 72.5056 53.1463 72.5076 53.962C72.361 53.9608 72.2152 53.962 72.0695 53.9633C72.0769 52.9711 72.0707 51.978 72.0715 50.987C72.1662 50.9837 72.3556 50.9775 72.4503 50.9754C72.4777 51.0198 72.535 51.1104 72.5629 51.1561Z" fill="#5A5A5A"></path><mask id="mask0_106_5901" style="mask-type:luminance" maskUnits="userSpaceOnUse" x="74" y="50" width="4" height="6"><path d="M74.9901 50.9054H77.6482V55.386H74.9901V50.9054Z" fill="white"></path></mask><g mask="url(#mask0_106_5901)"><path d="M75.5945 54.8616C75.9878 55.036 76.4547 55.0157 76.8576 54.8774C77.1637 54.7171 77.054 54.3246 77.0565 54.0451C76.6279 53.9437 76.1843 53.8972 75.7453 53.9246C75.386 54.0791 75.3042 54.6041 75.5945 54.8616ZM75.5231 52.2716C75.6622 52.6711 76.1876 52.6126 76.5153 52.5299C76.8924 52.3268 76.7417 51.8322 76.7384 51.4879C76.4642 51.3433 76.1473 51.2158 75.8387 51.3317C75.4371 51.4239 75.4114 51.9514 75.5231 52.2716ZM75.1136 51.4634C75.2722 51.0572 75.7486 50.8914 76.1548 50.9297C76.6287 50.9766 77.1051 51.0102 77.5827 50.9741C77.5827 51.0729 77.5815 51.2711 77.5815 51.3699C77.4124 51.3633 77.2455 51.357 77.0785 51.3508C77.2691 51.7782 77.2986 52.3181 76.9884 52.6977C76.6661 52.9868 76.1963 52.9241 75.7964 52.9444C75.7773 53.1222 75.5974 53.3581 75.808 53.4802C76.2877 53.6131 76.8405 53.4324 77.2795 53.7165C77.7655 54.1514 77.5678 55.1411 76.897 55.2761C76.3342 55.4348 75.6402 55.4642 75.1659 55.0742C74.8743 54.6647 74.9786 54.0554 75.384 53.7576C75.3021 53.4611 75.3021 53.1508 75.4446 52.8722C75.0276 52.5341 74.9425 51.9493 75.1136 51.4634Z" fill="#5A5A5A"></path></g><path d="M83.001 51.391C82.4619 51.7174 82.6575 52.4999 82.6625 53.0294C82.6637 53.8045 83.9949 53.8705 84.144 53.1516C84.2162 52.688 84.2266 52.2034 84.1182 51.7461C84.0036 51.2689 83.376 51.2473 83.001 51.391ZM83.0031 50.9615C83.4495 50.8797 83.9812 50.8942 84.3213 51.239C84.6382 51.6119 84.654 52.1311 84.6478 52.5979C84.6444 52.9966 84.5913 53.4377 84.3043 53.7397C83.9525 54.0831 83.4018 54.0524 82.9541 53.981C82.464 53.8834 82.2065 53.3758 82.182 52.9156C82.1504 52.4052 82.1213 51.8512 82.385 51.391C82.5096 51.16 82.753 51.0176 83.0031 50.9615Z" fill="#5A5A5A"></path><path d="M85.728 51.374C86.0565 51.1792 86.4062 51.0251 86.7667 50.8997C86.7709 51.055 86.7763 51.2124 86.7825 51.3698C86.4245 51.4653 86.079 51.5974 85.7459 51.7577C85.7355 52.4925 85.7417 53.2272 85.7429 53.9619C85.5855 53.9577 85.4302 53.9523 85.2749 53.9482C85.2823 52.958 85.2794 51.9683 85.2794 50.9794C85.4315 50.9786 85.5855 50.9786 85.7417 50.9794C85.7388 51.0774 85.7313 51.2751 85.728 51.374Z" fill="#5A5A5A"></path><path d="M87.678 51.5354C87.68 52.2182 87.6746 52.9018 87.6813 53.5842C88.0829 53.6175 88.5688 53.7524 88.8945 53.4335C89.1823 53.0858 89.1727 52.5987 89.1474 52.1734C89.11 51.8864 89.0432 51.5313 88.757 51.3909C88.3977 51.2347 88.0223 51.4324 87.678 51.5354ZM87.7494 51.1516C88.166 50.9315 88.7188 50.7965 89.1366 51.0856C89.5735 51.4046 89.5652 52.0031 89.5802 52.489C89.5598 52.9455 89.5536 53.4949 89.1536 53.799C88.7337 54.1225 88.166 54.0041 87.6759 53.9946C87.6792 54.4232 87.678 54.8518 87.6813 55.2813C87.5729 55.2834 87.3569 55.2888 87.2485 55.2908C87.2444 53.8459 87.2493 52.401 87.2464 50.9569C87.4279 50.9772 87.6289 50.9847 87.7494 51.1516Z" fill="#5A5A5A"></path><path d="M90.7007 51.5164C90.5529 52.0979 90.4847 52.7284 90.6721 53.309C90.8835 53.6878 91.4238 53.7173 91.7843 53.5536C92.1062 53.4049 92.1012 53.0029 92.1307 52.7018C92.1374 52.3159 92.1498 51.9014 91.9766 51.5484C91.6448 51.1941 91.0803 51.2955 90.7007 51.5164ZM90.876 50.9786C91.3632 50.8689 91.9936 50.8785 92.3213 51.3196C92.637 51.7835 92.6063 52.3799 92.5743 52.9157C92.5531 53.3825 92.284 53.9013 91.7831 53.9843C91.2909 54.0703 90.6625 54.0682 90.3477 53.6089C90.0595 53.1495 90.0927 52.5764 90.1267 52.0589C90.1608 51.6016 90.3925 51.0953 90.876 50.9786Z" fill="#5A5A5A"></path><path d="M93.2311 50.9765C93.379 50.9785 93.5277 50.9806 93.6789 50.9835C93.6743 51.1123 93.6714 51.241 93.6693 51.3719C94.0007 51.1792 94.3517 51.0242 94.7143 50.8988C94.7197 51.0529 94.7272 51.2082 94.7346 51.3644C94.3816 51.4632 94.039 51.592 93.7054 51.7398C93.6647 52.4796 93.6884 53.2217 93.6838 53.9631C93.5298 53.9606 93.379 53.9585 93.2278 53.9577C93.232 52.9634 93.2291 51.9704 93.2311 50.9765Z" fill="#5A5A5A"></path><path d="M101.914 51.3761C101.608 51.4646 101.55 51.8185 101.505 52.0863C101.465 52.5158 101.452 52.9785 101.649 53.3751C101.89 53.6982 102.392 53.7099 102.731 53.5462C103.094 53.339 103.079 52.8605 103.089 52.4979C103.077 52.1449 103.099 51.7026 102.803 51.4538C102.546 51.2773 102.199 51.2868 101.914 51.3761ZM101.82 50.9766C102.327 50.8603 103.001 50.8902 103.305 51.3824C103.579 51.9514 103.56 52.6221 103.444 53.2293C103.384 53.5952 103.102 53.913 102.734 53.9844C102.238 54.0704 101.608 54.0716 101.285 53.6152C100.98 53.1625 101.063 52.5756 101.073 52.0598C101.071 51.5929 101.339 51.09 101.82 50.9766Z" fill="#5A5A5A"></path><mask id="mask1_106_5901" style="mask-type:luminance" maskUnits="userSpaceOnUse" x="104" y="50" width="3" height="4"><path d="M104.123 50.9054H106.487V53.9888H104.123V50.9054Z" fill="white"></path></mask><g mask="url(#mask1_106_5901)"><path d="M104.671 51.1455C105.087 50.9499 105.586 50.8199 106.026 51.0189C106.366 51.207 106.447 51.6302 106.475 51.9853C106.501 52.6411 106.48 53.2986 106.486 53.9557C106.337 53.9577 106.19 53.9606 106.045 53.9652C106 53.1603 106.151 52.3255 105.925 51.543C105.594 51.1401 105.013 51.408 104.603 51.5185C104.603 52.333 104.605 53.1462 104.601 53.9606C104.459 53.9598 104.316 53.9598 104.177 53.9606C104.184 52.9572 104.174 51.9525 104.182 50.9487C104.356 50.9773 104.553 50.9881 104.671 51.1455Z" fill="#5A5A5A"></path></g><path d="M6.11308 51.0402C6.56911 50.8275 7.08786 50.95 7.56632 50.9965C7.55677 51.1232 7.54847 51.2495 7.53974 51.3782C7.05837 51.3537 6.30123 51.1594 6.09273 51.7599C5.98848 52.2575 5.9565 52.8157 6.13966 53.2987C6.43621 53.7772 7.08371 53.5994 7.54722 53.5687C7.55802 53.6929 7.5684 53.8183 7.58045 53.945C7.0102 54.0089 6.2734 54.1855 5.84395 53.6854C5.56318 53.2422 5.54532 52.682 5.57938 52.1736C5.64002 51.762 5.70689 51.257 6.11308 51.0402Z" fill="#5A5A5A"></path><path d="M14.2498 50.9836C14.401 50.9807 14.5518 50.9774 14.7042 50.9753C14.7063 51.9717 14.7017 52.9677 14.705 53.9641C14.553 53.9607 14.401 53.9587 14.249 53.9566C14.2498 52.9656 14.2478 51.9746 14.2498 50.9836Z" fill="#5A5A5A"></path><path d="M46.7675 50.9816C46.8759 50.9787 47.0927 50.9733 47.2011 50.9712C47.2086 51.9663 47.2011 52.9627 47.2057 53.9578C47.0587 53.9599 46.9133 53.9607 46.7675 53.9641C46.7675 52.9702 46.7696 51.9759 46.7675 50.9816Z" fill="#5A5A5A"></path><path d="M66.611 53.9641C66.613 52.9656 66.6076 51.9684 66.6151 50.9712C66.7227 50.9733 66.9374 50.9774 67.0458 50.9795C67.0479 51.9726 67.0429 52.9669 67.0491 53.9599C66.9025 53.9607 66.7567 53.962 66.611 53.9641Z" fill="#5A5A5A"></path><path d="M70.8637 53.9558C70.8649 52.9615 70.8604 51.9663 70.867 50.972C70.9754 50.9741 71.1943 50.9787 71.304 50.9808C71.3052 51.9759 71.306 52.9723 71.3027 53.9674C71.1561 53.9633 71.0095 53.9587 70.8637 53.9558Z" fill="#5A5A5A"></path><path d="M62.2228 8.76856C63.6104 8.71539 64.9831 8.46661 66.3707 8.41553C67.0232 8.35198 67.5328 9.12906 67.2753 9.71177C67.171 9.97551 66.9468 10.1595 66.7428 10.3443C65.7834 11.1663 64.8319 11.9965 63.8858 12.8334C62.7694 12.5423 61.6646 12.2083 60.5544 11.8923C61.0968 10.844 61.67 9.81062 62.2228 8.76856Z" fill="#4F8398"></path><path d="M39.4364 9.6448C39.3567 9.15347 39.7371 8.66213 40.2114 8.56121C40.677 8.52923 41.1405 8.62392 41.6053 8.6505C42.541 8.7589 43.4871 8.75558 44.4208 8.89389C44.6056 8.90801 44.6613 9.11609 44.7514 9.24692C45.2394 10.1669 45.7581 11.0706 46.2462 11.9914C45.2701 12.2751 44.2962 12.5662 43.3222 12.8586C43.1395 12.9022 42.914 12.9845 42.7665 12.8217C41.8603 12.0687 40.9823 11.2833 40.0764 10.5282C39.8011 10.2944 39.4734 10.0315 39.4364 9.6448Z" fill="#24B4BC"></path><path d="M56.4323 22.3073C57.4246 22.8812 58.4164 23.4577 59.4256 24.003C59.5648 25.3819 59.6923 26.7654 59.8127 28.1476C59.8945 28.6091 59.6167 29.0929 59.1694 29.2404C58.7802 29.4044 58.3408 29.1897 58.0953 28.879C57.3544 27.9765 56.6196 27.0661 55.8563 26.1815C56.0157 24.8865 56.2313 23.5977 56.4323 22.3073Z" fill="#19736A"></path><path d="M96.9571 41.4613C97.1336 41.0817 97.8812 40.9987 97.9514 41.4825C97.7387 41.5378 97.4102 41.4028 97.2964 41.6528C97.1834 41.8056 97.3188 41.9738 97.3599 42.1246C97.5896 42.0577 97.8205 41.9888 98.0523 41.9194C98.0776 42.0208 98.1054 42.1225 98.1354 42.226C97.715 42.3194 97.2931 42.4004 96.8698 42.4702L96.8379 42.2438C96.8956 42.2301 97.0115 42.2023 97.0696 42.1877C96.9488 41.9697 96.8221 41.7039 96.9571 41.4613Z" fill="#343434"></path><path d="M66.195 41.9376C66.3578 41.9385 66.5214 41.9397 66.6863 41.943C66.683 42.1395 66.6821 42.3372 66.6821 42.5353C66.5181 42.5353 66.3565 42.5361 66.195 42.5382C66.1941 42.3372 66.1941 42.1374 66.195 41.9376Z" fill="#343434"></path><path d="M28.3378 48.1271C28.5027 48.1258 28.6676 48.125 28.8333 48.1258C28.8354 48.3248 28.8379 48.5245 28.84 48.7256C28.6709 48.7243 28.504 48.7243 28.3358 48.7243C28.3358 48.5245 28.3358 48.3256 28.3378 48.1271Z" fill="#343434"></path><path d="M15.088 43.6069C15.0145 44.2877 15.0111 44.9734 15.0763 45.6537C15.5685 45.6603 16.0598 45.6578 16.552 45.6578C16.5188 45.0722 16.655 44.4446 16.4 43.8952C16.0947 43.4815 15.5324 43.5762 15.088 43.6069ZM18.5061 41.8156C18.6976 41.8131 18.8878 41.811 19.0793 41.811C19.0826 43.2634 19.0814 44.7159 19.0801 46.1695C18.4231 46.111 17.6938 46.3386 17.0994 45.9739C17.1048 46.0237 17.1164 46.1226 17.1218 46.1724C15.6271 46.1703 14.1319 46.1716 12.6371 46.1724C12.635 45.9992 12.6338 45.8269 12.6309 45.6558C13.2643 45.6591 13.8968 45.6591 14.5306 45.657C14.4018 44.8467 14.4425 44.0173 14.6095 43.2169C15.289 43.0242 16.1043 42.8934 16.7115 43.3453C17.2419 43.8441 17.0803 44.632 17.1185 45.2828C17.094 45.4867 17.3162 45.6134 17.4886 45.6441C17.8267 45.6769 18.166 45.6537 18.5053 45.657C18.5082 44.3757 18.5053 43.0957 18.5061 41.8156Z" fill="#353535"></path><path d="M20.1406 41.8131C20.3266 41.8123 20.5135 41.8123 20.7008 41.8131C20.6988 43.2668 20.7008 44.72 20.6996 46.1737C20.5135 46.1724 20.3287 46.1724 20.1435 46.1737C20.1385 44.72 20.1426 43.2668 20.1406 41.8131Z" fill="#353535"></path><path d="M34.8093 41.9397C34.9737 41.9385 35.1386 41.9376 35.3048 41.9376C35.3035 42.1374 35.3023 42.3384 35.3014 42.5394C35.1353 42.5374 34.9696 42.5361 34.8039 42.5361C34.8047 42.3363 34.806 42.1374 34.8093 41.9397Z" fill="#353535"></path><path d="M37.7161 41.9376C37.888 41.9385 38.0616 41.9409 38.2356 41.943C38.2336 42.1395 38.2336 42.3372 38.2336 42.5361C38.0616 42.5353 37.8893 42.5353 37.7181 42.5374C37.7161 42.3363 37.7161 42.1374 37.7161 41.9376Z" fill="#353535"></path><path d="M38.5328 41.9365C38.6973 41.9378 38.8622 41.9386 39.0283 41.9386C39.0304 42.1375 39.0312 42.3365 39.0333 42.5363C38.8667 42.5363 38.7006 42.5375 38.5357 42.5404C38.5336 42.3386 38.5328 42.1375 38.5328 41.9365Z" fill="#353535"></path><path d="M40.2753 41.8131C40.4589 41.8123 40.6441 41.8123 40.8302 41.8131C40.831 43.2655 40.8323 44.7192 40.8302 46.1716C40.3962 46.1749 39.9626 46.1704 39.5298 46.1737C39.5319 46.0005 39.5339 45.8281 39.5373 45.657C39.7819 45.6578 40.0286 45.6578 40.2741 45.6578C40.2741 44.377 40.272 43.0944 40.2753 41.8131Z" fill="#353535"></path><path d="M41.8925 41.811C42.0831 41.811 42.2733 41.8123 42.4656 41.8131C42.4669 43.2655 42.4635 44.7179 42.4656 46.1695C42.2741 46.1716 42.0839 46.1724 41.8937 46.1749C41.8925 44.72 41.8925 43.2655 41.8925 41.811Z" fill="#353535"></path><path d="M59.8125 45.6549C59.8091 44.3736 59.81 43.0923 59.8112 41.811C59.9973 41.811 60.1846 41.8123 60.3715 41.8131C60.3715 43.0944 60.3728 44.3757 60.3715 45.657C60.6128 45.6578 60.8533 45.657 61.0967 45.6578C61.0933 45.8294 61.0925 46.0013 61.0925 46.1737C60.4259 46.1724 59.7593 46.1724 59.0923 46.1737C59.0969 46.0013 59.101 45.8294 59.1052 45.6578C59.3402 45.6578 59.5761 45.657 59.8125 45.6549Z" fill="#353535"></path><path d="M61.8206 41.8131C62.0088 41.8123 62.1973 41.811 62.3876 41.8123C62.3884 43.2647 62.3884 44.7179 62.3876 46.1704C61.9631 46.1724 61.5378 46.1716 61.1137 46.1724C61.1137 46.0005 61.115 45.8269 61.1158 45.6558C61.3496 45.657 61.5847 45.6578 61.8198 45.6578C61.8198 44.377 61.8177 43.0944 61.8206 41.8131Z" fill="#353535"></path><path d="M65.4007 41.9365C65.5677 41.9378 65.7367 41.9386 65.9058 41.9398C65.9024 42.1388 65.9016 42.3386 65.9004 42.5396C65.728 42.5375 65.5581 42.5363 65.3891 42.5354C65.3912 42.3352 65.3953 42.1355 65.4007 41.9365Z" fill="#353535"></path><path d="M74.4541 43.7697C74.4658 44.2673 74.722 44.7233 75.0921 45.0456C75.2017 45.1349 75.3189 45.274 75.4804 45.235C75.9801 44.9106 76.3289 44.3724 76.4033 43.778C75.7811 43.523 75.0771 43.5101 74.4541 43.7697ZM72.3692 46.1736C72.3704 44.72 72.3683 43.2667 72.3704 41.8131C72.5586 41.8123 72.7488 41.8123 72.939 41.8123C72.9423 43.0936 72.9411 44.3757 72.939 45.657C73.5761 45.6433 74.2257 45.7197 74.8487 45.5515C74.5202 45.2242 74.1999 44.8724 74.0139 44.4417C73.8876 44.1323 73.8939 43.7921 73.8864 43.4644C74.4861 43.1637 75.1697 42.9361 75.8459 43.0786C76.2297 43.1571 76.5997 43.2966 76.9486 43.474C77.0105 44.3013 76.5574 45.0319 75.9639 45.5635C76.3917 45.6603 76.8294 45.6698 77.2655 45.659C77.2601 45.8302 77.256 46.0013 77.2526 46.1736C76.6284 46.1948 75.9884 46.1703 75.4081 45.9153C74.45 46.3373 73.3813 46.1184 72.3692 46.1736Z" fill="#353535"></path><path d="M77.9866 45.6591C77.9841 44.377 77.9833 43.0945 77.9866 41.8123C78.1756 41.8111 78.365 41.8111 78.5552 41.8123C78.5564 43.2647 78.5564 44.718 78.5564 46.1716C78.127 46.1725 77.6984 46.1725 77.2697 46.1725C77.2718 46.0005 77.2764 45.8282 77.2814 45.6571C77.5156 45.6571 77.7503 45.6579 77.9866 45.6591Z" fill="#353535"></path><path d="M79.6005 46.1724C79.6005 44.7192 79.6013 43.2655 79.6005 41.8123C79.7865 41.8123 79.9734 41.8123 80.1616 41.8131C80.1595 43.2667 80.1649 44.72 80.1587 46.1736C79.9714 46.1724 79.7853 46.1724 79.6005 46.1724Z" fill="#353535"></path><path d="M100.876 43.6027C100.771 44.2843 100.765 44.9762 100.868 45.659C101.356 45.657 101.844 45.659 102.334 45.6578C102.31 45.0921 102.407 44.5053 102.219 43.9599C101.954 43.4794 101.333 43.5728 100.876 43.6027ZM104.298 41.8131C104.487 41.8122 104.676 41.8131 104.866 41.8143C104.862 43.2655 104.87 44.7171 104.862 46.1695C104.208 46.1076 103.475 46.346 102.888 45.9759C102.894 46.0249 102.905 46.1238 102.911 46.1736C101.739 46.1703 100.568 46.1736 99.3959 46.1716C99.3938 45.9992 99.3926 45.8281 99.3926 45.657C99.687 45.657 99.9828 45.659 100.279 45.6603C100.217 44.8479 100.202 44.0226 100.39 43.2244C101.073 43.018 101.904 42.8925 102.51 43.3581C103.053 43.925 102.859 44.7806 102.913 45.4908C103.331 45.7496 103.834 45.6387 104.299 45.6557C104.295 44.3744 104.297 43.0935 104.298 41.8131Z" fill="#353535"></path><mask id="mask2_106_5901" style="mask-type:luminance" maskUnits="userSpaceOnUse" x="105" y="41" width="2" height="6"><path d="M105.824 41.7616H106.487V46.2272H105.824V41.7616Z" fill="white"></path></mask><g mask="url(#mask2_106_5901)"><path d="M105.9 41.8155C106.093 41.8131 106.289 41.8122 106.485 41.8131C106.487 43.2655 106.482 44.7191 106.487 46.1724C106.291 46.1715 106.095 46.1703 105.902 46.1682C105.9 44.7179 105.902 43.2667 105.9 41.8155Z" fill="#353535"></path></g><path d="M9.34651 44.7009C8.99556 44.8848 9.08361 45.3272 9.05827 45.6536C9.43456 45.6603 9.8121 45.6611 10.1896 45.6549C10.1685 45.3774 10.2278 45.0572 10.0235 44.8317C9.87481 44.6182 9.56747 44.6211 9.34651 44.7009ZM8.65 43.0254C9.41463 42.7991 10.2735 42.6329 11.0348 42.9627C11.4772 43.1338 11.7941 43.5367 11.9481 43.9757C12.1139 44.5202 12.0777 45.0967 12.0777 45.6578C12.2563 45.6569 12.4341 45.6569 12.6139 45.6578C12.616 45.8281 12.6189 46.0004 12.6222 46.1724C9.95663 46.1695 7.29104 46.1757 4.62669 46.1715C4.57561 46.6255 4.49919 47.1422 4.10794 47.4387C3.57632 47.8387 2.87774 47.6663 2.26305 47.7037C1.59519 47.7344 0.820186 47.7112 0.341725 47.1729C-0.188652 46.5819 0.106648 45.7184 0.171439 45.0148C0.347955 45.0477 0.525717 45.0817 0.702232 45.1166C0.664022 45.6358 0.477954 46.2077 0.713031 46.7019C1.0075 47.1974 1.6388 47.2219 2.15132 47.1974C2.62438 47.1741 3.11489 47.2572 3.57383 47.1156C3.93143 46.9603 4.01948 46.5445 4.04814 46.196C3.73041 46.1674 3.41891 46.1055 3.1124 46.0183C3.18466 45.8609 3.25942 45.7047 3.33169 45.5485C4.26411 45.7782 5.24014 45.6025 6.19083 45.659C6.19083 44.8105 6.19166 43.9611 6.18751 43.1126C6.37565 43.1126 6.56504 43.1114 6.75319 43.1114C6.74986 43.9599 6.75194 44.8097 6.75111 45.6578C7.32842 45.6578 7.90448 45.6569 8.48179 45.659C8.49592 45.2732 8.47556 44.835 8.75425 44.5297C9.11019 44.0608 9.85571 43.9707 10.3022 44.3607C10.703 44.6585 10.7657 45.1922 10.7532 45.6569C11.0049 45.6578 11.2558 45.6578 11.5071 45.659C11.4846 44.9741 11.6504 44.1024 11.0294 43.6218C10.3425 43.1052 9.44329 43.3199 8.67243 43.4781C8.65956 43.3274 8.65333 43.1762 8.65 43.0254Z" fill="#353535"></path><path d="M22.2011 43.8238C21.9564 44.3471 22.0212 44.9693 22.216 45.4996C22.5915 45.6869 23.0143 45.6666 23.4217 45.6591C23.413 44.9497 23.4346 44.2416 23.4068 43.5335C23.0006 43.5326 22.454 43.408 22.2011 43.8238ZM21.5365 43.9654C21.5673 43.5189 21.8991 43.1082 22.3469 43.0263C22.8914 42.9329 23.4471 43.0168 23.9853 43.1156C23.9799 44.1133 24.0044 45.1105 23.9725 46.1068C23.9226 46.5861 23.8989 47.1435 23.5227 47.4965C23.0517 47.8496 22.4362 47.6697 21.9087 47.5813C21.9108 47.4168 21.912 47.2519 21.9128 47.0883C22.3402 47.1169 22.8212 47.3038 23.2186 47.07C23.4026 46.8083 23.3931 46.4736 23.4259 46.1704C22.8623 46.1289 22.0939 46.344 21.7185 45.7941C21.4186 45.2413 21.4655 44.5701 21.5365 43.9654Z" fill="#353535"></path><path d="M53.9184 43.0297C54.4949 42.9404 55.1744 42.9063 55.6092 43.3719C56.2056 43.9729 56.1442 44.8754 56.1334 45.655C56.6268 45.6604 57.1202 45.6579 57.6144 45.6579C57.6157 44.8098 57.6165 43.96 57.6144 43.1127C57.8005 43.1115 57.9886 43.1127 58.1768 43.1148C58.176 43.9621 58.1747 44.8106 58.1768 45.6591C58.4779 45.6579 58.7786 45.6579 59.0797 45.6558C59.0764 45.8282 59.0731 46.0005 59.071 46.1737C57.2614 46.175 55.453 46.1704 53.643 46.175C53.643 46.0014 53.6443 45.8294 53.6464 45.6571C54.2905 45.6591 54.936 45.6591 55.5814 45.6558C55.5594 45.0096 55.6944 44.208 55.1274 43.742C54.8159 43.4296 54.3483 43.5252 53.9516 43.5019C53.94 43.3433 53.928 43.1858 53.9184 43.0297Z" fill="#353535"></path><path d="M69.4867 43.5973C69.375 44.2776 69.3771 44.9733 69.4697 45.6557C69.9619 45.6611 70.4532 45.6569 70.9454 45.6578C70.9134 45.0825 71.0455 44.4662 70.8029 43.9238C70.5213 43.4794 69.9332 43.5803 69.4867 43.5973ZM65.1594 43.8536C65.0286 44.3607 64.9306 44.9625 65.24 45.4252C65.6549 45.7633 66.2397 45.6291 66.7352 45.659C66.7319 44.9712 66.736 44.2843 66.7319 43.5973C66.2015 43.594 65.593 43.4623 65.1594 43.8536ZM64.5946 43.7261C64.7075 43.322 65.1241 43.118 65.5124 43.0678C66.1055 42.9968 66.704 43.0711 67.2963 43.1263C67.3009 43.9707 67.2984 44.8147 67.2975 45.659C67.8312 45.6578 68.3662 45.6557 68.9007 45.6611C68.8222 44.8466 68.8064 44.0143 69.0104 43.2169C69.5706 43.0615 70.1833 42.9369 70.7456 43.1529C71.0816 43.253 71.3516 43.5433 71.423 43.8876C71.5846 44.6381 71.4911 45.4111 71.5165 46.1715C69.6591 46.1703 67.8013 46.1749 65.944 46.1715C65.4676 46.1674 64.8795 46.1055 64.6448 45.6216C64.4043 45.0252 64.4131 44.3374 64.5946 43.7261Z" fill="#353535"></path><path d="M83.0091 43.8304C82.7105 44.3354 82.7753 44.9958 83.0486 45.4983C83.5175 45.6877 84.0254 45.6686 84.5209 45.657C84.5167 44.97 84.5221 44.2843 84.518 43.5986C84.0192 43.6165 83.4037 43.4316 83.0091 43.8304ZM82.3894 43.707C82.5157 43.2846 82.973 43.1019 83.375 43.0574C83.9394 43.0051 84.5064 43.0753 85.0696 43.1189C85.0803 43.9662 85.0749 44.8126 85.0729 45.6591C85.6153 45.657 86.1585 45.6632 86.7018 45.6516C86.6997 44.9086 86.6997 44.1643 86.7018 43.4208C86.8866 43.4208 87.0727 43.4221 87.26 43.4242C87.2567 44.1713 87.2567 44.9202 87.2588 45.6674C87.5428 45.6665 87.8332 45.6578 88.0998 45.544C88.386 44.8712 88.234 44.1269 88.268 43.4188C88.4541 43.42 88.6402 43.4221 88.8283 43.4242C88.8187 44.1236 88.8719 44.8276 88.7593 45.5228C89.0812 45.6674 89.4334 45.6728 89.7798 45.657C89.7935 44.8139 89.7736 43.9716 89.6727 43.1338C89.7885 43.1284 90.0203 43.1181 90.1362 43.1127C90.3563 43.9442 90.3509 44.8051 90.3359 45.6591C90.8281 45.6578 91.3207 45.6578 91.8129 45.6578C91.8137 44.9127 91.8129 44.1664 91.8137 43.4208C92.001 43.4208 92.1904 43.4221 92.3794 43.4229C92.3827 44.1705 92.3806 44.9169 92.3806 45.6632C92.7112 45.6557 93.1984 45.7313 93.3097 45.3123C93.4854 44.7009 93.3554 44.0492 93.3982 43.4208H93.9564C93.9448 44.1207 94.0054 44.8263 93.887 45.5199C94.2039 45.6674 94.554 45.6719 94.8971 45.6578C94.9025 44.8159 94.9046 43.9736 94.8028 43.1372C94.9548 43.1284 95.1089 43.1201 95.2643 43.1127C95.5425 44.1111 95.4312 45.1519 95.4553 46.1737C94.8493 46.1396 94.1985 46.2875 93.6457 45.9693C93.4567 46.0673 93.262 46.1724 93.0451 46.1695C92.0234 46.182 91.0005 46.1641 89.9788 46.1749C89.4887 46.1662 88.962 46.2405 88.5251 45.9664C88.317 46.0856 88.0894 46.1865 87.8448 46.1724C86.4626 46.1724 85.0812 46.1737 83.7002 46.1716C83.2471 46.1587 82.6793 46.1097 82.4521 45.6503C82.1809 45.0444 82.1959 44.3342 82.3894 43.707Z" fill="#353535"></path><path d="M96.8709 43.7611C96.5445 44.2886 96.6059 44.9714 96.8634 45.5146C97.2302 45.6816 97.6364 45.6667 98.0309 45.6592C98.0318 44.949 98.0405 44.2375 98.0243 43.5285C97.6397 43.5402 97.1492 43.4156 96.8709 43.7611ZM96.7463 43.1061C97.3398 42.8744 97.999 43.0202 98.6082 43.1149C98.6103 43.9634 98.6091 44.8107 98.6082 45.6579H99.3791C99.3791 45.8295 99.3791 46.0006 99.382 46.1738C99.1249 46.1717 98.8699 46.1717 98.6145 46.1696C98.5484 46.6277 98.5102 47.1436 98.1572 47.4858C97.6937 47.8496 97.0728 47.6731 96.5465 47.5838C96.5445 47.4189 96.5445 47.2553 96.5445 47.0912C96.9494 47.1116 97.3855 47.2881 97.7747 47.1074C98.0745 46.8977 97.9998 46.4894 98.0338 46.175C97.5259 46.1397 96.9465 46.2768 96.4988 45.9761C96.1138 45.5666 96.0735 44.951 96.0959 44.4173C96.1295 43.9293 96.2317 43.3126 96.7463 43.1061Z" fill="#353535"></path><path d="M34.8558 43.8258C34.6274 44.4118 34.6336 45.068 34.8633 45.6528C35.2683 45.6603 35.6736 45.6578 36.0786 45.6578C36.0786 44.9837 36.0807 44.3096 36.0778 43.6356C35.6608 43.6015 35.2176 43.5795 34.8558 43.8258ZM32.0499 43.1147C32.2351 43.1135 32.4199 43.1127 32.606 43.1135C32.6072 43.962 32.6081 44.8105 32.606 45.6591C33.1547 45.657 33.7033 45.6578 34.252 45.6603C34.1128 45.0701 34.0584 44.4384 34.2383 43.8515C34.3213 43.5612 34.539 43.3016 34.8347 43.2177C35.4269 43.0574 36.0478 43.1326 36.6505 43.1837C36.6505 44.0089 36.6517 44.833 36.6505 45.6578C36.8262 45.657 37.0014 45.657 37.178 45.6578C37.1759 45.8293 37.1738 46.0005 37.1738 46.1724C34.9335 46.1695 32.6945 46.1799 30.455 46.1674C30.4139 46.5553 30.4039 46.9869 30.1169 47.2888C29.7543 47.727 29.138 47.7208 28.6188 47.7174C27.9713 47.6963 27.2856 47.8013 26.6784 47.5231C26.2107 47.3274 25.8619 46.8465 25.8747 46.3331C25.8781 45.8896 25.9748 45.4547 26.0417 45.0178C26.2161 45.051 26.3914 45.0851 26.5667 45.1187C26.5073 45.5515 26.4064 45.9888 26.4604 46.4266C26.5658 46.9167 27.0717 47.2136 27.5527 47.1912C28.1499 47.1817 28.7571 47.2452 29.3494 47.1422C29.766 47.0296 29.8652 46.5682 29.8893 46.1948C29.5703 46.1641 29.2559 46.1035 28.9494 46.0108C29.0337 45.8601 29.1185 45.711 29.2049 45.5635C30.1381 45.76 31.105 45.6142 32.052 45.6537C32.0499 44.8072 32.0511 43.9612 32.0499 43.1147Z" fill="#353535"></path><path d="M38.0775 43.1115C38.2669 43.1115 38.4571 43.1127 38.6474 43.1127C38.6474 43.9612 38.6494 44.8097 38.6465 45.657C38.9356 45.6578 39.2259 45.6578 39.5162 45.657C39.5142 45.8294 39.5117 46.0013 39.5117 46.1737C38.7367 46.1704 37.9629 46.1758 37.1887 46.1724C37.1896 46.0005 37.1908 45.8281 37.192 45.657C37.4865 45.657 37.7818 45.6578 38.0775 45.6578C38.0763 44.8097 38.0775 43.96 38.0775 43.1115Z" fill="#353535"></path><path d="M47.969 43.1135C48.16 43.1127 48.3507 43.1127 48.543 43.1127C48.543 43.9612 48.5397 44.8097 48.5442 45.6591C48.832 45.6578 49.1195 45.6578 49.4085 45.6578C49.4044 45.8294 49.4011 46.0005 49.399 46.1724C48.2888 46.1716 47.179 46.177 46.0701 46.1695C45.6149 46.1417 45.0451 46.1396 44.7676 45.7102C44.4781 45.1582 44.7003 44.5256 44.7738 43.9471C44.7697 43.6962 45.1011 43.8428 45.2585 43.7951C45.2266 44.2706 45.0608 44.7499 45.1609 45.225C45.2544 45.5644 45.6436 45.6155 45.9401 45.6441C46.6154 45.6769 47.2928 45.6495 47.969 45.6578C47.9669 44.8097 47.9677 43.962 47.969 43.1135Z" fill="#353535"></path><path d="M50.3205 43.1115H50.8833C50.8833 44.1311 50.8821 45.152 50.8833 46.1716C50.3953 46.1749 49.9081 46.1737 49.4201 46.1724C49.4222 46.0005 49.4243 45.8281 49.4276 45.657C49.7241 45.6578 50.0219 45.6578 50.3197 45.657C50.3185 44.8085 50.3164 43.96 50.3205 43.1115Z" fill="#353535"></path><path d="M52.4579 43.121C52.6406 43.1202 52.8238 43.1202 53.0086 43.121C53.0053 44.227 53.0161 45.3339 53.0053 46.4407C52.9874 46.8806 52.8545 47.4101 52.4238 47.6198C52.1634 47.7698 51.854 47.6971 51.5724 47.69C51.5691 47.5314 51.567 47.3752 51.5658 47.2186C51.8274 47.1688 52.1825 47.2178 52.3237 46.9329C52.4716 46.6147 52.4483 46.2472 52.4612 45.9045C52.4567 44.9763 52.4612 44.0484 52.4579 43.121Z" fill="#353535"></path><path d="M50.7581 46.6704C50.9205 46.6712 51.0854 46.6733 51.2503 46.6775C51.2491 46.8669 51.2491 47.0571 51.2503 47.2486C51.0854 47.2477 50.9205 47.2477 50.7569 47.2477C50.7556 47.055 50.7556 46.8627 50.7581 46.6704Z" fill="#353535"></path><path d="M1.67693 48.1278C1.84099 48.1257 2.00463 48.1249 2.16952 48.1249V48.7254C2.00463 48.7242 1.83891 48.7242 1.67403 48.7242C1.67486 48.5257 1.6761 48.3267 1.67693 48.1278Z" fill="#353535"></path><path d="M2.47243 48.1237C2.63648 48.1249 2.80012 48.1249 2.96376 48.1278V48.7234C2.79805 48.7242 2.63108 48.7255 2.46495 48.7267C2.46703 48.5257 2.47035 48.3247 2.47243 48.1237Z" fill="#353535"></path><path d="M32.0572 41.9315C32.237 41.9315 32.4177 41.9315 32.5996 41.9323C32.5983 42.1334 32.5983 42.3331 32.5996 42.5342C32.4177 42.5354 32.237 42.5354 32.0572 42.5362C32.0563 42.3344 32.0563 42.1321 32.0572 41.9315Z" fill="#363636"></path><path d="M58.0496 41.9376C58.2186 41.9385 58.3877 41.9397 58.558 41.9409C58.5567 42.1395 58.5559 42.3384 58.5546 42.5382C58.3856 42.5374 58.2178 42.5361 58.0508 42.5361C58.0496 42.3363 58.0496 42.1366 58.0496 41.9376Z" fill="#363636"></path><path d="M83.1878 41.9365C83.3527 41.9386 83.5205 41.9411 83.6887 41.944C83.6853 42.1409 83.6853 42.3386 83.6853 42.5363C83.5184 42.5363 83.3527 42.5363 83.1869 42.5383C83.1857 42.3373 83.1857 42.1367 83.1878 41.9365Z" fill="#363636"></path><path d="M6.20334 41.929C6.3811 41.9314 6.5597 41.9314 6.73829 41.9335C6.73704 42.1333 6.73621 42.3343 6.73621 42.5362C6.55637 42.5353 6.37778 42.5362 6.19919 42.5374C6.20043 42.3343 6.20126 42.1312 6.20334 41.929Z" fill="#363636"></path><path d="M35.5979 42.5362C35.5958 42.3373 35.5945 42.1388 35.5945 41.9398C35.7565 41.9398 35.9189 41.9398 36.0825 41.9419C36.0838 42.1388 36.085 42.3365 36.0859 42.5354C35.9222 42.5354 35.7594 42.5354 35.5979 42.5362Z" fill="#363636"></path><path d="M57.2575 42.5403C57.2554 42.3397 57.2542 42.1395 57.2542 41.9385C57.4265 41.9397 57.601 41.9418 57.7754 41.943C57.7742 42.1387 57.7754 42.3343 57.7775 42.5307C57.6031 42.5332 57.4299 42.5361 57.2575 42.5403Z" fill="#363636"></path><path d="M83.979 42.5362C83.979 42.3373 83.979 42.1396 83.9811 41.9419C84.1439 41.941 84.3075 41.941 84.4724 41.941C84.4724 42.1387 84.4724 42.3373 84.4732 42.5362" fill="#363636"></path><path d="M46.4315 46.6733C46.6122 46.6712 46.7928 46.6712 46.976 46.6725C46.9747 46.8669 46.9747 47.0625 46.976 47.2593C46.7928 47.2581 46.6113 47.2573 46.4302 47.2581C46.4302 47.0625 46.4302 46.8669 46.4315 46.6733Z" fill="#363636"></path><path d="M27.5225 48.1298C27.6957 48.1269 27.8689 48.1248 28.0433 48.1257C28.0412 48.3246 28.0404 48.5244 28.0392 48.7254C27.8668 48.7242 27.6949 48.7254 27.5225 48.7267C27.5212 48.5265 27.5212 48.3279 27.5225 48.1298Z" fill="#363636"></path><path d="M9.34636 44.701C9.56732 44.6212 9.87466 44.6183 10.0233 44.8318C10.2277 45.0573 10.1683 45.3775 10.1895 45.655C9.81195 45.6612 9.43441 45.6604 9.05812 45.6537C9.08346 45.3273 8.99541 44.885 9.34636 44.701Z" fill="#FEFEFE"></path><path d="M49.94 46.6691C50.1124 46.6703 50.2843 46.6732 50.4579 46.6765C50.4558 46.8659 50.4567 47.0562 50.4579 47.2464C50.2835 47.2464 50.1111 47.2476 49.9379 47.2497C49.9379 47.0549 49.9388 46.8614 49.94 46.6691Z" fill="#373737"></path><path d="M14.2472 49.7928C14.398 49.7908 14.55 49.7887 14.702 49.7887C14.7032 49.964 14.7045 50.1417 14.7065 50.3191C14.5533 50.3162 14.4013 50.3149 14.2493 50.3141C14.248 50.1397 14.2472 49.9665 14.2472 49.7928Z" fill="#5B5B5B"></path><path d="M29.682 51.5293C29.4494 51.8258 29.4631 52.2354 29.4543 52.5946C29.4822 52.9506 29.4809 53.4282 29.8747 53.5864C30.2285 53.7089 30.5911 53.5237 30.925 53.4166C30.923 52.7358 30.9284 52.0555 30.9209 51.3752C30.5126 51.3461 30.0117 51.2057 29.682 51.5293ZM30.925 49.696C31.0729 49.6952 31.2208 49.6952 31.3694 49.6952C31.3661 51.1165 31.3682 52.5394 31.3682 53.9606C31.2195 53.9598 31.0716 53.9598 30.925 53.9606C30.925 53.9162 30.9259 53.8269 30.9259 53.782C30.4997 53.9926 29.9723 54.1426 29.5225 53.915C29.142 53.6928 29.0432 53.2114 29.0079 52.806C28.9825 52.2852 29.005 51.712 29.3152 51.2718C29.7202 50.8158 30.388 50.9134 30.9284 50.9827C30.923 50.5533 30.925 50.1246 30.925 49.696Z" fill="#5B5B5B"></path><path d="M46.7676 49.7921C46.9134 49.7908 47.0588 49.7908 47.2058 49.7921C47.2046 49.9665 47.2025 50.1418 47.2025 50.3183C47.0559 50.3162 46.9101 50.315 46.7656 50.315C46.7656 50.1397 46.7664 49.9653 46.7676 49.7921Z" fill="#5B5B5B"></path><path d="M100.004 53.9641C100.004 52.9656 99.9915 51.9672 100.01 50.97C100.116 50.9733 100.329 50.9816 100.435 50.9862C100.435 51.978 100.432 52.9702 100.438 53.962C100.291 53.962 100.147 53.962 100.004 53.9641Z" fill="#5B5B5B"></path><path d="M66.612 49.79C66.7566 49.7887 66.9024 49.79 67.049 49.7908C67.0477 49.9665 67.0477 50.1417 67.049 50.3183C66.9024 50.317 66.7574 50.3162 66.6129 50.317C66.612 50.1405 66.6108 49.9652 66.612 49.79Z" fill="#5C5C5C"></path><path d="M40.003 50.9932C40.4391 50.8532 40.908 50.9446 41.3524 50.9986C41.3512 51.1253 41.3504 51.252 41.3504 51.3803C40.8889 51.3271 40.4017 51.2773 39.9756 51.5007C39.7787 52.1013 39.6948 52.7957 39.9831 53.3814C40.3295 53.7631 40.9026 53.5865 41.3524 53.5716C41.3524 53.6983 41.3533 53.8258 41.3553 53.9537C40.8304 54.0023 40.2115 54.1543 39.7563 53.8038C39.3215 53.4262 39.3863 52.7966 39.3833 52.2791C39.3813 51.7952 39.5034 51.1976 40.003 50.9932Z" fill="#595959"></path><path d="M95.4554 52.7754C95.4533 53.0084 95.4567 53.241 95.465 53.4752C95.8637 53.7896 96.3721 53.6006 96.8048 53.4677C96.8036 53.1434 96.8036 52.8202 96.8061 52.4967C96.3488 52.5469 95.8438 52.4797 95.4554 52.7754ZM95.1909 51.0688C95.6004 50.9371 96.0394 50.9126 96.4668 50.933C96.7654 50.9475 97.1014 51.1232 97.1633 51.4409C97.2866 52.1025 97.1641 52.7808 97.2376 53.4474C97.3929 53.6293 97.5894 53.7875 97.579 54.0567C97.3186 54.0014 97.0644 53.9258 96.826 53.81C96.4339 53.9491 96.019 54.0737 95.6004 54.0068C94.8856 53.8694 94.7847 52.7276 95.3632 52.3692C95.8276 52.1893 96.3372 52.2064 96.8239 52.1374C96.7845 51.8683 96.8356 51.4941 96.5349 51.3632C96.0714 51.269 95.5958 51.3803 95.129 51.3973C95.1452 51.3155 95.1759 51.1506 95.1909 51.0688Z" fill="#595959"></path></g><defs><clipPath id="clip0_106_5901"><rect width="106.457" height="54.7721" fill="white" transform="translate(0.0310669 0.613892)"></rect></clipPath></defs></svg>