<svg xmlns="http://www.w3.org/2000/svg" width="127" height="126" viewBox="0 0 127 126" fill="none"><path d="M81.6208 69.2392L78.7961 69.2267L78.2186 70.344H81.0433L81.6208 69.2392Z" fill="#A6A8AB"></path><path d="M95.2422 70.3567L95.8197 69.2394H93.3716L92.7941 70.3567H95.2422Z" fill="#A6A8AB"></path><path d="M99.2594 71.2229C98.3303 71.2229 97.4013 71.5368 96.4095 72.2021C95.4178 72.8549 94.7022 73.6208 94.2126 74.5498L92.8441 77.1359H95.5182L95.9953 76.232H94.2L95.1039 74.5498C95.4554 73.8718 96.0078 73.2943 96.736 72.8047C97.4515 72.3277 98.1546 72.0891 98.82 72.0891H99.6611L96.2087 78.6424L92.0783 78.6299L91.6138 79.5338L95.1416 79.5464C95.5433 79.5464 95.9701 79.3957 96.4221 79.0944C96.8489 78.8182 97.1628 78.4918 97.3762 78.1152L100.992 71.2229H99.2594Z" fill="#A6A8AB"></path><path d="M94.7903 71.0974H93.0578C92.1413 71.0974 91.2123 71.4113 90.2205 72.0641C89.2664 72.6918 88.0863 74.3113 87.5967 75.2026L87.5339 75.3156H88.4127L88.5006 75.1399C88.8521 74.5498 89.8439 73.1312 90.5344 72.6667L91.5889 72.1394L92.5933 71.9637H93.4344L91.3002 76.1693L82.123 76.1568L83.4287 73.6585H82.5373L81.2317 76.1568L70.0961 76.1317L71.9039 72.6918L71.0251 72.6792C70.7614 73.1689 69.506 75.5918 69.506 75.5918C69.3177 75.981 69.2926 76.3074 69.4181 76.5836C69.5562 76.8849 69.8199 77.0356 70.2342 77.0356L91.7145 77.0858L94.7903 71.0974Z" fill="#A6A8AB"></path><path d="M29.5961 60.5519H31.793L28.1523 67.5069H25.9553L29.5961 60.5519Z" fill="#A6A8AB"></path><path d="M41.0454 60.5643L44.6987 60.5769L45.5775 65.7743H45.8035L48.4524 60.5769L50.5741 60.5894L46.9334 67.557L43.3177 67.5445L42.4264 62.3345H42.2004L39.5264 67.5319H37.4047L41.0454 60.5643Z" fill="#A6A8AB"></path><path d="M57.1399 65.2598H59.1611C58.9728 65.5987 58.9352 65.8247 59.0231 65.9251L59.2239 66.0256C59.3118 66.0381 59.475 66.0507 59.701 66.0632C59.814 66.0632 60.2031 66.0632 60.8434 66.0758C61.7348 66.0758 62.2495 66.0758 62.4001 66.0632C62.6763 66.0381 62.8646 66.0005 62.9776 65.9502C63.1283 65.8749 63.2789 65.7117 63.4045 65.4481L63.4924 65.084C63.4421 64.9836 63.2287 64.9334 62.8521 64.9208C62.5885 64.9208 62.0612 64.9082 61.2452 64.858C60.4166 64.8204 59.8642 64.7953 59.6257 64.7827C58.9728 64.7576 58.546 64.6823 58.3451 64.5442C58.094 64.3684 58.0187 64.0671 58.1317 63.6528C58.1945 63.4143 58.32 63.113 58.5209 62.7364C58.9352 61.958 59.362 61.3931 59.8265 61.0792C60.178 60.8407 60.5923 60.6775 61.0819 60.6021C61.5213 60.5394 62.5006 60.5017 64.0322 60.5017C65.024 60.5017 65.7145 60.5394 66.0911 60.5896C66.5933 60.6649 66.9071 60.803 67.0452 61.0039C67.221 61.2675 67.1331 61.7571 66.769 62.4476L66.5807 62.7991H64.5595L64.6976 62.4476C64.7603 62.2593 64.6599 62.1463 64.4088 62.1212C64.1828 62.0961 63.6305 62.0835 62.7391 62.0835C61.8603 62.0835 61.3205 62.1086 61.1322 62.1589C60.9187 62.2216 60.743 62.3848 60.6049 62.6359C60.4793 62.8745 60.4919 63.0251 60.6677 63.0879C60.8058 63.1381 61.5213 63.1758 62.8144 63.226C63.982 63.2636 64.7227 63.3139 65.024 63.3641C65.3253 63.4143 65.5638 63.4896 65.6894 63.5901L65.9279 64.0294C65.9655 64.3056 65.8149 64.745 65.501 65.3602C65.137 66.0507 64.798 66.5528 64.459 66.8667C64.1201 67.1806 63.7183 67.394 63.2664 67.507C62.8144 67.62 61.7097 67.6827 59.9646 67.6702C58.8975 67.6702 58.1443 67.6325 57.7049 67.5697C57.165 67.507 56.8261 67.3689 56.6754 67.168C56.5122 66.9546 56.5122 66.6533 56.6629 66.2767C56.7382 66.0883 56.8386 65.8624 56.9767 65.6113L57.1399 65.2598Z" fill="#A6A8AB"></path><path d="M66.0159 65.2847L68.0371 65.2972C67.8488 65.6362 67.8111 65.8622 67.899 65.9626L68.0999 66.063C68.1878 66.0756 68.3384 66.0881 68.577 66.0881C68.6899 66.1007 69.0791 66.1007 69.7194 66.1007C70.6107 66.1007 71.1255 66.1007 71.2761 66.0881C71.5398 66.0756 71.7406 66.0379 71.8536 65.9877C72.0043 65.9124 72.1549 65.7492 72.293 65.4855L72.3683 65.1089C72.3181 65.0085 72.1047 64.9583 71.7281 64.9457C71.4644 64.9457 70.9372 64.9206 70.1211 64.8829C69.28 64.8327 68.7402 64.8202 68.4891 64.8076C67.8363 64.7825 67.4094 64.7072 67.2211 64.5691C66.9575 64.3933 66.8947 64.1046 66.9951 63.6903C67.0579 63.4517 67.1834 63.1504 67.3843 62.7738C67.7986 61.9955 68.2254 61.4305 68.7025 61.1167C69.054 60.8781 69.4683 60.7149 69.9579 60.627C70.3973 60.5643 71.3766 60.5266 72.9082 60.5266C73.9 60.5266 74.5779 60.5643 74.9545 60.6145C75.4567 60.6898 75.7705 60.8279 75.9086 61.0288C76.0844 61.2924 75.9965 61.782 75.6324 62.4725L75.4441 62.8366H73.4229L73.5735 62.4851C73.6238 62.2968 73.5233 62.1838 73.2848 62.1587C73.0588 62.1336 72.5064 62.1336 71.6151 62.121C70.7363 62.121 70.1964 62.1461 70.0081 62.1963C69.7947 62.2591 69.619 62.4223 69.4809 62.6734C69.3553 62.9245 69.3679 63.0751 69.5311 63.1253C69.6692 63.1756 70.3848 63.2132 71.6778 63.2634C72.8454 63.3011 73.5861 63.3388 73.8874 63.389C74.1887 63.4392 74.4147 63.5145 74.5528 63.615L74.7913 64.0418C74.829 64.318 74.6783 64.7699 74.3645 65.3726C74.0004 66.0505 73.6614 66.5652 73.3225 66.8791C72.9835 67.2055 72.5818 67.4189 72.1298 67.5319C71.6779 67.6449 70.5856 67.7076 68.828 67.6951C67.7609 67.6825 67.0202 67.6574 66.5683 67.5946C66.0284 67.5319 65.6895 67.3938 65.5388 67.1929C65.3756 66.9795 65.3756 66.6782 65.5263 66.3016C65.6016 66.1132 65.702 65.8873 65.8276 65.6362L66.0159 65.2847Z" fill="#A6A8AB"></path><path d="M77.0759 60.6398L84.8596 60.6649L84.4327 61.4809H80.9929L77.7915 67.6199L76.8751 67.6074L80.0889 61.4683H76.6491L77.0759 60.6398Z" fill="#A6A8AB"></path><path d="M85.3746 60.6649H86.291L82.6503 67.6325L81.7339 67.62L85.3746 60.6649Z" fill="#A6A8AB"></path><path d="M87.3078 60.6649H89.1407L89.7684 66.578L96.5226 60.69H98.3555L94.7147 67.6451H93.7983L96.9871 61.5437H96.6104L89.5926 67.6451L88.8519 67.6325L88.174 61.5312H87.7723L84.5835 67.6325H83.667L87.3078 60.6649Z" fill="#A6A8AB"></path><path d="M95.7443 67.645L99.3725 60.6899L106.089 60.7025L105.662 61.5311L99.8621 61.5185L98.7448 63.6402L104.306 63.6527L103.879 64.4688L98.3179 64.4562L97.075 66.829L102.9 66.8415L102.461 67.6701L95.7443 67.645Z" fill="#A6A8AB"></path><path d="M81.0056 58.1916L113.81 46.5413L108.826 55.3543L81.0056 58.1916Z" fill="#CE3834"></path><path d="M81.0056 58.1914L53.5997 50.4706L51.1767 54.8395L81.0056 58.1914Z" fill="#F9A61D"></path><path d="M81.0056 58.1916L73.9626 51.5504L76.2977 47.0309L81.0056 58.1916Z" fill="#FEDC00"></path><path d="M21.8752 60.5266L21.009 62.1712H28.2528L29.1065 60.5392L21.8752 60.5266ZM22.4276 63.4894H20.3311L18.2345 67.4817H20.3311L21.5865 65.0838L26.4826 65.0964L27.3238 63.4894H22.4276Z" fill="#A6A8AB"></path><path d="M32.2575 60.5519L31.3285 62.322H34.3792H39.6269L40.5433 60.5644L32.2575 60.5519ZM31.68 67.5195L33.877 67.532L35.9359 63.59H33.7389L31.68 67.5195Z" fill="#A6A8AB"></path><path d="M51.5408 60.5895L50.6745 62.2341H58.2698L59.1235 60.602L51.5408 60.5895ZM49.3563 64.77H51.4152H54.6417H56.6629L57.4538 63.251H50.1472L49.3563 64.77ZM47.9 67.5571L55.5205 67.5696L56.3867 65.8999H48.7537L47.9 67.5571Z" fill="#A6A8AB"></path><path d="M19.6531 70.683L22.754 70.6955L23.4821 69.302H20.9587H19.6028L18.8747 70.683H19.6531ZM36.1995 71.1098C35.1701 71.1098 34.1281 71.4613 33.0108 72.1895C32.2575 72.6791 31.6424 73.2691 31.1276 73.9596H33.1238C33.6761 73.4449 34.5549 72.8549 35.7476 72.7921L34.4419 75.3029C34.3164 75.3029 20.6323 75.2778 20.3059 75.2778C20.4565 75.0016 22.4903 71.0847 22.4903 71.0847H20.2557C19.2137 71.0847 18.1717 71.4362 17.0543 72.1769C16.2634 72.7042 15.6357 73.2943 15.1335 73.9596H17.0794C17.2678 73.7839 17.4812 73.6081 17.7197 73.4449C18.3223 73.0557 18.8998 72.8549 19.4396 72.8549H19.7535C19.6154 73.1185 18.5483 75.1774 18.4855 75.2778H17.3556V75.2904H14.3552L13.4136 77.0856L35.3082 77.1359L38.4593 71.1224L36.1995 71.1098ZM34.8688 70.7081H38.6351L39.3507 69.3271H36.8272H35.4714L34.7558 70.7081H34.8688ZM69.6189 69.302L65.4509 77.2614H67.2462L71.4016 69.302H69.6189ZM66.7565 69.2895L63.5678 75.3657H60.6677L63.844 69.2895H62.0487L58.8725 75.3657L54.7547 75.3532L56.2612 72.1393H54.4785L52.972 75.3532L39.1498 75.3155L42.326 69.2392L40.5307 69.2267L36.4004 77.1233L62.4504 77.1735C62.9903 77.1735 63.5427 76.9852 64.1327 76.6086C64.6851 76.2445 65.1119 75.8177 65.4007 75.2904L68.5392 69.2769L66.7565 69.2895ZM45.1382 78.2155H43.7948L43.0667 79.5965H43.4935V79.609H46.9334L47.649 78.2281L45.1382 78.2155Z" fill="#A6A8AB"></path></svg>