<svg xmlns="http://www.w3.org/2000/svg" width="154" height="64" viewBox="0 0 154 64" fill="none"><path d="M11.2158 34.8448C11.2458 34.8448 11.2458 34.8448 11.2757 34.8448C11.6051 34.8747 11.8745 34.6352 11.9045 34.3358C11.9045 34.3058 11.9045 34.3058 11.9045 34.2759C11.9045 33.9166 11.6051 33.6471 11.2757 33.6471C10.9164 33.6471 10.6469 33.9465 10.6469 34.2759C10.6469 34.5753 10.9164 34.8448 11.2158 34.8448Z" fill="#158285"></path><path d="M12.9227 34.8448C12.9526 34.8448 12.9526 34.8448 12.9826 34.8448C13.3119 34.8747 13.5814 34.6352 13.6113 34.3358C13.6113 34.3058 13.6113 34.3058 13.6113 34.2759C13.6113 33.9166 13.3119 33.6471 12.9826 33.6471C12.6233 33.6471 12.3538 33.9465 12.3538 34.2759C12.3238 34.5753 12.5933 34.8448 12.9227 34.8448Z" fill="#158285"></path><path d="M14.5097 41.1324H14.4798C14.1504 41.1025 13.881 41.342 13.851 41.6714V41.7013C13.851 42.0606 14.1504 42.3301 14.4798 42.3301C14.8391 42.3301 15.1086 42.0307 15.1086 41.7013C15.1086 41.3719 14.8391 41.1324 14.5097 41.1324Z" fill="#158285"></path><path d="M16.1864 41.1324H16.1565C15.8271 41.1025 15.5576 41.342 15.5277 41.6714V41.7013C15.5277 42.0606 15.8271 42.3301 16.1565 42.3301C16.5158 42.3301 16.7852 42.0307 16.7852 41.7013C16.7852 41.3719 16.5158 41.1324 16.1864 41.1324Z" fill="#158285"></path><path d="M20.1086 37.9889C20.0487 37.3301 20.5578 36.7612 21.1865 36.7013C21.2464 36.7013 21.2764 36.7013 21.3362 36.7013C21.7554 36.7313 22.1746 36.8211 22.5639 37.0307L22.8932 36.1025C22.3842 35.863 21.8153 35.7133 21.2464 35.7133C19.9889 35.7133 19.1205 36.4618 19.1205 37.8391C19.1505 38.3482 19.2403 38.8572 19.4499 39.3362H17.2941V35.7731H16.276V39.3362H13.5513V35.7731H11.9345C10.3775 35.7731 9.3295 36.7313 9.3295 38.0787C9.3295 39.4261 10.3176 40.3543 11.7847 40.3543H23.0729V39.3362H20.5578C20.2883 38.9171 20.1386 38.4679 20.1086 37.9889ZM12.5632 39.3063H11.6949C10.8865 39.3063 10.2876 38.7973 10.2876 38.0188C10.2876 37.2403 10.8865 36.7313 11.6949 36.7313H12.5632V39.3063Z" fill="#158285"></path><path d="M32.0254 35.0544C32.0554 35.0544 32.0554 35.0544 32.0853 35.0544C32.4147 35.0843 32.6842 34.8448 32.7141 34.5454C32.7141 34.5154 32.7141 34.5154 32.7141 34.4855C32.7141 34.1262 32.4147 33.8567 32.0853 33.8567C31.726 33.8567 31.4565 34.1561 31.4565 34.4855C31.4565 34.7849 31.726 35.0544 32.0254 35.0544Z" fill="#158285"></path><path d="M33.7323 35.0542C33.7623 35.0542 33.7622 35.0542 33.7922 35.0542C34.1216 35.0841 34.391 34.8446 34.421 34.5152C34.4509 34.1859 34.2114 33.9164 33.882 33.8864C33.8521 33.8864 33.8221 33.8864 33.7922 33.8864C33.4628 33.8565 33.1934 34.096 33.1634 34.4254V34.4553C33.1335 34.7847 33.4029 35.0542 33.7323 35.0542Z" fill="#158285"></path><path d="M38.3437 35.6533C37.7448 35.6832 37.1759 35.8329 36.6669 36.1323L37.0262 37.0605C37.3855 36.821 37.8347 36.6713 38.2838 36.6713C39.5114 36.6713 39.7509 38.1085 40.4396 39.3361H35.2896V35.773H34.2716V39.3361H31.5468V38.1085C31.5468 36.6413 30.6486 35.6832 29.3012 35.6832C27.9538 35.6832 27.0555 36.6713 27.0555 38.1085V38.0786C27.0555 38.9469 26.6363 39.3361 25.8279 39.3361H25.1392V33.9166H24.1212V40.3542H25.8279C26.5765 40.3542 27.2052 40.1745 27.5047 39.6056C27.8939 40.1446 28.5227 40.3542 29.3012 40.3542H41.7571V39.3361C40.8289 38.887 40.7989 35.6533 38.3437 35.6533ZM29.3012 39.3062C28.6724 39.3661 28.1334 38.9169 28.0736 38.2882C28.0736 38.2283 28.0736 38.1384 28.0736 38.0786C28.0736 37.2402 28.5826 36.6713 29.3012 36.6713C30.0198 36.6713 30.5288 37.2402 30.5288 38.0786V39.3361H29.3012V39.3062Z" fill="#158285"></path><path d="M39.0321 41.1322H39.0021C38.6728 41.1023 38.3734 41.3119 38.3434 41.6412C38.3135 41.9706 38.5231 42.27 38.8524 42.3C38.9123 42.3 38.9423 42.3 39.0021 42.3C39.3315 42.3299 39.601 42.0904 39.6309 41.761C39.6309 41.7311 39.6309 41.7311 39.6309 41.7011C39.6309 41.3718 39.3614 41.1322 39.0321 41.1322Z" fill="#158285"></path><path d="M46.5778 39.3059H43.0147V40.3239H47.5958V33.8864H46.5778V39.3059Z" fill="#158285"></path><path d="M45.1104 34.5455H44.0924V38.7973H45.1104V34.5455Z" fill="#158285"></path><path d="M49.9311 33.8864H48.9131V40.3239H49.9311V33.8864Z" fill="#158285"></path><path d="M54.1529 34.9047C54.5002 34.9047 54.7817 34.6231 54.7817 34.2759C54.7817 33.9286 54.5002 33.6471 54.1529 33.6471C53.8056 33.6471 53.5241 33.9286 53.5241 34.2759C53.5241 34.6231 53.8056 34.9047 54.1529 34.9047Z" fill="#158285"></path><path d="M55.8296 34.9047C56.1768 34.9047 56.4583 34.6231 56.4583 34.2759C56.4583 33.9286 56.1768 33.6471 55.8296 33.6471C55.4823 33.6471 55.2008 33.9286 55.2008 34.2759C55.2008 34.6231 55.4823 34.9047 55.8296 34.9047Z" fill="#158285"></path><path d="M57.3567 41.1324H57.3267C56.9974 41.1025 56.7279 41.342 56.6979 41.6714V41.7013C56.6979 42.0606 56.9974 42.3301 57.3267 42.3301C57.6561 42.3301 57.9555 42.0307 57.9555 41.7013C57.9256 41.3719 57.6561 41.1324 57.3567 41.1324Z" fill="#158285"></path><path d="M59.0333 41.1324H59.0034C58.674 41.1025 58.4045 41.342 58.3746 41.6714V41.7013C58.3746 42.0606 58.674 42.3301 59.0034 42.3301C59.3327 42.3301 59.6322 42.0307 59.6322 41.7013C59.6322 41.3719 59.3627 41.1324 59.0333 41.1324Z" fill="#158285"></path><path d="M67.9862 35.0544C68.0161 35.0544 68.0161 35.0544 68.046 35.0544C68.3754 35.0843 68.6449 34.8448 68.6748 34.5454C68.6748 34.5154 68.6748 34.5154 68.6748 34.4855C68.7048 34.1262 68.4353 33.8268 68.076 33.7968C67.7167 33.7669 67.4173 34.0364 67.3873 34.3957C67.3574 34.725 67.6268 35.0245 67.9862 35.0544Z" fill="#158285"></path><path d="M71.4589 33.8864H71.429C71.0996 33.8565 70.8301 34.096 70.8002 34.4254V34.4553C70.8002 34.8146 71.0996 35.0841 71.429 35.0841C71.7883 35.0841 72.0577 34.7847 72.0577 34.4553C72.0278 34.1559 71.7883 33.8864 71.4589 33.8864Z" fill="#158285"></path><path d="M73.1961 33.8864C72.8667 33.8565 72.5972 34.096 72.5673 34.4254V34.4553C72.5373 34.8146 72.7769 35.1141 73.1362 35.144C73.4955 35.1739 73.7949 34.9344 73.8248 34.5751C73.8548 34.2158 73.6153 33.9164 73.2559 33.8864C73.226 33.8864 73.1961 33.8864 73.1961 33.8864Z" fill="#158285"></path><path d="M76.9683 39.3059H74.8424V35.7428H73.8244V39.3059H70.7703V35.7428H69.7523V39.3059H66.8778V38.0782C66.8778 36.6111 65.9796 35.6529 64.6322 35.6529C63.2848 35.6529 62.3865 36.641 62.3865 38.0782V38.0483C62.3865 38.9166 61.9674 39.3059 61.1589 39.3059H60.1409V35.7428H59.0929V39.3059H56.3682V35.7428H54.7214C53.1644 35.7428 52.1164 36.7009 52.1164 38.0483C52.1164 39.3957 53.1045 40.3239 54.5717 40.3239H61.129C61.8775 40.3239 62.5063 40.1442 62.8057 39.5753C63.195 40.1143 63.8238 40.3239 64.6023 40.3239H77.9264V33.8864H76.9084V39.3059H76.9683ZM55.41 39.3059H54.5417C53.7333 39.3059 53.1345 38.7968 53.1345 38.0184C53.1345 37.2399 53.7333 36.7308 54.5417 36.7308H55.41V39.3059ZM64.6322 39.3059C64.0034 39.3657 63.4645 38.9166 63.4046 38.2878C63.4046 38.2279 63.4046 38.1381 63.4046 38.0782C63.4046 37.2399 63.9136 36.671 64.6322 36.671C65.3807 36.671 65.8598 37.2399 65.8598 38.0782V39.3358H64.6322V39.3059Z" fill="#158285"></path><path d="M80.2923 33.8864H79.2742V40.3239H80.2923V33.8864Z" fill="#158285"></path><path d="M83.7353 35.7426C82.1783 35.7426 81.1304 36.7007 81.1304 38.0481C81.1304 39.3955 82.1185 40.3237 83.5856 40.3237H84.3641C84.3342 40.8926 83.9449 41.0423 83.406 41.0423C82.9568 41.0423 82.5077 40.9525 82.0885 40.8327L82.2981 41.9106C82.6874 42.0304 83.0766 42.0603 83.4659 42.0603C84.7534 42.0603 85.4121 41.5812 85.4121 40.0542V35.7426H83.7353ZM84.3641 38.0181V39.3057H83.4958C82.6874 39.3057 82.0885 38.7966 82.0885 38.0181C82.0885 37.2397 82.6874 36.7306 83.4958 36.7306H84.3641V38.0181Z" fill="#158285"></path><path d="M62.2071 27.7483C62.2071 26.3111 61.5483 25.5625 60.0512 25.5625H59.3326V26.5805H60.171C60.8597 26.5805 61.219 26.9398 61.219 27.6884V29.1555H58.4344V30.1736H62.1771L62.2071 27.7483Z" fill="#158285"></path><path d="M64.7824 29.9342V25.5327H63.7644V30.0839C63.7644 30.7127 63.4649 30.9223 63.0458 30.9223C62.8362 30.9223 62.6565 30.8923 62.417 30.8923L62.3271 31.7607C62.5367 31.8205 62.7463 31.8205 62.9559 31.8205C64.0039 31.8804 64.7824 31.4313 64.7824 29.9342Z" fill="#158285"></path><path d="M66.968 23.7062H65.95V30.1437H66.968V23.7062Z" fill="#158285"></path><path d="M70.2616 30.1138H71.0401C71.0101 30.6827 70.6209 30.8324 70.0819 30.8324C69.6328 30.8324 69.1837 30.7725 68.7345 30.6228L68.9441 31.7007C69.2436 31.8205 69.5729 31.8504 69.9023 31.8504C71.1 31.8504 71.9683 31.4312 72.0282 30.1138H74.184C74.8727 30.1138 75.4715 29.9042 75.741 29.3652C76.1302 29.9042 76.759 30.1138 77.5375 30.1138H82.8971V23.7062H81.8791V29.1257H79.7831V27.8981C79.7831 26.4309 78.8849 25.4728 77.5375 25.4728C76.1901 25.4728 75.2918 26.4309 75.2918 27.8981V27.8681C75.2918 28.7364 74.8726 29.1556 74.0642 29.1556H71.9982V25.5626H70.4113C68.8543 25.5626 67.8063 26.5207 67.8063 27.8681C67.8063 29.1856 68.7944 30.1138 70.2616 30.1138ZM76.3099 27.8681C76.3099 27.0297 76.8189 26.4608 77.5674 26.4608C78.316 26.4608 78.7951 27.0297 78.7951 27.8681V29.1257H77.5674C76.9386 29.1856 76.3997 28.7364 76.3398 28.1077C76.3099 28.0178 76.3099 27.928 76.3099 27.8681ZM70.1718 26.5806H71.0401V27.8681V29.1556H70.2017C69.3933 29.1556 68.7944 28.6466 68.7944 27.8681V27.8382C68.7645 27.0597 69.3633 26.5806 70.1718 26.5806Z" fill="#158285"></path><path d="M85.2625 23.7062H84.2444V30.1437H85.2625V23.7062Z" fill="#158285"></path><path d="M29.9896 24.6346C30.0195 24.6346 30.0195 24.6346 30.0494 24.6346C30.3788 24.6645 30.6483 24.425 30.6782 24.1256C30.6782 24.0956 30.6782 24.0956 30.6782 24.0657C30.6782 23.7064 30.3788 23.4369 30.0494 23.4369C29.6901 23.4369 29.4207 23.7363 29.4207 24.0657C29.4207 24.395 29.6602 24.6346 29.9896 24.6346Z" fill="#158285"></path><path d="M28.3128 24.6346C28.3428 24.6346 28.3428 24.6346 28.3727 24.6346C28.7021 24.6645 28.9716 24.425 29.0015 24.1256C29.0015 24.0956 29.0015 24.0956 29.0015 24.0657C29.0015 23.7064 28.7021 23.4369 28.3727 23.4369C28.0434 23.4369 27.7439 23.7363 27.7439 24.0657C27.714 24.395 27.9835 24.6346 28.3128 24.6346Z" fill="#158285"></path><path d="M28.8518 30.1138H34.3611V25.5327H33.3431V29.0958H30.6183V25.5327H28.9715C27.4145 25.5327 26.3666 26.4909 26.3666 27.8383C26.3965 29.1856 27.3846 30.1138 28.8518 30.1138ZM28.7619 26.5507H29.6303V29.0958H28.7619C27.9535 29.0958 27.3547 28.5868 27.3547 27.8083C27.3547 27.0598 27.9535 26.5507 28.7619 26.5507Z" fill="#158285"></path><path d="M43.3136 24.1253C43.3435 24.1253 43.3435 24.1253 43.3735 24.1253C43.6729 24.1552 43.9424 23.9456 43.9723 23.6462C43.9723 23.6162 43.9723 23.6162 43.9723 23.5863C44.0022 23.2569 43.7627 22.9575 43.4333 22.9276C43.104 22.8976 42.8046 23.1372 42.7746 23.4665C42.7447 23.7959 42.9842 24.0953 43.3136 24.1253Z" fill="#158285"></path><path d="M42.5054 25.383C42.5354 25.383 42.5354 25.383 42.5653 25.383C42.8647 25.353 43.1042 25.0835 43.0743 24.7841C43.0444 24.4847 42.7749 24.2452 42.4755 24.2751C42.176 24.3051 41.9665 24.5446 41.9665 24.844C41.9365 25.1434 42.206 25.383 42.5054 25.383Z" fill="#158285"></path><path d="M43.5833 24.7844C43.5833 24.8144 43.5833 24.8144 43.5833 24.8443C43.5534 25.1737 43.7929 25.4731 44.1223 25.503C44.4517 25.533 44.7511 25.2934 44.781 24.9641C44.811 24.6347 44.5714 24.3353 44.2421 24.3054C44.2121 24.3054 44.2121 24.3054 44.1822 24.3054C43.8828 24.2455 43.6133 24.4551 43.5833 24.7844Z" fill="#158285"></path><path d="M37.4748 30.1138H53.7932V23.7062H52.7752V29.1257H50.799V25.5326H49.781V29.0957H47.0563V25.5326H46.0383V29.0957H43.9124V26.1614H42.8943V29.0957H41.0679V26.1614H40.0499V29.0957H37.4748V25.4428H36.4568V30.1138C36.4568 30.7425 36.1574 30.9521 35.7382 30.9521C35.5286 30.9521 35.349 30.9222 35.1094 30.9222L35.0196 31.7905C35.2292 31.8504 35.4388 31.8504 35.6484 31.8504C36.6963 31.8803 37.4449 31.4612 37.4748 30.1138Z" fill="#158285"></path><path d="M56.1288 23.7062H55.1108V30.1437H56.1288V23.7062Z" fill="#158285"></path><path d="M31.4569 32.1197C31.8041 32.1197 32.0857 31.8382 32.0857 31.491C32.0857 31.1437 31.8041 30.8622 31.4569 30.8622C31.1096 30.8622 30.8281 31.1437 30.8281 31.491C30.8281 31.8382 31.1096 32.1197 31.4569 32.1197Z" fill="#158285"></path><path d="M33.1333 32.1197C33.4805 32.1197 33.7621 31.8382 33.7621 31.491C33.7621 31.1437 33.4805 30.8622 33.1333 30.8622C32.786 30.8622 32.5045 31.1437 32.5045 31.491C32.5045 31.8382 32.786 32.1197 33.1333 32.1197Z" fill="#158285"></path><path d="M48.4638 30.9223C48.4338 30.9223 48.4338 30.9223 48.4039 30.9223C48.0745 30.8924 47.805 31.1319 47.7751 31.4613V31.4912C47.7452 31.8505 47.9847 32.15 48.344 32.1799C48.7033 32.2098 49.0027 31.9703 49.0327 31.611C49.0926 31.2816 48.8231 30.9523 48.4638 30.9223Z" fill="#158285"></path><path d="M112.18 22.0298C112.39 22.0597 112.599 22.0896 112.809 22.1196C113.767 20.353 114.905 18.6463 116.162 17.0893C112.959 14.6041 109.336 12.6579 105.503 11.3405L112.18 22.0298ZM129.427 35.5635L118.408 32.0004L131.313 52.6604C132.092 46.9116 131.433 41.013 129.427 35.5635Z" fill="#158285"></path><path d="M111.402 27.599C116.162 19.9937 122.36 14.4245 131.343 11.3405L118.438 32.0004L105.533 52.6604C104.365 43.2287 106.641 35.2342 111.402 27.599Z" fill="#F7941D"></path><path d="M92.778 23.676L106.521 28.1374C107.988 27.3289 109.486 26.6103 111.013 25.9516C111.222 25.4725 111.432 24.9934 111.641 24.4844C112.001 23.676 112.42 22.8975 112.839 22.119C106.102 20.9812 99.2454 21.5202 92.778 23.676ZM130.325 28.1374L118.408 31.9999L144.069 40.3238C140.476 35.2935 135.775 31.1316 130.325 28.1374Z" fill="#2BB574"></path><path d="M92.778 40.324L107.45 35.5632C107.988 34.126 108.587 32.7187 109.276 31.3713C109.695 29.5149 110.264 27.7184 111.013 25.9518C103.737 29.0658 97.6585 33.587 92.778 40.324ZM124.666 22.0294L118.408 32.0001L144.069 23.6762C137.811 21.5803 131.164 21.0114 124.666 22.0294Z" fill="#FCB614"></path></svg>