<svg xmlns="http://www.w3.org/2000/svg" width="75" height="74" viewBox="0 0 75 74" fill="none"><path d="M46.4849 12.735L46.4354 11.4923C46.4197 11.125 46.4119 10.7628 46.4119 10.4033C46.5474 10.3616 46.6281 10.3147 46.6438 10.2418C46.6516 10.1845 46.6516 10.1532 46.6281 10.1532L46.5396 10.1845C46.4744 10.2496 46.4354 10.2574 46.4275 10.2184C46.4197 10.1949 46.4015 10.1298 46.3859 10.0178L46.0342 9.96044C46.1618 10.122 46.1774 10.2184 46.0993 10.2418L45.8414 10.2731C45.7294 10.3147 45.6746 10.4007 45.6746 10.5362C45.6746 11.2969 45.6668 11.6903 45.659 11.7216L45.5314 11.8987C45.5001 11.9404 45.4767 11.9717 45.4584 12.0107L45.6278 12.0654L45.7398 12.1384C45.7658 12.1618 45.7971 12.1775 45.8362 12.1957C45.8778 12.1957 45.8909 12.1384 45.9013 12.0185L45.9091 10.6326C45.9404 10.5284 46.0133 10.4893 46.1253 10.4971C46.167 11.9143 46.167 12.6282 46.1253 12.6438C46.1019 12.6516 45.8127 12.6672 45.2761 12.6907L45.1406 12.5943C44.9582 12.834 44.8775 12.9538 44.927 12.9538L46.2947 12.8965C46.4197 12.9043 46.4849 12.847 46.4849 12.735ZM44.0568 24.4427C44.531 23.4111 44.7602 22.4393 44.7602 21.5353L44.7133 11.0859C44.7133 11.0051 44.6821 10.966 44.6091 10.94C43.4654 10.6352 42.056 10.0673 40.3653 9.23359C39.5238 8.80894 38.7891 8.41816 38.156 8.05083C38.1326 8.03259 38.117 8.03259 38.1013 8.03259H38.0701C38.0466 8.03259 38.0284 8.04041 38.0154 8.05083C37.3823 8.41816 36.645 8.81155 35.7957 9.23359C34.1128 10.0646 32.6956 10.6352 31.5597 10.94C31.4867 10.9634 31.4477 11.0051 31.4555 11.0859L31.406 21.5353C31.406 22.4393 31.6378 23.4111 32.1198 24.4427C32.5757 25.4275 33.201 26.3159 34.0164 27.1183C35.0246 28.1187 36.2985 28.9445 37.82 29.601L38.0831 29.6974L38.3488 29.601C39.8703 28.9445 41.1338 28.1187 42.1602 27.1183C42.9678 26.3159 43.6009 25.4275 44.0568 24.4427ZM38.2759 29.3197L38.0753 29.3744L37.8903 29.3197C36.4158 28.671 35.1991 27.8764 34.23 26.9177C33.4458 26.1569 32.8362 25.2998 32.3881 24.3489C31.9244 23.3407 31.7004 22.4029 31.7004 21.5145L31.7316 11.2083C33.4458 10.729 35.5587 9.78329 38.0649 8.36606V8.37387L38.0805 8.36606L38.0987 8.37387V8.36606C40.6023 9.78329 42.7177 10.729 44.432 11.2083L44.4632 21.5145C44.4632 22.4029 44.2392 23.3407 43.7755 24.3489C43.3352 25.3024 42.7177 26.1596 41.9414 26.9177C40.9566 27.8764 39.74 28.671 38.2759 29.3197ZM36.1058 12.5031C36.2647 12.438 36.4418 12.3833 36.6346 12.326L36.4809 12.4536C36.1605 12.7662 36.0094 13.1805 36.0094 13.7015L36.0406 14.1444C36.0563 14.1835 36.0797 14.2069 36.1292 14.2069C36.1761 14.2069 36.21 14.1835 36.2256 14.1444C36.3376 13.4801 36.619 13.0554 37.0671 12.8783C36.9394 13.1336 36.8743 13.4149 36.8743 13.7197C36.8743 13.8943 36.8977 14.0636 36.9472 14.2225C36.9472 14.2642 36.9785 14.2877 37.0202 14.2955C37.0671 14.2955 37.0931 14.2799 37.1166 14.2382C37.1661 14.1027 37.2312 13.9672 37.3015 13.837C37.3901 13.652 37.4631 13.54 37.5256 13.5009C37.5907 13.7562 37.6376 14.5091 37.6532 15.7492V16.1738C37.6454 17.0935 37.622 17.6953 37.5751 17.974C37.351 17.8125 37.213 17.7578 37.1583 17.7969C37.1166 17.8203 37.1009 17.862 37.1166 17.9167V17.9349C37.2599 18.3987 37.4761 18.6305 37.7913 18.6305L37.9815 18.6462C38.2238 18.6644 38.4061 18.6462 38.513 18.5915C38.6875 18.4951 38.8073 18.2788 38.8725 17.9428C38.8907 17.9011 38.8725 17.8776 38.8412 17.8542C38.8178 17.8281 38.7865 17.8281 38.7448 17.8464C38.5703 17.9584 38.4635 18.0235 38.44 18.047L38.4088 16.5985C38.3775 15.1734 38.354 14.3554 38.3358 14.1392V14.035C38.3358 13.9151 38.3202 13.8109 38.2967 13.7302C38.2889 13.7302 38.2811 13.7223 38.2811 13.6989L38.3358 13.5322C38.354 13.4827 38.3775 13.4592 38.4088 13.4358L38.6562 13.7406C38.7761 13.9177 38.8308 14.0298 38.8412 14.0688C38.8412 14.1105 38.8647 14.1418 38.9063 14.1574C38.948 14.1809 38.9793 14.173 39.0027 14.1235C39.0444 14.0688 39.0679 13.9386 39.0679 13.7458C39.0679 13.4358 38.9871 13.1231 38.8282 12.8418C39.2685 13.0268 39.5342 13.4019 39.6202 13.9646C39.6202 14.0115 39.6436 14.0376 39.6931 14.0376C39.74 14.0454 39.7713 14.0298 39.7895 13.9829C39.8364 13.863 39.8546 13.7197 39.8546 13.5504L39.8286 13.269C39.7348 12.8131 39.4456 12.438 38.948 12.1566C39.2111 12.1566 39.4691 12.2296 39.6931 12.3833C39.7348 12.3989 39.7661 12.3911 39.8051 12.365C39.8234 12.3416 39.8286 12.326 39.8286 12.3103V12.2869C39.7895 12.167 39.7166 12.055 39.615 11.9352C39.3961 11.7033 39.1017 11.5574 38.7344 11.4949C38.8542 11.4402 38.9819 11.4141 39.1174 11.422L39.2059 11.3751C39.2216 11.3516 39.2216 11.3177 39.2059 11.2865C39.0158 10.9921 38.6849 10.966 38.2055 11.2057L37.9971 10.8618C37.9893 10.8306 37.9659 10.8202 37.9242 10.8202L37.8434 10.8618C37.747 11.0468 37.6923 11.1588 37.6767 11.1745C37.3067 11.0051 36.9316 11.0129 36.5721 11.2135C36.5304 11.2292 36.5148 11.263 36.5148 11.3021L36.5226 11.3177C36.5304 11.3672 36.5617 11.3881 36.6033 11.3881C36.8665 11.3881 37.0905 11.4298 37.2677 11.5079L36.9733 11.5809C36.5643 11.7111 36.2438 11.9743 36.012 12.3833C35.9963 12.3989 35.9963 12.4067 35.9963 12.4223C35.9963 12.4458 36.012 12.464 36.0198 12.4797C36.0406 12.5031 36.0745 12.5109 36.1058 12.5031ZM37.0749 11.7268C37.2338 11.6877 37.3797 11.6616 37.4995 11.6721C37.5464 11.6799 37.5725 11.6642 37.5855 11.6252L37.5959 11.5939C37.5959 11.5678 37.5959 11.5626 37.5803 11.547C37.4683 11.4011 37.2755 11.3047 37.0045 11.2578C37.2546 11.2083 37.4683 11.2578 37.6532 11.3777C37.6689 11.3855 37.6923 11.3855 37.7184 11.3777C37.7418 11.3777 37.7653 11.3698 37.7913 11.3464C37.8538 11.2187 37.8929 11.138 37.9268 11.0911L38.0961 11.362C38.1274 11.4089 38.1665 11.4272 38.216 11.4011C38.4817 11.25 38.7031 11.2083 38.8907 11.2656C38.6823 11.2969 38.5208 11.3777 38.4088 11.4897C38.3853 11.521 38.3671 11.5366 38.3671 11.547L38.3827 11.5861C38.3905 11.6199 38.4166 11.6434 38.4635 11.6434C38.9272 11.6668 39.2815 11.8284 39.5212 12.0993C39.1851 11.9612 38.8907 11.9378 38.6328 12.0264C38.5833 12.0498 38.5677 12.0733 38.5677 12.1045V12.1201C38.5677 12.1436 38.5833 12.167 38.6224 12.1931C39.2059 12.4562 39.5498 12.8262 39.6462 13.2977L39.6697 13.5374C39.542 13.2169 39.3649 12.9851 39.1252 12.8314C38.9558 12.7037 38.7891 12.6334 38.6302 12.6073C38.5885 12.5995 38.5572 12.6073 38.5338 12.649V12.6959C38.5338 12.7193 38.5416 12.7376 38.5494 12.7428C38.7735 13.0476 38.8959 13.3915 38.8959 13.751V13.7744L38.7917 13.6312C38.638 13.4149 38.5364 13.2951 38.4556 13.269C38.3827 13.2456 38.3202 13.269 38.2472 13.342L38.1274 13.5738C38.1039 13.6781 38.1039 13.7484 38.1274 13.8135C38.1665 13.8787 38.1743 13.9907 38.1587 14.1418V14.1496C38.1743 14.358 38.1977 15.176 38.2316 16.6011L38.255 18.0339C38.2707 18.1694 38.2967 18.258 38.3254 18.2736C38.3566 18.2893 38.3905 18.2893 38.4166 18.2736L38.6562 18.1121C38.5937 18.2893 38.5051 18.4013 38.3905 18.4482C38.3202 18.4794 38.1821 18.4794 37.9997 18.4638L37.7913 18.456C37.5985 18.456 37.4526 18.3127 37.3432 18.0313L37.536 18.1668C37.5777 18.1903 37.6246 18.1903 37.6558 18.1668C37.7601 18.1277 37.8174 17.638 37.8252 16.6923C37.8408 15.9081 37.833 15.1239 37.7939 14.3294C37.7522 13.6885 37.6949 13.3524 37.6011 13.3211C37.4813 13.2743 37.3276 13.4097 37.153 13.7302L37.0723 13.8995L37.0645 13.7145C37.0645 13.3316 37.153 13.0163 37.3276 12.7845C37.3458 12.761 37.3536 12.7376 37.3536 12.7298C37.3458 12.7063 37.3458 12.6881 37.3354 12.6881C37.3198 12.6412 37.2885 12.6256 37.2468 12.6412C36.7753 12.7193 36.421 13.058 36.1891 13.6416C36.2048 13.2013 36.3402 12.8496 36.6033 12.5787C36.7805 12.4015 36.9733 12.2817 37.1791 12.2322C37.2286 12.2165 37.252 12.1853 37.252 12.1358H37.2442C37.2442 12.0811 37.213 12.0576 37.1556 12.0576C36.9238 12.0654 36.6346 12.128 36.2985 12.24C36.5122 11.9899 36.7701 11.8153 37.0749 11.7268ZM41.8059 22.9916L41.8476 22.8067C41.8554 22.7676 41.8632 22.7363 41.8632 22.7103C41.8632 22.6556 41.8476 22.6139 41.8242 22.5826C41.7773 22.5175 41.7043 22.4862 41.5923 22.4784L41.6652 22.1033C41.6652 22.0642 41.6392 22.0381 41.6001 22.0381H41.5871L41.0582 22.0954C40.8342 22.1111 40.5137 22.0381 40.0969 21.8714C39.7035 21.7021 39.3987 21.6239 39.1981 21.6161C38.8464 21.6083 38.4791 21.7281 38.1013 21.9678L38.044 22.0095L37.9554 21.9678C37.6116 21.7437 37.3067 21.6317 37.0254 21.6317C36.7779 21.6239 36.3767 21.7359 35.8322 21.9678L35.4961 22.1059C35.2643 22.1528 35.0064 22.1632 34.7354 22.1137C34.6 22.0981 34.5192 22.1059 34.4957 22.1397L34.4723 22.1632L34.4879 22.1944C34.5062 22.3065 34.5218 22.4107 34.5374 22.5227C34.4593 22.5227 34.4098 22.5644 34.3707 22.6191C34.3056 22.6842 34.2977 22.7728 34.3316 22.9005L34.3707 23.075C34.2899 23.0854 34.2196 23.1245 34.1779 23.1714C34.1128 23.2496 34.0971 23.3564 34.1362 23.4762C34.1987 23.7002 34.3915 24.5261 34.7198 25.959C34.7771 26.1517 34.9204 26.269 35.1444 26.3107C35.504 26.3732 35.9599 26.295 36.5122 26.071C37.0019 25.873 37.523 25.9121 38.0675 26.1908L38.0909 26.2065L38.1222 26.1908C38.651 25.9746 39.0574 25.9016 39.3623 25.9746L39.8833 26.1257C40.3783 26.269 40.7404 26.3419 40.9879 26.3263C41.2849 26.3028 41.4777 26.0632 41.5662 25.6151L42.0143 23.3798C42.0222 23.3407 42.03 23.3069 42.03 23.2678L42.0065 23.1558C41.9675 23.0724 41.9023 23.0255 41.8059 22.9916ZM34.7198 22.2465C35.0168 22.296 35.2903 22.296 35.5222 22.2387L35.8895 22.0954C36.434 21.861 36.8196 21.749 37.0254 21.7594C37.2729 21.7672 37.5542 21.8714 37.8799 22.0798L38.0414 22.1528L38.1769 22.0876C38.4895 21.8636 38.8256 21.7516 39.1773 21.7594C39.3544 21.7594 39.641 21.8375 40.0422 21.9912C40.4747 22.1736 40.8212 22.2544 41.0739 22.2309L41.5063 22.184L40.842 25.6672C40.6831 25.7063 40.4721 25.6672 40.2324 25.5395C40.0657 25.4509 39.8416 25.3884 39.5602 25.3311C39.2945 25.2842 39.0783 25.266 38.9037 25.2842C38.7031 25.292 38.4374 25.3624 38.1196 25.5004C37.7522 25.3077 37.2859 25.2425 36.7336 25.3077C36.6294 25.3233 36.4132 25.3806 36.1005 25.4848C35.6603 25.6125 35.4023 25.6698 35.3242 25.6437C35.2356 25.4457 34.9959 24.2994 34.6208 22.2413L34.7198 22.2465ZM34.4723 22.6946C34.4957 22.679 34.527 22.6634 34.5687 22.6634C34.6494 23.0854 34.7276 23.5127 34.8084 23.9373C35.048 25.1227 35.1913 25.7245 35.2565 25.7636C35.3685 25.8105 35.6655 25.7636 36.1553 25.602C36.4444 25.5057 36.645 25.4509 36.7544 25.4431C37.2911 25.378 37.7392 25.4509 38.0935 25.6359L38.1248 25.6515L38.1482 25.6359C38.4843 25.5004 38.7422 25.4275 38.9246 25.4119C39.0939 25.404 39.2997 25.4197 39.5498 25.4692C39.8156 25.5161 40.024 25.5812 40.1751 25.6698C40.2793 25.7271 40.4095 25.7584 40.5763 25.7896C40.743 25.8131 40.8498 25.8209 40.9123 25.8053C40.9358 25.7896 40.9592 25.774 40.9671 25.7427L41.5689 22.6191C41.6392 22.6191 41.6809 22.6425 41.7043 22.666C41.7226 22.6894 41.7226 22.7207 41.7121 22.7624V22.7702H41.7043L41.1937 25.4275C41.1442 25.6437 41.0895 25.7818 41.0478 25.8443C41.0166 25.8834 40.9592 25.9095 40.8498 25.9251C40.73 25.9329 40.4747 25.8834 40.0813 25.7636C39.6983 25.6437 39.4404 25.5708 39.3049 25.563C38.8725 25.5135 38.4817 25.5786 38.1039 25.7636C37.5751 25.5083 37.0384 25.4666 36.4939 25.6437C35.9573 25.8287 35.5665 25.9251 35.332 25.9251C35.1731 25.9251 35.0923 25.8443 35.0741 25.7089V25.6932L34.4749 22.8588C34.4488 22.7936 34.4489 22.7363 34.4723 22.6946ZM41.8711 23.3303V23.3381C41.6705 24.4037 41.5272 25.1461 41.4386 25.5708C41.3526 25.9564 41.1989 26.157 40.9671 26.1882C40.743 26.2038 40.3991 26.1335 39.9406 25.9798L39.4039 25.8365C39.1069 25.774 38.6745 25.8443 38.0987 26.0449C37.5308 25.7636 36.9837 25.7245 36.4653 25.9329C35.9599 26.157 35.5274 26.2377 35.1679 26.1726C34.9985 26.1491 34.9048 26.0606 34.8631 25.9251C34.5348 24.4922 34.3342 23.6586 34.2795 23.4345C34.2535 23.3616 34.2535 23.3147 34.2873 23.2652C34.3108 23.2417 34.3525 23.2261 34.3994 23.2183L34.9282 25.7271C34.936 25.9511 35.0793 26.0632 35.3372 26.0632C35.603 26.0632 36.0015 25.9668 36.5382 25.7818C37.0593 25.6151 37.5725 25.6541 38.0675 25.9095L38.0909 25.9251L38.1222 25.9095C38.5156 25.7323 38.9063 25.6698 39.2815 25.7089C39.443 25.7271 39.6905 25.7896 40.0344 25.8938C40.4356 26.0215 40.717 26.0788 40.8759 26.0632C41.0113 26.0475 41.0999 25.9902 41.1572 25.9277C41.2224 25.8469 41.2693 25.6958 41.324 25.4614L41.7721 23.1401C41.8268 23.1636 41.8606 23.1896 41.8685 23.2183C41.8841 23.2496 41.8919 23.2912 41.8763 23.3225L41.8711 23.3303ZM38.0023 25.1539C38.0336 25.1852 38.0753 25.2113 38.1222 25.2034L38.242 25.1878C38.2655 25.1644 38.2655 25.0992 38.2655 24.995C38.2498 24.8361 38.2342 24.0103 38.2108 22.5123C38.1378 22.3586 38.0492 22.3742 37.9554 22.5618C37.9789 24.2004 37.9789 25.0419 37.9789 25.068L38.0023 25.1539ZM39.6592 26.6207C39.6436 26.6676 39.6045 26.8187 39.516 27.0688C39.357 26.7457 39.2685 26.5634 39.245 26.5321C39.2216 26.4904 39.1955 26.4904 39.1799 26.5243C39.1382 26.6024 39.1148 26.6598 39.1069 26.6988C39.1069 26.7066 39.1486 26.7874 39.219 26.9385L39.5003 27.7565C39.516 27.8034 39.5238 27.7644 39.555 27.6367L39.7947 26.8421C39.8025 26.6415 39.7895 26.5373 39.7556 26.5217C39.7244 26.5087 39.6931 26.5321 39.6592 26.6207ZM38.6432 26.6363C38.6276 26.6858 38.5781 26.8369 38.4921 27.0844C38.3306 26.764 38.2446 26.579 38.2212 26.5477C38.1977 26.5165 38.1743 26.5165 38.1482 26.5399C38.1092 26.6207 38.0935 26.678 38.0935 26.7171C38.0935 26.7249 38.1248 26.8056 38.1977 26.9567L38.4843 27.7826C38.5025 27.8373 38.5182 27.7982 38.5338 27.6628C38.5807 27.3163 38.6693 27.0531 38.7735 26.863C38.7813 26.6624 38.7735 26.5582 38.7422 26.5425C38.6979 26.5165 38.6667 26.5477 38.6432 26.6363ZM37.6194 26.7014L37.5464 26.6441C37.5386 26.6285 37.523 26.605 37.4995 26.579C37.4761 26.5712 37.4579 26.579 37.45 26.6129C37.4266 26.7014 37.3953 26.7483 37.3536 26.7483C37.2755 26.7666 37.2182 26.7327 37.1869 26.6519L37.1374 26.5972C37.114 26.5894 37.0905 26.5972 37.0749 26.6207C37.0176 26.7561 37.0176 26.8525 37.0671 26.9151C37.2286 27.2016 37.3406 27.4986 37.3953 27.8034C37.4031 27.8998 37.4266 27.8998 37.4683 27.8034C37.5074 27.6133 37.4917 27.3944 37.411 27.1547C37.3719 27.0349 37.411 26.9698 37.549 26.9698C37.7184 26.9698 37.7991 26.8421 37.7913 26.5764C37.7653 26.5529 37.7418 26.5529 37.7184 26.5946C37.6897 26.6598 37.6585 26.6936 37.6194 26.7014ZM36.5617 26.6598C36.4887 26.8135 36.4653 26.8994 36.4809 26.9411C36.6581 27.2042 36.7388 27.509 36.731 27.8555C36.731 27.9181 36.7544 27.9024 36.7857 27.8321C36.8977 27.5351 36.8352 27.1443 36.5929 26.6624C36.5851 26.6441 36.5695 26.6441 36.5617 26.6598ZM46.5943 10.8462C46.5943 10.9348 46.636 10.9765 46.7245 10.9843C46.7949 10.9765 46.8444 10.9348 46.8444 10.8462C46.8444 10.768 46.7975 10.7264 46.7245 10.7264C46.636 10.7264 46.5943 10.7654 46.5943 10.8462ZM46.7402 17.8933C46.6516 17.9011 46.6047 17.8542 46.6047 17.7422C46.5865 16.7261 46.5813 16.1556 46.5734 16.0436C46.5656 15.9889 46.5318 15.9394 46.4927 15.9159C46.4614 15.8977 46.4614 15.8847 46.4875 15.8664C46.5344 15.8247 46.5578 15.7362 46.5578 15.6033C46.5187 14.4257 46.5031 13.8239 46.5109 13.8005C46.5187 13.7692 46.5578 13.7588 46.6151 13.7771C46.6464 13.7927 46.6776 13.8083 46.7115 13.8422C46.7271 13.8422 46.7271 13.8344 46.7271 13.8187V13.738L46.6151 13.6416L46.5031 13.5608C46.4797 13.5374 46.464 13.4175 46.464 13.2248C46.4562 13.1284 46.4223 13.0971 46.3754 13.1049C46.3442 13.1127 46.1592 13.1205 45.8153 13.1284C45.7424 13.144 45.7684 13.2716 45.8622 13.5061C45.9091 13.6181 45.9977 13.7067 46.1358 13.7536C46.2139 13.7771 46.2478 13.8031 46.24 13.8422C46.2634 14.7879 46.2712 15.3089 46.2791 15.4131C46.2869 15.5564 46.2712 15.6372 46.2478 15.6606C46.1931 15.6372 46.154 15.6059 46.1045 15.572L45.9612 15.46C45.8961 15.4131 45.8492 15.4053 45.8336 15.4366L45.4271 15.8195C45.3464 15.8925 45.3386 15.9394 45.4089 15.9889C45.7059 16.2051 45.8648 16.3093 45.8883 16.3093C45.9117 16.3093 45.9847 16.2624 46.0967 16.1582C46.154 16.0879 46.2087 16.0618 46.2582 16.0696C46.3129 16.0931 46.3468 16.661 46.3468 17.7578C46.3468 17.8698 46.3077 17.9193 46.2426 17.8854L45.6746 17.9089C45.6278 17.9089 45.5965 17.9271 45.5783 17.9506C45.5783 17.9662 45.5783 17.9897 45.5939 18.0235C45.7059 18.1043 45.7606 18.1512 45.771 18.159C45.7867 18.1824 45.7945 18.2085 45.8023 18.2319C45.8023 18.2476 45.8179 18.2554 45.8336 18.2632C45.8492 18.271 45.8726 18.2554 45.9065 18.2319C45.9247 18.2241 45.93 18.2241 45.93 18.2476C45.9221 18.2632 45.969 18.3361 46.0576 18.4482L46.2269 18.7295C46.2426 18.753 46.2582 18.7608 46.2738 18.7686C46.2999 18.7764 46.2999 18.7842 46.2999 18.7921V18.9197L46.5239 19.0891C46.5865 19.1359 46.636 19.1281 46.6516 19.0578L46.636 18.3596C46.5865 18.2476 46.636 18.159 46.7792 18.0939C46.8756 18.047 46.9382 17.9975 46.9694 17.9428C46.9877 17.9089 46.9877 17.8854 46.9694 17.8542C46.8991 17.8672 46.8261 17.8828 46.7402 17.8933ZM46.2426 13.4644C46.2426 13.5139 46.2113 13.5296 46.1488 13.5191C46.1019 13.5191 46.068 13.4722 46.0524 13.3837C46.1227 13.3732 46.1957 13.3732 46.2426 13.3915V13.4644ZM45.9378 15.955C45.9065 15.9784 45.857 15.9863 45.8101 15.9863C45.745 15.9784 45.7137 15.9368 45.7137 15.8664C45.7137 15.8352 45.745 15.7961 45.8101 15.7544C45.8336 15.7388 45.8805 15.7466 45.9378 15.7883C46.0029 15.8273 46.0029 15.8925 45.9378 15.955ZM46.3546 18.284L46.3468 18.469L46.3051 18.4612L46.2895 18.4299C46.2556 18.4143 46.24 18.3987 46.24 18.3726C46.24 18.357 46.2087 18.3179 46.1462 18.245L46.1306 18.1877C46.1801 18.1798 46.2348 18.1798 46.2921 18.1877C46.3624 18.1955 46.378 18.2215 46.3546 18.284ZM45.3777 17.6848C45.2995 17.6848 45.2578 17.7239 45.2578 17.8125C45.2578 17.8933 45.2995 17.9323 45.3777 17.9428C45.4558 17.9323 45.4975 17.8933 45.5053 17.8125C45.4975 17.7239 45.4558 17.6848 45.3777 17.6848ZM45.4011 18.1017C45.3125 18.1017 45.2734 18.1408 45.2734 18.2293C45.2734 18.3179 45.3151 18.357 45.4011 18.357C45.474 18.357 45.5209 18.3179 45.5209 18.2293C45.5209 18.1408 45.474 18.1017 45.4011 18.1017ZM45.362 19.8393C45.3542 19.8237 45.3308 19.8237 45.2917 19.8393C45.2187 19.9514 45.164 20.0478 45.1223 20.1025C45.0833 20.1572 45.0911 20.1754 45.1536 20.165C46.0107 20.1494 46.4588 20.1415 46.5083 20.1415L46.5865 20.1181C46.6099 20.1025 46.6281 20.053 46.6281 19.9904C46.6203 19.8784 46.5786 19.8315 46.5083 19.855L45.4975 19.8941C45.3933 19.8941 45.3542 19.868 45.362 19.8393ZM46.6594 21.8401C46.7141 21.7776 46.748 21.689 46.7558 21.577C46.7558 21.4963 46.7245 21.4155 46.6594 21.3373C46.636 21.3061 46.6281 21.2722 46.6281 21.2488L46.6438 20.4385C46.636 20.3838 46.6125 20.35 46.5708 20.3448C45.7294 20.376 45.2813 20.3838 45.2083 20.3995C45.1432 20.4073 45.1197 20.4151 45.1354 20.4464C45.2396 20.5662 45.3021 20.6391 45.336 20.6704C45.3672 20.7017 45.3777 20.7173 45.3855 20.6939C45.4324 20.6548 45.474 20.6209 45.4975 20.6131L46.339 20.5975C46.3859 20.6131 46.4041 20.6209 46.3859 20.6704V21.1498C46.3859 21.1888 46.3624 21.2227 46.2895 21.2618C46.2165 21.3165 46.1853 21.3582 46.1853 21.3894L46.1306 21.478L46.0837 21.59C46.0758 21.6135 46.0993 21.6526 46.1488 21.7255L46.1879 21.7828L46.2608 21.8453C46.3181 21.8766 46.3416 21.9183 46.3338 21.9652C46.3181 22.1345 46.3025 22.2622 46.2947 22.3508C46.2869 22.4472 46.2452 22.4706 46.1905 22.4472C45.5574 22.3586 45.1979 22.3091 45.1171 22.3039C45.039 22.3039 44.9973 22.3299 45.0155 22.3768C45.0807 22.5461 45.1354 22.6425 45.1666 22.6738C45.1744 22.6894 45.1901 22.6972 45.2135 22.6894C45.2396 22.6816 45.2396 22.666 45.2396 22.6582C45.2396 22.6347 45.2708 22.6165 45.3255 22.6009L46.1358 22.6972C46.3364 22.7389 46.4328 22.8171 46.4249 22.9213C46.4171 23.0568 46.3285 23.1063 46.1696 23.0646L45.0728 22.9526C44.9999 22.9526 44.9764 22.9682 44.9921 22.9916L45.0728 23.1037C45.138 23.2391 45.1771 23.3121 45.1927 23.3199C45.2083 23.3277 45.2422 23.3043 45.2969 23.2469L46.0237 23.3199C46.0811 23.3277 46.1045 23.3694 46.0967 23.458L45.8492 24.1223C45.771 24.3229 45.6877 24.5313 45.6017 24.7397C45.5704 24.7397 45.547 24.7397 45.5131 24.7319L45.375 24.7085C45.3594 24.7085 45.4063 24.7554 45.5183 24.8778L45.646 25.0706C45.6929 25.1409 45.7163 25.167 45.7163 25.1487C45.8284 25.0211 45.956 24.7163 46.1253 24.2447L46.3494 23.484C46.365 23.4189 46.4145 23.372 46.4849 23.3329C46.5813 23.2678 46.6516 23.1558 46.6829 22.9968C46.7063 22.8848 46.6829 22.765 46.6047 22.6451C46.5474 22.5748 46.5239 22.5097 46.5396 22.468L46.5943 22.0043C46.6047 21.9209 46.6281 21.8636 46.6594 21.8401ZM46.4197 21.663C46.3963 21.6552 46.3885 21.6239 46.3885 21.5588C46.3885 21.5353 46.4041 21.5119 46.4354 21.4884C46.5161 21.5119 46.5474 21.5588 46.5239 21.6083C46.5083 21.6395 46.4744 21.6552 46.4197 21.663ZM45.474 24.0103C45.4897 23.8592 45.4819 23.7784 45.4506 23.7862C45.3881 23.7706 45.3542 23.794 45.3464 23.8435C45.3282 23.9243 45.3229 23.9634 45.3047 23.9556C45.2813 23.9477 45.2734 23.9321 45.2734 23.9008C45.2813 23.8826 45.2656 23.867 45.2344 23.8435C45.2005 23.8514 45.1849 23.867 45.1771 23.8826C45.1614 23.9243 45.1692 23.9712 45.1953 24.0103L45.2682 24.091L45.3073 24.1327C45.3229 24.1796 45.349 24.2031 45.3803 24.2031C45.4245 24.2004 45.4506 24.1379 45.474 24.0103ZM39.3492 29.8615C39.2346 29.8798 39.1643 29.9579 39.1643 30.096C39.1564 30.1846 39.1877 30.2237 39.2606 30.1924C39.3649 30.1351 39.4456 30.1273 39.5029 30.1663C39.5264 30.182 39.5186 30.2445 39.4612 30.3409C39.2997 30.6118 39.2294 30.8541 39.2606 31.0782C39.2789 31.1199 39.3649 31.0287 39.5576 30.8203L39.5655 30.8046C39.6071 30.4217 39.7087 30.1403 39.8859 29.9631C39.9172 29.9241 39.9015 29.8824 39.8286 29.8511L39.3492 29.8615ZM41.4151 29.4317C41.2797 29.3666 41.1338 29.3822 40.9827 29.4708C40.7039 29.6088 40.545 29.6792 40.5033 29.713C40.4564 29.7521 40.4304 29.7365 40.4304 29.6427C40.4304 29.5619 40.3991 29.5307 40.3262 29.5437L40.1907 29.5593C40.149 29.5593 40.1256 29.575 40.1412 29.6062C40.1673 29.6297 40.1725 29.6531 40.1725 29.6948L40.2454 29.8798C40.3027 29.9918 40.3418 30.0387 40.3653 30.0387C40.4148 30.0387 40.6544 29.9267 41.0869 29.7026C41.1911 29.6297 41.2614 29.6245 41.3031 29.6948L41.3683 29.8381C41.3683 29.8694 41.3448 29.911 41.2979 29.9423C41.2093 29.9996 40.9462 30.1351 40.5059 30.3435C40.4877 30.4633 40.5216 30.5363 40.5789 30.5832C40.6258 30.5754 40.6596 30.5597 40.6987 30.5441L41.3474 30.2315C41.5949 30.0882 41.7226 30.0074 41.7147 29.9684L41.6105 29.6948C41.5272 29.5359 41.462 29.4473 41.4151 29.4317ZM38.9142 30.3044C38.8673 30.2627 38.8126 30.2575 38.7318 30.2732C38.6771 30.2732 38.651 30.2575 38.651 30.2315C38.651 30.2002 38.6823 30.169 38.7474 30.1507C38.8751 30.1507 38.9402 30.1351 38.9637 30.1195L39.0366 30.0022C39.0366 29.984 39.0132 29.9527 38.9637 29.9215C38.8516 29.9136 38.7552 29.9136 38.6667 29.9215C38.5885 29.9293 38.539 29.9866 38.5312 30.0882L38.4999 30.3539C38.5077 30.4034 38.5312 30.4243 38.5651 30.4425L38.6667 30.4659C38.7474 30.4972 38.7969 30.5623 38.8204 30.6665C38.8438 30.7473 38.836 30.8255 38.8126 30.9062L38.7552 30.9531C38.724 30.9688 38.6979 30.9609 38.6745 30.9297C38.6328 30.8828 38.6041 30.8515 38.5703 30.8515C38.4895 30.8515 38.4582 30.8828 38.4504 30.9792C38.4426 31.0677 38.5312 31.1251 38.6979 31.172C38.8021 31.1641 38.8829 31.1251 38.9402 31.0521L38.9871 30.9401C39.0106 30.9166 39.0288 30.901 39.0366 30.8828C39.06 30.8098 39.0757 30.7395 39.0757 30.6665C39.0835 30.5233 39.06 30.4321 38.9975 30.4034L38.9142 30.3044ZM38.1795 29.984C38.0675 29.8641 37.9711 29.8225 37.8903 29.8798C37.7887 29.9605 37.7236 30.0231 37.7053 30.0804C37.6402 30.195 37.6168 30.2966 37.6168 30.3774C37.6168 30.4321 37.648 30.5233 37.7132 30.6405C37.7548 30.6561 37.7679 30.6639 37.7679 30.6718C37.7679 30.7291 37.7601 30.7525 37.7366 30.7603C37.6819 30.7682 37.6663 30.815 37.6663 30.9062C37.6741 30.9531 37.6975 31.0026 37.7548 31.0495C37.8096 31.1068 37.8564 31.1303 37.9216 31.1225C38.0753 31.1225 38.1951 31.0104 38.2655 30.7838C38.3462 30.5702 38.3697 30.3852 38.3384 30.2471C38.3306 30.169 38.2759 30.0804 38.1795 29.984ZM38.0909 30.776C38.0675 30.8567 38.0258 30.9036 37.9554 30.9036C37.8903 30.9036 37.8669 30.8489 37.8747 30.7291C37.9398 30.7213 37.9711 30.7134 37.9789 30.69C38.0049 30.6744 38.0284 30.6665 38.0675 30.6665C38.0987 30.6639 38.1065 30.6952 38.0909 30.776ZM38.0284 30.5024C37.9554 30.5102 37.9086 30.479 37.8929 30.4008L37.8382 30.2575C37.8382 30.2341 37.8538 30.1872 37.9033 30.1064V30.0986C38.0154 30.1142 38.0805 30.2028 38.1039 30.3774C38.1144 30.4477 38.0909 30.5024 38.0284 30.5024ZM44.6013 25.6672C44.5831 25.6437 44.5362 25.6437 44.4893 25.6672C44.5075 25.7323 44.5127 25.787 44.5127 25.8521C44.5127 25.9876 44.5205 26.0527 44.5362 26.0449C44.656 26.0449 44.7264 26.0527 44.7524 26.0684C44.8957 26.1648 44.9608 26.2221 44.9452 26.2533C44.9217 26.3419 44.8879 26.381 44.8644 26.3732C44.8175 26.3654 44.729 26.3107 44.6091 26.2143C44.458 26.1179 44.3851 26.0944 44.3955 26.1413L44.4424 26.4305C44.4424 26.493 44.458 26.5269 44.4893 26.5269C44.6091 26.5269 44.6743 26.5347 44.6899 26.566C44.7211 26.6363 44.7055 26.7014 44.643 26.7666C44.6352 26.7822 44.6091 26.7744 44.5388 26.7353L44.2496 26.5503C44.2183 26.5269 44.2001 26.5503 44.2001 26.6155L44.2079 26.9333C44.2079 26.9672 44.2392 26.9672 44.2965 26.9333C44.3278 26.9177 44.3668 26.9255 44.432 26.975C44.4632 26.9828 44.4476 27.0297 44.3929 27.1105C44.3434 27.1912 44.1272 27.4648 43.765 27.9285C43.7025 27.9832 43.6686 27.9754 43.6608 27.905L43.6061 27.5455C43.6217 27.4986 43.5957 27.4674 43.5019 27.4569C43.429 27.4491 43.2362 27.4231 42.9574 27.3996C42.8949 27.3996 42.861 27.4153 42.8688 27.4569L42.9574 28.1213C42.9574 28.1447 42.9991 28.1447 43.0721 28.1603L43.3664 28.1838C43.4706 28.1994 43.4863 28.2411 43.4316 28.2958C42.9835 28.7439 42.663 29.0227 42.4624 29.1529C42.4208 29.192 42.3817 29.192 42.3426 29.1529L42.1264 28.9132C42.069 28.8585 42.0378 28.8403 42.03 28.882L41.8841 29.0826C41.7981 29.2102 41.7668 29.3223 41.7825 29.4265C41.7903 29.5385 41.8216 29.6349 41.8711 29.7157C41.9206 29.7886 41.9596 29.8277 41.9909 29.8199L42.2384 29.6766L42.327 29.6453C42.3504 29.6453 42.3765 29.6688 42.3817 29.7157C42.4129 29.8433 42.3895 29.9397 42.3113 30.0126L42.2149 30.0361C42.1993 30.0283 42.1993 30.0361 42.2149 30.0517C42.2697 30.1168 42.3348 30.1168 42.4234 30.0517C42.4963 30.0126 42.551 29.9319 42.5927 29.8199C42.6161 29.7547 42.6161 29.7391 42.5927 29.7782C42.624 29.713 42.6161 29.6583 42.5693 29.5932C42.5041 29.5229 42.5276 29.4421 42.6396 29.3613L43.1945 28.9289C43.4811 28.6814 43.6504 28.5199 43.6999 28.4235C43.7468 28.3427 43.7702 28.288 43.7624 28.2541C43.7546 28.2385 43.7546 28.2255 43.7624 28.2255L43.8354 28.2411C43.8666 28.2333 43.8927 28.1994 43.9396 28.1603L44.5648 27.3423C44.94 26.8213 45.1718 26.4539 45.2526 26.2533C45.3177 26.1804 45.3073 26.1257 45.2213 26.0684L44.6013 25.6672ZM43.2153 27.8842C43.1502 27.8764 43.1268 27.8113 43.1502 27.6758C43.3508 27.6445 43.4159 27.707 43.3508 27.8842C43.3274 27.9024 43.2883 27.9024 43.2153 27.8842ZM42.1446 29.3666C42.0977 29.4395 42.0404 29.4629 41.9753 29.4551C41.9674 29.3744 41.9935 29.2936 42.056 29.2076C42.1446 29.2702 42.1759 29.3275 42.1446 29.3666ZM29.2749 10.8931C29.2593 11.0937 29.228 11.2135 29.1863 11.2526C29.1447 11.2839 29.1369 11.3256 29.1707 11.349L29.426 11.5965C29.426 11.6226 29.3609 11.6773 29.2411 11.7658C29.1603 11.8153 29.1603 11.8779 29.2332 11.9586C29.314 12.0628 29.3713 12.1123 29.3948 12.1201C29.4026 12.0889 29.4026 12.0654 29.4026 12.0316C29.4026 11.9743 29.4026 11.9352 29.426 11.9274L29.7308 11.7502C29.8585 11.6616 29.9314 11.5965 29.9471 11.5652C29.9783 11.4949 30.0174 11.4949 30.0669 11.5652C30.1711 11.7763 30.2675 11.8857 30.3378 11.8935C30.4264 11.9013 30.5306 11.8127 30.6583 11.6382C30.6739 11.5965 30.6505 11.5262 30.5619 11.422C30.4499 11.2787 30.4342 11.2292 30.5072 11.2552C30.627 11.2552 30.7469 11.2943 30.8433 11.3751C30.8901 11.3829 30.924 11.3829 30.9396 11.3751C30.9631 11.3177 30.9396 11.2787 30.8849 11.2552C30.6843 11.1745 30.4916 11.1354 30.3014 11.1354L29.7413 11.1198C29.5485 11.039 29.4286 10.8879 29.3817 10.6717C29.3739 10.63 29.3817 10.6222 29.413 10.6534C29.4625 10.7186 29.5094 10.7837 29.5563 10.8384C29.6605 10.9426 29.7413 10.9921 29.8142 10.9973L30.5593 11.0129L30.9032 11.151C30.9501 11.1588 30.9657 11.1328 30.9501 11.0937C30.911 10.9973 30.9032 10.8931 30.9344 10.7733C30.9735 10.6274 30.9735 10.518 30.9344 10.4372C30.8615 10.2939 30.7573 10.2131 30.6218 10.1871C30.5827 10.1793 30.5723 10.1949 30.6062 10.2444C30.7026 10.3095 30.7495 10.3642 30.7495 10.4216V10.7967C30.7495 10.8775 30.7338 10.9087 30.7 10.8775C30.5801 10.7733 30.4603 10.7238 30.3405 10.7394C30.3248 10.7316 30.317 10.7159 30.3248 10.6743C30.3483 10.5153 30.317 10.4033 30.205 10.3538C30.1972 10.3382 30.1894 10.3616 30.1894 10.4033L30.1737 10.5961C30.1503 10.6743 30.119 10.7316 30.0695 10.7394C29.9809 10.7472 29.9262 10.7472 29.9106 10.7394C29.934 10.6352 29.934 10.5544 29.9106 10.5075C29.895 10.4346 29.8533 10.3955 29.7986 10.4033V10.4997C29.7908 10.5622 29.7673 10.6196 29.7178 10.6508C29.6709 10.6691 29.6214 10.6612 29.5745 10.6352L29.3817 10.5153L29.2853 10.3955C29.2358 10.3382 29.2046 10.3147 29.189 10.3147C29.1395 10.3147 29.1395 10.3226 29.1655 10.3538C29.2437 10.6065 29.2827 10.7811 29.2749 10.8931ZM30.0278 11.2292C30.1633 11.2214 30.2441 11.2214 30.2831 11.2292L30.3561 11.2995L30.4368 11.4115C30.4759 11.4688 30.4525 11.5157 30.3717 11.5705C30.317 11.6278 30.2675 11.6512 30.2519 11.6512C30.2284 11.6356 30.205 11.6278 30.1946 11.6121C30.1789 11.5939 30.1633 11.5705 30.1555 11.5418C30.1477 11.5236 30.1164 11.4767 30.0435 11.3881C30.02 11.3334 30.0018 11.2995 30.0018 11.2995L29.9705 11.2787C29.9158 11.263 29.9314 11.2474 30.0278 11.2292ZM29.426 11.2709L29.4495 11.0937C29.4729 11.0859 29.5068 11.1015 29.5459 11.1328C29.5849 11.1823 29.6423 11.2057 29.7282 11.2057C29.7934 11.2057 29.8246 11.2292 29.8324 11.2709C29.8324 11.2865 29.8168 11.3177 29.7777 11.3594C29.7126 11.4402 29.6657 11.4949 29.624 11.521C29.5771 11.5678 29.512 11.56 29.4469 11.4975C29.4026 11.461 29.4026 11.3881 29.426 11.2709ZM30.4603 13.1674C30.4603 13.1518 30.4368 13.1023 30.3952 13.032L30.3405 12.9356C30.3092 12.9356 30.2857 12.9356 30.2857 12.9434C30.2857 12.9903 30.2701 13.0215 30.2441 13.032L30.1972 13.0554H29.4938C29.4625 13.0554 29.4364 13.0476 29.413 13.0137C29.3896 12.9825 29.3557 12.9825 29.3088 13.0059C29.2358 13.1023 29.2124 13.157 29.2124 13.1726L29.2853 13.3342C29.3088 13.3654 29.3322 13.3732 29.3739 13.3811C29.3896 13.3706 29.4052 13.3628 29.4286 13.3472C29.4521 13.3316 29.4703 13.3159 29.4781 13.3159C29.5016 13.3081 29.6553 13.3081 29.9497 13.3081C30.0304 13.3003 30.0773 13.3003 30.0851 13.3159C30.1008 13.3237 30.1503 13.3628 30.205 13.4123C30.2206 13.4384 30.2206 13.4514 30.205 13.4618C30.2206 13.4853 30.2284 13.4931 30.2362 13.5035C30.2597 13.5504 30.2441 13.5817 30.205 13.5817C30.1633 13.5921 30.1477 13.5921 30.1477 13.5817L29.4677 13.5921C29.387 13.5817 29.3322 13.6077 29.2984 13.6468L29.1863 13.751C29.1863 13.7692 29.1942 13.7849 29.2176 13.8083C29.2332 13.8239 29.2801 13.8734 29.3375 13.9438C29.3531 13.9933 29.3765 14.0167 29.3843 14.0167C29.4 14.0011 29.4078 13.9855 29.4078 13.9698C29.4078 13.9464 29.4156 13.9229 29.4234 13.8917C29.4781 13.8734 29.512 13.8578 29.5198 13.8578H30.1268C30.1841 13.8656 30.2258 13.8734 30.2467 13.8917C30.2779 13.8995 30.3118 13.9151 30.3509 13.9464C30.3743 13.9542 30.3821 13.9542 30.3821 13.9464L30.3352 13.85C30.3352 13.8318 30.3431 13.8083 30.3743 13.7771L30.4551 13.6572C30.4551 13.6025 30.4395 13.5686 30.4134 13.553L30.3092 13.4097L30.2753 13.3211C30.2753 13.2977 30.2988 13.2977 30.3561 13.2977C30.4186 13.2795 30.4525 13.2404 30.4603 13.1674ZM30.4368 12.4406C30.4108 12.4223 30.3873 12.3859 30.3405 12.3364C30.317 12.3129 30.3014 12.3129 30.2857 12.3286C30.2545 12.3598 30.2206 12.3781 30.205 12.3859C30.1737 12.3937 29.9419 12.3937 29.499 12.3859C29.4677 12.3781 29.4521 12.3624 29.4417 12.3442C29.4104 12.3129 29.3713 12.3129 29.3218 12.352C29.2411 12.4484 29.2098 12.5057 29.2098 12.5213L29.228 12.6099C29.2358 12.6256 29.2671 12.6829 29.3401 12.7793H29.3713C29.3531 12.6829 29.3791 12.636 29.4521 12.6438H30.1972C30.2441 12.6777 30.2857 12.6985 30.3014 12.6985C30.3639 12.6438 30.4134 12.6021 30.4368 12.5787L30.4759 12.5135C30.4759 12.4797 30.4603 12.4562 30.4368 12.4406ZM30.7885 12.4562C30.7547 12.5109 30.7495 12.5448 30.7651 12.5526L30.8276 12.623C30.838 12.6412 30.8589 12.649 30.9006 12.649C30.9396 12.649 30.9709 12.623 30.9891 12.5682C31.0048 12.5266 30.997 12.4797 30.9579 12.4406L30.8459 12.3859C30.8198 12.3911 30.8042 12.4145 30.7885 12.4562ZM29.1707 16.9788C29.1473 17.0518 29.1473 17.0987 29.1707 17.1299C29.1942 17.1638 29.228 17.2107 29.2593 17.2836C29.3322 17.4269 29.4365 17.565 29.5954 17.6692C29.7152 17.7317 29.796 17.763 29.8611 17.7734C29.9575 17.7734 30.0304 17.7422 30.1008 17.6927C30.2206 17.6197 30.2857 17.5259 30.317 17.3879C30.3248 17.3331 30.3248 17.2133 30.3405 17.0518C30.3795 17.0596 30.429 17.0674 30.4759 17.0909L30.6374 17.1951C30.6765 17.2263 30.7338 17.2498 30.7964 17.2836C30.8537 17.2602 30.8615 17.2341 30.8276 17.1873C30.7807 17.1534 30.7547 17.1221 30.7651 17.1065L30.8459 16.7704C30.8771 16.7053 30.8928 16.6428 30.9006 16.5855C30.8589 16.5125 30.7885 16.4344 30.6765 16.3301C30.5723 16.2338 30.4603 16.1764 30.3639 16.1608C30.317 16.1608 30.2675 16.1269 30.2284 16.08C30.1711 15.9837 30.106 15.9368 30.0278 15.9368C29.9314 15.9368 29.8507 15.9784 29.796 16.0566C29.7152 16.1764 29.6839 16.3119 29.7152 16.463C29.7152 16.5099 29.6918 16.5281 29.6344 16.5099C29.5797 16.4891 29.5537 16.4604 29.5537 16.4031C29.5537 16.3484 29.5459 16.2911 29.5459 16.2364L29.4964 16.0123C29.4651 15.942 29.4 15.9003 29.3036 15.9003C29.1525 15.942 29.0717 16.054 29.0561 16.2364C29.0483 16.3406 29.1134 16.5099 29.2332 16.7574C29.2437 16.7626 29.2202 16.8434 29.1707 16.9788ZM30.4108 16.3328C30.5072 16.3328 30.5697 16.3562 30.6192 16.3953C30.6739 16.4526 30.7 16.5151 30.7 16.5855C30.7 16.6193 30.7 16.6558 30.7078 16.6975L30.6453 16.7939L30.5958 16.9476C30.5801 16.971 30.5306 16.9893 30.4759 16.9788C30.429 16.9632 30.3952 16.9476 30.3795 16.9241L30.3248 16.8512C30.317 16.8277 30.317 16.6818 30.317 16.4187C30.3483 16.364 30.3873 16.3328 30.4108 16.3328ZM29.9314 16.252C29.9471 16.179 29.9861 16.1322 30.0591 16.1087H30.1294C30.1607 16.1269 30.1711 16.14 30.1607 16.166C30.1607 16.1816 30.1529 16.2051 30.1372 16.2311C30.1138 16.2546 30.0982 16.278 30.0825 16.3015L30.0747 16.4891L30.0982 16.6662C30.0982 16.7053 30.0747 16.7313 30.033 16.7313C30.0018 16.7313 29.9679 16.7053 29.9288 16.635C29.908 16.5855 29.908 16.4656 29.9314 16.252ZM29.4912 16.6688C29.499 16.6376 29.5381 16.6141 29.5954 16.6141C29.6214 16.6141 29.6605 16.6376 29.6918 16.7001C29.7308 16.7652 29.7491 16.8303 29.7491 16.8929L29.7647 17.07C29.7647 17.1247 29.7413 17.1664 29.6918 17.1977C29.6032 17.2524 29.5328 17.2055 29.4755 17.0544C29.4521 16.9997 29.4521 16.9267 29.4677 16.8303C29.4755 16.7313 29.4833 16.6818 29.4912 16.6688ZM29.4755 17.1951L29.5537 17.3305C29.6579 17.4426 29.7699 17.4504 29.8924 17.3722C29.9471 17.3305 29.9705 17.2576 29.9705 17.1299L29.9627 16.9215C29.9627 16.8642 29.9861 16.8486 30.0435 16.8642C30.0982 16.8877 30.1242 16.9945 30.1294 17.1612C30.1372 17.3279 30.0669 17.4478 29.9288 17.5207C29.809 17.5702 29.6892 17.5624 29.5354 17.4973C29.3922 17.4269 29.327 17.3201 29.3348 17.1873C29.3348 17.1378 29.3583 17.1143 29.4052 17.1221C29.4338 17.1299 29.4599 17.156 29.4755 17.1951ZM29.1316 16.2676C29.1316 16.1165 29.1629 16.0358 29.2358 16.0279C29.3166 16.0123 29.3557 16.0931 29.3557 16.2676L29.3166 16.5568C29.3088 16.5802 29.2932 16.6037 29.2593 16.6271C29.1707 16.476 29.1316 16.3562 29.1316 16.2676ZM29.314 15.0979C29.3713 15.0432 29.4495 15.0093 29.5537 15.0093L30.0982 15.0015C30.1529 15.0249 30.1711 15.051 30.1633 15.0797C30.132 15.1682 30.1399 15.2073 30.1946 15.2177H30.317C30.3483 15.2177 30.3639 15.1943 30.3639 15.163L30.317 14.978L30.4108 14.8113C30.4368 14.7149 30.4499 14.642 30.4368 14.5768L30.3561 14.3528C30.3483 14.3137 30.3248 14.2668 30.3092 14.2095C30.2857 14.1939 30.0044 14.1861 29.4521 14.1861C29.4104 14.2017 29.3817 14.2356 29.3322 14.3059L29.2202 14.4518C29.2098 14.4518 29.1707 14.4284 29.116 14.3867L28.9467 14.2486C28.8998 14.2017 28.8659 14.1835 28.8503 14.2069C28.8659 14.2486 28.8737 14.2799 28.8737 14.3033V14.6863L28.8503 14.7748V14.9025C28.8998 15.0953 28.9779 15.1891 29.09 15.1891C29.1864 15.1917 29.2593 15.163 29.314 15.0979ZM29.4833 14.4805C29.5068 14.4648 29.5485 14.4492 29.5954 14.4492H30.2519L30.2675 14.5534C30.2519 14.5534 30.2441 14.5612 30.2362 14.5768C30.205 14.7045 30.1894 14.7618 30.1711 14.7384C29.7387 14.7618 29.5224 14.7618 29.5146 14.7462C29.5146 14.7306 29.4833 14.6889 29.4417 14.6498C29.4104 14.6185 29.4026 14.5951 29.4104 14.5768C29.4338 14.5378 29.4599 14.4961 29.4833 14.4805ZM29.0509 14.8973L29.0743 14.5925C29.0743 14.543 29.09 14.5195 29.1082 14.5195L29.189 14.569L29.3322 14.7123C29.3557 14.7201 29.3557 14.7462 29.3166 14.7853L29.1655 14.8895L29.116 14.9468C29.1004 14.9624 29.0847 14.978 29.0535 14.9937C29.0248 15.0015 29.0248 14.978 29.0509 14.8973ZM29.2906 18.8207C29.3218 18.8363 29.3401 18.8363 29.3401 18.8207C29.3401 18.7478 29.3791 18.7165 29.4599 18.7243L29.7647 18.7087C29.7803 18.7009 29.908 18.7009 30.1555 18.7009C30.2206 18.7243 30.2519 18.7321 30.2675 18.7321C30.3405 18.7556 30.3795 18.7556 30.3717 18.7321C30.3717 18.6774 30.3639 18.6514 30.3405 18.6357C30.317 18.6279 30.3248 18.5967 30.3717 18.5394C30.3952 18.4273 30.4108 18.3414 30.4108 18.284C30.4108 18.2762 30.3952 18.2189 30.3717 18.0913C30.3561 18.0053 30.3248 17.9558 30.2988 17.9558L30.0669 18.0444C30.0278 18.073 29.9783 18.0991 29.9314 18.0991L29.7491 17.9871C29.637 17.9167 29.5485 17.8828 29.4912 17.8828C29.3401 17.8828 29.2332 17.948 29.1551 18.073C29.1395 18.0991 29.1395 18.1382 29.1629 18.172C29.2593 18.2762 29.3062 18.3414 29.3244 18.3726C29.3322 18.4143 29.3322 18.4456 29.3166 18.4612C29.2853 18.4925 29.2306 18.5315 29.1577 18.581C29.1421 18.6279 29.1421 18.6592 29.1499 18.6696C29.2124 18.7243 29.2463 18.7478 29.2463 18.766C29.2437 18.7816 29.2593 18.7973 29.2906 18.8207ZM29.9158 18.2762C29.9314 18.258 29.9471 18.245 29.9549 18.245L30.0018 18.2137C30.0174 18.1903 30.0487 18.1746 30.0721 18.1746L30.1529 18.1277C30.1685 18.1121 30.192 18.1043 30.2024 18.0939C30.2258 18.1277 30.218 18.2059 30.1867 18.3518C30.1633 18.4091 30.1477 18.4247 30.1242 18.4169H29.908C29.8845 18.4169 29.8663 18.4013 29.8845 18.3596L29.9158 18.2762ZM29.5797 18.1251H29.7882C29.8377 18.1329 29.8611 18.172 29.8533 18.245C29.8142 18.2606 29.7882 18.284 29.7882 18.2997C29.7882 18.3153 29.7647 18.3622 29.7256 18.4351C29.598 18.4351 29.5328 18.4351 29.5172 18.4273C29.4938 18.4117 29.4781 18.3961 29.4703 18.3961C29.4703 18.3804 29.4547 18.3622 29.413 18.3309C29.3817 18.2919 29.3817 18.2502 29.3974 18.2111C29.4104 18.172 29.4755 18.1486 29.5797 18.1251ZM29.3244 19.8133C29.2593 19.8211 29.228 19.8784 29.2124 19.9748L29.2775 20.1207C29.2853 20.1442 29.3088 20.1676 29.3557 20.191C29.3974 20.1442 29.4286 20.1025 29.4443 20.0868C29.4599 20.0608 29.4755 20.0556 29.4938 20.0556H30.1972C30.2441 20.079 30.2701 20.0973 30.2857 20.1025C30.3014 20.1103 30.3274 20.0947 30.3665 20.0712L30.4551 19.9514C30.4629 19.9357 30.4629 19.9097 30.4629 19.8941L30.3431 19.7351C30.3274 19.7195 30.3196 19.7091 30.304 19.7091L30.2076 19.782L29.637 19.7872L29.5537 19.7742C29.5459 19.7586 29.5459 19.7351 29.5381 19.7013C29.4755 19.6544 29.4495 19.6127 29.4495 19.5814C29.4495 19.5528 29.4573 19.5189 29.4886 19.4955H30.2024L30.3066 19.5528C30.3066 19.545 30.3457 19.4955 30.4342 19.3991L30.4733 19.3339L30.4342 19.3105L30.3847 19.2297L30.3222 19.175C30.3144 19.175 30.3144 19.1568 30.3144 19.1412C30.3144 19.1333 30.3066 19.1333 30.2805 19.1177C30.2649 19.1177 30.2649 19.1333 30.2649 19.1568L30.2336 19.175C30.218 19.1828 30.2024 19.2037 30.2024 19.2297H29.4651C29.4417 19.2297 29.4234 19.2219 29.4 19.1985C29.3922 19.175 29.3687 19.1828 29.3375 19.2141C29.3218 19.2558 29.3036 19.2792 29.2958 19.2949L29.2411 19.3678L29.1994 19.4564C29.1994 19.5189 29.2254 19.5606 29.2801 19.5814L29.4234 19.7351C29.4469 19.7586 29.4469 19.782 29.4234 19.7898C29.4182 19.782 29.3791 19.7898 29.3244 19.8133ZM29.4417 21.2774L30.3795 21.2618C30.4186 21.2696 30.4368 21.2618 30.4368 21.254C30.4603 21.2462 30.4603 21.2383 30.4525 21.2227L30.4368 21.1888C30.429 21.181 30.4212 21.1732 30.4212 21.1576C30.4212 21.1237 30.5098 20.9726 30.7026 20.7173C30.838 20.5167 30.9032 20.4073 30.8954 20.3812C30.8954 20.3734 30.8875 20.3578 30.8719 20.35H30.6479C30.5827 20.4385 30.5593 20.4933 30.5593 20.4933L30.4863 20.5896C30.4629 20.6548 30.4395 20.6782 30.4134 20.6704C30.3978 20.6548 30.3743 20.6209 30.3405 20.574L30.2857 20.4464L29.3557 20.4542C29.3479 20.574 29.3322 20.647 29.3244 20.6808L29.2202 20.9023L29.2437 20.983C29.2827 21.0325 29.3062 21.0716 29.314 21.0951C29.314 21.1263 29.3375 21.168 29.387 21.2253L29.4417 21.2774ZM29.4677 20.8945L29.5068 20.8137C29.5068 20.7902 29.5146 20.7746 29.5459 20.7486L30.2415 20.7173C30.2649 20.7329 30.2727 20.7407 30.2831 20.7486L30.3378 20.8137C30.3144 20.8606 30.2831 20.9023 30.2649 20.9335C30.2415 20.9804 30.1998 20.9961 30.1451 21.0039L29.4651 21.0117C29.4495 21.0039 29.4495 20.9882 29.4573 20.9726C29.4599 20.9361 29.4599 20.9023 29.4677 20.8945ZM30.8771 23.7706C30.9579 23.7315 31.1012 23.7159 31.3096 23.7159C31.3799 23.7081 31.3799 23.6846 31.3096 23.6273C31.2861 23.6195 31.2783 23.6065 31.2705 23.5882C31.2861 23.557 31.3018 23.5257 31.3018 23.484C31.3252 23.3564 31.3018 23.2912 31.2523 23.2678L31.0595 23.1792C30.9865 23.1558 30.9475 23.1636 30.9631 23.1948C31.0204 23.2183 31.0595 23.26 31.0829 23.3069C31.0829 23.3225 31.0751 23.3459 31.0439 23.3798L30.9318 23.4606C30.8433 23.5257 30.7703 23.5309 30.7234 23.4918C30.6739 23.4293 30.6427 23.3564 30.6427 23.2756C30.6427 23.2027 30.6661 23.1558 30.7156 23.1401C30.924 23.0594 31.0673 23.0047 31.1402 22.9786C31.2132 22.9473 31.2288 22.9057 31.2028 22.8588C31.1064 22.7624 31.0595 22.6972 31.0517 22.666L31.0282 22.283C31.0282 22.1397 30.9631 22.0433 30.8276 21.9938C30.7495 21.9678 30.6114 21.9938 30.4368 22.0564C30.4368 22.072 30.5176 22.0798 30.6765 22.0798C30.726 22.0798 30.7729 22.1606 30.8042 22.3195L30.8693 22.5774C30.5879 22.4081 30.3639 22.3195 30.1894 22.3039C30.0539 22.296 29.908 22.3299 29.7334 22.4081C29.6214 22.4628 29.5172 22.5618 29.4547 22.7129C29.3843 22.8562 29.3583 23.0021 29.3739 23.1453C29.3896 23.273 29.4547 23.4085 29.5563 23.5544C29.6605 23.6742 29.7413 23.7471 29.8142 23.7862C29.8871 23.8175 29.895 23.8435 29.8533 23.8435C29.7491 23.9399 29.6918 24.0103 29.6918 24.0676C29.6918 24.1223 29.723 24.1562 29.796 24.1874C29.8116 24.1874 29.8663 24.2187 29.9627 24.276V24.164C29.9549 24.1171 29.9966 24.0858 30.0591 24.0702C30.5228 23.9061 30.7964 23.8097 30.8771 23.7706ZM30.4681 23.6481C30.4108 23.6664 30.3873 23.6481 30.3873 23.6013L30.3248 23.3043C30.3248 23.2808 30.3483 23.2574 30.3952 23.2391C30.4603 23.2079 30.5072 23.2313 30.5228 23.3121L30.5463 23.4241C30.5619 23.4554 30.5775 23.5127 30.5958 23.5752C30.5801 23.6091 30.5306 23.6247 30.4681 23.6481ZM29.7308 22.7832C29.7803 22.7051 29.8507 22.6399 29.9471 22.5904C30.0747 22.5175 30.2415 22.494 30.4603 22.5019C30.5801 22.5253 30.7078 22.5904 30.8589 22.679C30.9396 22.7363 30.924 22.752 30.8198 22.7259C30.6765 22.692 30.5801 22.6868 30.5306 22.7103L30.0356 22.8952C29.8767 22.9526 29.7621 22.9526 29.7074 22.9031C29.6996 22.8562 29.7074 22.8093 29.7308 22.7832ZM29.6266 23.2912V23.0516C29.6188 23.0021 29.6266 22.9786 29.6501 22.9864C29.6657 23.0047 29.6735 23.0125 29.6892 23.0281L29.8324 23.1245C29.921 23.1636 30.0565 23.1479 30.2336 23.0854L30.5541 22.9812C30.8016 22.9083 30.9396 22.8848 30.9449 22.8848C31.0256 22.8848 31.0334 22.9083 30.9605 22.9317C30.2727 23.1896 29.8819 23.3407 29.7751 23.3798C29.6761 23.4111 29.6266 23.385 29.6266 23.2912ZM29.9549 23.7706C29.8116 23.6586 29.7387 23.5934 29.7308 23.5622C29.7308 23.5283 29.7491 23.5049 29.7803 23.4892C29.835 23.458 29.8845 23.4345 29.9314 23.4267L30.0669 23.3798C30.0825 23.3616 30.1164 23.3564 30.1529 23.3459L30.2649 23.4736V23.682C30.2649 23.7133 30.1998 23.7471 30.0956 23.7706C30.0278 23.794 29.9783 23.7862 29.9549 23.7706ZM31.2132 25.0341H31.3565C31.3643 25.0185 31.3565 25.0028 31.3408 24.9794C31.2861 24.9403 31.2679 24.9012 31.2913 24.8674C31.3226 24.7814 31.3487 24.7319 31.3408 24.7163C31.3252 24.685 31.2679 24.6459 31.1559 24.5964C31.0751 24.5652 31.036 24.5417 31.036 24.5183C31.0439 24.4948 31.0595 24.4766 31.0673 24.4714L31.1246 24.4063C31.1559 24.3255 31.1559 24.2708 31.1246 24.2447C31.0855 24.2135 31.0126 24.1796 30.9162 24.1483C30.8928 24.1562 30.8928 24.1796 30.8928 24.2031C30.9006 24.2447 30.8771 24.276 30.8198 24.3073L30.3717 24.4922L30.2362 24.5886C30.205 24.5964 30.1477 24.5886 30.0617 24.573C30.02 24.6303 29.9966 24.685 30.0044 24.7345C29.9966 24.8049 30.02 24.8544 30.0617 24.8778L30.1972 24.9273C30.2206 24.87 30.2441 24.8387 30.2701 24.8309C30.3092 24.8231 30.4629 24.7501 30.7495 24.6147C30.7964 24.5912 30.8537 24.5912 30.9006 24.6147L31.036 24.6564C31.109 24.6876 31.1168 24.7371 31.0595 24.784C31.0126 24.8257 30.8276 24.9039 30.5306 25.0471C30.403 25.1018 30.3222 25.1409 30.3066 25.167L30.2024 25.3103C30.2024 25.3337 30.2258 25.365 30.2675 25.391C30.317 25.4223 30.3405 25.4483 30.3561 25.4562C30.4108 25.4874 30.4368 25.4978 30.4603 25.4874L30.4681 25.4067C30.4916 25.3415 30.515 25.3103 30.5384 25.3024C30.5619 25.2946 30.7469 25.2139 31.1064 25.0628L31.2132 25.0341ZM31.6118 25.602L31.742 25.563C31.7577 25.5473 31.7577 25.4822 31.7577 25.3545C31.703 25.3051 31.6691 25.2842 31.6378 25.2842C31.5675 25.2582 31.5258 25.266 31.5258 25.2998C31.518 25.3233 31.4789 25.3702 31.406 25.4509L31.1585 25.6359C30.9813 25.7792 30.8771 25.8521 30.8459 25.86C30.8224 25.86 30.7964 25.8678 30.7495 25.8756C30.7417 25.8834 30.7338 25.9485 30.7338 26.0606C30.7338 26.1413 30.7495 26.1804 30.7833 26.1882C30.799 26.1882 30.8719 26.196 30.9918 26.2195C30.9839 26.1778 30.9839 26.1309 30.9918 26.0814C30.9996 26.0658 31.0647 26.0111 31.2002 25.9225L31.6118 25.602ZM32.1823 25.2738C32.2475 25.2425 32.2709 25.2113 32.2553 25.1618C32.2396 25.1305 32.2136 25.1071 32.1823 25.0888C32.1328 25.0471 32.0964 25.0419 32.0547 25.081C31.9974 25.1357 31.9974 25.1852 32.039 25.2243C32.0755 25.2738 32.125 25.292 32.1823 25.2738ZM32.3725 26.5555C32.3725 26.467 32.3491 26.4201 32.2996 26.4123C32.1875 26.3888 32.1172 26.3888 32.1172 26.4123L32.0938 26.5321C32.0703 26.6024 32.0364 26.6676 31.9817 26.7093C31.8541 26.8213 31.6769 26.876 31.4451 26.8604C31.3799 26.8682 31.3903 26.8447 31.4529 26.7796C31.8202 26.4044 32.0208 26.1882 32.0286 26.1309C32.0364 26.0501 32.013 26.0032 31.9505 26.0032C31.8931 26.0032 31.8046 26.0189 31.6769 26.0423L31.6196 26.1153C31.6352 26.1778 31.6352 26.2351 31.6196 26.2664L31.0829 26.8916C31.0751 26.9151 31.1142 26.9385 31.195 26.962C31.2497 26.9854 31.2914 26.9854 31.3226 26.9854C31.419 27.001 31.5154 27.0089 31.6196 27.0089C31.8202 27.001 31.9739 26.9594 32.0521 26.9125C32.2527 26.7718 32.3569 26.6519 32.3725 26.5555ZM32.2865 27.6211L32.7763 27.6054C32.8388 27.6054 32.8727 27.5664 32.8623 27.4934L32.8701 27.1183C32.8701 27.061 32.8467 27.0375 32.7972 27.0375L32.3803 26.9906C32.3725 26.9906 32.3491 27.0297 32.3074 27.1183C32.2917 27.1573 32.1406 27.3319 31.8593 27.6628C31.8176 27.6628 31.802 27.6628 31.7942 27.6784C31.7863 27.694 31.8176 27.7591 31.8827 27.8868L31.9218 27.9988C31.9218 28.0145 31.9374 28.0405 31.9531 28.0692H32.138C32.2162 28.0926 32.2344 28.0848 32.1849 28.0301C32.1198 27.9728 32.0911 27.8764 32.099 27.7591C32.1016 27.7018 32.1641 27.6523 32.2865 27.6211ZM32.5575 27.2121C32.5731 27.1808 32.5966 27.1652 32.6226 27.173C32.6721 27.1652 32.6721 27.1808 32.6461 27.2121V27.4205C32.6461 27.4934 32.6226 27.5169 32.5731 27.509C32.4767 27.5169 32.422 27.5169 32.3907 27.509C32.3595 27.5012 32.3595 27.4778 32.3829 27.4361L32.5575 27.2121ZM32.943 28.5251L33.3182 27.9962C33.3495 27.9571 33.3677 27.9415 33.3755 27.9415L33.4875 27.9337C33.4875 28.0848 33.5032 28.1656 33.5422 28.1656C33.6777 28.1656 33.7507 28.1577 33.7507 28.1265L33.7428 27.8712L33.7012 27.8634L33.5162 27.8712L33.4276 27.8321V27.6784C33.4198 27.6393 33.3651 27.6159 33.2583 27.6159C33.1463 27.6159 33.0994 27.6315 33.1072 27.6393C33.1619 27.7097 33.1775 27.7591 33.1463 27.806C33.1228 27.8555 32.9873 28.0301 32.7372 28.3505C32.7138 28.3818 32.6903 28.4052 32.6591 28.4209C32.62 28.4287 32.6096 28.4599 32.6278 28.5173C32.6434 28.5407 32.6513 28.5563 32.6695 28.572L32.6929 28.6684C32.6929 28.7413 32.7268 28.7726 32.7893 28.7726L33.0629 28.7413C33.0785 28.7413 33.0785 28.7309 33.0629 28.7257C33.0394 28.7179 33.0056 28.71 32.9821 28.7022C32.9352 28.7022 32.9248 28.6449 32.943 28.5251ZM34.3186 28.7439L34.6547 28.5902C34.7511 28.5589 34.7927 28.5199 34.7927 28.4782C34.8006 28.3974 34.7745 28.3557 34.7354 28.3557C34.6885 28.3557 34.6625 28.3974 34.6547 28.4782C34.6547 28.5251 34.6312 28.5485 34.5661 28.5329L34.4541 28.4782L34.3577 28.3505L34.23 28.2541H34.045C34.0216 28.262 33.9721 28.2463 33.9174 28.2255C33.8444 28.2255 33.8054 28.2489 33.7897 28.2958L33.7012 28.4469C33.6438 28.5355 33.6126 28.5902 33.6126 28.6084L33.6699 28.7595C33.6777 28.7778 33.6855 28.7934 33.6855 28.8143C33.6855 28.8325 33.6543 28.8559 33.5891 28.8794L33.3495 28.9601C33.2947 28.9836 33.2452 28.9992 33.2062 29.0149C33.1984 29.0539 33.2062 29.08 33.2479 29.08C33.2869 29.0722 33.3442 29.0878 33.4406 29.1347L33.5917 29.3666C33.5996 29.39 33.6308 29.39 33.6881 29.39H33.8236L33.9929 29.4395C34.0998 29.3431 34.1623 29.2702 34.1779 29.2233L34.2483 29.1269C34.2639 29.1086 34.2821 29.0852 34.2873 29.0539L34.2561 28.8768C34.2404 28.8533 34.2326 28.8351 34.2326 28.8116C34.2144 28.783 34.2535 28.7569 34.3186 28.7439ZM33.8965 29.1738C33.8653 29.205 33.8314 29.2233 33.8002 29.2233C33.7611 29.1738 33.7272 29.1347 33.7038 29.1086L33.6074 28.981L33.6543 28.9654C33.7585 28.9185 33.8392 28.895 33.8939 28.8872C33.9721 28.869 34.0138 28.9028 34.0138 28.9836C34.0164 29.0149 33.9747 29.0774 33.8965 29.1738ZM34.0971 28.7257L34.0164 28.7569C33.9747 28.7648 33.9539 28.7569 33.9356 28.7413C33.8705 28.6944 33.8705 28.6215 33.9356 28.5329C33.9513 28.5016 33.9903 28.4521 34.0476 28.3792C34.0789 28.3557 34.1102 28.3714 34.1519 28.4339C34.1909 28.499 34.2144 28.5537 34.2535 28.5694C34.2795 28.585 34.2951 28.6163 34.2951 28.6658C34.2066 28.7022 34.1362 28.7179 34.0971 28.7257ZM35.2565 28.6449C35.3294 28.6371 35.3607 28.598 35.3607 28.5251C35.3607 28.4782 35.3372 28.4443 35.2825 28.4365C35.233 28.4209 35.1835 28.4443 35.1288 28.5016C35.1366 28.5251 35.1444 28.5407 35.1601 28.5563C35.1913 28.6215 35.2148 28.6449 35.2565 28.6449ZM35.4076 30.281C35.3763 30.281 35.345 30.2575 35.3112 30.2158C35.2799 30.1768 35.2799 30.1351 35.3112 30.096L35.6967 29.4551C35.7436 29.4161 35.7853 29.4161 35.8166 29.4473C35.84 29.4786 35.8635 29.4942 35.8895 29.5098L35.9468 29.4551C35.9703 29.4161 35.9547 29.3822 35.8895 29.3509C35.8348 29.3197 35.8166 29.2702 35.8426 29.2233C35.8999 29.1269 35.939 29.0644 35.9625 29.0227C35.9625 28.9914 35.9625 28.9836 35.9312 28.9836L35.8348 29.0149C35.7697 29.0539 35.6498 29.1191 35.4649 29.1816C35.4414 29.2233 35.4414 29.2467 35.4649 29.2623C35.4883 29.278 35.4961 29.2936 35.4805 29.3171C35.2643 29.7 35.121 29.9163 35.0637 29.9657C35.0011 30.0231 34.9751 30.0621 34.9751 30.0778C35.0168 30.109 35.0402 30.1585 35.048 30.2445C35.0637 30.3253 35.0871 30.3643 35.1288 30.3565L35.3841 30.3409C35.4154 30.3044 35.4258 30.281 35.4076 30.281ZM34.6807 29.6948C34.936 29.2962 35.0715 29.093 35.0715 29.08C35.0715 29.0644 35.1106 29.0565 35.1757 29.0409C35.1757 28.9836 35.1679 28.9445 35.1444 28.9132C35.121 28.8403 35.0949 28.809 35.0715 28.8012C35.0168 28.7934 34.9517 28.8012 34.8813 28.8169L34.8579 28.9862C34.6963 29.2259 34.6026 29.3796 34.5531 29.4577C34.4957 29.5385 34.4489 29.5932 34.3994 29.6193C34.3915 29.6271 34.3915 29.6974 34.3994 29.8277C34.4072 29.8928 34.4723 29.9241 34.5687 29.9241C34.6885 29.9241 34.7354 29.9006 34.6885 29.8589C34.6547 29.8225 34.6468 29.7678 34.6807 29.6948ZM36.6893 29.9189L36.52 29.911L36.4418 29.8615V29.6766C36.4262 29.588 36.3871 29.5567 36.322 29.5567C36.249 29.5567 36.1787 29.5724 36.1058 29.5984C36.1058 29.614 36.1136 29.6219 36.1292 29.614C36.1683 29.6297 36.1865 29.6609 36.1865 29.7104C36.1865 29.7678 36.1631 29.8381 36.1058 29.9267L35.8739 30.2549C35.8088 30.3513 35.7619 30.4217 35.7228 30.4451L35.5066 30.5597C35.4024 30.5988 35.3476 30.6379 35.3476 30.6639C35.332 30.7682 35.332 30.8307 35.3555 30.8645L35.444 30.9453C35.517 31.0417 35.6134 31.0808 35.7254 31.073C35.8374 31.0573 35.8843 31.0339 35.8687 30.9922C35.8531 30.9531 35.8218 30.9271 35.7801 30.9271L35.6993 30.974C35.6264 30.974 35.5873 30.9661 35.5795 30.9505L35.4597 30.8619C35.4597 30.7499 35.4597 30.6848 35.4831 30.677C35.5951 30.6197 35.6759 30.5962 35.7488 30.5962C36.0224 30.6197 36.2282 30.6197 36.348 30.5962L36.5721 30.4842C36.6607 30.4191 36.7076 30.3565 36.7336 30.3148L36.8222 30.0361C36.817 29.9684 36.7779 29.9267 36.6893 29.9189ZM36.52 30.169C36.5122 30.2315 36.4731 30.3044 36.408 30.3774C36.3272 30.4738 36.2412 30.5233 36.1266 30.5467C36.038 30.5623 35.9989 30.5623 35.9989 30.5467L36.1266 30.3201C36.2386 30.1351 36.3037 30.0413 36.335 30.0257C36.3923 30.01 36.4392 30.0022 36.4627 30.0179C36.5304 30.0387 36.546 30.0856 36.52 30.169ZM37.1687 30.0621L37.1843 30.6692L37.1687 30.789V30.9323C37.2104 31.0209 37.2494 31.0443 37.3041 31.0287C37.3927 31.0287 37.4318 30.9818 37.4318 30.875L37.4474 30.1898C37.4631 29.9631 37.4474 29.8589 37.3927 29.8511C37.2573 29.9605 37.1869 30.0231 37.1687 30.0621ZM36.5851 19.373C36.52 19.3965 36.4653 19.4277 36.408 19.4929C36.2647 19.6674 36.2647 19.8289 36.408 19.9722L36.4887 20.053C36.3037 20.1337 36.1292 20.1963 35.9599 20.277C35.7931 19.8524 35.504 19.6518 35.0949 19.6596H35.0871C34.7979 19.7403 34.6078 19.8915 34.5036 20.0999C34.415 20.3005 34.415 20.5167 34.5192 20.7407C34.6156 20.9648 34.7667 21.1081 34.9751 21.1732C35.1913 21.2383 35.4414 21.2045 35.7358 21.0924L35.7436 21.1003V21.0924C35.8452 21.0534 35.9442 21.0039 36.0302 20.957C36.3194 20.8033 36.606 20.66 36.8951 20.5245C36.9186 20.5662 36.9446 20.6131 36.9681 20.6704C36.9759 20.6939 36.9915 20.7746 37.0228 20.9101C37.0384 20.9674 37.0775 20.9987 37.1504 21.0065C37.239 21.0143 37.3094 20.9674 37.3745 20.8632C37.437 20.759 37.4448 20.6548 37.4136 20.5349C37.3979 20.4802 37.3484 20.4151 37.2937 20.3343C37.5673 20.2067 37.8304 20.079 38.1013 19.9644C38.3488 20.0686 38.5989 20.1728 38.8542 20.2927C38.7917 20.3708 38.7578 20.4359 38.7422 20.5011C38.711 20.6131 38.7188 20.7147 38.7891 20.8111C38.8464 20.9231 38.9168 20.9726 39.0053 20.9544C39.0757 20.9466 39.1174 20.9153 39.133 20.858C39.1564 20.7147 39.1825 20.6339 39.1903 20.6105C39.2059 20.5558 39.2294 20.5141 39.2528 20.475C39.542 20.6105 39.839 20.7381 40.1334 20.8918C40.2142 20.9335 40.3105 20.9804 40.4226 21.0195C40.7352 21.1315 40.9827 21.1472 41.1937 21.082C41.3839 21.0273 41.5376 20.8736 41.6392 20.6417C41.7356 20.4177 41.7356 20.2015 41.6392 20.0087C41.535 19.7925 41.3448 19.657 41.0478 19.5736H41.04C40.6336 19.5658 40.3444 19.7768 40.1829 20.2067C40.0162 20.1337 39.839 20.0634 39.654 19.9826L39.7348 19.9123C39.8729 19.7508 39.8729 19.5997 39.727 19.4486C39.6879 19.4069 39.654 19.3678 39.6228 19.3444C40.4226 19.0474 41.1937 18.7921 41.9284 18.6097C42.8011 18.3856 43.4654 18.2632 43.9292 18.2632C43.9604 18.2632 43.9839 18.2398 44.0021 18.1981C44.0021 18.1668 43.9813 18.1434 43.9396 18.1251C42.8741 17.9636 41.2172 18.284 38.9663 19.0786C38.6693 19.175 38.3801 19.287 38.1013 19.3913C37.7965 19.287 37.4839 19.175 37.1583 19.0708C34.8761 18.3205 33.2088 18.0313 32.1615 18.2059C32.1146 18.2137 32.099 18.245 32.1146 18.2866C32.1146 18.3361 32.138 18.3492 32.1849 18.3492C32.6408 18.3414 33.3052 18.4378 34.1883 18.6462C34.9517 18.8285 35.7541 19.0682 36.5851 19.373ZM34.6234 20.1572C34.6703 20.053 34.7432 19.9722 34.8474 19.9175C34.8943 19.9566 34.936 19.9957 34.9751 20.053C35.0402 20.1416 35.048 20.2301 35.0012 20.3083C34.9751 20.3317 34.936 20.3552 34.8969 20.3734C34.8005 20.3812 34.6963 20.3578 34.5765 20.3083L34.6234 20.1572ZM34.5765 20.4385C34.6963 20.4802 34.8084 20.5037 34.9048 20.4802C35.0011 20.4646 35.0559 20.4307 35.0949 20.3604C35.1991 20.191 35.1523 20.0243 34.9517 19.8576L35.0637 19.8263C35.1184 19.9071 35.1679 19.9774 35.1913 20.0582C35.2643 20.2197 35.2565 20.3474 35.1757 20.4411C35.048 20.6027 34.8474 20.6261 34.5921 20.5141C34.5765 20.4776 34.5765 20.4542 34.5765 20.4385ZM34.639 20.6808L34.6234 20.6574C34.8865 20.7616 35.1028 20.7199 35.2643 20.5193C35.4076 20.3448 35.3841 20.1025 35.1913 19.8081L35.345 19.8393C35.3841 19.9045 35.4154 19.9826 35.4414 20.0712C35.4805 20.2327 35.4805 20.376 35.4258 20.5037C35.3372 20.6939 35.121 20.8241 34.7693 20.8866C34.712 20.8319 34.6729 20.759 34.639 20.6808ZM35.1835 21.0716V21.0794L35.009 21.0403L34.8969 20.9987C35.233 20.9101 35.4492 20.7668 35.5535 20.5506C35.6238 20.3812 35.6238 20.1754 35.5378 19.9357L35.6108 19.9983C35.6655 20.1181 35.6759 20.264 35.6577 20.4307C35.616 20.6939 35.4571 20.9101 35.1835 21.0716ZM35.6733 20.983L35.4571 21.0403C35.6967 20.8397 35.8088 20.5688 35.7931 20.2249L35.8583 20.3838C35.8478 20.6548 35.7931 20.8554 35.6733 20.983ZM36.0406 20.7902L35.9599 20.8371C35.9364 20.8528 35.9208 20.8606 35.8869 20.8684C35.9599 20.7303 35.9833 20.5792 35.9911 20.4203C36.0094 20.4125 36.0224 20.4047 36.0406 20.3969C36.0563 20.5584 36.0563 20.6939 36.0328 20.7902H36.0406ZM36.1865 20.7173C36.2021 20.574 36.2021 20.4464 36.1709 20.3422L36.2673 20.2927C36.2985 20.4281 36.3142 20.548 36.2985 20.6704L36.1865 20.7173ZM36.434 20.5975C36.4418 20.4542 36.4262 20.3343 36.3949 20.2379L36.4809 20.1989L36.5382 20.5506L36.434 20.5975ZM36.6659 20.4776C36.6581 20.389 36.6424 20.2927 36.6086 20.165L36.6737 20.2145C36.7284 20.2692 36.7753 20.3343 36.8248 20.4073C36.7779 20.4307 36.7206 20.4542 36.6659 20.4776ZM36.8743 19.8784L36.7779 19.7742C36.731 19.7013 36.7232 19.6309 36.7623 19.5658C36.7857 19.5163 36.7935 19.4772 36.7779 19.446C36.9785 19.5163 37.1869 19.5892 37.3953 19.67C37.2182 19.743 37.041 19.8133 36.8743 19.8784ZM39.0757 20.0373C39.0288 20.0868 38.9871 20.1337 38.948 20.1806C38.724 20.0764 38.4999 19.98 38.2837 19.8915C38.4035 19.8367 38.5234 19.7794 38.6432 19.7325C38.8204 19.8029 38.9871 19.868 39.1643 19.941L39.0757 20.0373ZM38.836 19.6622C39.0132 19.5892 39.1799 19.5189 39.3492 19.4564C39.357 19.472 39.3649 19.4955 39.3805 19.5111C39.4196 19.5736 39.4196 19.6387 39.3805 19.7195L39.2763 19.8315C39.1252 19.7742 38.9871 19.7091 38.836 19.6622ZM39.4925 20.4307C39.4456 20.4073 39.3883 20.3838 39.331 20.3604C39.3727 20.2822 39.4196 20.2171 39.4743 20.1676L39.5472 20.0973C39.516 20.2223 39.5003 20.3343 39.4925 20.4307ZM41.5272 20.0712L41.5689 20.2145C41.4646 20.2692 41.3683 20.2953 41.2719 20.2796C41.2172 20.264 41.1755 20.2536 41.1598 20.2145C41.1103 20.1416 41.1182 20.053 41.1755 19.9566C41.2067 19.9097 41.2484 19.868 41.3031 19.8315C41.4073 19.8941 41.4777 19.9644 41.5272 20.0712ZM41.0843 19.7351L41.1885 19.7742C40.9957 19.9514 40.9566 20.1181 41.0608 20.2796C41.0999 20.3343 41.1572 20.3838 41.2458 20.3995C41.3422 20.4151 41.4542 20.3995 41.5819 20.3448L41.5662 20.4229C41.3161 20.5506 41.126 20.5271 40.9801 20.3578C40.8446 20.1989 40.8863 19.9904 41.0843 19.7351ZM40.717 19.9983C40.7248 19.9097 40.7638 19.8315 40.8055 19.7586L40.9566 19.7195C40.7638 20.0243 40.7404 20.2562 40.8915 20.4307C41.053 20.6235 41.2693 20.673 41.5324 20.5688L41.5246 20.5922L41.3969 20.7928C41.053 20.746 40.8368 20.6157 40.7248 20.4229C40.6779 20.3031 40.6701 20.1572 40.717 19.9983ZM40.5242 19.9279L40.6023 19.855C40.5242 20.0947 40.5242 20.3031 40.6023 20.4802C40.7222 20.6965 40.941 20.8397 41.2667 20.9127L41.1546 20.9596L40.9775 20.983C40.5424 20.7434 40.3913 20.3995 40.5242 19.9279ZM40.3574 20.1572C40.3314 20.4776 40.4538 20.7486 40.717 20.9752L40.5007 20.9101C40.3626 20.7746 40.3079 20.574 40.3001 20.3083L40.3574 20.1572ZM40.1178 20.3343C40.1412 20.3422 40.1594 20.35 40.1673 20.35C40.1673 20.5037 40.2063 20.6548 40.2793 20.8137C40.248 20.7902 40.2246 20.7824 40.2063 20.7746L40.1178 20.7329L40.1256 20.7173C40.1021 20.6157 40.0943 20.4776 40.1178 20.3343ZM39.8859 20.2379L39.9901 20.2796C39.9588 20.3917 39.9588 20.5193 39.9823 20.6626L39.8781 20.6131C39.852 20.5349 39.8598 20.4151 39.8859 20.2379ZM39.6671 20.1415L39.7556 20.1832C39.7244 20.3343 39.7166 20.4464 39.7244 20.5349L39.6254 20.4959L39.6671 20.1415ZM38.4817 19.3965C38.651 19.3313 38.8334 19.2766 39.0106 19.2115C40.644 18.6357 41.957 18.3153 42.9574 18.245L41.9023 18.4846C40.9097 18.74 39.852 19.0943 38.7474 19.5424C38.4348 19.67 38.1222 19.8055 37.8017 19.9514C37.6011 20.0399 37.4005 20.1363 37.2104 20.2249C37.1635 20.1832 37.1218 20.1442 37.0827 20.0973L36.9863 19.9931C37.1478 19.9305 37.3146 19.8576 37.4813 19.7846C37.8096 19.6544 38.1378 19.5345 38.4817 19.3965ZM37.114 19.1959C37.3797 19.2766 37.6428 19.373 37.9138 19.4694C37.8017 19.5111 37.6897 19.558 37.5699 19.5971C36.3741 19.1255 35.2539 18.7634 34.2144 18.5237L33.1645 18.3153C34.2066 18.3804 35.5196 18.6774 37.114 19.1959Z" fill="#004990"></path><path d="M39.443 46.7981L39.4482 48.429C39.4482 48.429 39.2476 48.4264 39.2033 47.8558C39.1643 47.3609 39.1538 44.4613 39.2372 44.4196C39.3206 44.3779 39.7713 44.6254 40.2011 46.6262C40.6857 48.8797 39.641 50.7633 39.0548 51.2947C38.4687 51.8288 37.8799 51.9278 36.1579 51.9121C36.1579 51.9121 35.9807 51.7741 36.2542 51.735C36.5278 51.6933 38.2029 51.1957 38.9011 50.5262C39.5967 49.8566 40.0761 48.937 40.0917 48.4707C40.1204 47.71 39.7999 46.8164 39.641 46.3657C39.5055 45.9749 39.4925 46.4126 39.4925 46.4126L39.443 46.7981Z" fill="#004990"></path><path d="M33.1621 45.4978C33.1621 45.4978 33.6831 45.5395 33.9619 45.4561C34.238 45.3754 35.0482 45.1487 35.4781 44.5756C35.9079 44.0024 36.1242 43.4188 36.1841 43.3459C36.2466 43.273 36.4394 42.976 36.4186 43.0698C36.3977 43.1609 36.3482 43.7054 36.317 43.8174C36.2857 43.9295 36.132 44.3202 36.1528 44.4635C36.1737 44.6068 36.2961 44.5964 36.4081 44.1978C36.5202 43.7992 36.7572 43.1531 36.8276 42.8353C36.9005 42.5175 36.9422 41.9235 36.9422 41.9235C36.9422 41.9235 36.8693 41.8427 36.8093 41.9235C36.7468 42.0068 36.2779 42.692 35.8376 43.4084C35.3973 44.1249 34.7955 44.5756 34.5871 44.7397C34.0947 45.1279 33.0605 45.4978 33.1621 45.4978Z" fill="#004990"></path><path d="M27.9987 48.4678C27.9987 48.4678 27.845 48.5512 28.0794 48.5512C28.3139 48.5512 28.8376 48.5095 29.033 48.4183C29.2283 48.3271 29.5774 48.0796 29.5774 47.8035C29.5774 47.5273 29.3169 47.5508 29.1554 47.5195C28.9913 47.4883 29.0668 47.3007 29.2205 47.1782C29.3742 47.0558 29.6608 46.9229 29.7728 46.9333C29.9343 46.9464 29.9995 47.0871 30.0907 47.0766C30.1818 47.0662 30.346 46.9907 30.2548 46.7588C30.2496 46.7484 30.135 46.5764 29.7155 46.6702C29.5436 46.7067 29.1398 47.0141 29.046 47.0975C28.9548 47.1808 28.6943 47.3893 28.7047 47.6237C28.7151 47.84 28.8584 47.8426 28.9704 47.853C29.0825 47.8634 29.2648 47.8738 29.2205 47.9676C29.1814 48.051 28.8714 48.2333 28.0326 48.46L27.9987 48.4678Z" fill="#004990"></path><path d="M21.2196 44.1354C21.2066 44.0338 21.1363 43.966 21.0477 43.9322C21.0477 43.9322 21.0685 43.656 21.0008 43.4997C20.9331 43.3434 20.8184 43.3121 20.7299 43.3121C20.6413 43.3121 20.4068 43.3955 20.3547 43.6899C20.3104 43.9426 20.3209 44.1197 20.6439 44.1484C20.6439 44.1484 20.6647 44.1771 20.6178 44.237C20.5683 44.2995 20.3 44.6147 19.6409 44.9795C19.6409 44.9795 19.5992 45.029 19.7633 44.9925C19.9275 44.9586 20.3443 44.7815 20.4876 44.672C20.6309 44.5626 20.8184 44.4584 20.9331 44.224C20.9331 44.224 20.9331 44.1823 21.0034 44.1849C21.0503 44.1875 21.0816 44.1979 21.1102 44.2708C21.1415 44.3568 21.1936 44.461 21.217 44.4219C21.217 44.4246 21.2327 44.237 21.2196 44.1354ZM20.6595 43.8696C20.412 43.8592 20.5136 43.7394 20.5136 43.7394C20.5657 43.6717 20.6752 43.6378 20.6908 43.6378C20.7585 43.6274 20.7846 43.6899 20.8028 43.7889C20.8211 43.8879 20.8237 43.8775 20.6595 43.8696Z" fill="#004990"></path><path d="M22.1473 45.1255C22.1473 45.1255 22.1473 45.3861 22.1421 45.5424C22.1343 45.6987 22.0535 46.0269 21.9858 46.0764C21.9181 46.1233 21.7956 46.0217 21.7331 45.9071C21.6706 45.7899 21.6445 45.9123 21.6367 45.9748C21.6289 46.0374 21.6081 46.7824 21.199 46.8007C21.199 46.8007 21.1574 46.7798 21.1391 46.6235C21.1183 46.4672 21.0089 46.4464 20.9958 46.561C20.9828 46.6756 20.6754 47.6812 20.2455 47.7229C19.8157 47.7646 19.8574 47.6135 19.8756 47.5041C19.8964 47.3947 19.9902 47.1836 19.972 46.772C19.9511 46.363 19.8704 46.1859 19.6307 46.1989C19.352 46.2145 18.797 46.7798 18.771 47.0794C18.7501 47.3035 18.8465 47.7125 18.8726 47.7698C18.9143 47.8584 19.1123 47.775 19.1123 47.8297C19.1123 47.8844 19.0654 47.973 18.9143 48.0955C18.7632 48.2179 18.7371 48.2856 18.6485 48.2127C18.56 48.1372 18.3542 47.96 18.1015 48.1033C17.8488 48.2466 17.7654 48.4315 17.8201 48.8484C17.8748 49.2652 17.9972 49.4971 18.1614 49.484C18.3255 49.471 18.3594 49.458 18.4011 49.3955C18.4427 49.3329 18.5313 49.3147 18.573 49.3616C18.6147 49.4085 18.7241 49.5466 18.6746 49.7107C18.6251 49.8748 18.4271 50.3542 18.0051 50.7423C17.583 51.1305 17.2131 51.3702 16.6452 51.5682C16.0798 51.7662 15.3947 51.9381 15.4025 51.985C15.4103 52.0319 15.3894 52.0814 15.9209 52.0528C16.455 52.0267 17.4241 51.9512 17.8279 51.7245C18.2317 51.5005 18.7632 50.9456 18.8726 50.3594C18.982 49.7706 19.0289 49.1923 18.995 49.0464C18.9612 48.9031 19.0419 48.95 19.0628 48.9369C19.0836 48.9239 19.2165 48.7963 19.3077 48.6842C19.4119 48.5566 19.4692 48.4993 19.5083 48.442C19.5369 48.4029 19.5369 48.3378 19.5994 48.3664C19.662 48.3925 19.9016 48.5696 20.0996 48.5696C20.3836 48.567 20.665 48.4289 20.8864 48.1267C21.1052 47.8271 21.1 47.6708 21.1756 47.6708C21.2511 47.6708 21.3345 47.7125 21.5195 47.5223C21.5195 47.5223 21.8034 47.2175 21.866 47.0612C21.9259 46.9049 21.9129 46.9127 21.9129 46.9127C21.9129 46.9127 22.0535 46.9179 22.1239 46.7824C22.1916 46.6444 22.3349 46.1207 22.3219 45.7508C22.3062 45.3782 22.2724 45.0213 22.1473 45.1255Z" fill="#004990"></path><path d="M15.0794 47.8584C15.0794 47.8584 15.3035 47.5535 15.7568 47.5666C16.3299 47.5822 16.5461 48.1918 16.5983 48.4054C16.6504 48.6217 16.7103 49.5726 16.0251 50.2395C15.3399 50.9064 14.4985 51.2842 13.3704 51.6333C13.3704 51.6333 13.2271 51.6854 13.1854 51.7766C13.1464 51.8677 13.6466 51.8078 14.0347 51.7974C14.4255 51.787 15.4181 51.6437 15.848 51.1826C16.2778 50.7215 16.7598 49.9008 16.8614 48.9291C16.963 47.9547 16.9552 46.9309 16.0355 46.7303C15.2149 46.5505 14.9544 47.3295 14.8945 47.4415C14.8319 47.5535 14.5766 48.4445 14.8632 48.8353C15.1498 49.2235 15.5197 49.4397 15.6109 49.5022C15.7021 49.5648 15.9391 49.708 15.9391 49.8617C15.9391 50.0155 15.9391 50.078 16.0199 49.9634C16.1007 49.8513 16.4107 49.3277 15.9574 48.9187C15.5197 48.5201 14.8189 48.3351 15.0794 47.8584Z" fill="#004990"></path><path d="M50.3251 47.0245C49.9161 46.8343 50.0932 47.0375 49.6556 46.7379C49.6556 46.7379 49.4914 46.6832 49.4628 46.8343C49.4341 46.9854 49.4498 47.1496 49.3664 47.3528C49.2856 47.5586 49.0538 47.7904 48.9287 47.9676C48.8063 48.1448 48.5197 48.8273 48.4233 48.9107C48.3269 48.994 48.2722 49.1712 47.9726 49.1556C47.673 49.1425 47.673 48.9914 47.7121 48.7726C47.7538 48.5538 47.8215 48.0484 47.4542 47.9129C47.0842 47.7774 46.6883 48.1864 46.5658 48.3766C46.4434 48.5668 46.4017 48.7987 46.4017 48.9914C46.4017 49.1816 46.5528 49.3614 46.5658 49.4291C46.5788 49.4969 46.6883 49.4552 46.7299 49.4031C46.7716 49.3484 46.9357 49.4161 46.9357 49.4161C46.9357 49.4161 47.0191 49.6063 46.5398 50.0309C46.1698 50.3592 45.9249 50.5077 45.6514 50.3852C45.3778 50.2628 45.2971 50.1403 45.2267 49.8381C45.159 49.5385 44.6614 47.6055 44.0101 46.6832C44.0101 46.6832 44.0101 46.6546 43.9267 46.889C43.846 47.1209 43.7756 47.2434 43.8173 47.3814C43.859 47.5169 43.9684 47.6003 43.9684 47.6003C43.9684 47.6003 43.1895 48.5147 43.0384 48.8169C42.8873 49.1165 42.7987 49.4213 42.7726 49.5542C42.744 49.6896 42.658 50.4139 42.8404 50.6822C43.0983 51.0548 43.9007 50.4556 44.0492 50.3201C44.1977 50.182 44.4712 49.8017 44.5338 49.4604C44.5937 49.1217 44.6093 49.2155 44.638 49.4057C44.664 49.5958 44.9376 50.4451 44.9923 50.5936C45.047 50.7447 45.2606 51.3856 45.7712 51.3257C46.1125 51.284 46.6179 51.0391 47.0139 50.4373C47.4099 49.8355 47.4151 49.8303 47.4151 49.8303C47.4151 49.8303 47.4907 49.7469 47.5584 49.8173C47.6261 49.8876 47.7095 50.0075 47.9961 49.9944C48.2826 49.9814 48.5015 49.7209 48.7203 49.3379C48.9391 48.955 49.184 48.4105 49.4029 48.2307C49.6217 48.0536 49.877 47.7774 50.2496 47.9025C50.4945 47.9858 50.5101 47.8634 50.5361 47.6419C50.57 47.4205 50.7341 47.2147 50.3251 47.0245ZM43.8825 49.5854C43.6714 49.7756 43.2676 49.9814 43.0957 49.9606C42.9237 49.9397 42.9863 49.687 43.0201 49.6401C43.054 49.5932 43.2259 49.3796 43.2937 49.2494C43.364 49.1191 43.5542 48.9367 43.6897 48.7934C43.8251 48.6502 44.0648 48.1916 44.0857 48.1161C44.1065 48.0405 44.1273 47.9936 44.1273 47.9936C44.1404 47.965 44.1612 47.9936 44.1742 48.0353C44.1873 48.077 44.4556 48.7387 44.4686 48.8065C44.4843 48.8742 44.0935 49.3952 43.8825 49.5854Z" fill="#004990"></path><path d="M45.1956 47.0299C45.1956 47.0299 45.133 47.1524 45.2086 47.1185C45.2841 47.0846 45.5499 47.0377 45.6932 46.9622C45.8364 46.8866 46.9072 46.178 47.0192 46.0816C47.1286 45.9852 48.03 45.3027 48.0561 45.248C48.0847 45.1932 48.2202 44.8728 48.2124 44.8441C48.2046 44.8155 48.1316 44.8442 48.0222 45.0291C48.0222 45.0291 45.6046 46.759 45.529 46.8059C45.4535 46.8528 45.1956 47.0299 45.1956 47.0299Z" fill="#004990"></path><path d="M43.0645 45.795C43.0645 45.795 42.9472 46.4177 42.9472 46.4776C42.9472 46.5375 42.9264 46.6209 42.9941 46.6C43.0619 46.5792 43.4787 46.2796 43.6506 46.1024C43.8226 45.9253 44.0883 45.6517 44.0883 45.6517C44.0883 45.6517 44.1925 44.9561 44.143 44.9145C44.0935 44.8728 43.0645 45.795 43.0645 45.795Z" fill="#004990"></path><path d="M53.6154 46.6259C53.6154 46.6259 53.5607 46.7562 53.6493 46.7301C53.7378 46.7015 53.9775 46.6468 54.1208 46.5869C54.2641 46.5269 55.2671 45.7949 55.5068 45.6229C55.7465 45.4536 56.4368 44.9326 56.4915 44.8518C56.5462 44.771 56.6557 44.4819 56.6348 44.4636C56.5489 44.5183 56.6374 44.4558 56.416 44.6694C56.2102 44.8674 55.3921 45.4067 55.0769 45.6672C54.7617 45.9277 53.9775 46.4253 53.9437 46.4592C53.9098 46.4905 53.6154 46.6259 53.6154 46.6259Z" fill="#004990"></path><path d="M59.0395 46.8815C59.0395 46.8815 58.6226 47.142 58.4741 47.2228C58.323 47.3035 58.2345 47.3113 58.099 47.3113C57.9609 47.3113 57.6535 47.1811 57.4373 47.1264C57.2184 47.0717 56.9996 47.1394 56.9996 47.1394C56.0982 47.4468 56.3248 49.0594 56.3639 49.2704C56.4056 49.4815 56.3978 49.4815 56.317 49.57C56.2337 49.6586 55.7022 49.966 55.5511 50.0702C55.4 50.1718 54.7044 50.5522 54.1573 50.5366C53.6728 50.5235 53.1465 50.2578 52.8313 49.8644C52.3728 49.2913 52.279 48.5931 52.1904 48.1711C52.1018 47.749 51.7762 46.7174 51.6641 46.4099C51.5547 46.1103 50.9946 44.9901 50.8982 44.9484C50.8018 44.9067 50.7575 45.2637 50.7263 45.433C50.7002 45.5763 50.6742 45.545 50.7888 45.7274C50.9269 45.9514 51.3203 46.7382 51.4583 47.0795C51.5938 47.4208 51.8491 48.5566 52.0237 49.2913C52.2008 50.0286 52.6177 50.7189 53.295 51.0889C53.9724 51.4562 54.8217 51.2556 55.1265 51.1566C55.4208 51.0602 56.3561 50.336 56.4108 50.2969C56.4655 50.2552 56.4994 50.1875 56.5671 50.2422C56.6349 50.2969 56.8407 50.9951 56.8693 51.2191C56.8954 51.4432 56.8563 51.5474 56.9449 51.6021C57.0335 51.6568 57.0543 51.0003 57.0491 50.8648C57.0413 50.7294 56.9267 49.9686 56.9267 49.8879C56.9267 49.8071 57.2888 49.3825 57.4451 49.1897C57.6014 48.9995 57.8828 48.7468 57.9427 48.6634C58.0052 48.5827 58.1615 48.356 58.3126 48.2258C58.4611 48.0955 59.0838 47.6787 59.0838 47.6787L59.0395 46.8815ZM57.5441 48.2127C57.5102 48.2883 56.7599 49.0803 56.7599 49.0803C56.713 49.1636 56.6166 48.6035 56.5828 48.4524C56.5489 48.3013 56.4942 48.158 56.6505 47.9731C56.8068 47.7881 57.122 47.8167 57.3878 47.9053C57.6535 47.9939 57.5779 48.1372 57.5441 48.2127Z" fill="#004990"></path><path d="M58.6017 50.0778L58.3959 50.4764C58.3959 50.4764 58.3125 50.5884 58.4167 50.6614C58.5183 50.7343 58.7658 50.888 58.7658 50.888C58.7658 50.888 58.8388 50.9818 58.9195 50.8255C59.0003 50.6718 59.0941 50.4764 59.0941 50.4764C59.0941 50.4764 59.167 50.3227 59.0732 50.2706C58.9821 50.2185 58.8179 50.1169 58.7867 50.0648C58.7554 50.0153 58.6851 49.9632 58.6017 50.0778Z" fill="#004990"></path><path d="M26.8106 47.2486C26.8106 47.2486 26.6621 47.1418 26.4459 47.0167C26.2296 46.8943 25.5966 46.5582 24.8541 46.6729C24.0361 46.8005 23.291 47.1444 22.8715 47.6863C22.4521 48.2282 22.4547 48.5929 22.4234 48.6867C22.3687 48.8508 22.3766 49.7574 22.796 50.4165C23.1034 50.8959 24.2523 51.8598 25.5471 51.8754C25.5471 51.8754 28.0819 52.235 30.51 50.2915C32.1851 48.9524 33.4304 47.0845 33.7404 46.7588C34.027 46.4592 34.2198 46.3081 34.4047 46.3081C34.5897 46.3081 34.9362 46.5478 35.3061 48.249C35.3061 48.249 35.4442 49.0358 35.8324 48.9654C36.2232 48.8977 36.33 48.4522 36.3039 48.3428C36.2753 48.2334 35.6839 46.1362 35.6839 46.1362C35.6839 46.1362 35.7464 45.5005 35.8142 45.5005C35.8819 45.5005 35.8819 45.4588 35.9705 45.7793C36.059 46.0997 36.4707 47.6316 36.4707 47.6316C36.4707 47.6316 36.6348 48.1161 36.9969 48.124C36.9969 48.124 37.6326 47.9676 37.5492 47.4622C37.4685 46.9568 37.5284 46.5869 37.557 46.4045C37.5831 46.2196 37.656 45.9929 37.742 45.7141C37.8097 45.4875 37.729 45.4145 37.6456 45.2634C37.5649 45.1123 37.4346 44.9352 37.4398 45.128C37.4476 45.3677 37.5075 45.7298 37.4737 45.92C37.4398 46.1101 37.4685 46.2274 37.3174 46.2534C37.3174 46.2534 37.2835 45.946 37.2079 45.3598C37.1324 44.7632 37.2366 43.7759 37.2366 43.7759C37.2366 43.7759 37.2783 43.6951 37.3669 43.755C37.4554 43.8176 37.7889 44.2474 37.8723 44.4246C37.9556 44.6017 38.0025 45.2035 37.9739 45.5448C37.9452 45.8861 37.8462 46.2769 37.8254 46.4879C37.7967 46.7614 37.8254 46.9386 37.927 46.9594C37.9843 46.9699 38.3985 46.4123 38.7528 46.3785L38.7606 47.0949C38.7606 47.0949 38.1458 47.4622 38.0286 47.7228C37.9113 47.9833 37.6586 48.6372 37.5284 48.7622C37.3981 48.8847 37.0647 49.028 36.9214 49.0019C36.7781 48.9759 36.6348 48.9003 36.6061 48.8716C36.5775 48.8456 36.5514 48.8716 36.5436 48.9264C36.5358 48.9811 36.3456 49.6428 36.1476 49.747C35.9496 49.8486 35.5536 49.945 35.3609 49.4656C35.1707 48.9889 34.9388 48.0041 34.8216 47.7462C34.7043 47.4857 34.6444 47.1105 34.3084 47.0428C33.9723 46.9751 33.5164 47.754 33.2298 48.0953C32.9432 48.4366 31.7605 50.0205 30.9555 50.664C30.2286 51.245 29.4861 51.7843 28.4753 52.1542C27.4958 52.5111 26.6725 52.6257 25.9821 52.6388C25.0104 52.657 23.304 52.3652 22.5615 51.1903C21.8164 50.0153 22.1317 48.9159 22.2124 48.5877C22.2932 48.2594 22.6423 47.035 24.2262 46.5713C25.9795 46.0606 27.0529 47.345 26.8106 47.2486Z" fill="#004990"></path><path d="M66.11 61.4494C66.3367 61.7698 66.4513 62.0955 66.4513 62.4316C66.4513 62.6791 66.3914 62.9396 66.2663 63.2131C66.1439 63.4867 65.9381 63.7498 65.6463 64.0025V61.8897L66.11 61.4494ZM64.6485 61.5979C64.6668 61.5771 64.6798 61.564 64.6876 61.5536C64.7423 61.4885 64.7866 61.4572 64.8231 61.4572C64.8674 61.4572 64.9064 61.4911 64.9429 61.5614C64.9898 61.65 65.0132 61.8193 65.0132 62.0668V63.8436C65.0132 63.9895 65.0054 64.1041 64.9872 64.1849C64.9716 64.2656 64.9403 64.3516 64.8934 64.448C64.8778 64.4818 64.8335 64.5418 64.7657 64.6277C64.6225 64.8023 64.5495 64.9794 64.5495 65.1644C64.5495 65.3494 64.6146 65.5109 64.7423 65.6464C64.87 65.7818 65.0523 65.8496 65.292 65.8496C65.5186 65.8496 65.7062 65.787 65.8573 65.6646C65.9537 65.5891 66.0032 65.5109 66.0032 65.4301C66.0032 65.3859 65.9902 65.3494 65.9667 65.3233C65.9433 65.2973 65.9094 65.2816 65.8677 65.2816C65.8313 65.2816 65.7974 65.2947 65.7714 65.3181C65.7453 65.3442 65.7114 65.3963 65.675 65.477C65.6385 65.5578 65.5994 65.6099 65.5603 65.6359C65.4796 65.6881 65.378 65.7141 65.2529 65.7141C65.081 65.7141 64.9429 65.6594 64.8387 65.5526C64.7345 65.4458 64.6824 65.3285 64.6824 65.2009C64.6824 65.1253 64.698 65.0602 64.7267 65.0003C64.7657 64.9195 64.8335 64.8336 64.9247 64.7476C64.969 64.7059 65.0992 64.6043 65.318 64.4454C65.8209 64.0859 66.183 63.7941 66.4096 63.5726C66.6337 63.3512 66.8004 63.1167 66.9046 62.8692C67.0088 62.6217 67.0635 62.3742 67.0635 62.1267C67.0635 61.6656 66.902 61.2332 66.5816 60.8294L65.6463 61.7255V61.6448C65.6463 61.4598 65.6203 61.3113 65.5681 61.2071C65.516 61.1003 65.4014 60.9753 65.2217 60.832L64.5704 61.4833L64.6485 61.5979ZM62.7519 61.3921H63.0437V63.5257C63.0437 63.7003 63.0255 63.8332 62.9916 63.9243C62.9656 63.9973 62.9108 64.065 62.8275 64.1328V64.2083C63.1219 64.3099 63.385 64.5027 63.6169 64.7893L64.2994 64.1354L64.2213 64.0233L64.0233 64.2083L63.6768 63.9009V61.3947H64.2994V60.9779H63.6768L63.708 59.9514H63.6195L62.7545 61.2306V61.3921H62.7519ZM61.0976 61.3738L61.3295 61.6578V63.7315C61.3295 64.0442 61.3529 64.263 61.4024 64.3881C61.4493 64.5131 61.5561 64.646 61.7229 64.7867L62.3872 64.1406L62.3117 64.0259C62.2283 64.1067 62.1762 64.1562 62.1501 64.1744C62.1319 64.1875 62.111 64.1927 62.0876 64.1927C62.0563 64.1927 62.0251 64.1614 61.9964 64.0963C61.9652 64.0311 61.9521 63.8931 61.9521 63.6794V61.6578L62.197 61.3738L61.6473 60.8241L61.0976 61.3738ZM61.7203 60.3552H61.8453L62.2726 59.5528H61.8792L61.7203 60.3552ZM59.8836 63.0959V64.1744C59.6283 63.9869 59.3808 63.8931 59.1437 63.8931C59.0786 63.8931 59.0083 63.9009 58.9301 63.9191C58.8519 63.9374 58.766 63.9634 58.6774 63.9999L59.4251 62.7989L59.8836 63.0959ZM58.8884 61.4129C59.1281 61.6161 59.3756 61.7177 59.6283 61.7177C59.7299 61.7177 59.8497 61.6943 59.9878 61.6474L59.3131 62.7259L58.8884 62.4628V61.4129ZM60.3942 61.2931C60.501 61.1316 60.5714 61.0013 60.6078 60.8997C60.6443 60.7981 60.6626 60.6939 60.6626 60.5871C60.6626 60.4829 60.6391 60.3995 60.5922 60.337C60.5453 60.2745 60.4932 60.2432 60.4359 60.2432C60.3916 60.2432 60.3525 60.2666 60.3187 60.3109C60.2848 60.3578 60.2666 60.4177 60.2666 60.4959C60.2666 60.5767 60.3083 60.6626 60.3864 60.7486C60.4281 60.7929 60.4489 60.8372 60.4489 60.8815C60.4489 60.9492 60.4177 61.0117 60.3525 61.0742C60.2874 61.1342 60.1988 61.1654 60.0816 61.1654C59.9774 61.1654 59.8654 61.1472 59.7507 61.1107C59.5892 61.056 59.3782 60.9622 59.1125 60.8294C59.0004 61.0013 58.8832 61.1342 58.7634 61.2332C58.6409 61.3322 58.4742 61.4207 58.2632 61.4989V62.8849L58.9405 63.3225L58.5419 63.9582L58.2606 64.3776C58.2006 64.461 58.159 64.5183 58.1329 64.5496C58.0886 64.5991 58.0678 64.6382 58.0678 64.6694C58.0678 64.6981 58.0782 64.7241 58.1017 64.7502C58.1251 64.7762 58.1485 64.7919 58.1694 64.7919C58.1928 64.7919 58.2345 64.7658 58.2892 64.7137C58.4403 64.573 58.6123 64.5027 58.8077 64.5027C58.9327 64.5027 59.0525 64.5235 59.1672 64.5652C59.2818 64.6069 59.4121 64.6824 59.5658 64.7919C59.7429 64.5965 59.9018 64.4584 60.0425 64.375C60.1832 64.2943 60.3395 64.2422 60.5141 64.2213V62.6556L59.795 62.2049L60.3942 61.2931ZM56.7001 61.5536C56.7001 61.4233 56.6792 61.3191 56.6375 61.2462C56.5724 61.1264 56.4526 60.9883 56.278 60.8268L55.6319 61.4989L55.7075 61.6057C55.7882 61.5067 55.8508 61.4572 55.8977 61.4572C55.9393 61.4572 55.9784 61.4885 56.0149 61.551C56.0514 61.6135 56.067 61.7412 56.067 61.9314V63.4476C56.067 63.669 56.054 63.8175 56.0253 63.8957C55.9967 63.9738 55.9367 64.052 55.8482 64.1275V64.2083C55.9836 64.2526 56.1087 64.3151 56.2233 64.3933C56.3379 64.4714 56.4786 64.6017 56.6479 64.7841L57.4425 64.0207L57.3722 63.9009L57.0544 64.2031L56.7001 63.9035V61.7386L57.0075 61.4025L57.3983 61.9991L57.8672 61.4989L57.3983 60.8241L56.7001 61.5536ZM54.8087 62.2805L53.9933 62.9656V61.2775L54.0375 61.2514L54.8087 62.2805ZM53.8526 61.2175C53.7249 61.2879 53.5634 61.3634 53.368 61.4468V63.5726C53.368 63.8149 53.355 63.9738 53.3315 64.0468C53.3081 64.1197 53.2612 64.1822 53.1909 64.2317V64.3255C53.4357 64.3881 53.6233 64.448 53.7562 64.5027C53.889 64.56 54.0584 64.6538 54.2616 64.7867L55.2646 63.9452L55.1969 63.8332L54.7097 64.2317L53.9907 63.8905V63.2131L55.3792 62.046L54.5065 60.8215C54.1652 61.0352 53.9464 61.1654 53.8526 61.2175ZM51.659 61.426C51.7814 61.5171 51.8622 61.6083 51.9013 61.6943C51.9404 61.7829 51.9586 61.9157 51.9586 62.0981V64.177L51.1406 63.7342V61.9314L51.659 61.426ZM51.0754 61.2618C51.0285 61.1237 50.953 60.9883 50.854 60.8606C50.755 60.733 50.6925 60.6366 50.6664 60.5793C50.6456 60.535 50.6352 60.4803 50.6352 60.4203C50.6352 60.251 50.742 60.0739 50.9556 59.8889L50.8905 59.7873C50.6169 59.967 50.4319 60.1312 50.3356 60.2849C50.2366 60.4386 50.1871 60.6105 50.1871 60.8085C50.1871 60.9153 50.2001 61.0117 50.2261 61.0951C50.2522 61.1785 50.2991 61.2748 50.3642 61.3791C50.4293 61.4833 50.471 61.5614 50.4841 61.6109C50.4997 61.6604 50.5049 61.7282 50.5049 61.8167V63.4788C50.5049 63.6899 50.4919 63.8332 50.4632 63.9087C50.4346 63.9843 50.3825 64.0494 50.3043 64.1067V64.2005C50.5414 64.2083 50.7524 64.2552 50.9426 64.3412C51.1327 64.4271 51.3412 64.5782 51.5652 64.7919C51.7658 64.5991 51.943 64.4532 52.0967 64.3594C52.2504 64.263 52.4145 64.1901 52.5943 64.138V61.9079C52.5943 61.6787 52.563 61.4885 52.4979 61.3452C52.4353 61.1993 52.2973 61.0274 52.0863 60.8294L51.1354 61.736C51.1327 61.5249 51.1119 61.3686 51.0754 61.2618ZM48.577 61.3738L48.8089 61.6578V63.7315C48.8089 64.0442 48.8324 64.263 48.8792 64.3881C48.9261 64.5131 49.033 64.646 49.1997 64.7867L49.864 64.1406L49.7885 64.0259C49.7051 64.1067 49.653 64.1562 49.6269 64.1744C49.6087 64.1875 49.5879 64.1927 49.5644 64.1927C49.5332 64.1927 49.5019 64.1614 49.4732 64.0963C49.442 64.0311 49.4289 63.8931 49.4289 63.6794V61.6578L49.6738 61.3738L49.1241 60.8241L48.577 61.3738ZM49.1997 60.3552H49.3247L49.752 59.5528H49.3586L49.1997 60.3552ZM46.2897 61.7386V61.6057C46.2897 61.4364 46.2662 61.3061 46.2219 61.2123C46.1777 61.1185 46.063 60.9883 45.8807 60.8268L45.2216 61.4807L45.2971 61.5953C45.3805 61.4989 45.443 61.4494 45.4847 61.4494C45.5238 61.4494 45.5602 61.4807 45.5915 61.5458C45.6384 61.6396 45.6592 61.8219 45.6592 62.0929V63.9895L45.4274 64.2552L45.9771 64.7893L46.5242 64.2552L46.2923 63.9895V61.9261L46.8211 61.4155L47.0947 61.762V63.7967C47.0947 64.0624 47.1181 64.2552 47.1676 64.375C47.2171 64.4949 47.3266 64.6303 47.4985 64.7867L48.1628 64.1328L48.0873 64.0181C47.9805 64.1145 47.9101 64.164 47.8815 64.164C47.8476 64.164 47.8189 64.138 47.7903 64.0859C47.746 64.0051 47.7251 63.8853 47.7251 63.7211V61.9496C47.7251 61.7568 47.746 61.6083 47.7877 61.4989C47.8189 61.4155 47.9075 61.2957 48.0534 61.1368L47.9648 61.0352L47.6626 61.3843L47.2406 60.8268L46.2897 61.7386ZM43.8174 63.5049C43.5959 63.7003 43.3979 63.8462 43.2286 63.9426C43.0592 64.039 42.8717 64.1119 42.6632 64.164V62.5097C42.7857 62.4289 42.8925 62.3716 42.9759 62.343C43.0618 62.3143 43.1556 62.3013 43.2546 62.3013C43.4214 62.3013 43.6089 62.3612 43.8147 62.4837V63.5049H43.8174ZM43.8174 62.3013C43.6141 62.1893 43.4292 62.1346 43.2598 62.1346C43.0827 62.1346 42.8847 62.1919 42.6632 62.3065V61.439C42.8743 61.564 43.0697 61.6239 43.2494 61.6239C43.3458 61.6239 43.4344 61.6109 43.5125 61.5875C43.5907 61.5614 43.6923 61.5119 43.8147 61.439V62.3013H43.8174ZM40.8839 63.1949C40.7771 62.9109 40.7224 62.5957 40.7224 62.2492C40.7224 61.8584 40.7849 61.5041 40.9126 61.1863C41.0376 60.8658 41.1991 60.6001 41.3945 60.3891C41.5899 60.1781 41.8504 59.9592 42.1813 59.73C41.9546 60.0478 41.7931 60.3031 41.7019 60.4959C41.6472 60.6079 41.6134 60.7069 41.6003 60.7929C41.5873 60.8789 41.5795 61.0664 41.5795 61.3504V62.455C41.5795 62.8484 41.5586 63.1245 41.517 63.2782C41.4753 63.432 41.3841 63.5961 41.246 63.7732C41.0793 63.5831 40.9594 63.3903 40.8839 63.1949ZM42.52 64.2005C42.4236 64.2187 42.335 64.2265 42.2464 64.2265C42.0693 64.2265 41.9156 64.2005 41.7853 64.151C41.655 64.1015 41.5144 64.0155 41.3659 63.8931C41.6759 63.6221 41.8895 63.4033 42.0093 63.2392C42.0927 63.1245 42.15 63.0099 42.1787 62.8927C42.2021 62.8015 42.2125 62.6608 42.2125 62.4732V60.746C42.2125 60.3578 42.2308 60.0999 42.2673 59.967C42.3037 59.8368 42.3871 59.6857 42.5174 59.5215V64.2005H42.52ZM44.4165 59.7716L43.7574 59.2037L43.0097 60.2015L43.1139 60.3187L43.4656 59.8524L43.8147 60.1624V61.2384C43.7001 61.3191 43.6063 61.3765 43.5282 61.4025C43.45 61.4312 43.364 61.4442 43.2651 61.4442C43.0749 61.4442 42.8743 61.3738 42.6632 61.2358V59.1542H42.52C42.4314 59.2584 42.3532 59.3288 42.2855 59.3626C42.1526 59.4304 42.012 59.4642 41.8635 59.4642C41.6967 59.4642 41.5065 59.4199 41.2981 59.3288C41.0897 59.2376 40.9647 59.1881 40.9282 59.1777C40.8709 59.162 40.8083 59.1542 40.7432 59.1542C40.5087 59.1542 40.3081 59.2688 40.1362 59.5007C39.9643 59.7326 39.8783 60.0452 39.8783 60.4386C39.8783 60.5506 39.8913 60.6939 39.9148 60.871H40.045C40.032 60.746 40.0268 60.6444 40.0268 60.5636C40.0268 60.3396 40.0763 60.165 40.1779 60.04C40.2769 59.9123 40.415 59.8498 40.5869 59.8498C40.6625 59.8498 40.7589 59.855 40.8761 59.868C40.9907 59.8811 41.0949 59.8863 41.1887 59.8863C41.319 59.8863 41.5144 59.8472 41.7749 59.7716C41.4414 60.0113 41.1783 60.2406 40.9803 60.4568C40.6885 60.7773 40.4723 61.1081 40.3264 61.452C40.1805 61.7959 40.1102 62.1658 40.1102 62.5618C40.1102 63.0985 40.2352 63.5674 40.4879 63.9712C40.824 64.5157 41.3085 64.7893 41.939 64.7893C42.2829 64.7893 42.5981 64.7111 42.8899 64.5548C43.1817 64.3985 43.4917 64.1327 43.82 63.755C43.8356 64.0598 43.8747 64.2734 43.932 64.3985C43.9919 64.5235 44.1091 64.6538 44.2889 64.7893L44.9428 64.1718L44.8959 63.953C44.836 64.0285 44.7787 64.065 44.7266 64.065C44.6562 64.065 44.5963 64.0155 44.5442 63.9191C44.4921 63.8227 44.466 63.5909 44.466 63.2235V60.5767C44.466 60.3422 44.4869 60.1624 44.5286 60.0426C44.5703 59.9201 44.6797 59.73 44.8594 59.4668L44.763 59.3522L44.4165 59.7716ZM37.0907 64.1849L36.2753 63.7498V61.4494C36.3352 61.4077 36.3925 61.3582 36.4499 61.3035L37.0907 61.8272V64.1849ZM35.4208 60.462L36.244 61.1368C36.1268 61.254 35.9262 61.3608 35.6422 61.4546V63.4033C35.6422 63.6482 35.6318 63.8097 35.611 63.8879C35.5901 63.966 35.5406 64.0442 35.4677 64.1197V64.1901C35.6839 64.2213 35.8871 64.2812 36.0747 64.3698C36.2623 64.4558 36.4785 64.5965 36.7234 64.7867C36.8719 64.6382 37.01 64.5183 37.1376 64.4323C37.2653 64.3438 37.4607 64.2422 37.7212 64.1223V61.6187C37.7212 61.4494 37.7264 61.3374 37.7394 61.2853C37.7525 61.2306 37.7785 61.1706 37.8202 61.1029V60.9492C37.7368 60.9909 37.6769 61.0352 37.6352 61.0821C37.5961 61.129 37.5571 61.1993 37.5258 61.2905L35.4182 59.5528V60.462H35.4208ZM33.8499 61.3765L34.0687 61.65V63.6794L33.5008 64.1823C33.3809 64.078 33.3054 63.9921 33.2741 63.9243C33.2429 63.8566 33.2272 63.7498 33.2272 63.6013V61.6239L33.4591 61.3765L32.8964 60.8241L32.1643 61.5458L32.2399 61.6604C32.3258 61.5771 32.391 61.5328 32.4352 61.5328C32.4926 61.5328 32.5394 61.5666 32.5733 61.637C32.5916 61.6761 32.602 61.762 32.602 61.8897V63.7263C32.602 63.9582 32.6332 64.1484 32.6958 64.2891C32.7583 64.4323 32.8885 64.5965 33.0891 64.7867C33.4226 64.435 33.7483 64.1354 34.0687 63.8879C34.0739 64.1275 34.1 64.3047 34.1495 64.4141C34.199 64.5235 34.3084 64.6486 34.4725 64.7867L35.1316 64.1796L35.0561 64.065C34.9727 64.1432 34.9154 64.1849 34.8841 64.1849C34.8451 64.1849 34.806 64.151 34.7721 64.0833C34.72 63.9869 34.6939 63.8253 34.6939 63.5987V61.6474L34.944 61.3738L34.3917 60.8215L33.8499 61.3765ZM30.833 63.7133L30.3641 64.1666C30.0593 63.9061 29.9082 63.5752 29.9082 63.1714C29.9082 62.9422 29.9655 62.6764 30.0827 62.3742L30.833 62.7963V63.7133ZM30.833 62.6426L30.1505 62.257L29.7727 61.2983L30.833 61.6891V62.6426ZM31.4948 61.1472C31.4713 61.1654 31.4401 61.1759 31.3958 61.1759C31.302 61.1759 31.1639 61.1446 30.9868 61.0795C30.8096 61.0143 30.6455 60.931 30.4944 60.8268C30.3094 61.056 30.0958 61.1732 29.8509 61.1732C29.8118 61.1732 29.7519 61.1706 29.6711 61.1628L29.6268 61.2592L29.9994 62.2153C29.7493 62.5618 29.5747 62.8666 29.4731 63.1271C29.3976 63.3251 29.3585 63.5388 29.3585 63.7628C29.3585 64.1015 29.5357 64.4428 29.89 64.7919L30.8304 63.8983C30.8357 64.1093 30.8669 64.2734 30.9216 64.3907C30.9763 64.5079 31.0831 64.6408 31.2421 64.7893L31.9012 64.1041L31.8256 63.9895C31.7527 64.0624 31.7084 64.1041 31.6928 64.1171C31.6693 64.1301 31.6459 64.138 31.6224 64.138C31.5781 64.138 31.5417 64.1041 31.5104 64.039C31.4791 63.9738 31.4635 63.8097 31.4635 63.5466V61.9626C31.4635 61.775 31.4791 61.6239 31.5078 61.5145C31.5391 61.4051 31.6094 61.2462 31.7188 61.0378L31.6068 60.9857C31.5573 61.0742 31.5182 61.129 31.4948 61.1472ZM24.7786 64.7554C24.5728 64.7554 24.4191 64.7111 24.3096 64.6225C24.2419 64.5678 24.208 64.4949 24.208 64.4037C24.208 64.3177 24.2419 64.2448 24.3096 64.1849C24.4086 64.0963 24.5441 64.052 24.7134 64.052C25.0417 64.052 25.4637 64.1536 25.977 64.3594C25.4924 64.6225 25.0912 64.7554 24.7786 64.7554ZM25.8754 62.9552C26.016 62.9552 26.313 62.9265 26.7637 62.8692C26.9253 62.8458 27.0607 62.8354 27.1727 62.8354C27.2639 62.8354 27.3369 62.8666 27.3942 62.9318C27.4515 62.9969 27.4828 63.0672 27.4828 63.148C27.4828 63.4033 27.2327 63.669 26.7325 63.9426C26.4172 63.8123 26.1984 63.7237 26.076 63.6794C25.9535 63.6352 25.7946 63.5883 25.5992 63.5362L25.8754 62.9552ZM26.4537 61.7412C26.7663 61.6943 27.0242 61.6734 27.2248 61.6734C27.4723 61.6734 27.6938 61.7255 27.884 61.8324C28.0741 61.9366 28.2148 62.0799 28.3086 62.257C28.3998 62.4342 28.4467 62.6139 28.4467 62.7989C28.4467 63.0802 28.3737 63.3356 28.2252 63.57C28.0794 63.8019 27.8683 64.0207 27.5974 64.2213L26.9669 64.0207C27.4124 63.7758 27.7042 63.5726 27.8397 63.4085C27.9751 63.2444 28.0429 63.075 28.0429 62.9031C28.0429 62.7051 27.9725 62.5332 27.8345 62.3899C27.6964 62.2466 27.4958 62.1762 27.2327 62.1762C27.0399 62.1762 26.6986 62.2049 26.2062 62.2648L26.4537 61.7412ZM26.0421 62.2726C25.7738 62.3117 25.5523 62.33 25.3778 62.33C25.0078 62.33 24.7473 62.2648 24.5936 62.1372C24.479 62.0382 24.4191 61.9105 24.4191 61.7568C24.4191 61.5875 24.4946 61.4468 24.6431 61.3322C24.7004 61.5015 24.789 61.6239 24.9062 61.7047C25.0235 61.7829 25.2241 61.8245 25.5054 61.8245C25.7581 61.8245 26.0186 61.8011 26.287 61.7542L26.0421 62.2726ZM26.6074 61.0769C26.1228 61.1264 25.8102 61.1498 25.6722 61.1498C25.4611 61.1498 25.3048 61.0951 25.2006 60.9831C25.0964 60.871 25.0443 60.7278 25.0443 60.5558C25.0443 60.3787 25.1042 60.225 25.2267 60.0947C25.3491 59.9644 25.5054 59.8967 25.7008 59.8967C25.8389 59.8967 25.9978 59.9306 26.1802 59.9957C26.3625 60.0608 26.6152 60.1911 26.9383 60.3839L26.6074 61.0769ZM24.8854 60.3344C24.7134 60.634 24.6301 60.8971 24.6301 61.129L24.6327 61.1732C24.4425 61.2592 24.307 61.3582 24.2237 61.4676C24.0934 61.6396 24.0283 61.835 24.0283 62.0564C24.0283 62.1945 24.0569 62.3273 24.1142 62.455C24.1716 62.5827 24.2601 62.6869 24.3774 62.7754C24.4946 62.8614 24.6431 62.9239 24.8255 62.963C25.0078 63.0021 25.1511 63.0203 25.2605 63.0177L25.7138 62.976L25.4611 63.5101C25.2631 63.471 25.0964 63.4502 24.9635 63.4502C24.6223 63.4502 24.3643 63.531 24.1924 63.6925C24.0178 63.854 23.9319 64.0338 23.9319 64.2291C23.9319 64.4115 24.0048 64.5756 24.1481 64.7137C24.2914 64.8544 24.4972 64.9247 24.7629 64.9247C25.1381 64.9247 25.6148 64.7658 26.1958 64.4454C26.5214 64.5652 26.808 64.6798 27.0529 64.7893C27.7537 64.3698 28.2383 63.9712 28.5118 63.5935C28.7854 63.2157 28.9234 62.8302 28.9234 62.4394C28.9234 62.2257 28.8792 62.0304 28.7906 61.8532C28.702 61.6761 28.5822 61.5223 28.4285 61.3921C28.2747 61.2618 28.0898 61.1654 27.8761 61.1029C27.6625 61.0404 27.4749 61.0143 27.3134 61.0221L26.7768 61.0638L27.4515 59.6883C27.5036 59.5841 27.5271 59.5163 27.5271 59.4799C27.5271 59.459 27.5192 59.4382 27.5062 59.4199C27.4932 59.4017 27.4749 59.3939 27.4541 59.3939C27.4333 59.3939 27.415 59.4043 27.3994 59.4226C27.3838 59.4408 27.3577 59.4903 27.3186 59.5684L27.2144 59.7873L25.8154 59.2272C25.3673 59.6674 25.0547 60.0374 24.8854 60.3344ZM20.902 63.8931C20.9281 64.1197 20.9932 64.3307 21.0922 64.5235C21.1912 64.7163 21.3814 64.969 21.6601 65.2816L21.5325 65.378C21.3788 65.2816 21.2251 65.2087 21.0714 65.1618C20.9203 65.1149 20.7692 65.0915 20.6207 65.0915C20.4565 65.0915 20.2377 65.1175 19.9694 65.1696L20.902 63.8931ZM20.902 63.6456L20.5139 64.2005L20.0553 63.8019V61.366L20.902 61.7151V63.6456ZM19.4223 61.366V64.0572L20.1543 64.6877L19.4223 65.7141L19.4666 65.8418C19.8235 65.7245 20.1387 65.6672 20.4123 65.6672C20.5269 65.6672 20.6467 65.6802 20.7718 65.7089C20.8968 65.7376 21.0297 65.7818 21.1678 65.8418C21.5742 65.6125 21.8269 65.4458 21.9207 65.3364C22.0145 65.2269 22.0613 65.1123 22.0613 64.9951C22.0613 64.8752 21.9728 64.6798 21.793 64.4037C21.681 64.237 21.608 64.0911 21.5742 63.966C21.5481 63.8696 21.5325 63.6847 21.5325 63.4111V61.7229L22.09 61.8532V61.0169L21.5143 61.366L20.5503 60.8241C20.2091 61.0821 19.8313 61.2618 19.4223 61.366ZM16.9421 61.7386V61.6057C16.9421 61.4364 16.9187 61.3061 16.8744 61.2123C16.8301 61.1185 16.7155 60.9883 16.5331 60.8268L15.874 61.4807L15.9496 61.5953C16.0329 61.4989 16.0954 61.4494 16.1371 61.4494C16.1762 61.4494 16.2127 61.4807 16.2439 61.5458C16.2882 61.6396 16.3117 61.8219 16.3117 62.0929V63.9895L16.0798 64.2552L16.6295 64.7893L17.1766 64.2552L16.9447 63.9895V61.9261L17.4736 61.4155L17.7471 61.762V63.7967C17.7471 64.0624 17.7706 64.2552 17.8201 64.375C17.8696 64.4949 17.979 64.6303 18.1509 64.7867L18.8153 64.1328L18.7397 64.0181C18.6329 64.1145 18.5626 64.164 18.5339 64.164C18.5 64.164 18.4714 64.138 18.4427 64.0859C18.3984 64.0051 18.3776 63.8853 18.3776 63.7211V61.9496C18.3776 61.7568 18.3984 61.6083 18.4401 61.4989C18.4714 61.4155 18.56 61.2957 18.7059 61.1368L18.6173 61.0352L18.3151 61.3843L17.893 60.8268L16.9421 61.7386ZM14.2119 61.3738L14.4437 61.6578V63.7315C14.4437 64.0442 14.4672 64.263 14.5141 64.3881C14.561 64.5131 14.6678 64.646 14.8345 64.7867L15.4989 64.1406L15.4233 64.0259C15.3399 64.1067 15.2878 64.1562 15.2618 64.1744C15.2435 64.1875 15.2227 64.1927 15.1993 64.1927C15.168 64.1927 15.1367 64.1614 15.1081 64.0963C15.0768 64.0311 15.0638 63.8931 15.0638 63.6794V61.6578L15.3087 61.3738L14.759 60.8241L14.2119 61.3738ZM14.8345 60.3552H14.9596L15.3868 59.5528H14.9908L14.8345 60.3552ZM11.9245 64.138C11.7396 64.0233 11.5728 63.9452 11.4217 63.9009C11.2706 63.8566 11.0361 63.8253 10.7183 63.8045C10.9215 63.6326 11.0648 63.4554 11.1508 63.2678C11.2368 63.0829 11.281 62.8484 11.2889 62.5696C11.4842 62.5801 11.6614 62.653 11.8255 62.7911C11.9897 62.9291 12.1668 63.1819 12.3596 63.5518L11.9245 64.138ZM12.5888 61.3035L11.2862 62.4029L11.2915 62.0408L11.2862 61.4494V61.3374L12.073 60.5793L12.5888 61.3035ZM11.2654 60.2797C11.1846 60.6392 11.143 60.957 11.143 61.2384L11.156 62.3951C11.156 62.6895 11.1169 62.9344 11.0414 63.1245C10.9658 63.3173 10.8564 63.4736 10.7157 63.5987C10.575 63.7237 10.338 63.8696 10.0071 64.0364C9.82473 64.1301 9.65539 64.2291 9.49648 64.3307L10.4083 63.4163C10.4265 63.3955 10.4734 63.333 10.5516 63.2287C10.6297 63.1245 10.6897 63.0047 10.7287 62.8718C10.7704 62.739 10.7913 62.5931 10.7913 62.4342L10.7782 61.3738C10.7782 61.0143 10.8199 60.6444 10.9059 60.2614C10.9919 59.8785 11.1195 59.5372 11.2889 59.2402L11.1768 59.1516C10.971 59.2793 10.7782 59.3444 10.5985 59.3444C10.4891 59.3444 10.3484 59.3131 10.1764 59.248C10.0045 59.1829 9.86121 59.1516 9.74658 59.1516C9.59808 59.1516 9.44958 59.2063 9.3063 59.3157C9.16041 59.4252 9.04057 59.5789 8.94157 59.7769C8.87905 59.9019 8.82694 60.0895 8.78265 60.3396L8.88686 60.3682C8.98065 60.1494 9.08225 59.9957 9.18646 59.9019C9.29067 59.8081 9.41832 59.7612 9.56942 59.7612C9.61371 59.7612 9.68926 59.7717 9.79608 59.7977C9.90028 59.8212 9.98626 59.8342 10.054 59.8342C10.179 59.8342 10.3041 59.8081 10.4291 59.7586C10.5568 59.7065 10.7287 59.6049 10.9476 59.4538C10.5776 59.9175 10.3536 60.2354 10.2754 60.4125C10.1973 60.5871 10.1582 60.7903 10.1582 61.0221C10.1582 61.1003 10.1608 61.1889 10.1634 61.2931C10.0748 61.2253 9.99147 61.1758 9.9107 61.142C9.82994 61.1081 9.757 61.0925 9.68926 61.0925C9.56161 61.0925 9.44958 61.1342 9.35059 61.2149C9.25419 61.2957 9.18125 61.4155 9.13175 61.5744L9.23596 61.6239C9.34017 61.5119 9.44177 61.4572 9.54598 61.4572C9.72574 61.4572 9.87944 61.538 10.0071 61.7021C10.1348 61.8662 10.1999 62.0799 10.1999 62.3456C10.1999 62.4055 10.1973 62.4732 10.1947 62.554C10.1087 62.4811 10.0279 62.429 9.94978 62.3951C9.87163 62.3612 9.79608 62.343 9.72313 62.343C9.61111 62.343 9.51211 62.3821 9.42353 62.4654C9.33496 62.5462 9.27243 62.6608 9.23596 62.8067L9.34538 62.8692C9.41572 62.7572 9.49648 62.7025 9.58766 62.7025C9.68666 62.7025 9.77263 62.7468 9.84297 62.8328C9.91591 62.9187 9.95239 63.0281 9.95239 63.1584C9.95239 63.2965 9.9081 63.4398 9.82213 63.5883C9.64758 63.8879 9.3558 64.2317 8.95199 64.6173L9.05359 64.7893C9.31151 64.6564 9.54077 64.56 9.73876 64.5053C9.93676 64.4506 10.14 64.4219 10.3458 64.4219C10.5568 64.4219 10.7626 64.4506 10.9632 64.5079C11.1638 64.5652 11.3879 64.659 11.6353 64.7919L12.4351 63.6977C12.6436 64.1458 12.779 64.4193 12.8416 64.5131C12.9041 64.6095 12.9874 64.7007 13.0969 64.7893L13.868 63.8957L13.769 63.755L13.6075 63.9374C13.5267 64.0338 13.4668 64.0833 13.4277 64.0833C13.3886 64.0833 13.3496 64.0572 13.3079 64.0025C13.2662 63.9504 13.1516 63.7315 12.964 63.3486C12.7764 62.9656 12.6123 62.6869 12.4716 62.5045C12.3309 62.3247 12.1642 62.1736 11.974 62.0512L13.2063 60.9987L12.4846 59.9905L11.2967 61.1211C11.3201 60.759 11.367 60.4438 11.44 60.1728C11.5129 59.9019 11.6353 59.5919 11.8099 59.2402L11.6901 59.1516C11.4868 59.545 11.3462 59.9201 11.2654 60.2797Z" fill="#004990"></path></svg>