<svg xmlns="http://www.w3.org/2000/svg" width="67" height="34" viewBox="0 0 67 34" fill="none"><g clip-path="url(#clip0_106_6084)"><path d="M25.9153 0.576904V7.48378H32.6684V0.576904H25.9153ZM32.6684 7.48378V14.0327H39.4217V7.48378H32.6684ZM32.6684 14.0327H25.9153V25.6463C25.9153 27.9997 26.6316 29.8932 27.9103 31.2231C29.343 32.6559 31.4407 33.423 34.0499 33.423C36.7105 33.423 38.6032 32.6046 39.4217 31.8882V26.3627C38.8081 26.8233 37.5803 27.3856 35.994 27.3856C34.8684 27.3856 34.0499 27.1299 33.4356 26.5671C32.9242 26.0557 32.6684 25.1863 32.6684 24.0093V14.0327ZM11.3339 6.71657C8.21323 6.71657 5.604 7.73947 3.81336 9.3766C2.27845 10.8093 1.4086 12.7535 1.4086 14.9026C1.4086 16.7954 2.0228 18.3816 3.25069 19.6094C4.47849 20.8373 6.26911 21.758 8.6225 22.3208L12.5108 23.2421C14.4551 23.7022 15.325 24.4185 15.325 25.6977C15.325 27.2835 13.8923 28.2042 11.5388 28.2042C9.85031 28.2042 8.46897 27.6419 7.59911 26.7206C6.98544 26.107 6.62695 25.2884 6.57611 24.3672L0.743591 25.6463C0.897191 27.3856 1.71565 28.9211 2.94355 30.1483C4.88769 32.1952 8.00838 33.423 11.5388 33.423C14.9665 33.423 17.7805 32.3488 19.622 30.5582C21.004 29.1763 21.8225 27.3348 21.8225 25.1863C21.8225 23.242 21.1062 21.5022 19.7756 20.1722C18.4457 18.8416 16.5522 17.8697 14.148 17.4096L10.2083 16.6419C8.57125 16.3347 7.65047 15.5162 7.65047 14.3905C7.65047 12.907 9.08252 11.8841 11.3852 11.8841C12.8174 11.8841 14.0458 12.3442 14.8644 13.1627C15.3758 13.7255 15.7336 14.4419 15.8364 15.2605L21.5153 13.9813C21.3618 12.3442 20.5941 10.912 19.4177 9.73497C17.5757 7.89295 14.7107 6.71657 11.3339 6.71657ZM54.5145 6.71657C50.8825 6.71657 47.6077 8.09787 45.2543 10.4513C42.9008 12.8562 41.4686 16.1811 41.4686 20.0695C41.4686 23.9579 42.9523 27.2835 45.3571 29.6883C47.71 32.0417 51.036 33.423 54.7195 33.423C58.5056 33.423 61.422 32.0418 63.417 30.0976C65.0033 28.5627 65.9753 26.772 66.4867 24.93L60.5006 22.935C60.2449 23.8556 59.7334 24.8278 58.9143 25.595C57.9422 26.5163 56.6122 27.1813 54.7195 27.1813C52.9801 27.1813 51.3426 26.5163 50.1661 25.3393C48.9892 24.1114 48.2733 22.3207 48.2733 20.0695C48.2733 17.7674 48.9892 16.0277 50.1661 14.8004C51.3426 13.6233 52.9289 13.0097 54.6681 13.0097C56.5101 13.0097 57.7893 13.6233 58.71 14.5441C59.4778 15.3118 59.9379 16.2839 60.245 17.256L66.3332 15.2091C65.8725 13.4185 64.9006 11.6277 63.4683 10.1442C61.422 8.14921 58.4543 6.71657 54.5145 6.71657Z" fill="#4F008C"></path></g><defs><clipPath id="clip0_106_6084"><rect width="65.7431" height="32.8462" fill="white" transform="translate(0.743591 0.576904)"></rect></clipPath></defs></svg>