<svg xmlns="http://www.w3.org/2000/svg" width="103" height="24" viewBox="0 0 103 24" fill="none"><g clip-path="url(#clip0_106_5881)"><path d="M87.1275 4.18336L92.9639 2.35951V19.608L87.1275 21.5881V4.18336ZM78.2167 23.8289H102.031V0.118774H78.2688V23.8289H78.2167Z" fill="#400700"></path><path d="M14.6424 6.99742C14.6424 7.83118 14.4339 8.19595 13.965 8.19595C13.496 8.19595 13.027 7.77907 12.558 7.10164C12.4538 6.99742 12.4538 6.8932 12.4538 6.8932V6.73687C12.4538 5.53834 12.6101 4.80879 13.7044 4.80879C14.0171 4.80879 14.3297 4.80879 14.6424 4.8609V6.99742ZM18.7591 7.10164C18.7591 7.9354 18.2901 8.14384 17.769 8.14384C17.0916 8.14384 16.5183 7.77907 16.5183 6.58054V3.50604C15.7888 3.2976 14.4861 3.08916 13.3396 3.08916C11.4116 3.08916 10.5257 4.13136 10.5257 5.90311V7.10164C10.5257 7.9354 10.1609 8.14384 9.69192 8.14384H9.0666C8.59761 8.14384 8.23284 7.9354 8.23284 7.10164V0.0667725H6.35687V7.15375C6.35687 8.76916 6.9822 9.55082 8.38917 9.55082H10.3172C11.2552 9.55082 11.7763 9.23816 12.089 8.66494C12.089 8.66494 12.1932 8.76916 12.2453 8.82127C12.7664 9.34237 13.3917 9.65504 14.0171 9.65504C14.7466 9.65504 15.3719 9.39449 15.7888 8.92549C16.6226 9.55082 17.1958 9.55082 18.1338 9.55082C19.3844 9.55082 20.5829 9.34238 20.5829 7.15375V3.50604H18.707V7.10164H18.7591ZM3.07394 7.46641C3.07394 6.99742 3.59504 6.73687 4.16825 6.73687C4.27247 6.73687 4.4288 6.73687 4.48091 6.78898L4.9499 5.27779C4.58513 5.22568 4.22036 5.17357 3.9077 5.17357C2.70917 5.17357 1.25008 5.79889 1.25008 7.15375C1.25008 7.57063 1.3543 7.83118 1.51063 8.14384H0.833202L0.416321 9.55082H4.74146L5.15834 8.14384H4.06403C3.49082 8.14384 3.07394 7.88329 3.07394 7.46641ZM19.6971 0.0667725C19.1239 0.0667725 18.707 0.535764 18.707 1.05686C18.707 1.63008 19.176 2.09907 19.6971 2.09907C20.2703 2.09907 20.7393 1.63008 20.7393 1.05686C20.7393 0.535764 20.2703 0.0667725 19.6971 0.0667725ZM45.9085 7.10164C45.9085 7.77907 45.5958 8.14384 44.9705 8.14384C44.6057 8.14384 43.7198 7.04953 43.7198 6.16366C43.7198 5.43412 44.0325 4.8609 44.9705 4.8609C45.2831 4.8609 45.5958 4.8609 45.9085 4.91301V7.10164ZM47.7844 3.50604C47.0549 3.2976 45.7521 3.08916 44.6057 3.08916C42.6776 3.08916 41.7918 4.13136 41.7918 5.90311C41.7918 6.63265 42.2086 7.4143 42.6776 8.09173C41.3228 8.09173 39.3947 8.09173 39.3947 8.09173C38.7173 8.09173 38.1962 7.72696 38.1962 7.04953V4.8609L36.3202 5.48623V7.36219C36.3202 8.61283 37.3624 9.55082 38.5609 9.55082H44.9184H44.9705C46.5859 9.55082 47.7844 8.87338 47.7844 7.15375V3.50604ZM30.0149 9.55082H31.8908V0.0667725H30.0149V9.55082ZM44.9184 2.09907C45.4916 2.09907 45.9085 1.63008 45.9085 1.10898C45.9085 0.535764 45.4395 0.118883 44.9184 0.118883C44.3452 0.118883 43.9283 0.587874 43.9283 1.10898C43.9283 1.63008 44.3973 2.09907 44.9184 2.09907ZM70.5565 6.99742C70.5565 7.83118 70.3481 8.19595 69.8791 8.19595C69.4101 8.19595 68.9411 7.77907 68.4721 7.10164C68.3679 6.99742 68.3679 6.8932 68.3679 6.8932V6.73687C68.3679 5.53834 68.5243 4.80879 69.6186 4.80879C69.9312 4.80879 70.2439 4.80879 70.6087 4.8609V6.99742H70.5565ZM56.0699 8.14384V6.52843C58.2064 5.95522 59.4571 5.79889 60.3951 5.79889C61.5415 5.79889 62.3753 6.52843 62.5316 8.19595H56.0699V8.14384ZM69.2538 3.08916C67.3257 3.08916 66.4398 4.13136 66.4398 5.90311V7.10164C66.4398 7.9354 66.0751 8.14384 65.6061 8.14384H64.4076C64.147 5.64256 63.1569 4.02714 60.7077 4.02714C59.5092 4.02714 57.8417 4.39191 56.0699 4.91301V3.97503L54.194 4.54824V8.09173H51.9011V3.50604H50.0252V8.35228C50.0252 10.1761 48.6182 10.7493 47.7323 10.7493L48.1492 12.1563C49.6604 12.1563 51.2758 11.4268 51.7448 9.49871H66.2314C67.1694 9.49871 67.6905 9.18604 68.0032 8.61283C68.0032 8.61283 68.1074 8.71705 68.1595 8.76916C68.6806 9.29027 69.3059 9.60293 69.9312 9.60293C71.4424 9.60293 72.3283 8.61283 72.3283 6.8932V3.50604C71.703 3.34971 70.4002 3.08916 69.2538 3.08916Z" fill="#400700"></path><path d="M23.5532 11.2182C23.5532 11.0098 23.7616 10.9056 24.0743 10.9056C24.1264 10.9056 24.1785 10.9056 24.2306 10.9056L24.4391 10.2281C24.2306 10.176 24.0743 10.176 23.9701 10.176C23.449 10.176 22.7715 10.4366 22.7715 11.0619C22.7715 11.2182 22.8237 11.3746 22.8758 11.4788H22.6673L22.4589 12.1041H24.3349L24.5433 11.4788H24.0743C23.7095 11.5309 23.5532 11.4267 23.5532 11.2182Z" fill="#400700"></path><path d="M26.211 7.10164C26.211 7.9354 25.8462 8.14384 25.3772 8.14384H24.335V0.0667725H22.928V8.14384H22.1985L21.7816 9.55082H26.0546C27.4616 9.55082 28.139 8.87338 28.139 7.15375V0.0667725H26.2631V7.10164H26.211Z" fill="#400700"></path><path d="M47.4719 22.5269C47.1593 22.5269 46.8466 22.4748 46.534 22.4227V18.5145C46.8466 18.4624 47.2114 18.4103 47.524 18.4103C48.2536 18.4103 49.0352 18.4624 49.0352 20.4425C49.0873 21.7974 48.3057 22.5269 47.4719 22.5269ZM47.6283 16.8991C47.2635 16.8991 46.8466 16.9512 46.534 17.0033V14.1893H44.8143V23.5692C45.8044 23.8297 46.4297 23.9339 47.524 23.9339C49.4 23.9339 50.8591 22.6833 50.8591 20.4425C50.8591 17.5765 49.5042 16.8991 47.6283 16.8991Z" fill="#400700"></path><path d="M70.1918 19.8693L72.5889 17.1075H70.713L68.2117 20.0778V14.1893H66.492V23.8297H68.2117V20.7031H68.7849L70.6608 23.8297H72.641L70.1918 19.8693Z" fill="#400700"></path><path d="M13.4962 17.1072H11.7766V23.7773H13.4962V17.1072Z" fill="#400700"></path><path d="M12.6622 14.3456C12.1411 14.3456 11.7243 14.7625 11.7243 15.2836C11.7243 15.8047 12.1411 16.2215 12.6622 16.2215C13.1833 16.2215 13.6002 15.8047 13.6002 15.2836C13.5481 14.7625 13.1312 14.3456 12.6622 14.3456Z" fill="#400700"></path><path d="M18.3943 16.8989C17.2479 16.8989 15.9451 17.1074 15.1635 17.3158V23.8296H16.8831V18.6186C17.3 18.5664 17.7169 18.5143 18.1338 18.5143C19.2802 18.5143 19.4886 19.2439 19.4886 20.4424V23.8296H21.2604V19.765C21.2604 17.9411 20.3745 16.8989 18.3943 16.8989Z" fill="#400700"></path><path d="M62.0626 16.8989C60.9162 16.8989 59.6135 17.1074 58.8318 17.3158V23.8296H60.5514V18.6186C60.9683 18.5664 61.3852 18.5143 61.8021 18.5143C62.9485 18.5143 63.1569 19.2439 63.1569 20.4424V23.8296H64.8766V19.765C64.9287 17.9411 64.0428 16.8989 62.0626 16.8989Z" fill="#400700"></path><path d="M30.2756 16.8989C29.494 16.8989 28.6081 17.0553 27.8785 17.42C27.5138 17.1595 26.8885 16.8989 26.0026 16.8989C24.9083 16.8989 23.6055 17.1074 22.876 17.3158V23.8296H24.5956V18.6186C25.0125 18.5664 25.4294 18.5143 25.7941 18.5143C26.9406 18.5143 27.0969 19.2439 27.0969 20.4424V23.8296H28.8165V19.765C28.8165 19.5044 28.8165 19.3481 28.7644 19.1397C28.7644 19.0876 28.7644 19.0876 28.7644 19.0354C28.7644 18.9833 28.7644 18.9312 28.7123 18.827C29.1292 18.6186 29.6503 18.4622 30.0151 18.4622C31.1615 18.4622 31.3178 19.1918 31.3178 20.3903V23.7775H33.0375V19.7129C33.1417 17.9411 32.2558 16.8989 30.2756 16.8989Z" fill="#400700"></path><path d="M10.161 22.475C9.7441 22.475 9.37933 22.2665 9.37933 21.537V14.2416H7.6597V21.6412C7.6597 23.6214 8.75401 23.8819 9.58777 23.8819H10.6821V22.475H10.161Z" fill="#400700"></path><path d="M4.27254 22.3705C4.01199 22.631 3.543 22.7353 3.23034 22.7353C2.65713 22.7353 2.29236 22.4226 2.29236 21.7452C2.29236 20.9114 3.28245 20.7551 4.27254 20.703V22.3705ZM3.49089 16.8989C2.76135 16.8989 1.66704 17.1074 0.937494 17.3158L1.30227 18.6186C1.9797 18.4622 2.65713 18.3059 3.07401 18.3059C3.90777 18.3059 4.27254 18.5665 4.27254 19.5565V19.6087C2.03181 19.7129 0.572723 20.2861 0.572723 21.9015C0.572723 23.1 1.40649 23.9338 2.86557 23.9338C3.43878 23.9338 4.01199 23.8296 4.53309 23.5169C4.5852 23.6732 4.5852 23.7254 4.63731 23.8296H5.94007C5.94007 23.4127 5.94007 22.8916 5.94007 22.4226V19.296C5.99218 17.1595 4.68942 16.8989 3.49089 16.8989Z" fill="#400700"></path><path d="M37.9879 22.3705C37.7274 22.631 37.2584 22.7353 36.9457 22.7353C36.3725 22.7353 36.0078 22.4226 36.0078 21.7452C36.0078 20.9114 36.9978 20.7551 37.9879 20.703V22.3705ZM37.2584 16.8989C36.5288 16.8989 35.4345 17.1074 34.705 17.3158L35.0698 18.6186C35.7472 18.4622 36.4246 18.3059 36.8415 18.3059C37.6753 18.3059 38.04 18.5665 38.04 19.5565V19.6087C35.7993 19.7129 34.3923 20.2861 34.3923 21.9015C34.3923 23.1 35.2261 23.9338 36.6852 23.9338C37.2584 23.9338 37.8316 23.8296 38.3527 23.5169C38.4048 23.6211 38.4048 23.6732 38.4569 23.8296H39.7597C39.7597 23.4127 39.7597 22.8916 39.7597 22.4226V19.296C39.7076 17.1595 38.4048 16.8989 37.2584 16.8989Z" fill="#400700"></path><path d="M55.5491 22.3705C55.2885 22.631 54.8195 22.7353 54.5069 22.7353C53.9337 22.7353 53.5689 22.4226 53.5689 21.7452C53.5689 20.9114 54.559 20.7551 55.5491 20.703V22.3705ZM54.8195 16.8989C54.09 16.8989 52.9957 17.1074 52.2661 17.3158L52.6309 18.6186C53.3083 18.4622 53.9858 18.3059 54.4027 18.3059C55.2364 18.3059 55.6012 18.5665 55.6012 19.5565V19.6087C53.3604 19.7129 51.9014 20.2861 51.9014 21.9015C51.9014 23.1 52.7351 23.9338 54.1942 23.9338C54.7674 23.9338 55.3406 23.8296 55.8617 23.5169C55.9138 23.6211 55.9138 23.6732 55.966 23.8296H57.2687C57.2687 23.4127 57.2687 22.8916 57.2687 22.4226V19.296C57.2687 17.1595 55.966 16.8989 54.8195 16.8989Z" fill="#400700"></path></g><defs><clipPath id="clip0_106_5881"><rect width="101.615" height="23.8664" fill="white" transform="translate(0.416321 0.0667725)"></rect></clipPath></defs></svg>