<svg xmlns="http://www.w3.org/2000/svg" width="105" height="106" viewBox="0 0 105 106" fill="none"><g clip-path="url(#clip0_106_5835)"><path d="M83.0663 48.0399C85.3464 46.3448 87.8067 45.6875 90.5397 46.3467C96.9809 47.9002 99.3872 55.7879 94.83 60.5947C91.8965 63.6881 88.8494 66.6765 85.7935 69.6514C83.6436 71.7445 80.2687 70.83 79.3137 67.989C79.2251 67.725 78.9649 67.407 78.7153 67.3251C75.7414 66.3469 74.8644 62.9615 77.0472 60.7084C78.6575 59.0471 80.3112 57.4261 81.9465 55.7888C83.3063 54.4272 84.6631 53.0616 86.0335 51.7115C86.5963 51.1574 87.267 51.0466 87.9618 51.4359C88.6027 51.7944 88.8706 52.4025 88.6923 53.0905C88.5892 53.4895 88.3049 53.8817 88.0061 54.1834C85.3175 56.9009 82.6076 59.5973 79.9054 62.3014C79.6664 62.5404 79.3455 62.7485 79.2232 63.0377C79.1037 63.3219 79.0584 63.8626 79.2174 63.9859C79.4477 64.1642 79.9016 64.1285 80.2389 64.0678C80.4306 64.0331 80.5829 63.7691 80.7487 63.6043C83.4691 60.8819 86.1886 58.1585 88.9091 55.4352C89.0749 55.2694 89.2339 55.096 89.4102 54.9447C90.0973 54.3559 90.9878 54.3742 91.591 54.9822C92.1683 55.5643 92.2068 56.5424 91.6113 57.1679C90.6428 58.1846 89.6377 59.1656 88.6451 60.1591C86.789 62.0171 84.9301 63.8732 83.075 65.7321C82.8736 65.9345 82.5816 66.1253 82.5209 66.3691C82.4399 66.6939 82.4255 67.1612 82.6076 67.3839C82.7416 67.5477 83.2388 67.4465 83.5665 67.4031C83.6908 67.3867 83.7949 67.2036 83.9057 67.0928C86.7177 64.2779 89.5394 61.4726 92.3369 58.6433C93.9694 56.9925 94.4589 55.0121 93.6543 52.8352C92.8621 50.6948 91.2383 49.4922 88.9554 49.2879C87.2178 49.1327 85.755 49.7764 84.5311 51.0061C81.668 53.8808 78.8001 56.7496 75.9303 59.6175C73.8256 61.7213 71.321 61.3358 69.9487 58.7021C68.1534 55.2559 68.9176 50.9512 71.7845 48.3512C74.7102 45.6981 79.0343 45.357 82.3223 47.5205C82.5613 47.6785 82.7917 47.8472 83.0663 48.0399ZM73.071 57.6651C75.5698 55.1788 78.0735 52.6868 80.5685 50.2043C78.6642 48.6962 75.5139 48.9901 73.655 50.9377C71.8462 52.8303 71.6139 56.0192 73.071 57.6651Z" fill="#00CE8B"></path><path d="M8.35897 47.3268C8.9603 47.3268 9.47202 47.3268 10.1129 47.3268C10.1129 48.0592 10.1119 48.7742 10.1129 49.4893C10.1148 50.5811 10.0762 51.6749 10.1331 52.7648C10.1967 53.9742 11.1286 54.5756 12.2474 54.2132C12.9557 53.9839 13.1947 53.4577 13.1957 52.7735C13.1986 50.9811 13.1966 49.1886 13.1966 47.322C13.8394 47.322 14.4147 47.322 15.0604 47.322C15.0604 48.4475 15.0334 49.5606 15.0681 50.6717C15.1038 51.8387 15.8786 52.4246 16.9955 52.1905C17.8387 52.0141 18.1172 51.4031 18.1365 50.6428C18.1635 49.5779 18.1432 48.5131 18.1432 47.3836C18.7417 47.3836 19.2977 47.3836 19.9944 47.3836C19.9944 47.7074 19.9935 48.0563 19.9944 48.4042C19.9964 49.1317 19.9704 49.8613 20.0079 50.5869C20.0667 51.7404 20.5447 52.2329 21.5383 52.2338C22.5135 52.2348 23.0204 51.6971 23.0464 50.5686C23.0705 49.5105 23.0512 48.4514 23.0512 47.3595C23.6988 47.3595 24.2385 47.3595 24.9034 47.3595C24.9034 48.1912 24.8899 49.0363 24.9092 49.8805C24.9198 50.345 24.8851 50.8519 25.0586 51.2596C25.2109 51.6171 25.5982 51.9004 25.9346 52.1442C26.1013 52.2656 26.3856 52.2415 26.6178 52.2541C28.6782 52.3601 29.1157 51.9544 29.1224 49.9114C29.1292 47.7026 29.1244 45.4939 29.1244 43.2167C29.7199 43.2167 30.275 43.2167 30.9313 43.2167C30.9428 43.4595 30.9669 43.7322 30.9669 44.004C30.9698 46.1617 30.9631 48.3203 30.9708 50.478C30.9756 51.7433 31.4401 52.2117 32.7064 52.256C32.9916 52.2656 33.2798 52.2695 33.5631 52.2415C34.4632 52.1538 34.8756 51.7799 34.9604 50.8702C35.0259 50.1735 34.997 49.4681 35.0047 48.7665C35.0096 48.3271 35.0057 47.8876 35.0057 47.3933C35.6061 47.3933 36.1592 47.3933 36.7211 47.3933C36.7211 48.8195 36.8242 50.2246 36.6912 51.6065C36.5678 52.8785 35.4634 53.8702 34.1673 54.0157C32.7411 54.1766 31.2926 54.273 30.1285 53.2187C28.0566 54.4522 26.0367 54.4407 23.9513 53.2361C22.368 54.4185 20.7134 54.3983 19.0423 53.1811C17.8329 54.2161 16.4722 54.2903 14.9746 53.7632C14.4957 55.2097 13.4838 56.0115 11.9535 56.1387C10.1745 56.2861 8.46208 54.9408 8.38017 53.1773C8.29055 51.2586 8.35897 49.3351 8.35897 47.3268Z" fill="#00CE8B"></path><path d="M88.1064 40.238C88.0881 42.9942 85.8235 45.2463 83.0712 45.2444C80.2891 45.2424 78.0042 42.9479 78.0157 40.1658C78.0283 37.3335 80.2987 35.1286 83.182 35.1498C85.9314 35.171 88.1247 37.4376 88.1064 40.238ZM83.0808 42.0661C84.1245 42.0594 84.9639 41.2249 84.9687 40.1899C84.9735 39.1713 84.1168 38.2972 83.0982 38.2808C82.0343 38.2635 81.1737 39.1327 81.1882 40.2111C81.2017 41.2653 82.0256 42.0729 83.0808 42.0661Z" fill="#00CE8B"></path><path d="M52.9359 43.1888C53.5796 43.1888 54.1116 43.1888 54.6859 43.1888C54.7081 43.4269 54.7437 43.6273 54.7437 43.8268C54.7476 46.0356 54.7649 48.2443 54.7399 50.4521C54.7119 52.8835 53.5681 54.0399 51.1589 54.0813C49.5033 54.1102 47.8477 54.0871 46.1487 54.0871C46.1487 53.4694 46.1487 52.9345 46.1487 52.3101C47.1432 52.3101 48.1396 52.3101 49.2296 52.3101C49.2296 49.5906 49.2296 46.9588 49.2296 44.2739C49.908 44.2739 50.493 44.2739 51.1868 44.2739C51.1868 46.9038 51.1868 49.5385 51.1868 52.1809C52.3567 52.0605 52.9205 51.41 52.9311 50.2073C52.9484 48.1807 52.9359 46.1541 52.9368 44.1275C52.9359 43.8451 52.9359 43.5618 52.9359 43.1888Z" fill="#00CE8B"></path><path d="M8.47551 61.5142C9.04987 61.5142 9.5876 61.5142 10.2236 61.5142C10.2236 62.5944 10.2101 63.6516 10.2284 64.7078C10.24 65.3901 10.4125 65.9924 11.1536 66.2603C12.3457 66.6911 13.2592 66.0666 13.3238 64.7444C13.3508 64.1999 13.3305 63.6535 13.3315 63.1081C13.3325 62.5935 13.3315 62.0798 13.3315 61.5161C13.9579 61.5161 14.5139 61.5161 15.1721 61.5161C15.1721 62.659 15.15 63.7701 15.1779 64.8793C15.2078 66.0637 16.2967 66.719 17.3847 66.2449C17.987 65.9827 18.2145 65.4971 18.2241 64.8764C18.2328 64.331 18.2376 63.7856 18.2395 63.2401C18.2424 62.6985 18.2405 62.1569 18.2405 61.5431C18.8418 61.5431 19.3959 61.5431 20.005 61.5431C20.005 62.8893 20.189 64.2857 19.9664 65.6156C19.5048 68.3727 16.184 68.9769 14.4658 67.4668C13.4895 67.7405 12.6242 68.1443 11.7366 68.1983C10.0155 68.3033 8.68945 67.1883 8.50249 65.4797C8.36372 64.2038 8.47551 62.899 8.47551 61.5142Z" fill="#00CE8B"></path><path d="M40.9949 70.8493C40.3705 70.8493 39.8375 70.8493 39.2988 70.8493C39.2988 68.547 39.1379 66.2583 39.348 64.0042C39.5263 62.099 41.312 61.1421 43.3309 61.5363C45.1127 61.8841 46.2566 63.6438 45.8875 65.4681C45.4895 67.4349 43.884 68.5316 41.9181 68.1741C41.6396 68.123 41.3659 68.044 40.994 67.9553C40.9949 68.9325 40.9949 69.8721 40.9949 70.8493ZM44.0893 64.9188C44.1221 63.9445 43.539 63.2988 42.6149 63.2853C41.7543 63.2728 41.0556 63.9214 41.019 64.7646C40.9795 65.7003 41.5886 66.3537 42.5224 66.3759C43.4244 66.398 44.0594 65.8073 44.0893 64.9188Z" fill="#00CE8B"></path><path d="M62.2297 54.2009C61.4385 54.0284 60.8526 53.879 60.258 53.7836C60.048 53.7499 59.8157 53.8462 59.595 53.8867C56.9333 54.383 54.9857 52.4797 55.4676 49.8508C55.7605 48.2511 57.1039 47.1891 58.8327 47.191C60.5076 47.193 61.8018 48.1779 62.0129 49.8094C62.1864 51.1643 62.1565 52.5453 62.2297 54.2009ZM58.72 49.0461C57.8247 49.0567 57.2388 49.6667 57.2311 50.5948C57.2234 51.4958 57.9201 52.18 58.8135 52.1482C59.7039 52.1174 60.3101 51.4891 60.311 50.5948C60.313 49.6976 59.6326 49.0355 58.72 49.0461Z" fill="#00CE8B"></path><path d="M36.8617 68.4082C36.1216 68.2405 35.5405 68.0796 34.9479 67.989C34.7089 67.9524 34.4458 68.068 34.1943 68.1152C31.5528 68.6125 29.5667 66.5396 30.1825 63.929C30.5525 62.3611 31.8863 61.3733 33.5765 61.4138C35.2852 61.4552 36.4898 62.4854 36.7413 64.1545C36.8184 64.6662 36.8454 65.1876 36.8569 65.7051C36.8762 66.5309 36.8617 67.3559 36.8617 68.4082ZM31.9229 64.8339C31.9277 65.7224 32.5589 66.3594 33.4397 66.3623C34.3639 66.3652 35.0144 65.7147 35.0057 64.7973C34.997 63.9223 34.2762 63.2371 33.3867 63.2602C32.5011 63.2814 31.9181 63.9088 31.9229 64.8339Z" fill="#00CE8B"></path><path d="M27.2355 68.3967C26.5629 68.2405 25.9818 68.0757 25.3891 67.9842C25.1511 67.9476 24.889 68.0748 24.6365 68.121C22.0076 68.6029 20.0224 66.4924 20.6632 63.8972C21.0525 62.3206 22.4749 61.3126 24.1604 61.4186C25.8873 61.5275 27.0746 62.5606 27.2143 64.2615C27.3213 65.547 27.2355 66.848 27.2355 68.3967ZM22.3988 64.8358C22.4007 65.7244 23.0319 66.3604 23.9147 66.3623C24.836 66.3642 25.4913 65.708 25.4807 64.7944C25.471 63.9194 24.7473 63.2361 23.8588 63.2602C22.9703 63.2834 22.3978 63.902 22.3988 64.8358Z" fill="#00CE8B"></path><path d="M48.6572 61.5305C49.2547 61.5305 49.8107 61.5305 50.4467 61.5305C50.4467 62.6908 50.4092 63.8019 50.4583 64.9101C50.4997 65.8565 51.0519 66.3537 51.9375 66.373C52.8511 66.3923 53.3773 65.9895 53.4698 65.0788C53.5459 64.3329 53.5161 63.5754 53.5276 62.8228C53.5344 62.4113 53.5286 61.9998 53.5286 61.5344C54.155 61.5344 54.7072 61.5344 55.2941 61.5344C55.2941 62.9346 55.4097 64.3156 55.2632 65.6695C55.0975 67.2066 53.678 68.2271 52.0214 68.2329C50.2463 68.2397 48.8971 67.2316 48.6871 65.4951C48.5309 64.1989 48.6572 62.8671 48.6572 61.5305Z" fill="#00CE8B"></path><path d="M46.0784 47.0309C46.0784 47.6188 46.0784 48.1555 46.0784 48.7116C45.7816 48.7675 45.5031 48.8166 45.2265 48.8744C44.4566 49.0334 43.9786 49.4729 43.888 50.2805C43.8764 50.3836 43.8388 50.4857 43.8398 50.5879C43.8437 53.0327 42.0705 54.4898 39.2026 54.0986C39.2026 53.5242 39.2026 52.9402 39.2026 52.2541C39.5379 52.2387 39.8887 52.2223 40.2395 52.2078C41.3342 52.1635 41.7949 51.7424 41.9163 50.6727C41.9308 50.5435 41.9365 50.4134 41.9529 50.2853C42.2546 47.9098 43.5815 46.8401 46.0784 47.0309Z" fill="#00CE8B"></path><path d="M55.5774 68.3582C55.5774 67.6595 55.5774 67.1054 55.5774 66.5715C55.6468 66.5397 55.6699 66.5224 55.694 66.5195C57.9269 66.2458 57.9269 66.2458 58.2844 64.0486C58.5668 62.3159 60.0768 61.3069 62.1035 61.5459C62.1035 62.0624 62.1035 62.5867 62.1035 63.1389C61.9907 63.1659 61.8953 63.1977 61.797 63.2112C60.444 63.3971 60.1096 63.7373 59.993 65.0797C59.8697 66.5118 59.303 67.6605 57.8401 68.0845C57.1415 68.2869 56.3773 68.2685 55.5774 68.3582Z" fill="#00CE8B"></path><path d="M27.7974 68.2475C27.7974 65.502 27.7974 62.7921 27.7974 60.0234C28.3583 60.0234 28.9124 60.0234 29.5234 60.0234C29.5234 62.7362 29.5234 65.4663 29.5234 68.2475C28.9558 68.2475 28.4017 68.2475 27.7974 68.2475Z" fill="#00CE8B"></path><path d="M46.4148 59.9666C46.8523 59.9666 47.2387 59.9646 47.6261 59.9675C47.7764 59.9685 47.9277 59.981 48.1234 59.9916C48.1234 62.7352 48.1234 65.4403 48.1234 68.1868C47.5509 68.1868 47.0151 68.1868 46.4148 68.1868C46.4148 65.4779 46.4148 62.7728 46.4148 59.9666Z" fill="#00CE8B"></path><path d="M33.6316 57.1496C33.0081 57.1418 32.5118 56.6205 32.5272 55.9874C32.5426 55.3494 33.0601 54.8637 33.6942 54.8917C34.3004 54.9196 34.7562 55.3995 34.7581 56.0114C34.7601 56.6552 34.2628 57.1573 33.6316 57.1496Z" fill="#00CE8B"></path></g><defs><clipPath id="clip0_106_5835"><rect width="104.078" height="104.078" fill="white" transform="translate(0.718933 0.961182)"></rect></clipPath></defs></svg>